G75*
%MOIN*%
%OFA0B0*%
%FSLAX25Y25*%
%IPPOS*%
%LPD*%
%AMOC8*
5,1,8,0,0,1.08239X$1,22.5*
%
%ADD10C,0.01300*%
%ADD11C,0.00600*%
%ADD12C,0.01100*%
%ADD13C,0.00400*%
%ADD14R,0.06693X0.02953*%
%ADD15C,0.01000*%
%ADD16C,0.00200*%
%ADD17C,0.00300*%
%ADD18R,0.04133X0.01182*%
%ADD19R,0.04133X0.01181*%
%ADD20R,0.01182X0.04133*%
%ADD21R,0.01181X0.04133*%
%ADD22R,0.01400X0.05600*%
%ADD23R,0.02000X0.02000*%
%ADD24R,0.05512X0.02559*%
%ADD25R,0.05600X0.01400*%
%ADD26C,0.00500*%
D10*
X0011032Y0152012D02*
X0015453Y0152012D01*
X0016337Y0152896D01*
X0016337Y0154664D01*
X0015453Y0155548D01*
X0011032Y0155548D01*
X0011032Y0158089D02*
X0016337Y0158089D01*
X0016337Y0161626D01*
X0016337Y0164166D02*
X0012801Y0164166D01*
X0011032Y0165935D01*
X0012801Y0167703D01*
X0016337Y0167703D01*
X0013685Y0167703D02*
X0013685Y0164166D01*
X0011917Y0176321D02*
X0015453Y0176321D01*
X0016337Y0177205D01*
X0016337Y0178973D01*
X0015453Y0179857D01*
X0016337Y0182398D02*
X0011032Y0182398D01*
X0011032Y0185050D01*
X0011917Y0185934D01*
X0013685Y0185934D01*
X0014569Y0185050D01*
X0014569Y0182398D01*
X0011917Y0179857D02*
X0011032Y0178973D01*
X0011032Y0177205D01*
X0011917Y0176321D01*
X0011032Y0188475D02*
X0016337Y0188475D01*
X0016337Y0192012D01*
X0016337Y0194552D02*
X0016337Y0197205D01*
X0015453Y0198089D01*
X0011917Y0198089D01*
X0011032Y0197205D01*
X0011032Y0194552D01*
X0016337Y0194552D01*
X0016337Y0206707D02*
X0012801Y0206707D01*
X0014569Y0206707D02*
X0012801Y0208475D01*
X0012801Y0209359D01*
X0013685Y0211771D02*
X0012801Y0212655D01*
X0012801Y0214423D01*
X0013685Y0215307D01*
X0014569Y0215307D01*
X0014569Y0211771D01*
X0015453Y0211771D02*
X0013685Y0211771D01*
X0015453Y0211771D02*
X0016337Y0212655D01*
X0016337Y0214423D01*
X0012801Y0217848D02*
X0016337Y0219616D01*
X0012801Y0221385D01*
X0011917Y0223925D02*
X0011032Y0224809D01*
X0011032Y0226578D01*
X0011917Y0227462D01*
X0012801Y0227462D01*
X0016337Y0223925D01*
X0016337Y0227462D01*
D11*
X0049812Y0224487D02*
X0055412Y0224487D01*
X0055412Y0219487D02*
X0049812Y0219487D01*
X0049812Y0215737D02*
X0055412Y0215737D01*
X0055412Y0210737D02*
X0049812Y0210737D01*
X0049812Y0206987D02*
X0055412Y0206987D01*
X0055412Y0201987D02*
X0049812Y0201987D01*
X0069812Y0201987D02*
X0075412Y0201987D01*
X0075412Y0206987D02*
X0069812Y0206987D01*
X0069812Y0210737D02*
X0075412Y0210737D01*
X0075412Y0215737D02*
X0069812Y0215737D01*
X0069812Y0219487D02*
X0075412Y0219487D01*
X0075412Y0224487D02*
X0069812Y0224487D01*
X0095159Y0223363D02*
X0095726Y0223931D01*
X0096293Y0223931D01*
X0096861Y0223363D01*
X0096861Y0221662D01*
X0098562Y0221662D02*
X0095159Y0221662D01*
X0095159Y0223363D01*
X0096861Y0223363D02*
X0097428Y0223931D01*
X0097995Y0223931D01*
X0098562Y0223363D01*
X0098562Y0221662D01*
X0100737Y0220737D02*
X0100737Y0225737D01*
X0103237Y0228237D01*
X0108237Y0228237D01*
X0110737Y0225737D01*
X0110737Y0220737D01*
X0108237Y0218237D01*
X0110737Y0215737D01*
X0110737Y0210737D01*
X0108237Y0208237D01*
X0110737Y0205737D01*
X0110737Y0200737D01*
X0108237Y0198237D01*
X0110737Y0195737D01*
X0110737Y0190737D01*
X0108237Y0188237D01*
X0110737Y0185737D01*
X0110737Y0180737D01*
X0108237Y0178237D01*
X0110737Y0175737D01*
X0110737Y0170737D01*
X0108237Y0168237D01*
X0103237Y0168237D01*
X0100737Y0170737D01*
X0100737Y0175737D01*
X0103237Y0178237D01*
X0100737Y0180737D01*
X0100737Y0185737D01*
X0103237Y0188237D01*
X0100737Y0190737D01*
X0100737Y0195737D01*
X0103237Y0198237D01*
X0100737Y0200737D01*
X0100737Y0205737D01*
X0103237Y0208237D01*
X0100737Y0210737D01*
X0100737Y0215737D01*
X0103237Y0218237D01*
X0100737Y0220737D01*
X0097995Y0214556D02*
X0096861Y0214556D01*
X0096861Y0213421D01*
X0097995Y0212287D02*
X0095726Y0212287D01*
X0095159Y0212854D01*
X0095159Y0213988D01*
X0095726Y0214556D01*
X0097995Y0214556D02*
X0098562Y0213988D01*
X0098562Y0212854D01*
X0097995Y0212287D01*
X0098562Y0204556D02*
X0097428Y0203421D01*
X0097428Y0203988D02*
X0097428Y0202287D01*
X0098562Y0202287D02*
X0095159Y0202287D01*
X0095159Y0203988D01*
X0095726Y0204556D01*
X0096861Y0204556D01*
X0097428Y0203988D01*
X0097995Y0197547D02*
X0098562Y0196980D01*
X0098562Y0195845D01*
X0097995Y0195278D01*
X0095726Y0195278D01*
X0095159Y0195845D01*
X0095159Y0196980D01*
X0095726Y0197547D01*
X0095159Y0193864D02*
X0098562Y0191595D01*
X0098562Y0190181D02*
X0095159Y0190181D01*
X0096861Y0190181D02*
X0096861Y0187912D01*
X0098562Y0187912D02*
X0095159Y0187912D01*
X0095159Y0184556D02*
X0097428Y0184556D01*
X0098562Y0183421D01*
X0097428Y0182287D01*
X0095159Y0182287D01*
X0095726Y0178172D02*
X0095159Y0177605D01*
X0095159Y0175903D01*
X0098562Y0175903D01*
X0098562Y0177605D01*
X0097995Y0178172D01*
X0095726Y0178172D01*
X0095159Y0174489D02*
X0098562Y0174489D01*
X0095159Y0172220D01*
X0098562Y0172220D01*
X0097995Y0170806D02*
X0096861Y0170806D01*
X0096861Y0169671D01*
X0097995Y0168537D02*
X0095726Y0168537D01*
X0095159Y0169104D01*
X0095159Y0170238D01*
X0095726Y0170806D01*
X0097995Y0170806D02*
X0098562Y0170238D01*
X0098562Y0169104D01*
X0097995Y0168537D01*
X0096362Y0157287D02*
X0096362Y0151687D01*
X0101362Y0151687D02*
X0101362Y0157287D01*
X0105112Y0157287D02*
X0105112Y0151687D01*
X0110112Y0151687D02*
X0110112Y0157287D01*
X0110112Y0124448D02*
X0110112Y0121219D01*
X0105112Y0121219D02*
X0105112Y0124448D01*
X0102747Y0124190D02*
X0102747Y0120787D01*
X0102747Y0122488D02*
X0100479Y0122488D01*
X0100479Y0120787D02*
X0100479Y0124190D01*
X0101046Y0117002D02*
X0100479Y0116435D01*
X0100479Y0115868D01*
X0101046Y0115301D01*
X0102180Y0115301D01*
X0102747Y0114734D01*
X0102747Y0114167D01*
X0102180Y0113600D01*
X0101046Y0113600D01*
X0100479Y0114167D01*
X0101046Y0117002D02*
X0102180Y0117002D01*
X0102747Y0116435D01*
X0067912Y0030737D02*
X0062312Y0030737D01*
X0062312Y0025737D02*
X0067912Y0025737D01*
X0062112Y0018237D02*
X0084112Y0018237D01*
X0062112Y0018237D02*
X0062110Y0018363D01*
X0062104Y0018488D01*
X0062094Y0018613D01*
X0062080Y0018738D01*
X0062063Y0018863D01*
X0062041Y0018987D01*
X0062016Y0019110D01*
X0061986Y0019232D01*
X0061953Y0019353D01*
X0061916Y0019473D01*
X0061876Y0019592D01*
X0061831Y0019709D01*
X0061783Y0019826D01*
X0061731Y0019940D01*
X0061676Y0020053D01*
X0061617Y0020164D01*
X0061555Y0020273D01*
X0061489Y0020380D01*
X0061420Y0020485D01*
X0061348Y0020588D01*
X0061273Y0020689D01*
X0061194Y0020787D01*
X0061112Y0020882D01*
X0061028Y0020975D01*
X0060940Y0021065D01*
X0060850Y0021153D01*
X0060757Y0021237D01*
X0060662Y0021319D01*
X0060564Y0021398D01*
X0060463Y0021473D01*
X0060360Y0021545D01*
X0060255Y0021614D01*
X0060148Y0021680D01*
X0060039Y0021742D01*
X0059928Y0021801D01*
X0059815Y0021856D01*
X0059701Y0021908D01*
X0059584Y0021956D01*
X0059467Y0022001D01*
X0059348Y0022041D01*
X0059228Y0022078D01*
X0059107Y0022111D01*
X0058985Y0022141D01*
X0058862Y0022166D01*
X0058738Y0022188D01*
X0058613Y0022205D01*
X0058488Y0022219D01*
X0058363Y0022229D01*
X0058238Y0022235D01*
X0058112Y0022237D01*
X0057986Y0022235D01*
X0057861Y0022229D01*
X0057736Y0022219D01*
X0057611Y0022205D01*
X0057486Y0022188D01*
X0057362Y0022166D01*
X0057239Y0022141D01*
X0057117Y0022111D01*
X0056996Y0022078D01*
X0056876Y0022041D01*
X0056757Y0022001D01*
X0056640Y0021956D01*
X0056523Y0021908D01*
X0056409Y0021856D01*
X0056296Y0021801D01*
X0056185Y0021742D01*
X0056076Y0021680D01*
X0055969Y0021614D01*
X0055864Y0021545D01*
X0055761Y0021473D01*
X0055660Y0021398D01*
X0055562Y0021319D01*
X0055467Y0021237D01*
X0055374Y0021153D01*
X0055284Y0021065D01*
X0055196Y0020975D01*
X0055112Y0020882D01*
X0055030Y0020787D01*
X0054951Y0020689D01*
X0054876Y0020588D01*
X0054804Y0020485D01*
X0054735Y0020380D01*
X0054669Y0020273D01*
X0054607Y0020164D01*
X0054548Y0020053D01*
X0054493Y0019940D01*
X0054441Y0019826D01*
X0054393Y0019709D01*
X0054348Y0019592D01*
X0054308Y0019473D01*
X0054271Y0019353D01*
X0054238Y0019232D01*
X0054208Y0019110D01*
X0054183Y0018987D01*
X0054161Y0018863D01*
X0054144Y0018738D01*
X0054130Y0018613D01*
X0054120Y0018488D01*
X0054114Y0018363D01*
X0054112Y0018237D01*
X0031112Y0018237D01*
X0029480Y0015690D02*
X0027778Y0015690D01*
X0027778Y0012287D01*
X0029480Y0012287D01*
X0030047Y0012854D01*
X0030047Y0015123D01*
X0029480Y0015690D01*
X0026364Y0015690D02*
X0026364Y0012287D01*
X0024095Y0015690D01*
X0024095Y0012287D01*
X0022681Y0012854D02*
X0022681Y0013988D01*
X0021546Y0013988D01*
X0020412Y0012854D02*
X0020979Y0012287D01*
X0022113Y0012287D01*
X0022681Y0012854D01*
X0022681Y0015123D02*
X0022113Y0015690D01*
X0020979Y0015690D01*
X0020412Y0015123D01*
X0020412Y0012854D01*
X0020412Y0023537D02*
X0021546Y0023537D01*
X0020979Y0023537D02*
X0020979Y0026940D01*
X0020412Y0026940D02*
X0021546Y0026940D01*
X0020412Y0033537D02*
X0020412Y0036940D01*
X0021546Y0035806D01*
X0022681Y0036940D01*
X0022681Y0033537D01*
X0021801Y0043537D02*
X0020667Y0043537D01*
X0020100Y0044104D01*
X0020100Y0046373D01*
X0020667Y0046940D01*
X0021801Y0046940D01*
X0022368Y0046373D01*
X0022368Y0044104D01*
X0021801Y0043537D01*
X0022113Y0052912D02*
X0020979Y0052912D01*
X0020412Y0053479D01*
X0020412Y0055748D01*
X0020979Y0056315D01*
X0022113Y0056315D01*
X0022681Y0055748D01*
X0022681Y0053479D02*
X0022113Y0052912D01*
D12*
X0094673Y0018092D02*
X0095657Y0018092D01*
X0097625Y0018092D02*
X0101562Y0018092D01*
X0101562Y0017108D02*
X0101562Y0019076D01*
X0100578Y0021405D02*
X0101562Y0022389D01*
X0101562Y0025341D01*
X0100578Y0027850D02*
X0098609Y0027850D01*
X0097625Y0028834D01*
X0097625Y0030803D01*
X0098609Y0031787D01*
X0099594Y0031787D01*
X0099594Y0027850D01*
X0100578Y0027850D02*
X0101562Y0028834D01*
X0101562Y0030803D01*
X0101562Y0034295D02*
X0097625Y0034295D01*
X0097625Y0037248D01*
X0098609Y0038232D01*
X0101562Y0038232D01*
X0101562Y0040741D02*
X0101562Y0043694D01*
X0100578Y0044678D01*
X0099594Y0043694D01*
X0099594Y0041725D01*
X0098609Y0040741D01*
X0097625Y0041725D01*
X0097625Y0044678D01*
X0098609Y0047186D02*
X0097625Y0048171D01*
X0097625Y0050139D01*
X0098609Y0051123D01*
X0099594Y0051123D01*
X0099594Y0047186D01*
X0100578Y0047186D02*
X0098609Y0047186D01*
X0100578Y0047186D02*
X0101562Y0048171D01*
X0101562Y0050139D01*
X0100578Y0053632D02*
X0098609Y0053632D01*
X0097625Y0054616D01*
X0097625Y0057569D01*
X0095657Y0057569D02*
X0101562Y0057569D01*
X0101562Y0054616D01*
X0100578Y0053632D01*
X0106157Y0053272D02*
X0112062Y0053272D01*
X0112062Y0055780D02*
X0112062Y0059717D01*
X0112062Y0055780D02*
X0106157Y0055780D01*
X0109109Y0053272D02*
X0109109Y0049335D01*
X0107141Y0046826D02*
X0106157Y0045842D01*
X0106157Y0043874D01*
X0107141Y0042889D01*
X0111078Y0042889D01*
X0112062Y0043874D01*
X0112062Y0045842D01*
X0111078Y0046826D01*
X0107141Y0046826D01*
X0106157Y0049335D02*
X0112062Y0049335D01*
X0112062Y0033935D02*
X0106157Y0033935D01*
X0106157Y0029998D02*
X0112062Y0033935D01*
X0112062Y0029998D02*
X0106157Y0029998D01*
X0107141Y0027490D02*
X0106157Y0026506D01*
X0106157Y0023553D01*
X0112062Y0023553D01*
X0110094Y0023553D02*
X0110094Y0026506D01*
X0109109Y0027490D01*
X0107141Y0027490D01*
X0110094Y0025521D02*
X0112062Y0027490D01*
X0112062Y0021044D02*
X0112062Y0017108D01*
X0106157Y0017108D01*
X0106157Y0021044D01*
X0109109Y0019076D02*
X0109109Y0017108D01*
X0107141Y0014599D02*
X0106157Y0013615D01*
X0106157Y0011646D01*
X0107141Y0010662D01*
X0111078Y0010662D01*
X0112062Y0011646D01*
X0112062Y0013615D01*
X0111078Y0014599D01*
X0101562Y0014599D02*
X0101562Y0010662D01*
X0095657Y0010662D01*
X0097625Y0017108D02*
X0097625Y0018092D01*
X0098609Y0021405D02*
X0100578Y0021405D01*
X0098609Y0021405D02*
X0097625Y0022389D01*
X0097625Y0025341D01*
X0097625Y0066523D02*
X0100578Y0066523D01*
X0101562Y0067507D01*
X0101562Y0070460D01*
X0097625Y0070460D01*
X0097625Y0072968D02*
X0097625Y0075921D01*
X0098609Y0076905D01*
X0101562Y0076905D01*
X0100578Y0079414D02*
X0098609Y0079414D01*
X0097625Y0080398D01*
X0097625Y0083351D01*
X0095657Y0083351D02*
X0101562Y0083351D01*
X0101562Y0080398D01*
X0100578Y0079414D01*
X0101562Y0072968D02*
X0097625Y0072968D01*
X0098609Y0085859D02*
X0097625Y0086844D01*
X0097625Y0088812D01*
X0098609Y0089796D01*
X0099594Y0089796D01*
X0099594Y0085859D01*
X0100578Y0085859D02*
X0098609Y0085859D01*
X0100578Y0085859D02*
X0101562Y0086844D01*
X0101562Y0088812D01*
X0101562Y0092305D02*
X0097625Y0092305D01*
X0097625Y0094273D02*
X0097625Y0095257D01*
X0097625Y0094273D02*
X0099594Y0092305D01*
X0106157Y0089976D02*
X0112062Y0089976D01*
X0112062Y0088008D02*
X0112062Y0091945D01*
X0108125Y0088008D02*
X0106157Y0089976D01*
X0111078Y0085769D02*
X0112062Y0085769D01*
X0112062Y0084785D01*
X0111078Y0084785D01*
X0111078Y0085769D01*
X0112062Y0082276D02*
X0112062Y0078340D01*
X0112062Y0080308D02*
X0106157Y0080308D01*
X0108125Y0078340D01*
X0111078Y0076101D02*
X0112062Y0076101D01*
X0112062Y0075117D01*
X0111078Y0075117D01*
X0111078Y0076101D01*
X0108125Y0072608D02*
X0112062Y0070640D01*
X0108125Y0068671D01*
D13*
X0067985Y0038041D02*
X0067985Y0037274D01*
X0064916Y0034204D01*
X0064916Y0033437D01*
X0063381Y0033437D02*
X0061847Y0034972D01*
X0062614Y0034972D02*
X0060312Y0034972D01*
X0060312Y0033437D02*
X0060312Y0038041D01*
X0062614Y0038041D01*
X0063381Y0037274D01*
X0063381Y0035739D01*
X0062614Y0034972D01*
X0064916Y0038041D02*
X0067985Y0038041D01*
X0014072Y0126454D02*
X0015039Y0127421D01*
X0014555Y0126938D02*
X0011654Y0129839D01*
X0011170Y0129356D02*
X0012137Y0130323D01*
X0013607Y0130825D02*
X0015541Y0128891D01*
X0016509Y0128891D01*
X0017476Y0129858D01*
X0017476Y0130825D01*
X0018955Y0131337D02*
X0020889Y0133272D01*
X0019922Y0132305D02*
X0017021Y0135206D01*
X0017021Y0133272D01*
X0015541Y0132760D02*
X0014574Y0132760D01*
X0013607Y0131793D01*
X0013607Y0130825D01*
X0047950Y0166562D02*
X0047183Y0167329D01*
X0047183Y0168864D01*
X0047950Y0169631D01*
X0048718Y0171166D02*
X0047183Y0172701D01*
X0051787Y0172701D01*
X0051787Y0174235D02*
X0051787Y0171166D01*
X0051020Y0169631D02*
X0051787Y0168864D01*
X0051787Y0167329D01*
X0051020Y0166562D01*
X0047950Y0166562D01*
X0053889Y0167563D02*
X0053889Y0175161D01*
X0060085Y0175161D02*
X0060085Y0167563D01*
D14*
X0056991Y0166139D03*
X0056983Y0176585D03*
D15*
X0056916Y0156515D02*
X0058308Y0156515D01*
X0095890Y0118933D01*
X0095890Y0117541D01*
X0058308Y0079959D01*
X0056916Y0079959D01*
X0020726Y0116149D01*
X0020726Y0120325D01*
X0056916Y0156515D01*
X0023221Y0118237D02*
X0023223Y0118299D01*
X0023229Y0118362D01*
X0023239Y0118423D01*
X0023253Y0118484D01*
X0023270Y0118544D01*
X0023291Y0118603D01*
X0023317Y0118660D01*
X0023345Y0118715D01*
X0023377Y0118769D01*
X0023413Y0118820D01*
X0023451Y0118870D01*
X0023493Y0118916D01*
X0023537Y0118960D01*
X0023585Y0119001D01*
X0023634Y0119039D01*
X0023686Y0119073D01*
X0023740Y0119104D01*
X0023796Y0119132D01*
X0023854Y0119156D01*
X0023913Y0119177D01*
X0023973Y0119193D01*
X0024034Y0119206D01*
X0024096Y0119215D01*
X0024158Y0119220D01*
X0024221Y0119221D01*
X0024283Y0119218D01*
X0024345Y0119211D01*
X0024407Y0119200D01*
X0024467Y0119185D01*
X0024527Y0119167D01*
X0024585Y0119145D01*
X0024642Y0119119D01*
X0024697Y0119089D01*
X0024750Y0119056D01*
X0024801Y0119020D01*
X0024849Y0118981D01*
X0024895Y0118938D01*
X0024938Y0118893D01*
X0024978Y0118845D01*
X0025015Y0118795D01*
X0025049Y0118742D01*
X0025080Y0118688D01*
X0025106Y0118632D01*
X0025130Y0118574D01*
X0025149Y0118514D01*
X0025165Y0118454D01*
X0025177Y0118392D01*
X0025185Y0118331D01*
X0025189Y0118268D01*
X0025189Y0118206D01*
X0025185Y0118143D01*
X0025177Y0118082D01*
X0025165Y0118020D01*
X0025149Y0117960D01*
X0025130Y0117900D01*
X0025106Y0117842D01*
X0025080Y0117786D01*
X0025049Y0117732D01*
X0025015Y0117679D01*
X0024978Y0117629D01*
X0024938Y0117581D01*
X0024895Y0117536D01*
X0024849Y0117493D01*
X0024801Y0117454D01*
X0024750Y0117418D01*
X0024697Y0117385D01*
X0024642Y0117355D01*
X0024585Y0117329D01*
X0024527Y0117307D01*
X0024467Y0117289D01*
X0024407Y0117274D01*
X0024345Y0117263D01*
X0024283Y0117256D01*
X0024221Y0117253D01*
X0024158Y0117254D01*
X0024096Y0117259D01*
X0024034Y0117268D01*
X0023973Y0117281D01*
X0023913Y0117297D01*
X0023854Y0117318D01*
X0023796Y0117342D01*
X0023740Y0117370D01*
X0023686Y0117401D01*
X0023634Y0117435D01*
X0023585Y0117473D01*
X0023537Y0117514D01*
X0023493Y0117558D01*
X0023451Y0117604D01*
X0023413Y0117654D01*
X0023377Y0117705D01*
X0023345Y0117759D01*
X0023317Y0117814D01*
X0023291Y0117871D01*
X0023270Y0117930D01*
X0023253Y0117990D01*
X0023239Y0118051D01*
X0023229Y0118112D01*
X0023223Y0118175D01*
X0023221Y0118237D01*
D16*
X0050418Y0114802D02*
X0051126Y0115509D01*
X0055368Y0113738D01*
X0052362Y0116745D01*
X0053069Y0117452D01*
X0056075Y0120459D01*
X0059079Y0123462D01*
X0059611Y0122580D02*
X0059079Y0122048D01*
X0059786Y0121341D01*
X0060318Y0121873D01*
X0060318Y0121872D02*
X0060347Y0121905D01*
X0060374Y0121939D01*
X0060397Y0121976D01*
X0060417Y0122015D01*
X0060434Y0122055D01*
X0060447Y0122097D01*
X0060456Y0122139D01*
X0060462Y0122182D01*
X0060464Y0122226D01*
X0060462Y0122270D01*
X0060456Y0122313D01*
X0060447Y0122355D01*
X0060434Y0122397D01*
X0060417Y0122437D01*
X0060397Y0122476D01*
X0060374Y0122513D01*
X0060347Y0122547D01*
X0060318Y0122580D01*
X0060285Y0122609D01*
X0060251Y0122636D01*
X0060214Y0122659D01*
X0060175Y0122679D01*
X0060135Y0122696D01*
X0060093Y0122709D01*
X0060051Y0122718D01*
X0060008Y0122724D01*
X0059964Y0122726D01*
X0059920Y0122724D01*
X0059877Y0122718D01*
X0059835Y0122709D01*
X0059793Y0122696D01*
X0059753Y0122679D01*
X0059714Y0122659D01*
X0059677Y0122636D01*
X0059643Y0122609D01*
X0059610Y0122580D01*
X0059079Y0123463D02*
X0059139Y0123511D01*
X0059202Y0123556D01*
X0059267Y0123598D01*
X0059334Y0123637D01*
X0059402Y0123672D01*
X0059473Y0123704D01*
X0059545Y0123732D01*
X0059618Y0123756D01*
X0059693Y0123777D01*
X0059768Y0123794D01*
X0059844Y0123807D01*
X0059921Y0123816D01*
X0059998Y0123821D01*
X0060075Y0123822D01*
X0060152Y0123819D01*
X0060229Y0123813D01*
X0060306Y0123802D01*
X0060382Y0123788D01*
X0060457Y0123769D01*
X0060531Y0123747D01*
X0060604Y0123721D01*
X0060675Y0123692D01*
X0060745Y0123659D01*
X0060813Y0123622D01*
X0060879Y0123582D01*
X0060943Y0123539D01*
X0061005Y0123492D01*
X0061064Y0123443D01*
X0061120Y0123390D01*
X0061174Y0123335D01*
X0061225Y0123277D01*
X0061273Y0123216D01*
X0061318Y0123153D01*
X0061360Y0123088D01*
X0061398Y0123021D01*
X0061433Y0122952D01*
X0061464Y0122882D01*
X0061491Y0122809D01*
X0061515Y0122736D01*
X0061535Y0122661D01*
X0061552Y0122586D01*
X0061564Y0122510D01*
X0061573Y0122433D01*
X0061577Y0122356D01*
X0061578Y0122278D01*
X0061575Y0122201D01*
X0061567Y0122124D01*
X0061556Y0122048D01*
X0061555Y0122050D02*
X0061610Y0122068D01*
X0061665Y0122083D01*
X0061722Y0122094D01*
X0061779Y0122101D01*
X0061836Y0122105D01*
X0061894Y0122105D01*
X0061951Y0122101D01*
X0062008Y0122093D01*
X0062065Y0122082D01*
X0062120Y0122067D01*
X0062175Y0122049D01*
X0062228Y0122028D01*
X0062280Y0122002D01*
X0062330Y0121974D01*
X0062378Y0121943D01*
X0062424Y0121908D01*
X0062468Y0121871D01*
X0062509Y0121830D01*
X0062548Y0121788D01*
X0062583Y0121743D01*
X0062616Y0121695D01*
X0062439Y0121873D02*
X0061025Y0125408D01*
X0061732Y0126115D01*
X0066860Y0123816D01*
X0066153Y0123109D01*
X0065092Y0123462D01*
X0063678Y0122048D01*
X0064032Y0120987D01*
X0062793Y0119749D01*
X0061554Y0120987D01*
X0061554Y0120988D02*
X0061521Y0121017D01*
X0061487Y0121044D01*
X0061450Y0121067D01*
X0061411Y0121087D01*
X0061371Y0121104D01*
X0061329Y0121117D01*
X0061287Y0121126D01*
X0061244Y0121132D01*
X0061200Y0121134D01*
X0061156Y0121132D01*
X0061113Y0121126D01*
X0061071Y0121117D01*
X0061029Y0121104D01*
X0060989Y0121087D01*
X0060950Y0121067D01*
X0060913Y0121044D01*
X0060879Y0121017D01*
X0060846Y0120988D01*
X0060847Y0120987D02*
X0060493Y0120634D01*
X0062086Y0119042D01*
X0058904Y0115860D01*
X0058728Y0115684D02*
X0055546Y0112502D01*
X0054486Y0112856D01*
X0053071Y0111442D01*
X0053425Y0110381D01*
X0052718Y0109674D01*
X0050418Y0114802D01*
X0051479Y0114448D02*
X0053600Y0113385D01*
X0052540Y0112324D01*
X0051479Y0114448D01*
X0053776Y0116745D02*
X0053069Y0117452D01*
X0053776Y0116745D02*
X0055015Y0117984D01*
X0057314Y0115684D01*
X0056075Y0114445D01*
X0053776Y0116745D01*
X0055722Y0118691D02*
X0058728Y0115684D01*
X0058904Y0117630D02*
X0058197Y0118337D01*
X0059611Y0119751D01*
X0060318Y0119044D01*
X0058904Y0117630D01*
X0057490Y0119044D02*
X0058904Y0120459D01*
X0058197Y0121166D01*
X0056782Y0119751D01*
X0057490Y0119044D01*
X0056782Y0119751D02*
X0055722Y0118691D01*
X0056782Y0119751D02*
X0056075Y0120459D01*
X0063146Y0122931D02*
X0062086Y0125055D01*
X0064207Y0123991D01*
X0063146Y0122931D01*
D17*
X0067484Y0118618D02*
X0067484Y0117933D01*
X0068853Y0116565D01*
X0068853Y0119302D01*
X0070221Y0117933D01*
X0070221Y0117249D01*
X0069537Y0116565D01*
X0068853Y0116565D01*
X0068479Y0115508D02*
X0067111Y0114140D01*
X0067795Y0114824D02*
X0065743Y0116876D01*
X0065743Y0115508D01*
X0067484Y0118618D02*
X0068168Y0119302D01*
X0068853Y0119302D01*
X0069568Y0120017D02*
X0069568Y0120701D01*
X0070252Y0121385D01*
X0070936Y0121385D01*
X0070936Y0118649D01*
X0071620Y0118649D01*
X0072304Y0119333D01*
X0072304Y0120017D01*
X0070936Y0121385D01*
X0069568Y0120017D02*
X0070936Y0118649D01*
X0063286Y0112367D02*
X0063286Y0111683D01*
X0062260Y0110657D01*
X0062944Y0109973D02*
X0060892Y0112025D01*
X0061918Y0113051D01*
X0062602Y0113051D01*
X0063286Y0112367D01*
X0060176Y0111310D02*
X0058808Y0109941D01*
X0060861Y0107889D01*
X0060145Y0107174D02*
X0058777Y0107174D01*
X0059803Y0107516D02*
X0058435Y0108884D01*
X0057751Y0108884D01*
X0057067Y0108200D01*
X0057067Y0107516D01*
X0058435Y0106148D01*
X0059119Y0106148D01*
X0059803Y0106832D01*
X0059803Y0107516D01*
X0059834Y0108915D02*
X0060519Y0109599D01*
X0057378Y0104406D02*
X0055325Y0106459D01*
X0056009Y0107143D02*
X0054641Y0105774D01*
X0097759Y0138521D02*
X0097759Y0140372D01*
X0098376Y0140989D01*
X0099610Y0140989D01*
X0100228Y0140372D01*
X0100228Y0138521D01*
X0101462Y0138521D02*
X0097759Y0138521D01*
X0100228Y0139755D02*
X0101462Y0140989D01*
X0100845Y0142204D02*
X0100228Y0142204D01*
X0099610Y0142821D01*
X0099610Y0144055D01*
X0100228Y0144673D01*
X0100845Y0144673D01*
X0101462Y0144055D01*
X0101462Y0142821D01*
X0100845Y0142204D01*
X0099610Y0142821D02*
X0098993Y0142204D01*
X0098376Y0142204D01*
X0097759Y0142821D01*
X0097759Y0144055D01*
X0098376Y0144673D01*
X0098993Y0144673D01*
X0099610Y0144055D01*
X0107759Y0144055D02*
X0107759Y0142821D01*
X0108376Y0142204D01*
X0108993Y0142204D01*
X0109610Y0142821D01*
X0109610Y0144673D01*
X0108376Y0144673D02*
X0110845Y0144673D01*
X0111462Y0144055D01*
X0111462Y0142821D01*
X0110845Y0142204D01*
X0111462Y0140989D02*
X0110228Y0139755D01*
X0110228Y0140372D02*
X0110228Y0138521D01*
X0111462Y0138521D02*
X0107759Y0138521D01*
X0107759Y0140372D01*
X0108376Y0140989D01*
X0109610Y0140989D01*
X0110228Y0140372D01*
X0107759Y0144055D02*
X0108376Y0144673D01*
X0083922Y0195887D02*
X0082687Y0195887D01*
X0082070Y0196504D01*
X0082070Y0197739D01*
X0083922Y0197739D01*
X0084539Y0197121D01*
X0084539Y0196504D01*
X0083922Y0195887D01*
X0082070Y0197739D02*
X0083305Y0198973D01*
X0084539Y0199590D01*
X0080856Y0198973D02*
X0080856Y0197739D01*
X0080239Y0197121D01*
X0078387Y0197121D01*
X0078387Y0195887D02*
X0078387Y0199590D01*
X0080239Y0199590D01*
X0080856Y0198973D01*
X0079621Y0197121D02*
X0080856Y0195887D01*
X0080634Y0210262D02*
X0080634Y0212114D01*
X0081251Y0212731D01*
X0082485Y0212731D01*
X0083103Y0212114D01*
X0083103Y0210262D01*
X0084337Y0210262D02*
X0080634Y0210262D01*
X0080634Y0213945D02*
X0082485Y0213945D01*
X0081868Y0215180D01*
X0081868Y0215797D01*
X0082485Y0216414D01*
X0083720Y0216414D01*
X0084337Y0215797D01*
X0084337Y0214562D01*
X0083720Y0213945D01*
X0084337Y0212731D02*
X0083103Y0211496D01*
X0080634Y0213945D02*
X0080634Y0216414D01*
X0075797Y0226512D02*
X0075797Y0230215D01*
X0073945Y0228364D01*
X0076414Y0228364D01*
X0072731Y0228364D02*
X0072114Y0227746D01*
X0070262Y0227746D01*
X0070262Y0226512D02*
X0070262Y0230215D01*
X0072114Y0230215D01*
X0072731Y0229598D01*
X0072731Y0228364D01*
X0071496Y0227746D02*
X0072731Y0226512D01*
X0042798Y0223723D02*
X0042798Y0221254D01*
X0042180Y0220637D01*
X0040946Y0220637D01*
X0040329Y0221254D01*
X0042798Y0223723D01*
X0042180Y0224340D01*
X0040946Y0224340D01*
X0040329Y0223723D01*
X0040329Y0221254D01*
X0039114Y0220637D02*
X0036646Y0220637D01*
X0035431Y0220637D02*
X0034197Y0221871D01*
X0034814Y0221871D02*
X0032963Y0221871D01*
X0032963Y0220637D02*
X0032963Y0224340D01*
X0034814Y0224340D01*
X0035431Y0223723D01*
X0035431Y0222489D01*
X0034814Y0221871D01*
X0036646Y0223106D02*
X0037880Y0224340D01*
X0037880Y0220637D01*
X0037880Y0215590D02*
X0037880Y0211887D01*
X0036646Y0211887D02*
X0039114Y0211887D01*
X0040329Y0211887D02*
X0042798Y0211887D01*
X0041563Y0211887D02*
X0041563Y0215590D01*
X0040329Y0214356D01*
X0037880Y0215590D02*
X0036646Y0214356D01*
X0035431Y0214973D02*
X0035431Y0213739D01*
X0034814Y0213121D01*
X0032963Y0213121D01*
X0034197Y0213121D02*
X0035431Y0211887D01*
X0032963Y0211887D02*
X0032963Y0215590D01*
X0034814Y0215590D01*
X0035431Y0214973D01*
X0034814Y0206840D02*
X0032963Y0206840D01*
X0032963Y0203137D01*
X0032963Y0204371D02*
X0034814Y0204371D01*
X0035431Y0204989D01*
X0035431Y0206223D01*
X0034814Y0206840D01*
X0036646Y0205606D02*
X0037880Y0206840D01*
X0037880Y0203137D01*
X0036646Y0203137D02*
X0039114Y0203137D01*
X0040329Y0203137D02*
X0042798Y0205606D01*
X0042798Y0206223D01*
X0042180Y0206840D01*
X0040946Y0206840D01*
X0040329Y0206223D01*
X0040329Y0203137D02*
X0042798Y0203137D01*
X0035431Y0203137D02*
X0034197Y0204371D01*
D18*
G36*
X0064153Y0157349D02*
X0061233Y0154429D01*
X0060397Y0155265D01*
X0063317Y0158185D01*
X0064153Y0157349D01*
G37*
G36*
X0066937Y0154565D02*
X0064017Y0151645D01*
X0063181Y0152481D01*
X0066101Y0155401D01*
X0066937Y0154565D01*
G37*
G36*
X0069721Y0151781D02*
X0066801Y0148861D01*
X0065965Y0149697D01*
X0068885Y0152617D01*
X0069721Y0151781D01*
G37*
G36*
X0072505Y0148997D02*
X0069585Y0146077D01*
X0068749Y0146913D01*
X0071669Y0149833D01*
X0072505Y0148997D01*
G37*
G36*
X0075289Y0146213D02*
X0072369Y0143293D01*
X0071533Y0144129D01*
X0074453Y0147049D01*
X0075289Y0146213D01*
G37*
G36*
X0078072Y0143429D02*
X0075152Y0140509D01*
X0074316Y0141345D01*
X0077236Y0144265D01*
X0078072Y0143429D01*
G37*
G36*
X0080856Y0140645D02*
X0077936Y0137725D01*
X0077100Y0138561D01*
X0080020Y0141481D01*
X0080856Y0140645D01*
G37*
G36*
X0083640Y0137861D02*
X0080720Y0134941D01*
X0079884Y0135777D01*
X0082804Y0138697D01*
X0083640Y0137861D01*
G37*
G36*
X0086424Y0135078D02*
X0083504Y0132158D01*
X0082668Y0132994D01*
X0085588Y0135914D01*
X0086424Y0135078D01*
G37*
G36*
X0089208Y0132294D02*
X0086288Y0129374D01*
X0085452Y0130210D01*
X0088372Y0133130D01*
X0089208Y0132294D01*
G37*
G36*
X0091992Y0129510D02*
X0089072Y0126590D01*
X0088236Y0127426D01*
X0091156Y0130346D01*
X0091992Y0129510D01*
G37*
G36*
X0094776Y0126726D02*
X0091856Y0123806D01*
X0091020Y0124642D01*
X0093940Y0127562D01*
X0094776Y0126726D01*
G37*
G36*
X0097560Y0123942D02*
X0094640Y0121022D01*
X0093804Y0121858D01*
X0096724Y0124778D01*
X0097560Y0123942D01*
G37*
G36*
X0054827Y0081209D02*
X0051907Y0078289D01*
X0051071Y0079125D01*
X0053991Y0082045D01*
X0054827Y0081209D01*
G37*
G36*
X0052043Y0083993D02*
X0049123Y0081073D01*
X0048287Y0081909D01*
X0051207Y0084829D01*
X0052043Y0083993D01*
G37*
G36*
X0049259Y0086777D02*
X0046339Y0083857D01*
X0045503Y0084693D01*
X0048423Y0087613D01*
X0049259Y0086777D01*
G37*
G36*
X0046475Y0089561D02*
X0043555Y0086641D01*
X0042719Y0087477D01*
X0045639Y0090397D01*
X0046475Y0089561D01*
G37*
G36*
X0043691Y0092345D02*
X0040771Y0089425D01*
X0039935Y0090261D01*
X0042855Y0093181D01*
X0043691Y0092345D01*
G37*
G36*
X0040908Y0095129D02*
X0037988Y0092209D01*
X0037152Y0093045D01*
X0040072Y0095965D01*
X0040908Y0095129D01*
G37*
G36*
X0038124Y0097913D02*
X0035204Y0094993D01*
X0034368Y0095829D01*
X0037288Y0098749D01*
X0038124Y0097913D01*
G37*
G36*
X0035340Y0100697D02*
X0032420Y0097777D01*
X0031584Y0098613D01*
X0034504Y0101533D01*
X0035340Y0100697D01*
G37*
G36*
X0032556Y0103480D02*
X0029636Y0100560D01*
X0028800Y0101396D01*
X0031720Y0104316D01*
X0032556Y0103480D01*
G37*
G36*
X0029772Y0106264D02*
X0026852Y0103344D01*
X0026016Y0104180D01*
X0028936Y0107100D01*
X0029772Y0106264D01*
G37*
G36*
X0026988Y0109048D02*
X0024068Y0106128D01*
X0023232Y0106964D01*
X0026152Y0109884D01*
X0026988Y0109048D01*
G37*
G36*
X0024204Y0111832D02*
X0021284Y0108912D01*
X0020448Y0109748D01*
X0023368Y0112668D01*
X0024204Y0111832D01*
G37*
G36*
X0021420Y0114616D02*
X0018500Y0111696D01*
X0017664Y0112532D01*
X0020584Y0115452D01*
X0021420Y0114616D01*
G37*
D19*
G36*
X0022812Y0113225D02*
X0019891Y0110304D01*
X0019056Y0111139D01*
X0021977Y0114060D01*
X0022812Y0113225D01*
G37*
G36*
X0025596Y0110441D02*
X0022675Y0107520D01*
X0021840Y0108355D01*
X0024761Y0111276D01*
X0025596Y0110441D01*
G37*
G36*
X0028380Y0107657D02*
X0025459Y0104736D01*
X0024624Y0105571D01*
X0027545Y0108492D01*
X0028380Y0107657D01*
G37*
G36*
X0031164Y0104873D02*
X0028243Y0101952D01*
X0027408Y0102787D01*
X0030329Y0105708D01*
X0031164Y0104873D01*
G37*
G36*
X0033948Y0102090D02*
X0031027Y0099169D01*
X0030192Y0100004D01*
X0033113Y0102925D01*
X0033948Y0102090D01*
G37*
G36*
X0036732Y0099306D02*
X0033811Y0096385D01*
X0032976Y0097220D01*
X0035897Y0100141D01*
X0036732Y0099306D01*
G37*
G36*
X0039516Y0096522D02*
X0036595Y0093601D01*
X0035760Y0094436D01*
X0038681Y0097357D01*
X0039516Y0096522D01*
G37*
G36*
X0042300Y0093738D02*
X0039379Y0090817D01*
X0038544Y0091652D01*
X0041465Y0094573D01*
X0042300Y0093738D01*
G37*
G36*
X0045083Y0090954D02*
X0042162Y0088033D01*
X0041327Y0088868D01*
X0044248Y0091789D01*
X0045083Y0090954D01*
G37*
G36*
X0047867Y0088170D02*
X0044946Y0085249D01*
X0044111Y0086084D01*
X0047032Y0089005D01*
X0047867Y0088170D01*
G37*
G36*
X0050651Y0085386D02*
X0047730Y0082465D01*
X0046895Y0083300D01*
X0049816Y0086221D01*
X0050651Y0085386D01*
G37*
G36*
X0053435Y0082602D02*
X0050514Y0079681D01*
X0049679Y0080516D01*
X0052600Y0083437D01*
X0053435Y0082602D01*
G37*
G36*
X0087816Y0133687D02*
X0084895Y0130766D01*
X0084060Y0131601D01*
X0086981Y0134522D01*
X0087816Y0133687D01*
G37*
G36*
X0090600Y0130903D02*
X0087679Y0127982D01*
X0086844Y0128817D01*
X0089765Y0131738D01*
X0090600Y0130903D01*
G37*
G36*
X0093384Y0128119D02*
X0090463Y0125198D01*
X0089628Y0126033D01*
X0092549Y0128954D01*
X0093384Y0128119D01*
G37*
G36*
X0096168Y0125335D02*
X0093247Y0122414D01*
X0092412Y0123249D01*
X0095333Y0126170D01*
X0096168Y0125335D01*
G37*
G36*
X0085032Y0136470D02*
X0082111Y0133549D01*
X0081276Y0134384D01*
X0084197Y0137305D01*
X0085032Y0136470D01*
G37*
G36*
X0082248Y0139254D02*
X0079327Y0136333D01*
X0078492Y0137168D01*
X0081413Y0140089D01*
X0082248Y0139254D01*
G37*
G36*
X0079464Y0142038D02*
X0076543Y0139117D01*
X0075708Y0139952D01*
X0078629Y0142873D01*
X0079464Y0142038D01*
G37*
G36*
X0076680Y0144822D02*
X0073759Y0141901D01*
X0072924Y0142736D01*
X0075845Y0145657D01*
X0076680Y0144822D01*
G37*
G36*
X0073897Y0147606D02*
X0070976Y0144685D01*
X0070141Y0145520D01*
X0073062Y0148441D01*
X0073897Y0147606D01*
G37*
G36*
X0071113Y0150390D02*
X0068192Y0147469D01*
X0067357Y0148304D01*
X0070278Y0151225D01*
X0071113Y0150390D01*
G37*
G36*
X0068329Y0153174D02*
X0065408Y0150253D01*
X0064573Y0151088D01*
X0067494Y0154009D01*
X0068329Y0153174D01*
G37*
G36*
X0065545Y0155958D02*
X0062624Y0153037D01*
X0061789Y0153872D01*
X0064710Y0156793D01*
X0065545Y0155958D01*
G37*
D20*
G36*
X0054827Y0155265D02*
X0053991Y0154429D01*
X0051071Y0157349D01*
X0051907Y0158185D01*
X0054827Y0155265D01*
G37*
G36*
X0052043Y0152481D02*
X0051207Y0151645D01*
X0048287Y0154565D01*
X0049123Y0155401D01*
X0052043Y0152481D01*
G37*
G36*
X0049259Y0149697D02*
X0048423Y0148861D01*
X0045503Y0151781D01*
X0046339Y0152617D01*
X0049259Y0149697D01*
G37*
G36*
X0046475Y0146913D02*
X0045639Y0146077D01*
X0042719Y0148997D01*
X0043555Y0149833D01*
X0046475Y0146913D01*
G37*
G36*
X0043691Y0144129D02*
X0042855Y0143293D01*
X0039935Y0146213D01*
X0040771Y0147049D01*
X0043691Y0144129D01*
G37*
G36*
X0040908Y0141345D02*
X0040072Y0140509D01*
X0037152Y0143429D01*
X0037988Y0144265D01*
X0040908Y0141345D01*
G37*
G36*
X0038124Y0138561D02*
X0037288Y0137725D01*
X0034368Y0140645D01*
X0035204Y0141481D01*
X0038124Y0138561D01*
G37*
G36*
X0035340Y0135777D02*
X0034504Y0134941D01*
X0031584Y0137861D01*
X0032420Y0138697D01*
X0035340Y0135777D01*
G37*
G36*
X0032556Y0132994D02*
X0031720Y0132158D01*
X0028800Y0135078D01*
X0029636Y0135914D01*
X0032556Y0132994D01*
G37*
G36*
X0029772Y0130210D02*
X0028936Y0129374D01*
X0026016Y0132294D01*
X0026852Y0133130D01*
X0029772Y0130210D01*
G37*
G36*
X0026988Y0127426D02*
X0026152Y0126590D01*
X0023232Y0129510D01*
X0024068Y0130346D01*
X0026988Y0127426D01*
G37*
G36*
X0024204Y0124642D02*
X0023368Y0123806D01*
X0020448Y0126726D01*
X0021284Y0127562D01*
X0024204Y0124642D01*
G37*
G36*
X0021420Y0121858D02*
X0020584Y0121022D01*
X0017664Y0123942D01*
X0018500Y0124778D01*
X0021420Y0121858D01*
G37*
G36*
X0064153Y0079125D02*
X0063317Y0078289D01*
X0060397Y0081209D01*
X0061233Y0082045D01*
X0064153Y0079125D01*
G37*
G36*
X0066937Y0081909D02*
X0066101Y0081073D01*
X0063181Y0083993D01*
X0064017Y0084829D01*
X0066937Y0081909D01*
G37*
G36*
X0069721Y0084693D02*
X0068885Y0083857D01*
X0065965Y0086777D01*
X0066801Y0087613D01*
X0069721Y0084693D01*
G37*
G36*
X0072505Y0087477D02*
X0071669Y0086641D01*
X0068749Y0089561D01*
X0069585Y0090397D01*
X0072505Y0087477D01*
G37*
G36*
X0075289Y0090261D02*
X0074453Y0089425D01*
X0071533Y0092345D01*
X0072369Y0093181D01*
X0075289Y0090261D01*
G37*
G36*
X0078072Y0093045D02*
X0077236Y0092209D01*
X0074316Y0095129D01*
X0075152Y0095965D01*
X0078072Y0093045D01*
G37*
G36*
X0080856Y0095829D02*
X0080020Y0094993D01*
X0077100Y0097913D01*
X0077936Y0098749D01*
X0080856Y0095829D01*
G37*
G36*
X0083640Y0098613D02*
X0082804Y0097777D01*
X0079884Y0100697D01*
X0080720Y0101533D01*
X0083640Y0098613D01*
G37*
G36*
X0086424Y0101396D02*
X0085588Y0100560D01*
X0082668Y0103480D01*
X0083504Y0104316D01*
X0086424Y0101396D01*
G37*
G36*
X0089208Y0104180D02*
X0088372Y0103344D01*
X0085452Y0106264D01*
X0086288Y0107100D01*
X0089208Y0104180D01*
G37*
G36*
X0091992Y0106964D02*
X0091156Y0106128D01*
X0088236Y0109048D01*
X0089072Y0109884D01*
X0091992Y0106964D01*
G37*
G36*
X0094776Y0109748D02*
X0093940Y0108912D01*
X0091020Y0111832D01*
X0091856Y0112668D01*
X0094776Y0109748D01*
G37*
G36*
X0097560Y0112532D02*
X0096724Y0111696D01*
X0093804Y0114616D01*
X0094640Y0115452D01*
X0097560Y0112532D01*
G37*
D21*
G36*
X0096168Y0111139D02*
X0095333Y0110304D01*
X0092412Y0113225D01*
X0093247Y0114060D01*
X0096168Y0111139D01*
G37*
G36*
X0093384Y0108355D02*
X0092549Y0107520D01*
X0089628Y0110441D01*
X0090463Y0111276D01*
X0093384Y0108355D01*
G37*
G36*
X0090600Y0105571D02*
X0089765Y0104736D01*
X0086844Y0107657D01*
X0087679Y0108492D01*
X0090600Y0105571D01*
G37*
G36*
X0087816Y0102787D02*
X0086981Y0101952D01*
X0084060Y0104873D01*
X0084895Y0105708D01*
X0087816Y0102787D01*
G37*
G36*
X0085032Y0100004D02*
X0084197Y0099169D01*
X0081276Y0102090D01*
X0082111Y0102925D01*
X0085032Y0100004D01*
G37*
G36*
X0082248Y0097220D02*
X0081413Y0096385D01*
X0078492Y0099306D01*
X0079327Y0100141D01*
X0082248Y0097220D01*
G37*
G36*
X0079464Y0094436D02*
X0078629Y0093601D01*
X0075708Y0096522D01*
X0076543Y0097357D01*
X0079464Y0094436D01*
G37*
G36*
X0076680Y0091652D02*
X0075845Y0090817D01*
X0072924Y0093738D01*
X0073759Y0094573D01*
X0076680Y0091652D01*
G37*
G36*
X0073897Y0088868D02*
X0073062Y0088033D01*
X0070141Y0090954D01*
X0070976Y0091789D01*
X0073897Y0088868D01*
G37*
G36*
X0071113Y0086084D02*
X0070278Y0085249D01*
X0067357Y0088170D01*
X0068192Y0089005D01*
X0071113Y0086084D01*
G37*
G36*
X0068329Y0083300D02*
X0067494Y0082465D01*
X0064573Y0085386D01*
X0065408Y0086221D01*
X0068329Y0083300D01*
G37*
G36*
X0065545Y0080516D02*
X0064710Y0079681D01*
X0061789Y0082602D01*
X0062624Y0083437D01*
X0065545Y0080516D01*
G37*
G36*
X0033948Y0134384D02*
X0033113Y0133549D01*
X0030192Y0136470D01*
X0031027Y0137305D01*
X0033948Y0134384D01*
G37*
G36*
X0036732Y0137168D02*
X0035897Y0136333D01*
X0032976Y0139254D01*
X0033811Y0140089D01*
X0036732Y0137168D01*
G37*
G36*
X0039516Y0139952D02*
X0038681Y0139117D01*
X0035760Y0142038D01*
X0036595Y0142873D01*
X0039516Y0139952D01*
G37*
G36*
X0042300Y0142736D02*
X0041465Y0141901D01*
X0038544Y0144822D01*
X0039379Y0145657D01*
X0042300Y0142736D01*
G37*
G36*
X0045083Y0145520D02*
X0044248Y0144685D01*
X0041327Y0147606D01*
X0042162Y0148441D01*
X0045083Y0145520D01*
G37*
G36*
X0047867Y0148304D02*
X0047032Y0147469D01*
X0044111Y0150390D01*
X0044946Y0151225D01*
X0047867Y0148304D01*
G37*
G36*
X0050651Y0151088D02*
X0049816Y0150253D01*
X0046895Y0153174D01*
X0047730Y0154009D01*
X0050651Y0151088D01*
G37*
G36*
X0053435Y0153872D02*
X0052600Y0153037D01*
X0049679Y0155958D01*
X0050514Y0156793D01*
X0053435Y0153872D01*
G37*
G36*
X0031164Y0131601D02*
X0030329Y0130766D01*
X0027408Y0133687D01*
X0028243Y0134522D01*
X0031164Y0131601D01*
G37*
G36*
X0028380Y0128817D02*
X0027545Y0127982D01*
X0024624Y0130903D01*
X0025459Y0131738D01*
X0028380Y0128817D01*
G37*
G36*
X0025596Y0126033D02*
X0024761Y0125198D01*
X0021840Y0128119D01*
X0022675Y0128954D01*
X0025596Y0126033D01*
G37*
G36*
X0022812Y0123249D02*
X0021977Y0122414D01*
X0019056Y0125335D01*
X0019891Y0126170D01*
X0022812Y0123249D01*
G37*
D22*
X0049212Y0204487D03*
X0056012Y0204487D03*
X0056012Y0213237D03*
X0049212Y0213237D03*
X0049212Y0221987D03*
X0056012Y0221987D03*
X0069212Y0221987D03*
X0076012Y0221987D03*
X0076012Y0213237D03*
X0069212Y0213237D03*
X0069212Y0204487D03*
X0076012Y0204487D03*
X0068512Y0028237D03*
X0061712Y0028237D03*
D23*
X0015112Y0014487D03*
X0015112Y0024487D03*
X0015112Y0034487D03*
X0015112Y0044487D03*
X0015112Y0054487D03*
X0105737Y0173237D03*
X0105737Y0183237D03*
X0105737Y0193237D03*
X0105737Y0203237D03*
X0105737Y0213237D03*
X0105737Y0223237D03*
D24*
X0107618Y0125754D03*
X0107618Y0119954D03*
D25*
X0107612Y0151087D03*
X0107612Y0157887D03*
X0098862Y0157887D03*
X0098862Y0151087D03*
D26*
X0017112Y0077676D02*
X0017112Y0076174D01*
X0016361Y0075424D01*
X0013359Y0075424D01*
X0012608Y0076174D01*
X0012608Y0077676D01*
X0013359Y0078426D01*
X0014860Y0078426D02*
X0014860Y0076925D01*
X0014860Y0078426D02*
X0016361Y0078426D01*
X0017112Y0077676D01*
X0017112Y0073822D02*
X0014109Y0073822D01*
X0012608Y0072321D01*
X0014109Y0070820D01*
X0017112Y0070820D01*
X0014860Y0070820D02*
X0014860Y0073822D01*
X0012608Y0069218D02*
X0012608Y0066216D01*
X0012608Y0067717D02*
X0017112Y0067717D01*
X0016361Y0063864D02*
X0012608Y0063864D01*
X0012608Y0063113D02*
X0012608Y0064615D01*
X0016361Y0063864D02*
X0017112Y0063113D01*
X0017112Y0062363D01*
X0016361Y0061612D01*
M02*
