G75*
%MOIN*%
%OFA0B0*%
%FSLAX25Y25*%
%IPPOS*%
%LPD*%
%AMOC8*
5,1,8,0,0,1.08239X$1,22.5*
%
%ADD10R,0.07487X0.06699*%
%ADD11R,0.06306X0.01384*%
%ADD12R,0.01384X0.06306*%
%ADD13R,0.06100X0.06100*%
%ADD14OC8,0.06100*%
%ADD15R,0.05518X0.06699*%
%ADD16R,0.07000X0.07000*%
%ADD17OC8,0.07000*%
%ADD18R,0.06306X0.05518*%
%ADD19R,0.06699X0.05518*%
D10*
X0056987Y0165850D03*
X0056987Y0176874D03*
D11*
G36*
X0065898Y0158951D02*
X0061440Y0154493D01*
X0060462Y0155471D01*
X0064920Y0159929D01*
X0065898Y0158951D01*
G37*
G36*
X0067290Y0157559D02*
X0062832Y0153101D01*
X0061854Y0154079D01*
X0066312Y0158537D01*
X0067290Y0157559D01*
G37*
G36*
X0068682Y0156168D02*
X0064224Y0151710D01*
X0063246Y0152688D01*
X0067704Y0157146D01*
X0068682Y0156168D01*
G37*
G36*
X0070074Y0154776D02*
X0065616Y0150318D01*
X0064638Y0151296D01*
X0069096Y0155754D01*
X0070074Y0154776D01*
G37*
G36*
X0071466Y0153384D02*
X0067008Y0148926D01*
X0066030Y0149904D01*
X0070488Y0154362D01*
X0071466Y0153384D01*
G37*
G36*
X0072857Y0151992D02*
X0068399Y0147534D01*
X0067421Y0148512D01*
X0071879Y0152970D01*
X0072857Y0151992D01*
G37*
G36*
X0074249Y0150600D02*
X0069791Y0146142D01*
X0068813Y0147120D01*
X0073271Y0151578D01*
X0074249Y0150600D01*
G37*
G36*
X0075641Y0149208D02*
X0071183Y0144750D01*
X0070205Y0145728D01*
X0074663Y0150186D01*
X0075641Y0149208D01*
G37*
G36*
X0077033Y0147816D02*
X0072575Y0143358D01*
X0071597Y0144336D01*
X0076055Y0148794D01*
X0077033Y0147816D01*
G37*
G36*
X0078425Y0146424D02*
X0073967Y0141966D01*
X0072989Y0142944D01*
X0077447Y0147402D01*
X0078425Y0146424D01*
G37*
G36*
X0079817Y0145032D02*
X0075359Y0140574D01*
X0074381Y0141552D01*
X0078839Y0146010D01*
X0079817Y0145032D01*
G37*
G36*
X0081209Y0143640D02*
X0076751Y0139182D01*
X0075773Y0140160D01*
X0080231Y0144618D01*
X0081209Y0143640D01*
G37*
G36*
X0082601Y0142248D02*
X0078143Y0137790D01*
X0077165Y0138768D01*
X0081623Y0143226D01*
X0082601Y0142248D01*
G37*
G36*
X0083993Y0140856D02*
X0079535Y0136398D01*
X0078557Y0137376D01*
X0083015Y0141834D01*
X0083993Y0140856D01*
G37*
G36*
X0085385Y0139464D02*
X0080927Y0135006D01*
X0079949Y0135984D01*
X0084407Y0140442D01*
X0085385Y0139464D01*
G37*
G36*
X0086777Y0138072D02*
X0082319Y0133614D01*
X0081341Y0134592D01*
X0085799Y0139050D01*
X0086777Y0138072D01*
G37*
G36*
X0088169Y0136680D02*
X0083711Y0132222D01*
X0082733Y0133200D01*
X0087191Y0137658D01*
X0088169Y0136680D01*
G37*
G36*
X0089561Y0135288D02*
X0085103Y0130830D01*
X0084125Y0131808D01*
X0088583Y0136266D01*
X0089561Y0135288D01*
G37*
G36*
X0090953Y0133896D02*
X0086495Y0129438D01*
X0085517Y0130416D01*
X0089975Y0134874D01*
X0090953Y0133896D01*
G37*
G36*
X0092345Y0132504D02*
X0087887Y0128046D01*
X0086909Y0129024D01*
X0091367Y0133482D01*
X0092345Y0132504D01*
G37*
G36*
X0093737Y0131113D02*
X0089279Y0126655D01*
X0088301Y0127633D01*
X0092759Y0132091D01*
X0093737Y0131113D01*
G37*
G36*
X0095129Y0129721D02*
X0090671Y0125263D01*
X0089693Y0126241D01*
X0094151Y0130699D01*
X0095129Y0129721D01*
G37*
G36*
X0096521Y0128329D02*
X0092063Y0123871D01*
X0091085Y0124849D01*
X0095543Y0129307D01*
X0096521Y0128329D01*
G37*
G36*
X0097912Y0126937D02*
X0093454Y0122479D01*
X0092476Y0123457D01*
X0096934Y0127915D01*
X0097912Y0126937D01*
G37*
G36*
X0099304Y0125545D02*
X0094846Y0121087D01*
X0093868Y0122065D01*
X0098326Y0126523D01*
X0099304Y0125545D01*
G37*
G36*
X0054762Y0081003D02*
X0050304Y0076545D01*
X0049326Y0077523D01*
X0053784Y0081981D01*
X0054762Y0081003D01*
G37*
G36*
X0053370Y0082395D02*
X0048912Y0077937D01*
X0047934Y0078915D01*
X0052392Y0083373D01*
X0053370Y0082395D01*
G37*
G36*
X0051978Y0083786D02*
X0047520Y0079328D01*
X0046542Y0080306D01*
X0051000Y0084764D01*
X0051978Y0083786D01*
G37*
G36*
X0050586Y0085178D02*
X0046128Y0080720D01*
X0045150Y0081698D01*
X0049608Y0086156D01*
X0050586Y0085178D01*
G37*
G36*
X0049194Y0086570D02*
X0044736Y0082112D01*
X0043758Y0083090D01*
X0048216Y0087548D01*
X0049194Y0086570D01*
G37*
G36*
X0047803Y0087962D02*
X0043345Y0083504D01*
X0042367Y0084482D01*
X0046825Y0088940D01*
X0047803Y0087962D01*
G37*
G36*
X0046411Y0089354D02*
X0041953Y0084896D01*
X0040975Y0085874D01*
X0045433Y0090332D01*
X0046411Y0089354D01*
G37*
G36*
X0045019Y0090746D02*
X0040561Y0086288D01*
X0039583Y0087266D01*
X0044041Y0091724D01*
X0045019Y0090746D01*
G37*
G36*
X0043627Y0092138D02*
X0039169Y0087680D01*
X0038191Y0088658D01*
X0042649Y0093116D01*
X0043627Y0092138D01*
G37*
G36*
X0042235Y0093530D02*
X0037777Y0089072D01*
X0036799Y0090050D01*
X0041257Y0094508D01*
X0042235Y0093530D01*
G37*
G36*
X0040843Y0094922D02*
X0036385Y0090464D01*
X0035407Y0091442D01*
X0039865Y0095900D01*
X0040843Y0094922D01*
G37*
G36*
X0039451Y0096314D02*
X0034993Y0091856D01*
X0034015Y0092834D01*
X0038473Y0097292D01*
X0039451Y0096314D01*
G37*
G36*
X0038059Y0097706D02*
X0033601Y0093248D01*
X0032623Y0094226D01*
X0037081Y0098684D01*
X0038059Y0097706D01*
G37*
G36*
X0036667Y0099098D02*
X0032209Y0094640D01*
X0031231Y0095618D01*
X0035689Y0100076D01*
X0036667Y0099098D01*
G37*
G36*
X0035275Y0100490D02*
X0030817Y0096032D01*
X0029839Y0097010D01*
X0034297Y0101468D01*
X0035275Y0100490D01*
G37*
G36*
X0033883Y0101882D02*
X0029425Y0097424D01*
X0028447Y0098402D01*
X0032905Y0102860D01*
X0033883Y0101882D01*
G37*
G36*
X0032491Y0103274D02*
X0028033Y0098816D01*
X0027055Y0099794D01*
X0031513Y0104252D01*
X0032491Y0103274D01*
G37*
G36*
X0031099Y0104666D02*
X0026641Y0100208D01*
X0025663Y0101186D01*
X0030121Y0105644D01*
X0031099Y0104666D01*
G37*
G36*
X0029707Y0106058D02*
X0025249Y0101600D01*
X0024271Y0102578D01*
X0028729Y0107036D01*
X0029707Y0106058D01*
G37*
G36*
X0028315Y0107450D02*
X0023857Y0102992D01*
X0022879Y0103970D01*
X0027337Y0108428D01*
X0028315Y0107450D01*
G37*
G36*
X0026923Y0108841D02*
X0022465Y0104383D01*
X0021487Y0105361D01*
X0025945Y0109819D01*
X0026923Y0108841D01*
G37*
G36*
X0025531Y0110233D02*
X0021073Y0105775D01*
X0020095Y0106753D01*
X0024553Y0111211D01*
X0025531Y0110233D01*
G37*
G36*
X0024139Y0111625D02*
X0019681Y0107167D01*
X0018703Y0108145D01*
X0023161Y0112603D01*
X0024139Y0111625D01*
G37*
G36*
X0022748Y0113017D02*
X0018290Y0108559D01*
X0017312Y0109537D01*
X0021770Y0113995D01*
X0022748Y0113017D01*
G37*
G36*
X0021356Y0114409D02*
X0016898Y0109951D01*
X0015920Y0110929D01*
X0020378Y0115387D01*
X0021356Y0114409D01*
G37*
D12*
G36*
X0021356Y0122065D02*
X0020378Y0121087D01*
X0015920Y0125545D01*
X0016898Y0126523D01*
X0021356Y0122065D01*
G37*
G36*
X0022748Y0123457D02*
X0021770Y0122479D01*
X0017312Y0126937D01*
X0018290Y0127915D01*
X0022748Y0123457D01*
G37*
G36*
X0024139Y0124849D02*
X0023161Y0123871D01*
X0018703Y0128329D01*
X0019681Y0129307D01*
X0024139Y0124849D01*
G37*
G36*
X0025531Y0126241D02*
X0024553Y0125263D01*
X0020095Y0129721D01*
X0021073Y0130699D01*
X0025531Y0126241D01*
G37*
G36*
X0026923Y0127633D02*
X0025945Y0126655D01*
X0021487Y0131113D01*
X0022465Y0132091D01*
X0026923Y0127633D01*
G37*
G36*
X0028315Y0129024D02*
X0027337Y0128046D01*
X0022879Y0132504D01*
X0023857Y0133482D01*
X0028315Y0129024D01*
G37*
G36*
X0029707Y0130416D02*
X0028729Y0129438D01*
X0024271Y0133896D01*
X0025249Y0134874D01*
X0029707Y0130416D01*
G37*
G36*
X0031099Y0131808D02*
X0030121Y0130830D01*
X0025663Y0135288D01*
X0026641Y0136266D01*
X0031099Y0131808D01*
G37*
G36*
X0032491Y0133200D02*
X0031513Y0132222D01*
X0027055Y0136680D01*
X0028033Y0137658D01*
X0032491Y0133200D01*
G37*
G36*
X0033883Y0134592D02*
X0032905Y0133614D01*
X0028447Y0138072D01*
X0029425Y0139050D01*
X0033883Y0134592D01*
G37*
G36*
X0035275Y0135984D02*
X0034297Y0135006D01*
X0029839Y0139464D01*
X0030817Y0140442D01*
X0035275Y0135984D01*
G37*
G36*
X0036667Y0137376D02*
X0035689Y0136398D01*
X0031231Y0140856D01*
X0032209Y0141834D01*
X0036667Y0137376D01*
G37*
G36*
X0038059Y0138768D02*
X0037081Y0137790D01*
X0032623Y0142248D01*
X0033601Y0143226D01*
X0038059Y0138768D01*
G37*
G36*
X0039451Y0140160D02*
X0038473Y0139182D01*
X0034015Y0143640D01*
X0034993Y0144618D01*
X0039451Y0140160D01*
G37*
G36*
X0040843Y0141552D02*
X0039865Y0140574D01*
X0035407Y0145032D01*
X0036385Y0146010D01*
X0040843Y0141552D01*
G37*
G36*
X0042235Y0142944D02*
X0041257Y0141966D01*
X0036799Y0146424D01*
X0037777Y0147402D01*
X0042235Y0142944D01*
G37*
G36*
X0043627Y0144336D02*
X0042649Y0143358D01*
X0038191Y0147816D01*
X0039169Y0148794D01*
X0043627Y0144336D01*
G37*
G36*
X0045019Y0145728D02*
X0044041Y0144750D01*
X0039583Y0149208D01*
X0040561Y0150186D01*
X0045019Y0145728D01*
G37*
G36*
X0046411Y0147120D02*
X0045433Y0146142D01*
X0040975Y0150600D01*
X0041953Y0151578D01*
X0046411Y0147120D01*
G37*
G36*
X0047803Y0148512D02*
X0046825Y0147534D01*
X0042367Y0151992D01*
X0043345Y0152970D01*
X0047803Y0148512D01*
G37*
G36*
X0049194Y0149904D02*
X0048216Y0148926D01*
X0043758Y0153384D01*
X0044736Y0154362D01*
X0049194Y0149904D01*
G37*
G36*
X0050586Y0151296D02*
X0049608Y0150318D01*
X0045150Y0154776D01*
X0046128Y0155754D01*
X0050586Y0151296D01*
G37*
G36*
X0051978Y0152688D02*
X0051000Y0151710D01*
X0046542Y0156168D01*
X0047520Y0157146D01*
X0051978Y0152688D01*
G37*
G36*
X0053370Y0154079D02*
X0052392Y0153101D01*
X0047934Y0157559D01*
X0048912Y0158537D01*
X0053370Y0154079D01*
G37*
G36*
X0054762Y0155471D02*
X0053784Y0154493D01*
X0049326Y0158951D01*
X0050304Y0159929D01*
X0054762Y0155471D01*
G37*
G36*
X0089561Y0101186D02*
X0088583Y0100208D01*
X0084125Y0104666D01*
X0085103Y0105644D01*
X0089561Y0101186D01*
G37*
G36*
X0090953Y0102578D02*
X0089975Y0101600D01*
X0085517Y0106058D01*
X0086495Y0107036D01*
X0090953Y0102578D01*
G37*
G36*
X0092345Y0103970D02*
X0091367Y0102992D01*
X0086909Y0107450D01*
X0087887Y0108428D01*
X0092345Y0103970D01*
G37*
G36*
X0093737Y0105361D02*
X0092759Y0104383D01*
X0088301Y0108841D01*
X0089279Y0109819D01*
X0093737Y0105361D01*
G37*
G36*
X0095129Y0106753D02*
X0094151Y0105775D01*
X0089693Y0110233D01*
X0090671Y0111211D01*
X0095129Y0106753D01*
G37*
G36*
X0096521Y0108145D02*
X0095543Y0107167D01*
X0091085Y0111625D01*
X0092063Y0112603D01*
X0096521Y0108145D01*
G37*
G36*
X0097912Y0109537D02*
X0096934Y0108559D01*
X0092476Y0113017D01*
X0093454Y0113995D01*
X0097912Y0109537D01*
G37*
G36*
X0099304Y0110929D02*
X0098326Y0109951D01*
X0093868Y0114409D01*
X0094846Y0115387D01*
X0099304Y0110929D01*
G37*
G36*
X0088169Y0099794D02*
X0087191Y0098816D01*
X0082733Y0103274D01*
X0083711Y0104252D01*
X0088169Y0099794D01*
G37*
G36*
X0086777Y0098402D02*
X0085799Y0097424D01*
X0081341Y0101882D01*
X0082319Y0102860D01*
X0086777Y0098402D01*
G37*
G36*
X0085385Y0097010D02*
X0084407Y0096032D01*
X0079949Y0100490D01*
X0080927Y0101468D01*
X0085385Y0097010D01*
G37*
G36*
X0083993Y0095618D02*
X0083015Y0094640D01*
X0078557Y0099098D01*
X0079535Y0100076D01*
X0083993Y0095618D01*
G37*
G36*
X0082601Y0094226D02*
X0081623Y0093248D01*
X0077165Y0097706D01*
X0078143Y0098684D01*
X0082601Y0094226D01*
G37*
G36*
X0081209Y0092834D02*
X0080231Y0091856D01*
X0075773Y0096314D01*
X0076751Y0097292D01*
X0081209Y0092834D01*
G37*
G36*
X0079817Y0091442D02*
X0078839Y0090464D01*
X0074381Y0094922D01*
X0075359Y0095900D01*
X0079817Y0091442D01*
G37*
G36*
X0078425Y0090050D02*
X0077447Y0089072D01*
X0072989Y0093530D01*
X0073967Y0094508D01*
X0078425Y0090050D01*
G37*
G36*
X0077033Y0088658D02*
X0076055Y0087680D01*
X0071597Y0092138D01*
X0072575Y0093116D01*
X0077033Y0088658D01*
G37*
G36*
X0075641Y0087266D02*
X0074663Y0086288D01*
X0070205Y0090746D01*
X0071183Y0091724D01*
X0075641Y0087266D01*
G37*
G36*
X0074249Y0085874D02*
X0073271Y0084896D01*
X0068813Y0089354D01*
X0069791Y0090332D01*
X0074249Y0085874D01*
G37*
G36*
X0072857Y0084482D02*
X0071879Y0083504D01*
X0067421Y0087962D01*
X0068399Y0088940D01*
X0072857Y0084482D01*
G37*
G36*
X0071466Y0083090D02*
X0070488Y0082112D01*
X0066030Y0086570D01*
X0067008Y0087548D01*
X0071466Y0083090D01*
G37*
G36*
X0070074Y0081698D02*
X0069096Y0080720D01*
X0064638Y0085178D01*
X0065616Y0086156D01*
X0070074Y0081698D01*
G37*
G36*
X0068682Y0080306D02*
X0067704Y0079328D01*
X0063246Y0083786D01*
X0064224Y0084764D01*
X0068682Y0080306D01*
G37*
G36*
X0067290Y0078915D02*
X0066312Y0077937D01*
X0061854Y0082395D01*
X0062832Y0083373D01*
X0067290Y0078915D01*
G37*
G36*
X0065898Y0077523D02*
X0064920Y0076545D01*
X0060462Y0081003D01*
X0061440Y0081981D01*
X0065898Y0077523D01*
G37*
D13*
X0087612Y0023237D03*
D14*
X0087612Y0033237D03*
X0087612Y0043237D03*
X0087612Y0053237D03*
X0087612Y0063237D03*
X0087612Y0073237D03*
X0087612Y0083237D03*
X0087612Y0093237D03*
X0087612Y0143237D03*
X0087612Y0153237D03*
X0087612Y0163237D03*
X0087612Y0173237D03*
X0087612Y0183237D03*
X0087612Y0193237D03*
X0087612Y0203237D03*
X0087612Y0213237D03*
X0027612Y0213237D03*
X0027612Y0203237D03*
X0027612Y0193237D03*
X0027612Y0183237D03*
X0027612Y0173237D03*
X0027612Y0163237D03*
X0027612Y0153237D03*
X0027612Y0143237D03*
X0027612Y0093237D03*
X0027612Y0083237D03*
X0027612Y0073237D03*
X0027612Y0063237D03*
X0027612Y0053237D03*
X0027612Y0043237D03*
X0027612Y0033237D03*
X0027612Y0023237D03*
D15*
X0061372Y0028237D03*
X0068852Y0028237D03*
X0068872Y0204487D03*
X0068872Y0213237D03*
X0068872Y0221987D03*
X0076352Y0221987D03*
X0076352Y0213237D03*
X0076352Y0204487D03*
X0056352Y0204487D03*
X0056352Y0213237D03*
X0056352Y0221987D03*
X0048872Y0221987D03*
X0048872Y0213237D03*
X0048872Y0204487D03*
D16*
X0105737Y0223237D03*
X0015112Y0054487D03*
D17*
X0015112Y0014487D03*
X0015112Y0024487D03*
X0015112Y0034487D03*
X0015112Y0044487D03*
X0105737Y0173237D03*
X0105737Y0183237D03*
X0105737Y0193237D03*
X0105737Y0203237D03*
X0105737Y0213237D03*
D18*
X0107612Y0126180D03*
X0107612Y0119487D03*
X0107612Y0112794D03*
D19*
X0107612Y0150747D03*
X0107612Y0158227D03*
X0098862Y0158227D03*
X0098862Y0150747D03*
M02*
