G75*
%MOIN*%
%OFA0B0*%
%FSLAX25Y25*%
%IPPOS*%
%LPD*%
%AMOC8*
5,1,8,0,0,1.08239X$1,22.5*
%
%ADD10R,0.07087X0.06299*%
%ADD11R,0.05906X0.00984*%
%ADD12R,0.00984X0.05906*%
%ADD13R,0.05118X0.06299*%
%ADD14R,0.05906X0.05118*%
%ADD15R,0.06299X0.05118*%
D10*
X0056987Y0165850D03*
X0056987Y0176874D03*
D11*
G36*
X0051695Y0083786D02*
X0047520Y0079611D01*
X0046825Y0080306D01*
X0051000Y0084481D01*
X0051695Y0083786D01*
G37*
G36*
X0053087Y0082395D02*
X0048912Y0078220D01*
X0048217Y0078915D01*
X0052392Y0083090D01*
X0053087Y0082395D01*
G37*
G36*
X0054479Y0081003D02*
X0050304Y0076828D01*
X0049609Y0077523D01*
X0053784Y0081698D01*
X0054479Y0081003D01*
G37*
G36*
X0050303Y0085178D02*
X0046128Y0081003D01*
X0045433Y0081698D01*
X0049608Y0085873D01*
X0050303Y0085178D01*
G37*
G36*
X0048911Y0086570D02*
X0044736Y0082395D01*
X0044041Y0083090D01*
X0048216Y0087265D01*
X0048911Y0086570D01*
G37*
G36*
X0047520Y0087962D02*
X0043345Y0083787D01*
X0042650Y0084482D01*
X0046825Y0088657D01*
X0047520Y0087962D01*
G37*
G36*
X0046128Y0089354D02*
X0041953Y0085179D01*
X0041258Y0085874D01*
X0045433Y0090049D01*
X0046128Y0089354D01*
G37*
G36*
X0044736Y0090746D02*
X0040561Y0086571D01*
X0039866Y0087266D01*
X0044041Y0091441D01*
X0044736Y0090746D01*
G37*
G36*
X0043344Y0092138D02*
X0039169Y0087963D01*
X0038474Y0088658D01*
X0042649Y0092833D01*
X0043344Y0092138D01*
G37*
G36*
X0041952Y0093530D02*
X0037777Y0089355D01*
X0037082Y0090050D01*
X0041257Y0094225D01*
X0041952Y0093530D01*
G37*
G36*
X0040560Y0094922D02*
X0036385Y0090747D01*
X0035690Y0091442D01*
X0039865Y0095617D01*
X0040560Y0094922D01*
G37*
G36*
X0039168Y0096314D02*
X0034993Y0092139D01*
X0034298Y0092834D01*
X0038473Y0097009D01*
X0039168Y0096314D01*
G37*
G36*
X0037776Y0097706D02*
X0033601Y0093531D01*
X0032906Y0094226D01*
X0037081Y0098401D01*
X0037776Y0097706D01*
G37*
G36*
X0036384Y0099098D02*
X0032209Y0094923D01*
X0031514Y0095618D01*
X0035689Y0099793D01*
X0036384Y0099098D01*
G37*
G36*
X0034992Y0100490D02*
X0030817Y0096315D01*
X0030122Y0097010D01*
X0034297Y0101185D01*
X0034992Y0100490D01*
G37*
G36*
X0033600Y0101882D02*
X0029425Y0097707D01*
X0028730Y0098402D01*
X0032905Y0102577D01*
X0033600Y0101882D01*
G37*
G36*
X0032208Y0103274D02*
X0028033Y0099099D01*
X0027338Y0099794D01*
X0031513Y0103969D01*
X0032208Y0103274D01*
G37*
G36*
X0030816Y0104666D02*
X0026641Y0100491D01*
X0025946Y0101186D01*
X0030121Y0105361D01*
X0030816Y0104666D01*
G37*
G36*
X0029424Y0106058D02*
X0025249Y0101883D01*
X0024554Y0102578D01*
X0028729Y0106753D01*
X0029424Y0106058D01*
G37*
G36*
X0028032Y0107450D02*
X0023857Y0103275D01*
X0023162Y0103970D01*
X0027337Y0108145D01*
X0028032Y0107450D01*
G37*
G36*
X0026640Y0108841D02*
X0022465Y0104666D01*
X0021770Y0105361D01*
X0025945Y0109536D01*
X0026640Y0108841D01*
G37*
G36*
X0025248Y0110233D02*
X0021073Y0106058D01*
X0020378Y0106753D01*
X0024553Y0110928D01*
X0025248Y0110233D01*
G37*
G36*
X0023856Y0111625D02*
X0019681Y0107450D01*
X0018986Y0108145D01*
X0023161Y0112320D01*
X0023856Y0111625D01*
G37*
G36*
X0022465Y0113017D02*
X0018290Y0108842D01*
X0017595Y0109537D01*
X0021770Y0113712D01*
X0022465Y0113017D01*
G37*
G36*
X0021073Y0114409D02*
X0016898Y0110234D01*
X0016203Y0110929D01*
X0020378Y0115104D01*
X0021073Y0114409D01*
G37*
G36*
X0065615Y0158951D02*
X0061440Y0154776D01*
X0060745Y0155471D01*
X0064920Y0159646D01*
X0065615Y0158951D01*
G37*
G36*
X0067007Y0157559D02*
X0062832Y0153384D01*
X0062137Y0154079D01*
X0066312Y0158254D01*
X0067007Y0157559D01*
G37*
G36*
X0068399Y0156168D02*
X0064224Y0151993D01*
X0063529Y0152688D01*
X0067704Y0156863D01*
X0068399Y0156168D01*
G37*
G36*
X0069791Y0154776D02*
X0065616Y0150601D01*
X0064921Y0151296D01*
X0069096Y0155471D01*
X0069791Y0154776D01*
G37*
G36*
X0071183Y0153384D02*
X0067008Y0149209D01*
X0066313Y0149904D01*
X0070488Y0154079D01*
X0071183Y0153384D01*
G37*
G36*
X0072574Y0151992D02*
X0068399Y0147817D01*
X0067704Y0148512D01*
X0071879Y0152687D01*
X0072574Y0151992D01*
G37*
G36*
X0073966Y0150600D02*
X0069791Y0146425D01*
X0069096Y0147120D01*
X0073271Y0151295D01*
X0073966Y0150600D01*
G37*
G36*
X0075358Y0149208D02*
X0071183Y0145033D01*
X0070488Y0145728D01*
X0074663Y0149903D01*
X0075358Y0149208D01*
G37*
G36*
X0076750Y0147816D02*
X0072575Y0143641D01*
X0071880Y0144336D01*
X0076055Y0148511D01*
X0076750Y0147816D01*
G37*
G36*
X0078142Y0146424D02*
X0073967Y0142249D01*
X0073272Y0142944D01*
X0077447Y0147119D01*
X0078142Y0146424D01*
G37*
G36*
X0079534Y0145032D02*
X0075359Y0140857D01*
X0074664Y0141552D01*
X0078839Y0145727D01*
X0079534Y0145032D01*
G37*
G36*
X0080926Y0143640D02*
X0076751Y0139465D01*
X0076056Y0140160D01*
X0080231Y0144335D01*
X0080926Y0143640D01*
G37*
G36*
X0082318Y0142248D02*
X0078143Y0138073D01*
X0077448Y0138768D01*
X0081623Y0142943D01*
X0082318Y0142248D01*
G37*
G36*
X0083710Y0140856D02*
X0079535Y0136681D01*
X0078840Y0137376D01*
X0083015Y0141551D01*
X0083710Y0140856D01*
G37*
G36*
X0085102Y0139464D02*
X0080927Y0135289D01*
X0080232Y0135984D01*
X0084407Y0140159D01*
X0085102Y0139464D01*
G37*
G36*
X0086494Y0138072D02*
X0082319Y0133897D01*
X0081624Y0134592D01*
X0085799Y0138767D01*
X0086494Y0138072D01*
G37*
G36*
X0087886Y0136680D02*
X0083711Y0132505D01*
X0083016Y0133200D01*
X0087191Y0137375D01*
X0087886Y0136680D01*
G37*
G36*
X0089278Y0135288D02*
X0085103Y0131113D01*
X0084408Y0131808D01*
X0088583Y0135983D01*
X0089278Y0135288D01*
G37*
G36*
X0090670Y0133896D02*
X0086495Y0129721D01*
X0085800Y0130416D01*
X0089975Y0134591D01*
X0090670Y0133896D01*
G37*
G36*
X0092062Y0132504D02*
X0087887Y0128329D01*
X0087192Y0129024D01*
X0091367Y0133199D01*
X0092062Y0132504D01*
G37*
G36*
X0093454Y0131113D02*
X0089279Y0126938D01*
X0088584Y0127633D01*
X0092759Y0131808D01*
X0093454Y0131113D01*
G37*
G36*
X0094846Y0129721D02*
X0090671Y0125546D01*
X0089976Y0126241D01*
X0094151Y0130416D01*
X0094846Y0129721D01*
G37*
G36*
X0096238Y0128329D02*
X0092063Y0124154D01*
X0091368Y0124849D01*
X0095543Y0129024D01*
X0096238Y0128329D01*
G37*
G36*
X0097629Y0126937D02*
X0093454Y0122762D01*
X0092759Y0123457D01*
X0096934Y0127632D01*
X0097629Y0126937D01*
G37*
G36*
X0099021Y0125545D02*
X0094846Y0121370D01*
X0094151Y0122065D01*
X0098326Y0126240D01*
X0099021Y0125545D01*
G37*
D12*
G36*
X0099021Y0110929D02*
X0098326Y0110234D01*
X0094151Y0114409D01*
X0094846Y0115104D01*
X0099021Y0110929D01*
G37*
G36*
X0097629Y0109537D02*
X0096934Y0108842D01*
X0092759Y0113017D01*
X0093454Y0113712D01*
X0097629Y0109537D01*
G37*
G36*
X0096238Y0108145D02*
X0095543Y0107450D01*
X0091368Y0111625D01*
X0092063Y0112320D01*
X0096238Y0108145D01*
G37*
G36*
X0094846Y0106753D02*
X0094151Y0106058D01*
X0089976Y0110233D01*
X0090671Y0110928D01*
X0094846Y0106753D01*
G37*
G36*
X0093454Y0105361D02*
X0092759Y0104666D01*
X0088584Y0108841D01*
X0089279Y0109536D01*
X0093454Y0105361D01*
G37*
G36*
X0092062Y0103970D02*
X0091367Y0103275D01*
X0087192Y0107450D01*
X0087887Y0108145D01*
X0092062Y0103970D01*
G37*
G36*
X0090670Y0102578D02*
X0089975Y0101883D01*
X0085800Y0106058D01*
X0086495Y0106753D01*
X0090670Y0102578D01*
G37*
G36*
X0089278Y0101186D02*
X0088583Y0100491D01*
X0084408Y0104666D01*
X0085103Y0105361D01*
X0089278Y0101186D01*
G37*
G36*
X0087886Y0099794D02*
X0087191Y0099099D01*
X0083016Y0103274D01*
X0083711Y0103969D01*
X0087886Y0099794D01*
G37*
G36*
X0086494Y0098402D02*
X0085799Y0097707D01*
X0081624Y0101882D01*
X0082319Y0102577D01*
X0086494Y0098402D01*
G37*
G36*
X0085102Y0097010D02*
X0084407Y0096315D01*
X0080232Y0100490D01*
X0080927Y0101185D01*
X0085102Y0097010D01*
G37*
G36*
X0083710Y0095618D02*
X0083015Y0094923D01*
X0078840Y0099098D01*
X0079535Y0099793D01*
X0083710Y0095618D01*
G37*
G36*
X0082318Y0094226D02*
X0081623Y0093531D01*
X0077448Y0097706D01*
X0078143Y0098401D01*
X0082318Y0094226D01*
G37*
G36*
X0080926Y0092834D02*
X0080231Y0092139D01*
X0076056Y0096314D01*
X0076751Y0097009D01*
X0080926Y0092834D01*
G37*
G36*
X0079534Y0091442D02*
X0078839Y0090747D01*
X0074664Y0094922D01*
X0075359Y0095617D01*
X0079534Y0091442D01*
G37*
G36*
X0078142Y0090050D02*
X0077447Y0089355D01*
X0073272Y0093530D01*
X0073967Y0094225D01*
X0078142Y0090050D01*
G37*
G36*
X0076750Y0088658D02*
X0076055Y0087963D01*
X0071880Y0092138D01*
X0072575Y0092833D01*
X0076750Y0088658D01*
G37*
G36*
X0075358Y0087266D02*
X0074663Y0086571D01*
X0070488Y0090746D01*
X0071183Y0091441D01*
X0075358Y0087266D01*
G37*
G36*
X0073966Y0085874D02*
X0073271Y0085179D01*
X0069096Y0089354D01*
X0069791Y0090049D01*
X0073966Y0085874D01*
G37*
G36*
X0072574Y0084482D02*
X0071879Y0083787D01*
X0067704Y0087962D01*
X0068399Y0088657D01*
X0072574Y0084482D01*
G37*
G36*
X0071183Y0083090D02*
X0070488Y0082395D01*
X0066313Y0086570D01*
X0067008Y0087265D01*
X0071183Y0083090D01*
G37*
G36*
X0069791Y0081698D02*
X0069096Y0081003D01*
X0064921Y0085178D01*
X0065616Y0085873D01*
X0069791Y0081698D01*
G37*
G36*
X0068399Y0080306D02*
X0067704Y0079611D01*
X0063529Y0083786D01*
X0064224Y0084481D01*
X0068399Y0080306D01*
G37*
G36*
X0067007Y0078915D02*
X0066312Y0078220D01*
X0062137Y0082395D01*
X0062832Y0083090D01*
X0067007Y0078915D01*
G37*
G36*
X0065615Y0077523D02*
X0064920Y0076828D01*
X0060745Y0081003D01*
X0061440Y0081698D01*
X0065615Y0077523D01*
G37*
G36*
X0033600Y0134592D02*
X0032905Y0133897D01*
X0028730Y0138072D01*
X0029425Y0138767D01*
X0033600Y0134592D01*
G37*
G36*
X0034992Y0135984D02*
X0034297Y0135289D01*
X0030122Y0139464D01*
X0030817Y0140159D01*
X0034992Y0135984D01*
G37*
G36*
X0036384Y0137376D02*
X0035689Y0136681D01*
X0031514Y0140856D01*
X0032209Y0141551D01*
X0036384Y0137376D01*
G37*
G36*
X0037776Y0138768D02*
X0037081Y0138073D01*
X0032906Y0142248D01*
X0033601Y0142943D01*
X0037776Y0138768D01*
G37*
G36*
X0039168Y0140160D02*
X0038473Y0139465D01*
X0034298Y0143640D01*
X0034993Y0144335D01*
X0039168Y0140160D01*
G37*
G36*
X0040560Y0141552D02*
X0039865Y0140857D01*
X0035690Y0145032D01*
X0036385Y0145727D01*
X0040560Y0141552D01*
G37*
G36*
X0041952Y0142944D02*
X0041257Y0142249D01*
X0037082Y0146424D01*
X0037777Y0147119D01*
X0041952Y0142944D01*
G37*
G36*
X0043344Y0144336D02*
X0042649Y0143641D01*
X0038474Y0147816D01*
X0039169Y0148511D01*
X0043344Y0144336D01*
G37*
G36*
X0044736Y0145728D02*
X0044041Y0145033D01*
X0039866Y0149208D01*
X0040561Y0149903D01*
X0044736Y0145728D01*
G37*
G36*
X0046128Y0147120D02*
X0045433Y0146425D01*
X0041258Y0150600D01*
X0041953Y0151295D01*
X0046128Y0147120D01*
G37*
G36*
X0047520Y0148512D02*
X0046825Y0147817D01*
X0042650Y0151992D01*
X0043345Y0152687D01*
X0047520Y0148512D01*
G37*
G36*
X0048911Y0149904D02*
X0048216Y0149209D01*
X0044041Y0153384D01*
X0044736Y0154079D01*
X0048911Y0149904D01*
G37*
G36*
X0050303Y0151296D02*
X0049608Y0150601D01*
X0045433Y0154776D01*
X0046128Y0155471D01*
X0050303Y0151296D01*
G37*
G36*
X0051695Y0152688D02*
X0051000Y0151993D01*
X0046825Y0156168D01*
X0047520Y0156863D01*
X0051695Y0152688D01*
G37*
G36*
X0053087Y0154079D02*
X0052392Y0153384D01*
X0048217Y0157559D01*
X0048912Y0158254D01*
X0053087Y0154079D01*
G37*
G36*
X0054479Y0155471D02*
X0053784Y0154776D01*
X0049609Y0158951D01*
X0050304Y0159646D01*
X0054479Y0155471D01*
G37*
G36*
X0032208Y0133200D02*
X0031513Y0132505D01*
X0027338Y0136680D01*
X0028033Y0137375D01*
X0032208Y0133200D01*
G37*
G36*
X0030816Y0131808D02*
X0030121Y0131113D01*
X0025946Y0135288D01*
X0026641Y0135983D01*
X0030816Y0131808D01*
G37*
G36*
X0029424Y0130416D02*
X0028729Y0129721D01*
X0024554Y0133896D01*
X0025249Y0134591D01*
X0029424Y0130416D01*
G37*
G36*
X0028032Y0129024D02*
X0027337Y0128329D01*
X0023162Y0132504D01*
X0023857Y0133199D01*
X0028032Y0129024D01*
G37*
G36*
X0026640Y0127633D02*
X0025945Y0126938D01*
X0021770Y0131113D01*
X0022465Y0131808D01*
X0026640Y0127633D01*
G37*
G36*
X0025248Y0126241D02*
X0024553Y0125546D01*
X0020378Y0129721D01*
X0021073Y0130416D01*
X0025248Y0126241D01*
G37*
G36*
X0023856Y0124849D02*
X0023161Y0124154D01*
X0018986Y0128329D01*
X0019681Y0129024D01*
X0023856Y0124849D01*
G37*
G36*
X0022465Y0123457D02*
X0021770Y0122762D01*
X0017595Y0126937D01*
X0018290Y0127632D01*
X0022465Y0123457D01*
G37*
G36*
X0021073Y0122065D02*
X0020378Y0121370D01*
X0016203Y0125545D01*
X0016898Y0126240D01*
X0021073Y0122065D01*
G37*
D13*
X0048872Y0204487D03*
X0048872Y0213237D03*
X0048872Y0221987D03*
X0056352Y0221987D03*
X0056352Y0213237D03*
X0056352Y0204487D03*
X0068872Y0204487D03*
X0068872Y0213237D03*
X0068872Y0221987D03*
X0076352Y0221987D03*
X0076352Y0213237D03*
X0076352Y0204487D03*
X0068852Y0028237D03*
X0061372Y0028237D03*
D14*
X0107612Y0112794D03*
X0107612Y0119487D03*
X0107612Y0126180D03*
D15*
X0107612Y0150747D03*
X0107612Y0158227D03*
X0098862Y0158227D03*
X0098862Y0150747D03*
M02*
