G75*
%MOIN*%
%OFA0B0*%
%FSLAX25Y25*%
%IPPOS*%
%LPD*%
%AMOC8*
5,1,8,0,0,1.08239X$1,22.5*
%
%ADD10C,0.00000*%
%ADD11R,0.07087X0.06299*%
%ADD12R,0.05906X0.00984*%
%ADD13R,0.00984X0.05906*%
%ADD14R,0.05700X0.05700*%
%ADD15OC8,0.05700*%
%ADD16R,0.05118X0.06299*%
%ADD17R,0.06600X0.06600*%
%ADD18OC8,0.06600*%
%ADD19R,0.05906X0.05118*%
%ADD20R,0.06299X0.05118*%
%ADD21C,0.00820*%
%ADD22C,0.01600*%
%ADD23C,0.03562*%
%ADD24C,0.01000*%
%ADD25C,0.00800*%
%ADD26C,0.03500*%
%ADD27C,0.03900*%
%ADD28C,0.03169*%
D10*
X0007612Y0008237D02*
X0007612Y0232646D01*
X0113911Y0232646D01*
X0113911Y0008237D01*
X0007612Y0008237D01*
D11*
X0056987Y0165850D03*
X0056987Y0176874D03*
D12*
G36*
X0065615Y0158951D02*
X0061440Y0154776D01*
X0060745Y0155471D01*
X0064920Y0159646D01*
X0065615Y0158951D01*
G37*
G36*
X0067007Y0157559D02*
X0062832Y0153384D01*
X0062137Y0154079D01*
X0066312Y0158254D01*
X0067007Y0157559D01*
G37*
G36*
X0068399Y0156168D02*
X0064224Y0151993D01*
X0063529Y0152688D01*
X0067704Y0156863D01*
X0068399Y0156168D01*
G37*
G36*
X0069791Y0154776D02*
X0065616Y0150601D01*
X0064921Y0151296D01*
X0069096Y0155471D01*
X0069791Y0154776D01*
G37*
G36*
X0071183Y0153384D02*
X0067008Y0149209D01*
X0066313Y0149904D01*
X0070488Y0154079D01*
X0071183Y0153384D01*
G37*
G36*
X0072574Y0151992D02*
X0068399Y0147817D01*
X0067704Y0148512D01*
X0071879Y0152687D01*
X0072574Y0151992D01*
G37*
G36*
X0073966Y0150600D02*
X0069791Y0146425D01*
X0069096Y0147120D01*
X0073271Y0151295D01*
X0073966Y0150600D01*
G37*
G36*
X0075358Y0149208D02*
X0071183Y0145033D01*
X0070488Y0145728D01*
X0074663Y0149903D01*
X0075358Y0149208D01*
G37*
G36*
X0076750Y0147816D02*
X0072575Y0143641D01*
X0071880Y0144336D01*
X0076055Y0148511D01*
X0076750Y0147816D01*
G37*
G36*
X0078142Y0146424D02*
X0073967Y0142249D01*
X0073272Y0142944D01*
X0077447Y0147119D01*
X0078142Y0146424D01*
G37*
G36*
X0079534Y0145032D02*
X0075359Y0140857D01*
X0074664Y0141552D01*
X0078839Y0145727D01*
X0079534Y0145032D01*
G37*
G36*
X0080926Y0143640D02*
X0076751Y0139465D01*
X0076056Y0140160D01*
X0080231Y0144335D01*
X0080926Y0143640D01*
G37*
G36*
X0082318Y0142248D02*
X0078143Y0138073D01*
X0077448Y0138768D01*
X0081623Y0142943D01*
X0082318Y0142248D01*
G37*
G36*
X0083710Y0140856D02*
X0079535Y0136681D01*
X0078840Y0137376D01*
X0083015Y0141551D01*
X0083710Y0140856D01*
G37*
G36*
X0085102Y0139464D02*
X0080927Y0135289D01*
X0080232Y0135984D01*
X0084407Y0140159D01*
X0085102Y0139464D01*
G37*
G36*
X0086494Y0138072D02*
X0082319Y0133897D01*
X0081624Y0134592D01*
X0085799Y0138767D01*
X0086494Y0138072D01*
G37*
G36*
X0087886Y0136680D02*
X0083711Y0132505D01*
X0083016Y0133200D01*
X0087191Y0137375D01*
X0087886Y0136680D01*
G37*
G36*
X0089278Y0135288D02*
X0085103Y0131113D01*
X0084408Y0131808D01*
X0088583Y0135983D01*
X0089278Y0135288D01*
G37*
G36*
X0090670Y0133896D02*
X0086495Y0129721D01*
X0085800Y0130416D01*
X0089975Y0134591D01*
X0090670Y0133896D01*
G37*
G36*
X0092062Y0132504D02*
X0087887Y0128329D01*
X0087192Y0129024D01*
X0091367Y0133199D01*
X0092062Y0132504D01*
G37*
G36*
X0093454Y0131113D02*
X0089279Y0126938D01*
X0088584Y0127633D01*
X0092759Y0131808D01*
X0093454Y0131113D01*
G37*
G36*
X0094846Y0129721D02*
X0090671Y0125546D01*
X0089976Y0126241D01*
X0094151Y0130416D01*
X0094846Y0129721D01*
G37*
G36*
X0096238Y0128329D02*
X0092063Y0124154D01*
X0091368Y0124849D01*
X0095543Y0129024D01*
X0096238Y0128329D01*
G37*
G36*
X0097629Y0126937D02*
X0093454Y0122762D01*
X0092759Y0123457D01*
X0096934Y0127632D01*
X0097629Y0126937D01*
G37*
G36*
X0099021Y0125545D02*
X0094846Y0121370D01*
X0094151Y0122065D01*
X0098326Y0126240D01*
X0099021Y0125545D01*
G37*
G36*
X0054479Y0081003D02*
X0050304Y0076828D01*
X0049609Y0077523D01*
X0053784Y0081698D01*
X0054479Y0081003D01*
G37*
G36*
X0053087Y0082395D02*
X0048912Y0078220D01*
X0048217Y0078915D01*
X0052392Y0083090D01*
X0053087Y0082395D01*
G37*
G36*
X0051695Y0083786D02*
X0047520Y0079611D01*
X0046825Y0080306D01*
X0051000Y0084481D01*
X0051695Y0083786D01*
G37*
G36*
X0050303Y0085178D02*
X0046128Y0081003D01*
X0045433Y0081698D01*
X0049608Y0085873D01*
X0050303Y0085178D01*
G37*
G36*
X0048911Y0086570D02*
X0044736Y0082395D01*
X0044041Y0083090D01*
X0048216Y0087265D01*
X0048911Y0086570D01*
G37*
G36*
X0047520Y0087962D02*
X0043345Y0083787D01*
X0042650Y0084482D01*
X0046825Y0088657D01*
X0047520Y0087962D01*
G37*
G36*
X0046128Y0089354D02*
X0041953Y0085179D01*
X0041258Y0085874D01*
X0045433Y0090049D01*
X0046128Y0089354D01*
G37*
G36*
X0044736Y0090746D02*
X0040561Y0086571D01*
X0039866Y0087266D01*
X0044041Y0091441D01*
X0044736Y0090746D01*
G37*
G36*
X0043344Y0092138D02*
X0039169Y0087963D01*
X0038474Y0088658D01*
X0042649Y0092833D01*
X0043344Y0092138D01*
G37*
G36*
X0041952Y0093530D02*
X0037777Y0089355D01*
X0037082Y0090050D01*
X0041257Y0094225D01*
X0041952Y0093530D01*
G37*
G36*
X0040560Y0094922D02*
X0036385Y0090747D01*
X0035690Y0091442D01*
X0039865Y0095617D01*
X0040560Y0094922D01*
G37*
G36*
X0039168Y0096314D02*
X0034993Y0092139D01*
X0034298Y0092834D01*
X0038473Y0097009D01*
X0039168Y0096314D01*
G37*
G36*
X0037776Y0097706D02*
X0033601Y0093531D01*
X0032906Y0094226D01*
X0037081Y0098401D01*
X0037776Y0097706D01*
G37*
G36*
X0036384Y0099098D02*
X0032209Y0094923D01*
X0031514Y0095618D01*
X0035689Y0099793D01*
X0036384Y0099098D01*
G37*
G36*
X0034992Y0100490D02*
X0030817Y0096315D01*
X0030122Y0097010D01*
X0034297Y0101185D01*
X0034992Y0100490D01*
G37*
G36*
X0033600Y0101882D02*
X0029425Y0097707D01*
X0028730Y0098402D01*
X0032905Y0102577D01*
X0033600Y0101882D01*
G37*
G36*
X0032208Y0103274D02*
X0028033Y0099099D01*
X0027338Y0099794D01*
X0031513Y0103969D01*
X0032208Y0103274D01*
G37*
G36*
X0030816Y0104666D02*
X0026641Y0100491D01*
X0025946Y0101186D01*
X0030121Y0105361D01*
X0030816Y0104666D01*
G37*
G36*
X0029424Y0106058D02*
X0025249Y0101883D01*
X0024554Y0102578D01*
X0028729Y0106753D01*
X0029424Y0106058D01*
G37*
G36*
X0028032Y0107450D02*
X0023857Y0103275D01*
X0023162Y0103970D01*
X0027337Y0108145D01*
X0028032Y0107450D01*
G37*
G36*
X0026640Y0108841D02*
X0022465Y0104666D01*
X0021770Y0105361D01*
X0025945Y0109536D01*
X0026640Y0108841D01*
G37*
G36*
X0025248Y0110233D02*
X0021073Y0106058D01*
X0020378Y0106753D01*
X0024553Y0110928D01*
X0025248Y0110233D01*
G37*
G36*
X0023856Y0111625D02*
X0019681Y0107450D01*
X0018986Y0108145D01*
X0023161Y0112320D01*
X0023856Y0111625D01*
G37*
G36*
X0022465Y0113017D02*
X0018290Y0108842D01*
X0017595Y0109537D01*
X0021770Y0113712D01*
X0022465Y0113017D01*
G37*
G36*
X0021073Y0114409D02*
X0016898Y0110234D01*
X0016203Y0110929D01*
X0020378Y0115104D01*
X0021073Y0114409D01*
G37*
D13*
G36*
X0021073Y0122065D02*
X0020378Y0121370D01*
X0016203Y0125545D01*
X0016898Y0126240D01*
X0021073Y0122065D01*
G37*
G36*
X0022465Y0123457D02*
X0021770Y0122762D01*
X0017595Y0126937D01*
X0018290Y0127632D01*
X0022465Y0123457D01*
G37*
G36*
X0023856Y0124849D02*
X0023161Y0124154D01*
X0018986Y0128329D01*
X0019681Y0129024D01*
X0023856Y0124849D01*
G37*
G36*
X0025248Y0126241D02*
X0024553Y0125546D01*
X0020378Y0129721D01*
X0021073Y0130416D01*
X0025248Y0126241D01*
G37*
G36*
X0026640Y0127633D02*
X0025945Y0126938D01*
X0021770Y0131113D01*
X0022465Y0131808D01*
X0026640Y0127633D01*
G37*
G36*
X0028032Y0129024D02*
X0027337Y0128329D01*
X0023162Y0132504D01*
X0023857Y0133199D01*
X0028032Y0129024D01*
G37*
G36*
X0029424Y0130416D02*
X0028729Y0129721D01*
X0024554Y0133896D01*
X0025249Y0134591D01*
X0029424Y0130416D01*
G37*
G36*
X0030816Y0131808D02*
X0030121Y0131113D01*
X0025946Y0135288D01*
X0026641Y0135983D01*
X0030816Y0131808D01*
G37*
G36*
X0032208Y0133200D02*
X0031513Y0132505D01*
X0027338Y0136680D01*
X0028033Y0137375D01*
X0032208Y0133200D01*
G37*
G36*
X0033600Y0134592D02*
X0032905Y0133897D01*
X0028730Y0138072D01*
X0029425Y0138767D01*
X0033600Y0134592D01*
G37*
G36*
X0034992Y0135984D02*
X0034297Y0135289D01*
X0030122Y0139464D01*
X0030817Y0140159D01*
X0034992Y0135984D01*
G37*
G36*
X0036384Y0137376D02*
X0035689Y0136681D01*
X0031514Y0140856D01*
X0032209Y0141551D01*
X0036384Y0137376D01*
G37*
G36*
X0037776Y0138768D02*
X0037081Y0138073D01*
X0032906Y0142248D01*
X0033601Y0142943D01*
X0037776Y0138768D01*
G37*
G36*
X0039168Y0140160D02*
X0038473Y0139465D01*
X0034298Y0143640D01*
X0034993Y0144335D01*
X0039168Y0140160D01*
G37*
G36*
X0040560Y0141552D02*
X0039865Y0140857D01*
X0035690Y0145032D01*
X0036385Y0145727D01*
X0040560Y0141552D01*
G37*
G36*
X0041952Y0142944D02*
X0041257Y0142249D01*
X0037082Y0146424D01*
X0037777Y0147119D01*
X0041952Y0142944D01*
G37*
G36*
X0043344Y0144336D02*
X0042649Y0143641D01*
X0038474Y0147816D01*
X0039169Y0148511D01*
X0043344Y0144336D01*
G37*
G36*
X0044736Y0145728D02*
X0044041Y0145033D01*
X0039866Y0149208D01*
X0040561Y0149903D01*
X0044736Y0145728D01*
G37*
G36*
X0046128Y0147120D02*
X0045433Y0146425D01*
X0041258Y0150600D01*
X0041953Y0151295D01*
X0046128Y0147120D01*
G37*
G36*
X0047520Y0148512D02*
X0046825Y0147817D01*
X0042650Y0151992D01*
X0043345Y0152687D01*
X0047520Y0148512D01*
G37*
G36*
X0048911Y0149904D02*
X0048216Y0149209D01*
X0044041Y0153384D01*
X0044736Y0154079D01*
X0048911Y0149904D01*
G37*
G36*
X0050303Y0151296D02*
X0049608Y0150601D01*
X0045433Y0154776D01*
X0046128Y0155471D01*
X0050303Y0151296D01*
G37*
G36*
X0051695Y0152688D02*
X0051000Y0151993D01*
X0046825Y0156168D01*
X0047520Y0156863D01*
X0051695Y0152688D01*
G37*
G36*
X0053087Y0154079D02*
X0052392Y0153384D01*
X0048217Y0157559D01*
X0048912Y0158254D01*
X0053087Y0154079D01*
G37*
G36*
X0054479Y0155471D02*
X0053784Y0154776D01*
X0049609Y0158951D01*
X0050304Y0159646D01*
X0054479Y0155471D01*
G37*
G36*
X0087886Y0099794D02*
X0087191Y0099099D01*
X0083016Y0103274D01*
X0083711Y0103969D01*
X0087886Y0099794D01*
G37*
G36*
X0089278Y0101186D02*
X0088583Y0100491D01*
X0084408Y0104666D01*
X0085103Y0105361D01*
X0089278Y0101186D01*
G37*
G36*
X0090670Y0102578D02*
X0089975Y0101883D01*
X0085800Y0106058D01*
X0086495Y0106753D01*
X0090670Y0102578D01*
G37*
G36*
X0092062Y0103970D02*
X0091367Y0103275D01*
X0087192Y0107450D01*
X0087887Y0108145D01*
X0092062Y0103970D01*
G37*
G36*
X0093454Y0105361D02*
X0092759Y0104666D01*
X0088584Y0108841D01*
X0089279Y0109536D01*
X0093454Y0105361D01*
G37*
G36*
X0094846Y0106753D02*
X0094151Y0106058D01*
X0089976Y0110233D01*
X0090671Y0110928D01*
X0094846Y0106753D01*
G37*
G36*
X0096238Y0108145D02*
X0095543Y0107450D01*
X0091368Y0111625D01*
X0092063Y0112320D01*
X0096238Y0108145D01*
G37*
G36*
X0097629Y0109537D02*
X0096934Y0108842D01*
X0092759Y0113017D01*
X0093454Y0113712D01*
X0097629Y0109537D01*
G37*
G36*
X0099021Y0110929D02*
X0098326Y0110234D01*
X0094151Y0114409D01*
X0094846Y0115104D01*
X0099021Y0110929D01*
G37*
G36*
X0086494Y0098402D02*
X0085799Y0097707D01*
X0081624Y0101882D01*
X0082319Y0102577D01*
X0086494Y0098402D01*
G37*
G36*
X0085102Y0097010D02*
X0084407Y0096315D01*
X0080232Y0100490D01*
X0080927Y0101185D01*
X0085102Y0097010D01*
G37*
G36*
X0083710Y0095618D02*
X0083015Y0094923D01*
X0078840Y0099098D01*
X0079535Y0099793D01*
X0083710Y0095618D01*
G37*
G36*
X0082318Y0094226D02*
X0081623Y0093531D01*
X0077448Y0097706D01*
X0078143Y0098401D01*
X0082318Y0094226D01*
G37*
G36*
X0080926Y0092834D02*
X0080231Y0092139D01*
X0076056Y0096314D01*
X0076751Y0097009D01*
X0080926Y0092834D01*
G37*
G36*
X0079534Y0091442D02*
X0078839Y0090747D01*
X0074664Y0094922D01*
X0075359Y0095617D01*
X0079534Y0091442D01*
G37*
G36*
X0078142Y0090050D02*
X0077447Y0089355D01*
X0073272Y0093530D01*
X0073967Y0094225D01*
X0078142Y0090050D01*
G37*
G36*
X0076750Y0088658D02*
X0076055Y0087963D01*
X0071880Y0092138D01*
X0072575Y0092833D01*
X0076750Y0088658D01*
G37*
G36*
X0075358Y0087266D02*
X0074663Y0086571D01*
X0070488Y0090746D01*
X0071183Y0091441D01*
X0075358Y0087266D01*
G37*
G36*
X0073966Y0085874D02*
X0073271Y0085179D01*
X0069096Y0089354D01*
X0069791Y0090049D01*
X0073966Y0085874D01*
G37*
G36*
X0072574Y0084482D02*
X0071879Y0083787D01*
X0067704Y0087962D01*
X0068399Y0088657D01*
X0072574Y0084482D01*
G37*
G36*
X0071183Y0083090D02*
X0070488Y0082395D01*
X0066313Y0086570D01*
X0067008Y0087265D01*
X0071183Y0083090D01*
G37*
G36*
X0069791Y0081698D02*
X0069096Y0081003D01*
X0064921Y0085178D01*
X0065616Y0085873D01*
X0069791Y0081698D01*
G37*
G36*
X0068399Y0080306D02*
X0067704Y0079611D01*
X0063529Y0083786D01*
X0064224Y0084481D01*
X0068399Y0080306D01*
G37*
G36*
X0067007Y0078915D02*
X0066312Y0078220D01*
X0062137Y0082395D01*
X0062832Y0083090D01*
X0067007Y0078915D01*
G37*
G36*
X0065615Y0077523D02*
X0064920Y0076828D01*
X0060745Y0081003D01*
X0061440Y0081698D01*
X0065615Y0077523D01*
G37*
D14*
X0087612Y0023237D03*
D15*
X0087612Y0033237D03*
X0087612Y0043237D03*
X0087612Y0053237D03*
X0087612Y0063237D03*
X0087612Y0073237D03*
X0087612Y0083237D03*
X0087612Y0093237D03*
X0087612Y0143237D03*
X0087612Y0153237D03*
X0087612Y0163237D03*
X0087612Y0173237D03*
X0087612Y0183237D03*
X0087612Y0193237D03*
X0087612Y0203237D03*
X0087612Y0213237D03*
X0027612Y0213237D03*
X0027612Y0203237D03*
X0027612Y0193237D03*
X0027612Y0183237D03*
X0027612Y0173237D03*
X0027612Y0163237D03*
X0027612Y0153237D03*
X0027612Y0143237D03*
X0027612Y0093237D03*
X0027612Y0083237D03*
X0027612Y0073237D03*
X0027612Y0063237D03*
X0027612Y0053237D03*
X0027612Y0043237D03*
X0027612Y0033237D03*
X0027612Y0023237D03*
D16*
X0061372Y0028237D03*
X0068852Y0028237D03*
X0068872Y0204487D03*
X0068872Y0213237D03*
X0068872Y0221987D03*
X0076352Y0221987D03*
X0076352Y0213237D03*
X0076352Y0204487D03*
X0056352Y0204487D03*
X0056352Y0213237D03*
X0056352Y0221987D03*
X0048872Y0221987D03*
X0048872Y0213237D03*
X0048872Y0204487D03*
D17*
X0105737Y0223237D03*
X0015112Y0054487D03*
D18*
X0015112Y0044487D03*
X0015112Y0034487D03*
X0015112Y0024487D03*
X0015112Y0014487D03*
X0105737Y0173237D03*
X0105737Y0183237D03*
X0105737Y0193237D03*
X0105737Y0203237D03*
X0105737Y0213237D03*
D19*
X0107612Y0126180D03*
X0107612Y0119487D03*
X0107612Y0112794D03*
D20*
X0107612Y0150747D03*
X0107612Y0158227D03*
X0098862Y0158227D03*
X0098862Y0150747D03*
D21*
X0085451Y0134940D02*
X0078237Y0127726D01*
X0075737Y0112612D02*
X0077612Y0110737D01*
X0079031Y0110737D01*
X0086843Y0102926D01*
X0082667Y0098750D02*
X0087612Y0093805D01*
X0087612Y0093237D01*
X0081275Y0097358D02*
X0077612Y0101021D01*
X0077612Y0105737D01*
X0069487Y0106362D02*
X0079883Y0095966D01*
X0075707Y0091790D02*
X0080112Y0087385D01*
X0074315Y0090398D02*
X0074201Y0090498D01*
X0068337Y0096362D01*
X0052044Y0079263D02*
X0052044Y0079047D01*
X0046476Y0084830D02*
X0046410Y0084830D01*
X0043693Y0087614D02*
X0043682Y0087614D01*
X0042501Y0089176D02*
X0046137Y0092812D01*
X0042501Y0089176D02*
X0042301Y0089006D01*
X0039517Y0091717D02*
X0039517Y0091790D01*
X0032557Y0098750D02*
X0032557Y0098807D01*
X0043237Y0109487D01*
X0045112Y0133521D02*
X0036733Y0141900D01*
X0038125Y0143292D02*
X0043180Y0138237D01*
X0050652Y0155819D02*
X0050681Y0155819D01*
X0064569Y0155819D02*
X0064572Y0155819D01*
X0067356Y0153036D02*
X0067411Y0153036D01*
X0096586Y0123805D02*
X0096305Y0123505D01*
X0095194Y0111277D02*
X0095197Y0111277D01*
X0024773Y0113237D02*
X0021421Y0109885D01*
D22*
X0018207Y0106661D02*
X0009412Y0097865D01*
X0009412Y0230846D01*
X0112111Y0230846D01*
X0112111Y0189691D01*
X0110616Y0191186D01*
X0110637Y0191207D01*
X0110637Y0195267D01*
X0107767Y0198137D01*
X0103707Y0198137D01*
X0100837Y0195267D01*
X0100837Y0191207D01*
X0103707Y0188337D01*
X0107767Y0188337D01*
X0107788Y0188358D01*
X0109362Y0186784D01*
X0109362Y0186542D01*
X0107767Y0188137D01*
X0103707Y0188137D01*
X0100837Y0185267D01*
X0100837Y0185237D01*
X0098034Y0185237D01*
X0096862Y0184065D01*
X0094362Y0181565D01*
X0094362Y0163659D01*
X0095534Y0162487D01*
X0095634Y0162386D01*
X0095050Y0162386D01*
X0094112Y0161449D01*
X0094112Y0155005D01*
X0094631Y0154487D01*
X0094112Y0153969D01*
X0094112Y0151174D01*
X0091843Y0151174D01*
X0092062Y0151394D01*
X0092062Y0155080D01*
X0089455Y0157687D01*
X0087390Y0157687D01*
X0088440Y0158737D01*
X0088490Y0158787D01*
X0089455Y0158787D01*
X0092062Y0161394D01*
X0092062Y0165080D01*
X0089455Y0167687D01*
X0085769Y0167687D01*
X0083674Y0165593D01*
X0083674Y0170221D01*
X0084005Y0170551D01*
X0085769Y0168787D01*
X0089455Y0168787D01*
X0092062Y0171394D01*
X0092062Y0175080D01*
X0089455Y0177687D01*
X0085769Y0177687D01*
X0083319Y0175237D01*
X0083034Y0175237D01*
X0081862Y0174065D01*
X0080846Y0173049D01*
X0080549Y0172753D01*
X0080549Y0180221D01*
X0081565Y0181237D01*
X0083319Y0181237D01*
X0085769Y0178787D01*
X0089455Y0178787D01*
X0092062Y0181394D01*
X0092062Y0185080D01*
X0089455Y0187687D01*
X0085769Y0187687D01*
X0083319Y0185237D01*
X0079909Y0185237D01*
X0078737Y0184065D01*
X0077721Y0183049D01*
X0077112Y0182440D01*
X0077112Y0187409D01*
X0080940Y0191237D01*
X0083319Y0191237D01*
X0085769Y0188787D01*
X0089455Y0188787D01*
X0092062Y0191394D01*
X0092062Y0195080D01*
X0089455Y0197687D01*
X0085769Y0197687D01*
X0083319Y0195237D01*
X0079940Y0195237D01*
X0084630Y0199926D01*
X0085769Y0198787D01*
X0089455Y0198787D01*
X0092062Y0201394D01*
X0092062Y0205080D01*
X0089455Y0207687D01*
X0085769Y0207687D01*
X0083162Y0205080D01*
X0083162Y0204115D01*
X0083112Y0204065D01*
X0080711Y0201665D01*
X0080711Y0204007D01*
X0076832Y0204007D01*
X0076832Y0204967D01*
X0075873Y0204967D01*
X0075873Y0209437D01*
X0075873Y0212757D01*
X0076832Y0212757D01*
X0076832Y0204967D01*
X0080711Y0204967D01*
X0080711Y0207874D01*
X0080589Y0208331D01*
X0080352Y0208742D01*
X0080231Y0208862D01*
X0080352Y0208982D01*
X0080589Y0209393D01*
X0080711Y0209850D01*
X0080711Y0212757D01*
X0076832Y0212757D01*
X0076832Y0213717D01*
X0075873Y0213717D01*
X0075873Y0218187D01*
X0075873Y0221507D01*
X0076832Y0221507D01*
X0076832Y0213717D01*
X0080711Y0213717D01*
X0080711Y0216624D01*
X0080589Y0217081D01*
X0080352Y0217492D01*
X0080231Y0217612D01*
X0080352Y0217732D01*
X0080589Y0218143D01*
X0080711Y0218600D01*
X0080711Y0221507D01*
X0076832Y0221507D01*
X0076832Y0222467D01*
X0075873Y0222467D01*
X0075873Y0226937D01*
X0073556Y0226937D01*
X0073098Y0226814D01*
X0072688Y0226577D01*
X0072471Y0226360D01*
X0072094Y0226737D01*
X0065650Y0226737D01*
X0064713Y0225799D01*
X0064713Y0223987D01*
X0062615Y0223987D01*
X0061916Y0224686D01*
X0060745Y0225171D01*
X0060511Y0225171D01*
X0060511Y0225799D01*
X0059574Y0226737D01*
X0053130Y0226737D01*
X0052612Y0226218D01*
X0052094Y0226737D01*
X0045650Y0226737D01*
X0044713Y0225799D01*
X0044713Y0225237D01*
X0020534Y0225237D01*
X0019362Y0224065D01*
X0016862Y0221565D01*
X0016862Y0143659D01*
X0018034Y0142487D01*
X0020460Y0140060D01*
X0019558Y0139686D01*
X0018663Y0138791D01*
X0018178Y0137620D01*
X0018178Y0136354D01*
X0018663Y0135183D01*
X0019558Y0134288D01*
X0020729Y0133803D01*
X0021914Y0133803D01*
X0021721Y0133610D01*
X0021484Y0133199D01*
X0021444Y0133050D01*
X0020411Y0132016D01*
X0019019Y0130625D01*
X0017627Y0129233D01*
X0016235Y0127841D01*
X0014602Y0126207D01*
X0014602Y0124882D01*
X0014727Y0124756D01*
X0014558Y0124686D01*
X0013663Y0123791D01*
X0013178Y0122620D01*
X0013178Y0121354D01*
X0013663Y0120183D01*
X0014558Y0119288D01*
X0015729Y0118803D01*
X0016995Y0118803D01*
X0018166Y0119288D01*
X0019061Y0120183D01*
X0019131Y0120352D01*
X0019715Y0119769D01*
X0021040Y0119769D01*
X0022673Y0121402D01*
X0024065Y0122794D01*
X0025457Y0124186D01*
X0026849Y0125578D01*
X0027883Y0126611D01*
X0028032Y0126651D01*
X0028442Y0126888D01*
X0028958Y0127404D01*
X0029474Y0127919D01*
X0029711Y0128330D01*
X0029751Y0128479D01*
X0031025Y0129754D01*
X0032417Y0131146D01*
X0032913Y0131641D01*
X0036106Y0128448D01*
X0036106Y0127364D01*
X0036621Y0126122D01*
X0037572Y0125171D01*
X0038814Y0124656D01*
X0040160Y0124656D01*
X0041402Y0125171D01*
X0042353Y0126122D01*
X0042868Y0127364D01*
X0042868Y0128710D01*
X0042353Y0129952D01*
X0041402Y0130903D01*
X0040160Y0131418D01*
X0039076Y0131418D01*
X0035883Y0134611D01*
X0036593Y0135322D01*
X0037985Y0136713D01*
X0038531Y0137259D01*
X0041928Y0133863D01*
X0041928Y0132604D01*
X0042413Y0131433D01*
X0043308Y0130538D01*
X0044479Y0130053D01*
X0045745Y0130053D01*
X0046916Y0130538D01*
X0047811Y0131433D01*
X0048296Y0132604D01*
X0048296Y0133870D01*
X0047811Y0135041D01*
X0046916Y0135936D01*
X0045745Y0136421D01*
X0045054Y0136421D01*
X0041515Y0139961D01*
X0042001Y0140447D01*
X0042238Y0140857D01*
X0042278Y0141007D01*
X0043553Y0142281D01*
X0044703Y0143432D01*
X0044703Y0143432D01*
X0045463Y0144191D01*
X0046006Y0143648D01*
X0046006Y0142564D01*
X0046521Y0141322D01*
X0047472Y0140371D01*
X0048714Y0139856D01*
X0050060Y0139856D01*
X0051302Y0140371D01*
X0052253Y0141322D01*
X0052768Y0142564D01*
X0052768Y0143224D01*
X0055221Y0145677D01*
X0055897Y0146353D01*
X0056262Y0147235D01*
X0056262Y0148493D01*
X0059647Y0151878D01*
X0060012Y0152760D01*
X0060012Y0153941D01*
X0060418Y0153534D01*
X0060458Y0153385D01*
X0060695Y0152974D01*
X0061202Y0152468D01*
X0060612Y0151878D01*
X0060612Y0150740D01*
X0059913Y0150041D01*
X0059428Y0148870D01*
X0059428Y0147604D01*
X0059913Y0146433D01*
X0060808Y0145538D01*
X0061979Y0145053D01*
X0063245Y0145053D01*
X0064416Y0145538D01*
X0065311Y0146433D01*
X0065796Y0147604D01*
X0065796Y0148156D01*
X0066104Y0147849D01*
X0067737Y0146216D01*
X0069129Y0144824D01*
X0070521Y0143432D01*
X0071031Y0142922D01*
X0070420Y0142311D01*
X0069952Y0142778D01*
X0068710Y0143293D01*
X0067364Y0143293D01*
X0066122Y0142778D01*
X0065171Y0141827D01*
X0064656Y0140585D01*
X0064656Y0139239D01*
X0065171Y0137997D01*
X0066122Y0137046D01*
X0067364Y0136531D01*
X0068710Y0136531D01*
X0069952Y0137046D01*
X0070903Y0137997D01*
X0070951Y0138112D01*
X0071878Y0138112D01*
X0073859Y0140093D01*
X0074697Y0139256D01*
X0076088Y0137864D01*
X0076594Y0137359D01*
X0075729Y0137359D01*
X0074558Y0136874D01*
X0073663Y0135978D01*
X0073178Y0134808D01*
X0073178Y0133541D01*
X0073663Y0132371D01*
X0074558Y0131475D01*
X0075729Y0130990D01*
X0076995Y0130990D01*
X0078166Y0131475D01*
X0079061Y0132371D01*
X0079546Y0133541D01*
X0079546Y0134406D01*
X0080264Y0133688D01*
X0081298Y0132655D01*
X0081338Y0132506D01*
X0081575Y0132095D01*
X0082090Y0131580D01*
X0082807Y0132296D01*
X0082090Y0131580D01*
X0082606Y0131064D01*
X0083016Y0130827D01*
X0083166Y0130787D01*
X0084440Y0129512D01*
X0085832Y0128121D01*
X0087224Y0126729D01*
X0088616Y0125337D01*
X0090008Y0123945D01*
X0091400Y0122553D01*
X0091864Y0122089D01*
X0090384Y0120637D01*
X0082269Y0120637D01*
X0081410Y0120993D01*
X0080064Y0120993D01*
X0078822Y0120478D01*
X0077871Y0119527D01*
X0077356Y0118285D01*
X0077356Y0116939D01*
X0077871Y0115697D01*
X0078822Y0114746D01*
X0080064Y0114231D01*
X0081410Y0114231D01*
X0082652Y0114746D01*
X0083603Y0115697D01*
X0083661Y0115837D01*
X0091414Y0115837D01*
X0092296Y0116202D01*
X0092972Y0116878D01*
X0093260Y0117575D01*
X0095496Y0119769D01*
X0095509Y0119769D01*
X0096197Y0120457D01*
X0098396Y0122615D01*
X0098397Y0122657D01*
X0100622Y0124882D01*
X0100622Y0126207D01*
X0099230Y0127599D01*
X0097838Y0128991D01*
X0096446Y0130383D01*
X0095055Y0131775D01*
X0093421Y0133408D01*
X0092954Y0133876D01*
X0093025Y0133946D01*
X0093308Y0133663D01*
X0094479Y0133178D01*
X0095745Y0133178D01*
X0096916Y0133663D01*
X0097811Y0134558D01*
X0098296Y0135729D01*
X0098296Y0136599D01*
X0104557Y0130339D01*
X0103997Y0130339D01*
X0103059Y0129402D01*
X0103059Y0122958D01*
X0103184Y0122833D01*
X0103059Y0122709D01*
X0103059Y0116265D01*
X0103184Y0116141D01*
X0103059Y0116016D01*
X0103059Y0109572D01*
X0103997Y0108635D01*
X0104362Y0108635D01*
X0104362Y0101990D01*
X0103663Y0101291D01*
X0103178Y0100120D01*
X0103178Y0098854D01*
X0103663Y0097683D01*
X0104558Y0096788D01*
X0105729Y0096303D01*
X0106995Y0096303D01*
X0108166Y0096788D01*
X0109061Y0097683D01*
X0109546Y0098854D01*
X0109546Y0100120D01*
X0109061Y0101291D01*
X0108362Y0101990D01*
X0108362Y0108635D01*
X0111227Y0108635D01*
X0112111Y0109519D01*
X0112111Y0010037D01*
X0017874Y0010037D01*
X0020212Y0012375D01*
X0020212Y0014287D01*
X0015312Y0014287D01*
X0015312Y0014687D01*
X0014912Y0014687D01*
X0014912Y0014287D01*
X0010012Y0014287D01*
X0010012Y0012375D01*
X0012350Y0010037D01*
X0009412Y0010037D01*
X0009412Y0027359D01*
X0010233Y0026538D01*
X0010212Y0026517D01*
X0010212Y0022457D01*
X0013082Y0019587D01*
X0017142Y0019587D01*
X0020012Y0022457D01*
X0020012Y0026517D01*
X0017142Y0029387D01*
X0013082Y0029387D01*
X0013061Y0029366D01*
X0012112Y0030315D01*
X0012112Y0030557D01*
X0013082Y0029587D01*
X0017142Y0029587D01*
X0020012Y0032457D01*
X0020012Y0032487D01*
X0020940Y0032487D01*
X0023162Y0034709D01*
X0023162Y0031394D01*
X0025769Y0028787D01*
X0029455Y0028787D01*
X0032062Y0031394D01*
X0032062Y0034859D01*
X0049292Y0052088D01*
X0050463Y0053260D01*
X0050463Y0074638D01*
X0052863Y0077037D01*
X0052877Y0077037D01*
X0054054Y0078215D01*
X0054054Y0078314D01*
X0055212Y0079472D01*
X0055212Y0035481D01*
X0051253Y0031522D01*
X0051253Y0031522D01*
X0050577Y0030846D01*
X0045368Y0025637D01*
X0031505Y0025637D01*
X0029455Y0027687D01*
X0025769Y0027687D01*
X0023162Y0025080D01*
X0023162Y0021394D01*
X0025769Y0018787D01*
X0029455Y0018787D01*
X0031505Y0020837D01*
X0046839Y0020837D01*
X0047721Y0021202D01*
X0052657Y0026138D01*
X0053385Y0025837D01*
X0057213Y0025837D01*
X0057213Y0024425D01*
X0058150Y0023487D01*
X0064594Y0023487D01*
X0065112Y0024006D01*
X0065630Y0023487D01*
X0072074Y0023487D01*
X0073011Y0024425D01*
X0073011Y0026137D01*
X0078482Y0026137D01*
X0079800Y0027455D01*
X0083162Y0024092D01*
X0083162Y0019724D01*
X0084099Y0018787D01*
X0091125Y0018787D01*
X0092062Y0019724D01*
X0092062Y0026750D01*
X0091125Y0027687D01*
X0085507Y0027687D01*
X0081899Y0031294D01*
X0081899Y0031294D01*
X0080669Y0032524D01*
X0080528Y0032524D01*
X0070237Y0042815D01*
X0070237Y0047784D01*
X0070534Y0047487D01*
X0083162Y0034859D01*
X0083162Y0031394D01*
X0085769Y0028787D01*
X0089455Y0028787D01*
X0092062Y0031394D01*
X0092062Y0035080D01*
X0089455Y0037687D01*
X0085990Y0037687D01*
X0073362Y0050315D01*
X0073362Y0054659D01*
X0073659Y0054362D01*
X0083162Y0044859D01*
X0083162Y0041394D01*
X0085769Y0038787D01*
X0089455Y0038787D01*
X0092062Y0041394D01*
X0092062Y0045080D01*
X0089455Y0047687D01*
X0085990Y0047687D01*
X0076487Y0057190D01*
X0076487Y0061534D01*
X0076784Y0061237D01*
X0083162Y0054859D01*
X0083162Y0051394D01*
X0085769Y0048787D01*
X0089455Y0048787D01*
X0092062Y0051394D01*
X0092062Y0055080D01*
X0089455Y0057687D01*
X0085990Y0057687D01*
X0079612Y0064065D01*
X0079612Y0068409D01*
X0083162Y0064859D01*
X0083162Y0061394D01*
X0085769Y0058787D01*
X0089455Y0058787D01*
X0092062Y0061394D01*
X0092062Y0065080D01*
X0089455Y0067687D01*
X0085990Y0067687D01*
X0082112Y0071565D01*
X0082112Y0075909D01*
X0083162Y0074859D01*
X0083162Y0071394D01*
X0085769Y0068787D01*
X0089455Y0068787D01*
X0092062Y0071394D01*
X0092062Y0075080D01*
X0089455Y0077687D01*
X0085990Y0077687D01*
X0084612Y0079065D01*
X0084612Y0079944D01*
X0085769Y0078787D01*
X0089455Y0078787D01*
X0092062Y0081394D01*
X0092062Y0085080D01*
X0089455Y0087687D01*
X0088207Y0087687D01*
X0087107Y0088787D01*
X0089455Y0088787D01*
X0092062Y0091394D01*
X0092062Y0095080D01*
X0089455Y0097687D01*
X0088043Y0097687D01*
X0089128Y0098772D01*
X0089277Y0098812D01*
X0089688Y0099049D01*
X0090203Y0099565D01*
X0089487Y0100282D01*
X0090204Y0099565D01*
X0090267Y0099629D01*
X0090678Y0099218D01*
X0090678Y0098229D01*
X0091163Y0097058D01*
X0092058Y0096163D01*
X0093229Y0095678D01*
X0094495Y0095678D01*
X0095666Y0096163D01*
X0096561Y0097058D01*
X0097046Y0098229D01*
X0097046Y0099495D01*
X0096561Y0100666D01*
X0095666Y0101561D01*
X0094495Y0102046D01*
X0093506Y0102046D01*
X0092954Y0102598D01*
X0093421Y0103066D01*
X0093421Y0103066D01*
X0094813Y0104458D01*
X0096446Y0106091D01*
X0096928Y0106572D01*
X0096928Y0105729D01*
X0097413Y0104558D01*
X0098308Y0103663D01*
X0099479Y0103178D01*
X0100745Y0103178D01*
X0101916Y0103663D01*
X0102811Y0104558D01*
X0103296Y0105729D01*
X0103296Y0106995D01*
X0102811Y0108166D01*
X0101916Y0109061D01*
X0100745Y0109546D01*
X0099902Y0109546D01*
X0100622Y0110267D01*
X0100622Y0111592D01*
X0095509Y0116705D01*
X0094184Y0116705D01*
X0092551Y0115072D01*
X0091159Y0113680D01*
X0090008Y0112529D01*
X0088375Y0110896D01*
X0087224Y0109745D01*
X0085591Y0108112D01*
X0084557Y0107079D01*
X0084408Y0107039D01*
X0083998Y0106802D01*
X0083482Y0106286D01*
X0082967Y0105771D01*
X0082730Y0105360D01*
X0082690Y0105211D01*
X0081415Y0103936D01*
X0080023Y0102544D01*
X0079622Y0102143D01*
X0079622Y0102965D01*
X0080478Y0103822D01*
X0080993Y0105064D01*
X0080993Y0106410D01*
X0080478Y0107652D01*
X0079527Y0108603D01*
X0078285Y0109118D01*
X0076939Y0109118D01*
X0075697Y0108603D01*
X0074746Y0107652D01*
X0074231Y0106410D01*
X0074231Y0105064D01*
X0074746Y0103822D01*
X0075602Y0102965D01*
X0075602Y0100188D01*
X0076493Y0099297D01*
X0076007Y0098811D01*
X0075770Y0098401D01*
X0075730Y0098251D01*
X0074455Y0096977D01*
X0073063Y0095585D01*
X0072510Y0095031D01*
X0071718Y0095823D01*
X0071718Y0097035D01*
X0071203Y0098277D01*
X0070252Y0099228D01*
X0069010Y0099743D01*
X0067664Y0099743D01*
X0066422Y0099228D01*
X0065471Y0098277D01*
X0064956Y0097035D01*
X0064956Y0095689D01*
X0065471Y0094447D01*
X0066422Y0093496D01*
X0067664Y0092981D01*
X0068876Y0092981D01*
X0069668Y0092189D01*
X0068887Y0091409D01*
X0067496Y0090017D01*
X0066104Y0088625D01*
X0064712Y0087233D01*
X0063320Y0085841D01*
X0061928Y0084449D01*
X0060894Y0083416D01*
X0060745Y0083376D01*
X0060335Y0083139D01*
X0059819Y0082623D01*
X0059726Y0082530D01*
X0059647Y0082721D01*
X0058971Y0083397D01*
X0058929Y0083414D01*
X0049531Y0092812D01*
X0049596Y0092877D01*
X0049596Y0092877D01*
X0050272Y0093553D01*
X0050637Y0094435D01*
X0050637Y0097730D01*
X0051103Y0098197D01*
X0051618Y0099439D01*
X0051618Y0100785D01*
X0051103Y0102027D01*
X0050152Y0102978D01*
X0048910Y0103493D01*
X0047564Y0103493D01*
X0046322Y0102978D01*
X0045371Y0102027D01*
X0044856Y0100785D01*
X0044856Y0099439D01*
X0045371Y0098197D01*
X0045837Y0097730D01*
X0045837Y0095906D01*
X0044102Y0094171D01*
X0043948Y0093798D01*
X0043311Y0094434D01*
X0041919Y0095826D01*
X0040527Y0097218D01*
X0039136Y0098610D01*
X0037744Y0100002D01*
X0036710Y0101035D01*
X0036670Y0101184D01*
X0036433Y0101595D01*
X0035918Y0102110D01*
X0035201Y0101394D01*
X0035918Y0102111D01*
X0035402Y0102626D01*
X0034992Y0102863D01*
X0034842Y0102903D01*
X0033568Y0104178D01*
X0032417Y0105328D01*
X0032417Y0105328D01*
X0030784Y0106962D01*
X0029392Y0108353D01*
X0028000Y0109745D01*
X0026908Y0110837D01*
X0034605Y0110837D01*
X0035072Y0110371D01*
X0036314Y0109856D01*
X0037660Y0109856D01*
X0038902Y0110371D01*
X0039853Y0111322D01*
X0040368Y0112564D01*
X0040368Y0113910D01*
X0039853Y0115152D01*
X0038902Y0116103D01*
X0037660Y0116618D01*
X0036314Y0116618D01*
X0035072Y0116103D01*
X0034605Y0115637D01*
X0024296Y0115637D01*
X0023414Y0115272D01*
X0022944Y0114802D01*
X0022432Y0115313D01*
X0021040Y0116705D01*
X0019715Y0116705D01*
X0019131Y0116122D01*
X0019061Y0116291D01*
X0018166Y0117186D01*
X0016995Y0117671D01*
X0015729Y0117671D01*
X0014558Y0117186D01*
X0013663Y0116291D01*
X0013178Y0115120D01*
X0013178Y0113854D01*
X0013663Y0112683D01*
X0014558Y0111788D01*
X0014727Y0111718D01*
X0014602Y0111592D01*
X0014602Y0110267D01*
X0015994Y0108875D01*
X0017386Y0107483D01*
X0018207Y0106661D01*
X0017524Y0107345D02*
X0009412Y0107345D01*
X0009412Y0108943D02*
X0015925Y0108943D01*
X0014602Y0110542D02*
X0009412Y0110542D01*
X0009412Y0112140D02*
X0014206Y0112140D01*
X0013225Y0113739D02*
X0009412Y0113739D01*
X0009412Y0115337D02*
X0013268Y0115337D01*
X0014308Y0116936D02*
X0009412Y0116936D01*
X0009412Y0118534D02*
X0077459Y0118534D01*
X0077357Y0116936D02*
X0018416Y0116936D01*
X0019011Y0120133D02*
X0019351Y0120133D01*
X0021404Y0120133D02*
X0078476Y0120133D01*
X0080737Y0117612D02*
X0081362Y0118237D01*
X0090937Y0118237D01*
X0092996Y0116936D02*
X0103059Y0116936D01*
X0103059Y0118534D02*
X0094238Y0118534D01*
X0095873Y0120133D02*
X0103059Y0120133D01*
X0103059Y0121731D02*
X0097496Y0121731D01*
X0099070Y0123330D02*
X0103059Y0123330D01*
X0103059Y0124928D02*
X0100622Y0124928D01*
X0100303Y0126527D02*
X0103059Y0126527D01*
X0103059Y0128125D02*
X0098704Y0128125D01*
X0097106Y0129724D02*
X0103381Y0129724D01*
X0103573Y0131322D02*
X0095507Y0131322D01*
X0093909Y0132921D02*
X0101975Y0132921D01*
X0100376Y0134519D02*
X0097773Y0134519D01*
X0098296Y0136118D02*
X0098778Y0136118D01*
X0101237Y0139315D02*
X0109987Y0139315D01*
X0109987Y0140913D02*
X0099639Y0140913D01*
X0098040Y0142512D02*
X0109987Y0142512D01*
X0109987Y0144110D02*
X0096442Y0144110D01*
X0094843Y0145709D02*
X0109821Y0145709D01*
X0109987Y0145543D02*
X0109987Y0130339D01*
X0109612Y0130339D01*
X0109612Y0130940D01*
X0108440Y0132112D01*
X0093378Y0147175D01*
X0094463Y0147175D01*
X0095050Y0146588D01*
X0102674Y0146588D01*
X0103237Y0147150D01*
X0103800Y0146588D01*
X0108943Y0146588D01*
X0109987Y0145543D01*
X0109987Y0137716D02*
X0102836Y0137716D01*
X0104435Y0136118D02*
X0109987Y0136118D01*
X0109987Y0134519D02*
X0106033Y0134519D01*
X0107632Y0132921D02*
X0109987Y0132921D01*
X0109987Y0131322D02*
X0109230Y0131322D01*
X0103059Y0115337D02*
X0096877Y0115337D01*
X0098476Y0113739D02*
X0103059Y0113739D01*
X0103059Y0112140D02*
X0100074Y0112140D01*
X0100622Y0110542D02*
X0103059Y0110542D01*
X0103688Y0108943D02*
X0102034Y0108943D01*
X0103152Y0107345D02*
X0104362Y0107345D01*
X0104362Y0105746D02*
X0103296Y0105746D01*
X0102401Y0104148D02*
X0104362Y0104148D01*
X0104362Y0102549D02*
X0093003Y0102549D01*
X0094503Y0104148D02*
X0097823Y0104148D01*
X0096928Y0105746D02*
X0096102Y0105746D01*
X0096446Y0106091D02*
X0096446Y0106091D01*
X0096277Y0100951D02*
X0103522Y0100951D01*
X0103178Y0099352D02*
X0097046Y0099352D01*
X0096850Y0097754D02*
X0103633Y0097754D01*
X0109091Y0097754D02*
X0112111Y0097754D01*
X0112111Y0099352D02*
X0109546Y0099352D01*
X0109202Y0100951D02*
X0112111Y0100951D01*
X0112111Y0102549D02*
X0108362Y0102549D01*
X0108362Y0104148D02*
X0112111Y0104148D01*
X0112111Y0105746D02*
X0108362Y0105746D01*
X0108362Y0107345D02*
X0112111Y0107345D01*
X0112111Y0108943D02*
X0111536Y0108943D01*
X0112111Y0096155D02*
X0095648Y0096155D01*
X0092076Y0096155D02*
X0090987Y0096155D01*
X0090874Y0097754D02*
X0088109Y0097754D01*
X0089991Y0099352D02*
X0090543Y0099352D01*
X0089487Y0100282D02*
X0089487Y0100282D01*
X0089487Y0100282D01*
X0092062Y0094557D02*
X0112111Y0094557D01*
X0112111Y0092958D02*
X0092062Y0092958D01*
X0092028Y0091360D02*
X0112111Y0091360D01*
X0112111Y0089761D02*
X0090429Y0089761D01*
X0087731Y0088163D02*
X0112111Y0088163D01*
X0112111Y0086564D02*
X0090578Y0086564D01*
X0092062Y0084966D02*
X0112111Y0084966D01*
X0112111Y0083367D02*
X0092062Y0083367D01*
X0092062Y0081769D02*
X0112111Y0081769D01*
X0112111Y0080170D02*
X0090838Y0080170D01*
X0090169Y0076973D02*
X0112111Y0076973D01*
X0112111Y0075374D02*
X0091768Y0075374D01*
X0092062Y0073776D02*
X0112111Y0073776D01*
X0112111Y0072177D02*
X0092062Y0072177D01*
X0091247Y0070579D02*
X0112111Y0070579D01*
X0112111Y0068980D02*
X0089649Y0068980D01*
X0089760Y0067382D02*
X0112111Y0067382D01*
X0112111Y0065783D02*
X0091359Y0065783D01*
X0092062Y0064185D02*
X0112111Y0064185D01*
X0112111Y0062586D02*
X0092062Y0062586D01*
X0091656Y0060988D02*
X0112111Y0060988D01*
X0112111Y0059389D02*
X0090058Y0059389D01*
X0090950Y0056192D02*
X0112111Y0056192D01*
X0112111Y0054594D02*
X0092062Y0054594D01*
X0092062Y0052995D02*
X0112111Y0052995D01*
X0112111Y0051397D02*
X0092062Y0051397D01*
X0090467Y0049798D02*
X0112111Y0049798D01*
X0112111Y0048200D02*
X0085478Y0048200D01*
X0084757Y0049798D02*
X0083879Y0049798D01*
X0083162Y0051397D02*
X0082281Y0051397D01*
X0083162Y0052995D02*
X0080682Y0052995D01*
X0079084Y0054594D02*
X0083162Y0054594D01*
X0081828Y0056192D02*
X0077485Y0056192D01*
X0076487Y0057791D02*
X0080230Y0057791D01*
X0078631Y0059389D02*
X0076487Y0059389D01*
X0076487Y0060988D02*
X0077033Y0060988D01*
X0079612Y0064185D02*
X0083162Y0064185D01*
X0083162Y0062586D02*
X0081091Y0062586D01*
X0082690Y0060988D02*
X0083568Y0060988D01*
X0084288Y0059389D02*
X0085166Y0059389D01*
X0085887Y0057791D02*
X0112111Y0057791D01*
X0112111Y0046601D02*
X0090541Y0046601D01*
X0092062Y0045003D02*
X0112111Y0045003D01*
X0112111Y0043404D02*
X0092062Y0043404D01*
X0092062Y0041806D02*
X0112111Y0041806D01*
X0112111Y0040207D02*
X0090875Y0040207D01*
X0090132Y0037010D02*
X0112111Y0037010D01*
X0112111Y0035412D02*
X0091731Y0035412D01*
X0092062Y0033813D02*
X0112111Y0033813D01*
X0112111Y0032215D02*
X0092062Y0032215D01*
X0091284Y0030616D02*
X0112111Y0030616D01*
X0112111Y0029018D02*
X0089686Y0029018D01*
X0091393Y0027419D02*
X0112111Y0027419D01*
X0112111Y0025821D02*
X0092062Y0025821D01*
X0092062Y0024222D02*
X0112111Y0024222D01*
X0112111Y0022624D02*
X0092062Y0022624D01*
X0092062Y0021025D02*
X0112111Y0021025D01*
X0112111Y0019427D02*
X0091764Y0019427D01*
X0085538Y0029018D02*
X0084176Y0029018D01*
X0083940Y0030616D02*
X0082578Y0030616D01*
X0083162Y0032215D02*
X0080979Y0032215D01*
X0079239Y0033813D02*
X0083162Y0033813D01*
X0082609Y0035412D02*
X0077641Y0035412D01*
X0076042Y0037010D02*
X0081010Y0037010D01*
X0079412Y0038609D02*
X0074444Y0038609D01*
X0072845Y0040207D02*
X0077813Y0040207D01*
X0076215Y0041806D02*
X0071247Y0041806D01*
X0070237Y0043404D02*
X0074616Y0043404D01*
X0073018Y0045003D02*
X0070237Y0045003D01*
X0070237Y0046601D02*
X0071419Y0046601D01*
X0073879Y0049798D02*
X0078222Y0049798D01*
X0079821Y0048200D02*
X0075478Y0048200D01*
X0077076Y0046601D02*
X0081419Y0046601D01*
X0083018Y0045003D02*
X0078675Y0045003D01*
X0080273Y0043404D02*
X0083162Y0043404D01*
X0083162Y0041806D02*
X0081872Y0041806D01*
X0083470Y0040207D02*
X0084349Y0040207D01*
X0085069Y0038609D02*
X0112111Y0038609D01*
X0112111Y0017828D02*
X0018983Y0017828D01*
X0020212Y0016599D02*
X0017224Y0019587D01*
X0015312Y0019587D01*
X0015312Y0014687D01*
X0020212Y0014687D01*
X0020212Y0016599D01*
X0020212Y0016230D02*
X0112111Y0016230D01*
X0112111Y0014631D02*
X0015312Y0014631D01*
X0014912Y0014631D02*
X0009412Y0014631D01*
X0010012Y0014687D02*
X0014912Y0014687D01*
X0014912Y0019587D01*
X0013000Y0019587D01*
X0010012Y0016599D01*
X0010012Y0014687D01*
X0010012Y0016230D02*
X0009412Y0016230D01*
X0009412Y0017828D02*
X0011241Y0017828D01*
X0012839Y0019427D02*
X0009412Y0019427D01*
X0009412Y0021025D02*
X0011644Y0021025D01*
X0010212Y0022624D02*
X0009412Y0022624D01*
X0009412Y0024222D02*
X0010212Y0024222D01*
X0010212Y0025821D02*
X0009412Y0025821D01*
X0014912Y0019427D02*
X0015312Y0019427D01*
X0015312Y0017828D02*
X0014912Y0017828D01*
X0014912Y0016230D02*
X0015312Y0016230D01*
X0017385Y0019427D02*
X0025129Y0019427D01*
X0023531Y0021025D02*
X0018580Y0021025D01*
X0020012Y0022624D02*
X0023162Y0022624D01*
X0023162Y0024222D02*
X0020012Y0024222D01*
X0020012Y0025821D02*
X0023902Y0025821D01*
X0025501Y0027419D02*
X0019109Y0027419D01*
X0017511Y0029018D02*
X0025538Y0029018D01*
X0023940Y0030616D02*
X0018171Y0030616D01*
X0019769Y0032215D02*
X0023162Y0032215D01*
X0023162Y0033813D02*
X0022267Y0033813D01*
X0019663Y0036866D02*
X0020612Y0037815D01*
X0020612Y0077815D01*
X0021862Y0079065D01*
X0023034Y0080237D01*
X0024319Y0080237D01*
X0023162Y0081394D01*
X0023162Y0085080D01*
X0025769Y0087687D01*
X0025966Y0087687D01*
X0027066Y0088787D01*
X0025769Y0088787D01*
X0023162Y0091394D01*
X0023162Y0095080D01*
X0025769Y0097687D01*
X0025882Y0097687D01*
X0026532Y0098337D01*
X0025737Y0099131D01*
X0025737Y0099131D01*
X0025184Y0099684D01*
X0025120Y0099620D01*
X0025171Y0099495D01*
X0025171Y0098229D01*
X0024686Y0097058D01*
X0023791Y0096163D01*
X0022620Y0095678D01*
X0021354Y0095678D01*
X0020183Y0096163D01*
X0019288Y0097058D01*
X0018803Y0098229D01*
X0018803Y0099495D01*
X0019288Y0100666D01*
X0020183Y0101561D01*
X0021354Y0102046D01*
X0021890Y0102046D01*
X0022356Y0102513D01*
X0021803Y0103066D01*
X0021803Y0103066D01*
X0021036Y0103832D01*
X0012112Y0094909D01*
X0012112Y0059387D01*
X0013112Y0059387D01*
X0013112Y0090315D01*
X0015678Y0092881D01*
X0015678Y0093870D01*
X0016163Y0095041D01*
X0017058Y0095936D01*
X0018229Y0096421D01*
X0019495Y0096421D01*
X0020666Y0095936D01*
X0021561Y0095041D01*
X0022046Y0093870D01*
X0022046Y0092604D01*
X0021561Y0091433D01*
X0020666Y0090538D01*
X0019495Y0090053D01*
X0018506Y0090053D01*
X0017112Y0088659D01*
X0017112Y0059387D01*
X0019075Y0059387D01*
X0020012Y0058450D01*
X0020012Y0050524D01*
X0019075Y0049587D01*
X0012112Y0049587D01*
X0012112Y0048417D01*
X0013082Y0049387D01*
X0017142Y0049387D01*
X0020012Y0046517D01*
X0020012Y0042457D01*
X0017142Y0039587D01*
X0013082Y0039587D01*
X0012112Y0040557D01*
X0012112Y0038417D01*
X0013082Y0039387D01*
X0017142Y0039387D01*
X0019663Y0036866D01*
X0019807Y0037010D02*
X0019518Y0037010D01*
X0020612Y0038609D02*
X0017920Y0038609D01*
X0017762Y0040207D02*
X0020612Y0040207D01*
X0020612Y0041806D02*
X0019360Y0041806D01*
X0020012Y0043404D02*
X0020612Y0043404D01*
X0020612Y0045003D02*
X0020012Y0045003D01*
X0019927Y0046601D02*
X0020612Y0046601D01*
X0020612Y0048200D02*
X0018329Y0048200D01*
X0019286Y0049798D02*
X0020612Y0049798D01*
X0020612Y0051397D02*
X0020012Y0051397D01*
X0020012Y0052995D02*
X0020612Y0052995D01*
X0020612Y0054594D02*
X0020012Y0054594D01*
X0020012Y0056192D02*
X0020612Y0056192D01*
X0020612Y0057791D02*
X0020012Y0057791D01*
X0020612Y0059389D02*
X0017112Y0059389D01*
X0017112Y0060988D02*
X0020612Y0060988D01*
X0020612Y0062586D02*
X0017112Y0062586D01*
X0017112Y0064185D02*
X0020612Y0064185D01*
X0020612Y0065783D02*
X0017112Y0065783D01*
X0017112Y0067382D02*
X0020612Y0067382D01*
X0020612Y0068980D02*
X0017112Y0068980D01*
X0017112Y0070579D02*
X0020612Y0070579D01*
X0020612Y0072177D02*
X0017112Y0072177D01*
X0017112Y0073776D02*
X0020612Y0073776D01*
X0020612Y0075374D02*
X0017112Y0075374D01*
X0017112Y0076973D02*
X0020612Y0076973D01*
X0021368Y0078572D02*
X0017112Y0078572D01*
X0017112Y0080170D02*
X0022967Y0080170D01*
X0023162Y0081769D02*
X0017112Y0081769D01*
X0017112Y0083367D02*
X0023162Y0083367D01*
X0023162Y0084966D02*
X0017112Y0084966D01*
X0017112Y0086564D02*
X0024646Y0086564D01*
X0026441Y0088163D02*
X0017112Y0088163D01*
X0018215Y0089761D02*
X0024795Y0089761D01*
X0023196Y0091360D02*
X0021488Y0091360D01*
X0022046Y0092958D02*
X0023162Y0092958D01*
X0023162Y0094557D02*
X0021762Y0094557D01*
X0020201Y0096155D02*
X0020138Y0096155D01*
X0018999Y0097754D02*
X0014957Y0097754D01*
X0016556Y0099352D02*
X0018803Y0099352D01*
X0018154Y0100951D02*
X0019572Y0100951D01*
X0019753Y0102549D02*
X0022319Y0102549D01*
X0025171Y0099352D02*
X0025516Y0099352D01*
X0025949Y0097754D02*
X0024975Y0097754D01*
X0024237Y0096155D02*
X0023773Y0096155D01*
X0017586Y0096155D02*
X0013359Y0096155D01*
X0012112Y0094557D02*
X0015962Y0094557D01*
X0015678Y0092958D02*
X0012112Y0092958D01*
X0012112Y0091360D02*
X0014156Y0091360D01*
X0013112Y0089761D02*
X0012112Y0089761D01*
X0012112Y0088163D02*
X0013112Y0088163D01*
X0013112Y0086564D02*
X0012112Y0086564D01*
X0012112Y0084966D02*
X0013112Y0084966D01*
X0013112Y0083367D02*
X0012112Y0083367D01*
X0012112Y0081769D02*
X0013112Y0081769D01*
X0013112Y0080170D02*
X0012112Y0080170D01*
X0012112Y0078572D02*
X0013112Y0078572D01*
X0013112Y0076973D02*
X0012112Y0076973D01*
X0012112Y0075374D02*
X0013112Y0075374D01*
X0013112Y0073776D02*
X0012112Y0073776D01*
X0012112Y0072177D02*
X0013112Y0072177D01*
X0013112Y0070579D02*
X0012112Y0070579D01*
X0012112Y0068980D02*
X0013112Y0068980D01*
X0013112Y0067382D02*
X0012112Y0067382D01*
X0012112Y0065783D02*
X0013112Y0065783D01*
X0013112Y0064185D02*
X0012112Y0064185D01*
X0012112Y0062586D02*
X0013112Y0062586D01*
X0013112Y0060988D02*
X0012112Y0060988D01*
X0012112Y0059389D02*
X0013112Y0059389D01*
X0012462Y0040207D02*
X0012112Y0040207D01*
X0012112Y0038609D02*
X0012304Y0038609D01*
X0027612Y0023237D02*
X0046362Y0023237D01*
X0052612Y0029487D01*
X0053862Y0028237D01*
X0061372Y0028237D01*
X0059506Y0032987D02*
X0059647Y0033128D01*
X0060012Y0034010D01*
X0060012Y0079189D01*
X0061559Y0077642D01*
X0063092Y0079175D01*
X0063092Y0079175D01*
X0061559Y0077642D01*
X0063814Y0075386D01*
X0064225Y0075149D01*
X0064683Y0075027D01*
X0065157Y0075027D01*
X0065614Y0075149D01*
X0066025Y0075386D01*
X0066237Y0075598D01*
X0066237Y0041159D01*
X0067409Y0039987D01*
X0076900Y0030495D01*
X0076742Y0030337D01*
X0073011Y0030337D01*
X0073011Y0032049D01*
X0072074Y0032987D01*
X0065630Y0032987D01*
X0065112Y0032468D01*
X0064594Y0032987D01*
X0059506Y0032987D01*
X0059931Y0033813D02*
X0073582Y0033813D01*
X0072846Y0032215D02*
X0075181Y0032215D01*
X0076779Y0030616D02*
X0073011Y0030616D01*
X0073011Y0025821D02*
X0081434Y0025821D01*
X0083032Y0024222D02*
X0072809Y0024222D01*
X0071984Y0035412D02*
X0060012Y0035412D01*
X0060012Y0037010D02*
X0070385Y0037010D01*
X0068787Y0038609D02*
X0060012Y0038609D01*
X0060012Y0040207D02*
X0067188Y0040207D01*
X0066237Y0041806D02*
X0060012Y0041806D01*
X0060012Y0043404D02*
X0066237Y0043404D01*
X0066237Y0045003D02*
X0060012Y0045003D01*
X0060012Y0046601D02*
X0066237Y0046601D01*
X0066237Y0048200D02*
X0060012Y0048200D01*
X0060012Y0049798D02*
X0066237Y0049798D01*
X0066237Y0051397D02*
X0060012Y0051397D01*
X0060012Y0052995D02*
X0066237Y0052995D01*
X0066237Y0054594D02*
X0060012Y0054594D01*
X0060012Y0056192D02*
X0066237Y0056192D01*
X0066237Y0057791D02*
X0060012Y0057791D01*
X0060012Y0059389D02*
X0066237Y0059389D01*
X0066237Y0060988D02*
X0060012Y0060988D01*
X0060012Y0062586D02*
X0066237Y0062586D01*
X0066237Y0064185D02*
X0060012Y0064185D01*
X0060012Y0065783D02*
X0066237Y0065783D01*
X0066237Y0067382D02*
X0060012Y0067382D01*
X0060012Y0068980D02*
X0066237Y0068980D01*
X0066237Y0070579D02*
X0060012Y0070579D01*
X0060012Y0072177D02*
X0066237Y0072177D01*
X0066237Y0073776D02*
X0060012Y0073776D01*
X0060012Y0075374D02*
X0063835Y0075374D01*
X0066004Y0075374D02*
X0066237Y0075374D01*
X0062228Y0076973D02*
X0060012Y0076973D01*
X0060012Y0078572D02*
X0060629Y0078572D01*
X0062489Y0078572D02*
X0062489Y0078572D01*
X0060536Y0081906D02*
X0059819Y0082623D01*
X0060536Y0081907D01*
X0060536Y0081906D01*
X0060730Y0083367D02*
X0059001Y0083367D01*
X0057378Y0084966D02*
X0062444Y0084966D01*
X0064043Y0086564D02*
X0055779Y0086564D01*
X0054181Y0088163D02*
X0065641Y0088163D01*
X0066104Y0088625D02*
X0066104Y0088625D01*
X0067240Y0089761D02*
X0052582Y0089761D01*
X0050984Y0091360D02*
X0068838Y0091360D01*
X0068898Y0092958D02*
X0049677Y0092958D01*
X0050637Y0094557D02*
X0065425Y0094557D01*
X0064956Y0096155D02*
X0050637Y0096155D01*
X0050660Y0097754D02*
X0065254Y0097754D01*
X0066721Y0099352D02*
X0051582Y0099352D01*
X0051549Y0100951D02*
X0075602Y0100951D01*
X0075602Y0102549D02*
X0050581Y0102549D01*
X0048237Y0100112D02*
X0048237Y0094912D01*
X0046137Y0092812D01*
X0057587Y0081362D01*
X0057612Y0081362D01*
X0057612Y0034487D01*
X0052612Y0029487D01*
X0050577Y0030846D02*
X0050577Y0030846D01*
X0050347Y0030616D02*
X0031284Y0030616D01*
X0032062Y0032215D02*
X0051946Y0032215D01*
X0053544Y0033813D02*
X0032062Y0033813D01*
X0032615Y0035412D02*
X0055143Y0035412D01*
X0055212Y0037010D02*
X0034214Y0037010D01*
X0035812Y0038609D02*
X0055212Y0038609D01*
X0055212Y0040207D02*
X0037411Y0040207D01*
X0039009Y0041806D02*
X0055212Y0041806D01*
X0055212Y0043404D02*
X0040608Y0043404D01*
X0042206Y0045003D02*
X0055212Y0045003D01*
X0055212Y0046601D02*
X0043805Y0046601D01*
X0045403Y0048200D02*
X0055212Y0048200D01*
X0055212Y0049798D02*
X0047002Y0049798D01*
X0048600Y0051397D02*
X0055212Y0051397D01*
X0055212Y0052995D02*
X0050199Y0052995D01*
X0050463Y0054594D02*
X0055212Y0054594D01*
X0055212Y0056192D02*
X0050463Y0056192D01*
X0050463Y0057791D02*
X0055212Y0057791D01*
X0055212Y0059389D02*
X0050463Y0059389D01*
X0050463Y0060988D02*
X0055212Y0060988D01*
X0055212Y0062586D02*
X0050463Y0062586D01*
X0050463Y0064185D02*
X0055212Y0064185D01*
X0055212Y0065783D02*
X0050463Y0065783D01*
X0050463Y0067382D02*
X0055212Y0067382D01*
X0055212Y0068980D02*
X0050463Y0068980D01*
X0050463Y0070579D02*
X0055212Y0070579D01*
X0055212Y0072177D02*
X0050463Y0072177D01*
X0050463Y0073776D02*
X0055212Y0073776D01*
X0055212Y0075374D02*
X0051200Y0075374D01*
X0052798Y0076973D02*
X0055212Y0076973D01*
X0055212Y0078572D02*
X0054312Y0078572D01*
X0044488Y0094557D02*
X0043189Y0094557D01*
X0041590Y0096155D02*
X0045837Y0096155D01*
X0045814Y0097754D02*
X0039992Y0097754D01*
X0038393Y0099352D02*
X0044892Y0099352D01*
X0044925Y0100951D02*
X0036795Y0100951D01*
X0035201Y0101394D02*
X0035201Y0101394D01*
X0035201Y0101394D01*
X0035479Y0102549D02*
X0045893Y0102549D01*
X0039073Y0110542D02*
X0088020Y0110542D01*
X0087224Y0109745D02*
X0087224Y0109745D01*
X0086422Y0108943D02*
X0078707Y0108943D01*
X0076517Y0108943D02*
X0028802Y0108943D01*
X0028000Y0109745D02*
X0028000Y0109745D01*
X0027204Y0110542D02*
X0034901Y0110542D01*
X0036987Y0113237D02*
X0024773Y0113237D01*
X0023572Y0115337D02*
X0022408Y0115337D01*
X0023003Y0121731D02*
X0091499Y0121731D01*
X0090623Y0123330D02*
X0024601Y0123330D01*
X0026200Y0124928D02*
X0038157Y0124928D01*
X0036453Y0126527D02*
X0027798Y0126527D01*
X0028958Y0127404D02*
X0028241Y0128120D01*
X0028241Y0128121D01*
X0028241Y0128121D01*
X0028958Y0127404D01*
X0029593Y0128125D02*
X0036106Y0128125D01*
X0034830Y0129724D02*
X0030995Y0129724D01*
X0032417Y0131146D02*
X0032417Y0131146D01*
X0032594Y0131322D02*
X0033232Y0131322D01*
X0035974Y0134519D02*
X0041271Y0134519D01*
X0041928Y0132921D02*
X0037573Y0132921D01*
X0037389Y0136118D02*
X0039672Y0136118D01*
X0042161Y0139315D02*
X0064656Y0139315D01*
X0064792Y0140913D02*
X0051845Y0140913D01*
X0052746Y0142512D02*
X0065855Y0142512D01*
X0064587Y0145709D02*
X0068244Y0145709D01*
X0069842Y0144110D02*
X0053655Y0144110D01*
X0055253Y0145709D02*
X0060637Y0145709D01*
X0059550Y0147307D02*
X0056262Y0147307D01*
X0056675Y0148906D02*
X0059443Y0148906D01*
X0060376Y0150505D02*
X0058274Y0150505D01*
X0059740Y0152103D02*
X0060837Y0152103D01*
X0060251Y0153702D02*
X0060012Y0153702D01*
X0057612Y0153237D02*
X0053862Y0149487D01*
X0053862Y0147712D01*
X0049387Y0143237D01*
X0046929Y0140913D02*
X0042253Y0140913D01*
X0043783Y0142512D02*
X0046028Y0142512D01*
X0045544Y0144110D02*
X0045382Y0144110D01*
X0043759Y0137716D02*
X0065451Y0137716D01*
X0070219Y0142512D02*
X0070621Y0142512D01*
X0070521Y0143432D02*
X0070521Y0143432D01*
X0073081Y0139315D02*
X0074638Y0139315D01*
X0076236Y0137716D02*
X0070623Y0137716D01*
X0073802Y0136118D02*
X0046478Y0136118D01*
X0048027Y0134519D02*
X0073178Y0134519D01*
X0073435Y0132921D02*
X0048296Y0132921D01*
X0047701Y0131322D02*
X0074927Y0131322D01*
X0077797Y0131322D02*
X0082347Y0131322D01*
X0082807Y0132296D02*
X0082807Y0132296D01*
X0082807Y0132296D01*
X0081032Y0132921D02*
X0079289Y0132921D01*
X0084229Y0129724D02*
X0042448Y0129724D01*
X0042523Y0131322D02*
X0040391Y0131322D01*
X0042868Y0128125D02*
X0085827Y0128125D01*
X0087224Y0126729D02*
X0087224Y0126729D01*
X0087426Y0126527D02*
X0042521Y0126527D01*
X0040817Y0124928D02*
X0089024Y0124928D01*
X0093421Y0133408D02*
X0093421Y0133408D01*
X0092816Y0115337D02*
X0083244Y0115337D01*
X0078230Y0115337D02*
X0039668Y0115337D01*
X0040368Y0113739D02*
X0091217Y0113739D01*
X0091159Y0113680D02*
X0091159Y0113680D01*
X0090008Y0112529D02*
X0090008Y0112529D01*
X0089619Y0112140D02*
X0040192Y0112140D01*
X0033598Y0104148D02*
X0074611Y0104148D01*
X0074231Y0105746D02*
X0031999Y0105746D01*
X0030401Y0107345D02*
X0074618Y0107345D01*
X0076438Y0099352D02*
X0069953Y0099352D01*
X0071420Y0097754D02*
X0075232Y0097754D01*
X0073634Y0096155D02*
X0071718Y0096155D01*
X0079622Y0102549D02*
X0080028Y0102549D01*
X0080613Y0104148D02*
X0081626Y0104148D01*
X0080993Y0105746D02*
X0082952Y0105746D01*
X0083482Y0106286D02*
X0084199Y0105570D01*
X0084199Y0105570D01*
X0083482Y0106286D01*
X0084022Y0105746D02*
X0084022Y0105746D01*
X0084199Y0105570D02*
X0084199Y0105570D01*
X0084823Y0107345D02*
X0080606Y0107345D01*
X0092551Y0115072D02*
X0092551Y0115072D01*
X0085106Y0078572D02*
X0112111Y0078572D01*
X0085575Y0068980D02*
X0084697Y0068980D01*
X0083977Y0070579D02*
X0083098Y0070579D01*
X0083162Y0072177D02*
X0082112Y0072177D01*
X0082112Y0073776D02*
X0083162Y0073776D01*
X0082646Y0075374D02*
X0082112Y0075374D01*
X0080639Y0067382D02*
X0079612Y0067382D01*
X0079612Y0065783D02*
X0082237Y0065783D01*
X0075025Y0052995D02*
X0073362Y0052995D01*
X0073362Y0051397D02*
X0076624Y0051397D01*
X0073427Y0054594D02*
X0073362Y0054594D01*
X0079764Y0027419D02*
X0079835Y0027419D01*
X0083162Y0022624D02*
X0049143Y0022624D01*
X0050741Y0024222D02*
X0057415Y0024222D01*
X0057213Y0025821D02*
X0052340Y0025821D01*
X0048749Y0029018D02*
X0029686Y0029018D01*
X0029723Y0027419D02*
X0047150Y0027419D01*
X0045552Y0025821D02*
X0031322Y0025821D01*
X0030095Y0019427D02*
X0083460Y0019427D01*
X0083162Y0021025D02*
X0047293Y0021025D01*
X0020212Y0013033D02*
X0112111Y0013033D01*
X0112111Y0011434D02*
X0019271Y0011434D01*
X0010952Y0011434D02*
X0009412Y0011434D01*
X0009412Y0013033D02*
X0010012Y0013033D01*
X0009412Y0099352D02*
X0010899Y0099352D01*
X0009412Y0100951D02*
X0012497Y0100951D01*
X0014096Y0102549D02*
X0009412Y0102549D01*
X0009412Y0104148D02*
X0015694Y0104148D01*
X0017293Y0105746D02*
X0009412Y0105746D01*
X0009412Y0120133D02*
X0013713Y0120133D01*
X0013178Y0121731D02*
X0009412Y0121731D01*
X0009412Y0123330D02*
X0013472Y0123330D01*
X0014602Y0124928D02*
X0009412Y0124928D01*
X0009412Y0126527D02*
X0014921Y0126527D01*
X0016520Y0128125D02*
X0009412Y0128125D01*
X0009412Y0129724D02*
X0018118Y0129724D01*
X0019717Y0131322D02*
X0009412Y0131322D01*
X0009412Y0132921D02*
X0021315Y0132921D01*
X0019326Y0134519D02*
X0009412Y0134519D01*
X0009412Y0136118D02*
X0018275Y0136118D01*
X0018218Y0137716D02*
X0009412Y0137716D01*
X0009412Y0139315D02*
X0019187Y0139315D01*
X0019607Y0140913D02*
X0009412Y0140913D01*
X0009412Y0142512D02*
X0018009Y0142512D01*
X0016862Y0144110D02*
X0009412Y0144110D01*
X0009412Y0145709D02*
X0016862Y0145709D01*
X0016862Y0147307D02*
X0009412Y0147307D01*
X0009412Y0148906D02*
X0016862Y0148906D01*
X0016862Y0150505D02*
X0009412Y0150505D01*
X0009412Y0152103D02*
X0016862Y0152103D01*
X0016862Y0153702D02*
X0009412Y0153702D01*
X0009412Y0155300D02*
X0016862Y0155300D01*
X0016862Y0156899D02*
X0009412Y0156899D01*
X0009412Y0158497D02*
X0016862Y0158497D01*
X0016862Y0160096D02*
X0009412Y0160096D01*
X0009412Y0161694D02*
X0016862Y0161694D01*
X0016862Y0163293D02*
X0009412Y0163293D01*
X0009412Y0164891D02*
X0016862Y0164891D01*
X0016862Y0166490D02*
X0009412Y0166490D01*
X0009412Y0168088D02*
X0016862Y0168088D01*
X0016862Y0169687D02*
X0009412Y0169687D01*
X0009412Y0171285D02*
X0016862Y0171285D01*
X0016862Y0172884D02*
X0009412Y0172884D01*
X0009412Y0174482D02*
X0016862Y0174482D01*
X0016862Y0176081D02*
X0009412Y0176081D01*
X0009412Y0177679D02*
X0016862Y0177679D01*
X0016862Y0179278D02*
X0009412Y0179278D01*
X0009412Y0180876D02*
X0016862Y0180876D01*
X0016862Y0182475D02*
X0009412Y0182475D01*
X0009412Y0184073D02*
X0016862Y0184073D01*
X0016862Y0185672D02*
X0009412Y0185672D01*
X0009412Y0187270D02*
X0016862Y0187270D01*
X0016862Y0188869D02*
X0009412Y0188869D01*
X0009412Y0190467D02*
X0016862Y0190467D01*
X0016862Y0192066D02*
X0009412Y0192066D01*
X0009412Y0193664D02*
X0016862Y0193664D01*
X0016862Y0195263D02*
X0009412Y0195263D01*
X0009412Y0196861D02*
X0016862Y0196861D01*
X0016862Y0198460D02*
X0009412Y0198460D01*
X0009412Y0200058D02*
X0016862Y0200058D01*
X0016862Y0201657D02*
X0009412Y0201657D01*
X0009412Y0203255D02*
X0016862Y0203255D01*
X0016862Y0204854D02*
X0009412Y0204854D01*
X0009412Y0206452D02*
X0016862Y0206452D01*
X0016862Y0208051D02*
X0009412Y0208051D01*
X0009412Y0209649D02*
X0016862Y0209649D01*
X0016862Y0211248D02*
X0009412Y0211248D01*
X0009412Y0212846D02*
X0016862Y0212846D01*
X0016862Y0214445D02*
X0009412Y0214445D01*
X0009412Y0216043D02*
X0016862Y0216043D01*
X0016862Y0217642D02*
X0009412Y0217642D01*
X0009412Y0219241D02*
X0016862Y0219241D01*
X0016862Y0220839D02*
X0009412Y0220839D01*
X0009412Y0222438D02*
X0017734Y0222438D01*
X0019333Y0224036D02*
X0009412Y0224036D01*
X0009412Y0225635D02*
X0044713Y0225635D01*
X0060511Y0225635D02*
X0064713Y0225635D01*
X0064713Y0224036D02*
X0062566Y0224036D01*
X0075873Y0224036D02*
X0076832Y0224036D01*
X0076832Y0222467D02*
X0076832Y0226937D01*
X0079148Y0226937D01*
X0079606Y0226814D01*
X0080016Y0226577D01*
X0080352Y0226242D01*
X0080589Y0225831D01*
X0080711Y0225374D01*
X0080711Y0222467D01*
X0076832Y0222467D01*
X0076832Y0222438D02*
X0100837Y0222438D01*
X0100837Y0224036D02*
X0080711Y0224036D01*
X0080641Y0225635D02*
X0100837Y0225635D01*
X0100837Y0227200D02*
X0100837Y0219274D01*
X0101774Y0218337D01*
X0109700Y0218337D01*
X0110637Y0219274D01*
X0110637Y0227200D01*
X0109700Y0228137D01*
X0101774Y0228137D01*
X0100837Y0227200D01*
X0100870Y0227233D02*
X0009412Y0227233D01*
X0009412Y0228832D02*
X0112111Y0228832D01*
X0112111Y0230430D02*
X0009412Y0230430D01*
X0047801Y0176045D02*
X0047801Y0164384D01*
X0050937Y0161247D01*
X0050967Y0161247D01*
X0051826Y0160389D01*
X0052246Y0161402D01*
X0052362Y0161519D01*
X0051844Y0162038D01*
X0051844Y0169663D01*
X0052781Y0170600D01*
X0061193Y0170600D01*
X0062130Y0169663D01*
X0062130Y0162038D01*
X0061193Y0161101D01*
X0060012Y0161101D01*
X0060012Y0157002D01*
X0064257Y0161247D01*
X0065582Y0161247D01*
X0066857Y0159973D01*
X0067006Y0159933D01*
X0067417Y0159696D01*
X0067932Y0159180D01*
X0067216Y0158463D01*
X0067216Y0158463D01*
X0067932Y0159180D01*
X0068448Y0158665D01*
X0068685Y0158254D01*
X0068725Y0158105D01*
X0069188Y0157642D01*
X0070612Y0159065D01*
X0070612Y0188737D01*
X0054284Y0188737D01*
X0053112Y0189909D01*
X0052112Y0190909D01*
X0052112Y0181237D01*
X0052338Y0181464D01*
X0052749Y0181701D01*
X0053207Y0181823D01*
X0056212Y0181823D01*
X0056212Y0177649D01*
X0057762Y0177649D01*
X0057762Y0181823D01*
X0060767Y0181823D01*
X0061225Y0181701D01*
X0061636Y0181464D01*
X0061971Y0181129D01*
X0062208Y0180718D01*
X0062330Y0180260D01*
X0062330Y0177649D01*
X0057762Y0177649D01*
X0057762Y0176099D01*
X0062330Y0176099D01*
X0062330Y0173487D01*
X0062208Y0173029D01*
X0061971Y0172619D01*
X0061636Y0172284D01*
X0061225Y0172047D01*
X0060767Y0171924D01*
X0057762Y0171924D01*
X0057762Y0176099D01*
X0056212Y0176099D01*
X0056212Y0171924D01*
X0053207Y0171924D01*
X0052749Y0172047D01*
X0052338Y0172284D01*
X0052003Y0172619D01*
X0051766Y0173029D01*
X0051644Y0173487D01*
X0051644Y0175425D01*
X0050745Y0175053D01*
X0049479Y0175053D01*
X0048308Y0175538D01*
X0047801Y0176045D01*
X0047801Y0174482D02*
X0051644Y0174482D01*
X0051851Y0172884D02*
X0047801Y0172884D01*
X0047801Y0171285D02*
X0070612Y0171285D01*
X0070612Y0169687D02*
X0062106Y0169687D01*
X0062130Y0168088D02*
X0070612Y0168088D01*
X0070612Y0166490D02*
X0062130Y0166490D01*
X0062130Y0164891D02*
X0070612Y0164891D01*
X0070612Y0163293D02*
X0062130Y0163293D01*
X0061787Y0161694D02*
X0070612Y0161694D01*
X0070612Y0160096D02*
X0066734Y0160096D01*
X0067249Y0158497D02*
X0067249Y0158497D01*
X0067216Y0158463D02*
X0067216Y0158463D01*
X0068545Y0158497D02*
X0070044Y0158497D01*
X0067612Y0163237D02*
X0065112Y0165737D01*
X0065112Y0174487D01*
X0062612Y0176987D01*
X0057100Y0176987D01*
X0056987Y0176874D01*
X0056212Y0176081D02*
X0057762Y0176081D01*
X0057762Y0177679D02*
X0056212Y0177679D01*
X0056212Y0179278D02*
X0057762Y0179278D01*
X0057762Y0180876D02*
X0056212Y0180876D01*
X0052112Y0182475D02*
X0070612Y0182475D01*
X0070612Y0184073D02*
X0052112Y0184073D01*
X0052112Y0185672D02*
X0070612Y0185672D01*
X0070612Y0187270D02*
X0052112Y0187270D01*
X0052112Y0188869D02*
X0054152Y0188869D01*
X0052553Y0190467D02*
X0052112Y0190467D01*
X0062116Y0180876D02*
X0070612Y0180876D01*
X0070612Y0179278D02*
X0062330Y0179278D01*
X0062330Y0177679D02*
X0070612Y0177679D01*
X0070612Y0176081D02*
X0062330Y0176081D01*
X0062330Y0174482D02*
X0070612Y0174482D01*
X0070612Y0172884D02*
X0062123Y0172884D01*
X0057762Y0172884D02*
X0056212Y0172884D01*
X0056212Y0174482D02*
X0057762Y0174482D01*
X0056987Y0165850D02*
X0057612Y0165225D01*
X0057612Y0159487D01*
X0055112Y0159487D01*
X0057612Y0159487D02*
X0057612Y0153237D01*
X0060012Y0158497D02*
X0061507Y0158497D01*
X0060012Y0160096D02*
X0063105Y0160096D01*
X0066104Y0147849D02*
X0066104Y0147849D01*
X0065674Y0147307D02*
X0066645Y0147307D01*
X0052187Y0161694D02*
X0050490Y0161694D01*
X0051844Y0163293D02*
X0048892Y0163293D01*
X0047801Y0164891D02*
X0051844Y0164891D01*
X0051844Y0166490D02*
X0047801Y0166490D01*
X0047801Y0168088D02*
X0051844Y0168088D01*
X0051868Y0169687D02*
X0047801Y0169687D01*
X0075873Y0206452D02*
X0076832Y0206452D01*
X0076832Y0204854D02*
X0083162Y0204854D01*
X0082302Y0203255D02*
X0080711Y0203255D01*
X0080711Y0206452D02*
X0084534Y0206452D01*
X0085686Y0208587D02*
X0087526Y0208587D01*
X0087526Y0213151D01*
X0087698Y0213151D01*
X0087698Y0213323D01*
X0092262Y0213323D01*
X0092262Y0215163D01*
X0089538Y0217887D01*
X0087698Y0217887D01*
X0087698Y0213323D01*
X0087526Y0213323D01*
X0087526Y0217887D01*
X0085686Y0217887D01*
X0082962Y0215163D01*
X0082962Y0213323D01*
X0087526Y0213323D01*
X0087526Y0213151D01*
X0082962Y0213151D01*
X0082962Y0211311D01*
X0085686Y0208587D01*
X0084623Y0209649D02*
X0080657Y0209649D01*
X0080664Y0208051D02*
X0103621Y0208051D01*
X0103707Y0208137D02*
X0100837Y0205267D01*
X0100837Y0201207D01*
X0103707Y0198337D01*
X0107767Y0198337D01*
X0110637Y0201207D01*
X0110637Y0205267D01*
X0107767Y0208137D01*
X0103707Y0208137D01*
X0103707Y0208337D02*
X0107767Y0208337D01*
X0110637Y0211207D01*
X0110637Y0215267D01*
X0107767Y0218137D01*
X0103707Y0218137D01*
X0100837Y0215267D01*
X0100837Y0211207D01*
X0103707Y0208337D01*
X0102395Y0209649D02*
X0090601Y0209649D01*
X0089538Y0208587D02*
X0092262Y0211311D01*
X0092262Y0213151D01*
X0087698Y0213151D01*
X0087698Y0208587D01*
X0089538Y0208587D01*
X0090690Y0206452D02*
X0102023Y0206452D01*
X0100837Y0204854D02*
X0092062Y0204854D01*
X0092062Y0203255D02*
X0100837Y0203255D01*
X0100837Y0201657D02*
X0092062Y0201657D01*
X0090727Y0200058D02*
X0101986Y0200058D01*
X0103585Y0198460D02*
X0083163Y0198460D01*
X0081565Y0196861D02*
X0084943Y0196861D01*
X0083345Y0195263D02*
X0079966Y0195263D01*
X0080171Y0190467D02*
X0084088Y0190467D01*
X0085687Y0188869D02*
X0078572Y0188869D01*
X0077112Y0187270D02*
X0085352Y0187270D01*
X0083754Y0185672D02*
X0077112Y0185672D01*
X0077112Y0184073D02*
X0078745Y0184073D01*
X0077146Y0182475D02*
X0077112Y0182475D01*
X0080549Y0179278D02*
X0085278Y0179278D01*
X0085761Y0177679D02*
X0080549Y0177679D01*
X0080549Y0176081D02*
X0084162Y0176081D01*
X0082279Y0174482D02*
X0080549Y0174482D01*
X0080549Y0172884D02*
X0080680Y0172884D01*
X0083674Y0169687D02*
X0084869Y0169687D01*
X0083674Y0168088D02*
X0094362Y0168088D01*
X0094362Y0166490D02*
X0090653Y0166490D01*
X0092062Y0164891D02*
X0094362Y0164891D01*
X0094728Y0163293D02*
X0092062Y0163293D01*
X0092062Y0161694D02*
X0094358Y0161694D01*
X0094112Y0160096D02*
X0090764Y0160096D01*
X0088200Y0158497D02*
X0094112Y0158497D01*
X0094112Y0156899D02*
X0090244Y0156899D01*
X0091842Y0155300D02*
X0094112Y0155300D01*
X0094112Y0153702D02*
X0092062Y0153702D01*
X0092062Y0152103D02*
X0094112Y0152103D01*
X0100862Y0162386D02*
X0100862Y0162815D01*
X0098362Y0165315D01*
X0098362Y0179909D01*
X0099690Y0181237D01*
X0100837Y0181237D01*
X0100837Y0181207D01*
X0103707Y0178337D01*
X0107767Y0178337D01*
X0109362Y0179932D01*
X0109362Y0176824D01*
X0107849Y0178337D01*
X0105937Y0178337D01*
X0105937Y0173437D01*
X0105537Y0173437D01*
X0105537Y0173037D01*
X0105937Y0173037D01*
X0105937Y0168137D01*
X0107849Y0168137D01*
X0109362Y0169650D01*
X0109362Y0164065D01*
X0107683Y0162386D01*
X0103800Y0162386D01*
X0103237Y0161824D01*
X0102674Y0162386D01*
X0100862Y0162386D01*
X0100385Y0163293D02*
X0108589Y0163293D01*
X0109362Y0164891D02*
X0098786Y0164891D01*
X0098362Y0166490D02*
X0109362Y0166490D01*
X0109362Y0168088D02*
X0098362Y0168088D01*
X0098362Y0169687D02*
X0102075Y0169687D01*
X0100637Y0171125D02*
X0103625Y0168137D01*
X0105537Y0168137D01*
X0105537Y0173037D01*
X0100637Y0173037D01*
X0100637Y0171125D01*
X0100637Y0171285D02*
X0098362Y0171285D01*
X0098362Y0172884D02*
X0100637Y0172884D01*
X0100637Y0173437D02*
X0105537Y0173437D01*
X0105537Y0178337D01*
X0103625Y0178337D01*
X0100637Y0175349D01*
X0100637Y0173437D01*
X0100637Y0174482D02*
X0098362Y0174482D01*
X0098362Y0176081D02*
X0101368Y0176081D01*
X0102967Y0177679D02*
X0098362Y0177679D01*
X0098362Y0179278D02*
X0102767Y0179278D01*
X0101168Y0180876D02*
X0099330Y0180876D01*
X0096870Y0184073D02*
X0092062Y0184073D01*
X0092062Y0182475D02*
X0095271Y0182475D01*
X0094362Y0180876D02*
X0091544Y0180876D01*
X0089946Y0179278D02*
X0094362Y0179278D01*
X0094362Y0177679D02*
X0089463Y0177679D01*
X0091062Y0176081D02*
X0094362Y0176081D01*
X0094362Y0174482D02*
X0092062Y0174482D01*
X0092062Y0172884D02*
X0094362Y0172884D01*
X0094362Y0171285D02*
X0091953Y0171285D01*
X0090355Y0169687D02*
X0094362Y0169687D01*
X0084571Y0166490D02*
X0083674Y0166490D01*
X0083680Y0180876D02*
X0081205Y0180876D01*
X0089872Y0187270D02*
X0102841Y0187270D01*
X0103176Y0188869D02*
X0089537Y0188869D01*
X0091136Y0190467D02*
X0101577Y0190467D01*
X0100837Y0192066D02*
X0092062Y0192066D01*
X0092062Y0193664D02*
X0100837Y0193664D01*
X0100837Y0195263D02*
X0091879Y0195263D01*
X0090281Y0196861D02*
X0102432Y0196861D01*
X0107889Y0198460D02*
X0112111Y0198460D01*
X0112111Y0200058D02*
X0109488Y0200058D01*
X0110637Y0201657D02*
X0112111Y0201657D01*
X0112111Y0203255D02*
X0110637Y0203255D01*
X0110637Y0204854D02*
X0112111Y0204854D01*
X0112111Y0206452D02*
X0109451Y0206452D01*
X0107853Y0208051D02*
X0112111Y0208051D01*
X0112111Y0209649D02*
X0109079Y0209649D01*
X0110637Y0211248D02*
X0112111Y0211248D01*
X0112111Y0212846D02*
X0110637Y0212846D01*
X0110637Y0214445D02*
X0112111Y0214445D01*
X0112111Y0216043D02*
X0109860Y0216043D01*
X0108262Y0217642D02*
X0112111Y0217642D01*
X0112111Y0219241D02*
X0110603Y0219241D01*
X0110637Y0220839D02*
X0112111Y0220839D01*
X0112111Y0222438D02*
X0110637Y0222438D01*
X0110637Y0224036D02*
X0112111Y0224036D01*
X0112111Y0225635D02*
X0110637Y0225635D01*
X0110604Y0227233D02*
X0112111Y0227233D01*
X0103212Y0217642D02*
X0089783Y0217642D01*
X0091382Y0216043D02*
X0101614Y0216043D01*
X0100837Y0214445D02*
X0092262Y0214445D01*
X0092262Y0212846D02*
X0100837Y0212846D01*
X0100837Y0211248D02*
X0092199Y0211248D01*
X0087698Y0211248D02*
X0087526Y0211248D01*
X0087526Y0212846D02*
X0087698Y0212846D01*
X0087698Y0214445D02*
X0087526Y0214445D01*
X0087526Y0216043D02*
X0087698Y0216043D01*
X0087698Y0217642D02*
X0087526Y0217642D01*
X0085441Y0217642D02*
X0080261Y0217642D01*
X0080711Y0219241D02*
X0100871Y0219241D01*
X0100837Y0220839D02*
X0080711Y0220839D01*
X0080711Y0216043D02*
X0083842Y0216043D01*
X0082962Y0214445D02*
X0080711Y0214445D01*
X0082962Y0212846D02*
X0076832Y0212846D01*
X0076832Y0211248D02*
X0075873Y0211248D01*
X0075873Y0209649D02*
X0076832Y0209649D01*
X0076832Y0208051D02*
X0075873Y0208051D01*
X0075873Y0214445D02*
X0076832Y0214445D01*
X0076832Y0216043D02*
X0075873Y0216043D01*
X0075873Y0217642D02*
X0076832Y0217642D01*
X0076832Y0219241D02*
X0075873Y0219241D01*
X0075873Y0220839D02*
X0076832Y0220839D01*
X0076832Y0225635D02*
X0075873Y0225635D01*
X0080711Y0211248D02*
X0083025Y0211248D01*
X0087526Y0209649D02*
X0087698Y0209649D01*
X0091470Y0185672D02*
X0101242Y0185672D01*
X0105537Y0177679D02*
X0105937Y0177679D01*
X0105937Y0176081D02*
X0105537Y0176081D01*
X0105537Y0174482D02*
X0105937Y0174482D01*
X0105937Y0172884D02*
X0105537Y0172884D01*
X0105537Y0171285D02*
X0105937Y0171285D01*
X0105937Y0169687D02*
X0105537Y0169687D01*
X0108507Y0177679D02*
X0109362Y0177679D01*
X0109362Y0179278D02*
X0108707Y0179278D01*
X0108633Y0187270D02*
X0108875Y0187270D01*
X0111335Y0190467D02*
X0112111Y0190467D01*
X0112111Y0192066D02*
X0110637Y0192066D01*
X0110637Y0193664D02*
X0112111Y0193664D01*
X0112111Y0195263D02*
X0110637Y0195263D01*
X0112111Y0196861D02*
X0109042Y0196861D01*
D23*
X0068037Y0139912D03*
X0055112Y0159487D03*
X0049387Y0143237D03*
X0039487Y0128037D03*
X0036987Y0113237D03*
X0048237Y0100112D03*
X0068337Y0096362D03*
X0077612Y0105737D03*
X0080737Y0117612D03*
D24*
X0090937Y0118237D02*
X0096305Y0123505D01*
X0084059Y0136332D02*
X0087612Y0139885D01*
X0087612Y0143237D01*
X0067612Y0158860D02*
X0064572Y0155819D01*
X0065964Y0154428D02*
X0065964Y0154401D01*
X0067612Y0158860D02*
X0067612Y0163237D01*
X0049387Y0143237D02*
X0043764Y0148860D01*
X0043693Y0148860D01*
X0043180Y0138237D02*
X0045737Y0138237D01*
X0045112Y0133521D02*
X0045112Y0133237D01*
X0039487Y0128037D02*
X0031992Y0135532D01*
X0031165Y0136332D01*
X0018638Y0123805D02*
X0018180Y0123805D01*
X0022813Y0108493D02*
X0022813Y0108438D01*
X0038125Y0093182D02*
X0038125Y0093125D01*
X0055737Y0086675D02*
X0063149Y0079263D01*
X0063180Y0079263D01*
X0087612Y0083237D02*
X0087612Y0085453D01*
X0079800Y0030425D02*
X0077612Y0028237D01*
X0068852Y0028237D01*
X0079800Y0030425D02*
X0086987Y0023237D01*
X0087612Y0023237D01*
D25*
X0087612Y0033237D02*
X0071362Y0049487D01*
X0071362Y0079432D01*
X0067356Y0083438D01*
X0070139Y0086206D02*
X0074487Y0081859D01*
X0074487Y0056362D01*
X0087612Y0043237D01*
X0087612Y0053237D02*
X0077612Y0063237D01*
X0077612Y0084318D01*
X0072923Y0089006D01*
X0070139Y0086222D02*
X0070139Y0086206D01*
X0064572Y0080655D02*
X0064572Y0080613D01*
X0068237Y0076948D01*
X0068237Y0041987D01*
X0079800Y0030425D01*
X0087612Y0063237D02*
X0080112Y0070737D01*
X0080112Y0087385D01*
X0082612Y0087669D02*
X0077099Y0093182D01*
X0078491Y0094574D02*
X0087612Y0085453D01*
X0082612Y0087669D02*
X0082612Y0078237D01*
X0087612Y0073237D01*
X0093862Y0098862D02*
X0088406Y0104318D01*
X0088235Y0104318D01*
X0095197Y0111277D02*
X0100112Y0106362D01*
X0106362Y0111544D02*
X0106362Y0099487D01*
X0106362Y0111544D02*
X0107612Y0112794D01*
X0107612Y0119487D02*
X0110112Y0119487D01*
X0111987Y0121362D01*
X0111987Y0146372D01*
X0107612Y0150747D01*
X0107612Y0158227D02*
X0107612Y0159487D01*
X0111362Y0163237D01*
X0111362Y0187612D01*
X0105737Y0193237D01*
X0105737Y0183237D02*
X0098862Y0183237D01*
X0096362Y0180737D01*
X0096362Y0164487D01*
X0098862Y0161987D01*
X0098862Y0158227D01*
X0098862Y0150747D02*
X0097290Y0149175D01*
X0083550Y0149175D01*
X0081050Y0146675D01*
X0081050Y0144487D01*
X0078491Y0141929D01*
X0078491Y0141900D01*
X0077099Y0143292D02*
X0077099Y0143349D01*
X0079487Y0145737D01*
X0079487Y0148862D01*
X0083862Y0153237D01*
X0087612Y0153237D01*
X0085737Y0147300D02*
X0090425Y0147300D01*
X0107612Y0130112D01*
X0107612Y0126180D01*
X0095112Y0136362D02*
X0092612Y0136362D01*
X0088406Y0132156D01*
X0088235Y0132156D01*
X0081275Y0139088D02*
X0076362Y0134175D01*
X0079883Y0140508D02*
X0082612Y0143237D01*
X0082612Y0144175D01*
X0085737Y0147300D01*
X0081275Y0139116D02*
X0081275Y0139088D01*
X0075707Y0144684D02*
X0075621Y0144684D01*
X0071050Y0140112D01*
X0068237Y0140112D01*
X0068037Y0139912D01*
X0071531Y0148860D02*
X0071672Y0148860D01*
X0081675Y0158862D01*
X0081675Y0171050D01*
X0083862Y0173237D01*
X0087612Y0173237D01*
X0087612Y0163237D02*
X0087612Y0160737D01*
X0077612Y0150737D01*
X0077612Y0149373D01*
X0074315Y0146076D01*
X0070252Y0150252D02*
X0078550Y0158550D01*
X0078550Y0181050D01*
X0080737Y0183237D01*
X0087612Y0183237D01*
X0087612Y0193237D02*
X0080112Y0193237D01*
X0075112Y0188237D01*
X0075112Y0158237D01*
X0068748Y0151873D01*
X0068748Y0151644D01*
X0067411Y0153036D02*
X0072612Y0158237D01*
X0072612Y0190737D01*
X0085112Y0203237D01*
X0087612Y0203237D01*
X0075737Y0197612D02*
X0068862Y0197612D01*
X0068872Y0204487D02*
X0060112Y0204487D01*
X0056352Y0204487D01*
X0056352Y0213237D02*
X0060112Y0213237D01*
X0068872Y0213237D01*
X0068872Y0221987D02*
X0060112Y0221987D01*
X0056352Y0221987D01*
X0048872Y0221987D02*
X0047622Y0223237D01*
X0021362Y0223237D01*
X0018862Y0220737D01*
X0018862Y0144487D01*
X0025112Y0138237D01*
X0026362Y0138237D01*
X0029659Y0134940D01*
X0029773Y0134940D01*
X0026989Y0132297D02*
X0022925Y0136362D01*
X0021987Y0136362D01*
X0021362Y0136987D01*
X0025597Y0130764D02*
X0025710Y0130764D01*
X0035112Y0121362D01*
X0026989Y0132156D02*
X0026989Y0132297D01*
X0027612Y0143237D02*
X0032612Y0143237D01*
X0035341Y0140508D01*
X0039517Y0144684D02*
X0030964Y0153237D01*
X0027612Y0153237D01*
X0028862Y0158237D02*
X0021987Y0158237D01*
X0020737Y0159487D01*
X0020737Y0218862D01*
X0022612Y0220737D01*
X0038862Y0220737D01*
X0046362Y0213237D01*
X0048872Y0213237D01*
X0045112Y0209487D02*
X0045112Y0208247D01*
X0048872Y0204487D01*
X0045112Y0209487D02*
X0036362Y0218237D01*
X0023862Y0218237D01*
X0022612Y0216987D01*
X0022612Y0179487D01*
X0023862Y0178237D01*
X0030112Y0178237D01*
X0035112Y0173237D01*
X0035112Y0163237D01*
X0046476Y0151873D01*
X0046476Y0151644D01*
X0045085Y0150252D02*
X0033203Y0162134D01*
X0033203Y0167646D01*
X0027612Y0173237D01*
X0027612Y0163237D02*
X0028237Y0163237D01*
X0031362Y0160112D01*
X0031362Y0158406D01*
X0042301Y0147468D01*
X0040909Y0146190D02*
X0028862Y0158237D01*
X0036987Y0163917D02*
X0036987Y0176987D01*
X0030737Y0183237D01*
X0027612Y0183237D01*
X0027612Y0193237D02*
X0029487Y0193237D01*
X0040112Y0182612D01*
X0040112Y0163576D01*
X0049260Y0154428D01*
X0047868Y0153036D02*
X0036987Y0163917D01*
X0043608Y0162893D02*
X0043608Y0187241D01*
X0027612Y0203237D01*
X0035112Y0205737D02*
X0027612Y0213237D01*
X0035112Y0205737D02*
X0035112Y0203237D01*
X0045801Y0192548D01*
X0045801Y0163555D01*
X0052044Y0157312D01*
X0052044Y0157211D01*
X0050681Y0155819D02*
X0043608Y0162893D01*
X0050112Y0178237D02*
X0050112Y0191987D01*
X0037612Y0204487D01*
X0037612Y0210737D01*
X0041362Y0208237D02*
X0041362Y0204487D01*
X0055112Y0190737D01*
X0072612Y0190737D01*
X0064569Y0155819D02*
X0058237Y0149487D01*
X0062612Y0148237D02*
X0062612Y0151050D01*
X0065964Y0154401D01*
X0070139Y0150252D02*
X0070252Y0150252D01*
X0040909Y0146190D02*
X0040909Y0146076D01*
X0022813Y0108438D02*
X0010112Y0095737D01*
X0010112Y0029487D01*
X0015112Y0024487D01*
X0015112Y0034487D02*
X0020112Y0034487D01*
X0022612Y0036987D01*
X0022612Y0076987D01*
X0023862Y0078237D01*
X0030112Y0078237D01*
X0032612Y0080737D01*
X0032612Y0087612D01*
X0038125Y0093125D01*
X0039517Y0091717D02*
X0035958Y0088158D01*
X0035958Y0080333D01*
X0028862Y0073237D01*
X0027612Y0073237D01*
X0027612Y0063237D02*
X0039108Y0074733D01*
X0039108Y0083040D01*
X0043682Y0087614D01*
X0046410Y0084830D02*
X0042489Y0080909D01*
X0042489Y0068114D01*
X0027612Y0053237D01*
X0027612Y0043237D02*
X0045476Y0061101D01*
X0045476Y0078262D01*
X0049260Y0082046D01*
X0052044Y0079047D02*
X0048463Y0075466D01*
X0048463Y0054088D01*
X0027612Y0033237D01*
X0015112Y0054487D02*
X0015112Y0089487D01*
X0018862Y0093237D01*
X0021987Y0098862D02*
X0021987Y0099315D01*
X0026989Y0104318D01*
X0031165Y0100142D02*
X0027612Y0096589D01*
X0027612Y0093237D01*
X0032415Y0093040D02*
X0032415Y0091308D01*
X0027612Y0086505D01*
X0027612Y0083237D01*
X0032415Y0093040D02*
X0035341Y0095966D01*
X0018638Y0112669D02*
X0018180Y0112669D01*
X0016362Y0114487D01*
X0016362Y0121987D02*
X0018180Y0123805D01*
D26*
X0020112Y0084487D03*
X0046362Y0115737D03*
X0057612Y0091987D03*
X0052612Y0069487D03*
X0052612Y0053237D03*
X0062612Y0053237D03*
X0062612Y0069487D03*
X0105112Y0140737D03*
D27*
X0062612Y0130737D03*
D28*
X0062612Y0148237D03*
X0076362Y0134175D03*
X0095112Y0136362D03*
X0100112Y0106362D03*
X0106362Y0099487D03*
X0093862Y0098862D03*
X0050112Y0178237D03*
X0060112Y0204487D03*
X0060112Y0213237D03*
X0060112Y0221987D03*
X0068862Y0197612D03*
X0075737Y0197612D03*
X0041362Y0208237D03*
X0037612Y0210737D03*
X0021362Y0136987D03*
X0016362Y0121987D03*
X0016362Y0114487D03*
X0021987Y0098862D03*
X0018862Y0093237D03*
X0045112Y0133237D03*
M02*
