G75*
%MOIN*%
%OFA0B0*%
%FSLAX25Y25*%
%IPPOS*%
%LPD*%
%AMOC8*
5,1,8,0,0,1.08239X$1,22.5*
%
%ADD10R,0.06699X0.07487*%
%ADD11R,0.06100X0.06100*%
%ADD12OC8,0.06100*%
%ADD13C,0.07000*%
%ADD14R,0.05518X0.06699*%
%ADD15R,0.07000X0.07000*%
%ADD16OC8,0.07000*%
%ADD17R,0.02762X0.09061*%
D10*
X0055850Y0111987D03*
X0066874Y0111987D03*
D11*
X0087612Y0023237D03*
D12*
X0087612Y0033237D03*
X0087612Y0043237D03*
X0087612Y0053237D03*
X0087612Y0063237D03*
X0087612Y0073237D03*
X0087612Y0083237D03*
X0087612Y0093237D03*
X0087612Y0143237D03*
X0087612Y0153237D03*
X0087612Y0163237D03*
X0087612Y0173237D03*
X0087612Y0183237D03*
X0087612Y0193237D03*
X0087612Y0203237D03*
X0087612Y0213237D03*
X0027612Y0213237D03*
X0027612Y0203237D03*
X0027612Y0193237D03*
X0027612Y0183237D03*
X0027612Y0173237D03*
X0027612Y0163237D03*
X0027612Y0153237D03*
X0027612Y0143237D03*
X0027612Y0093237D03*
X0027612Y0083237D03*
X0027612Y0073237D03*
X0027612Y0063237D03*
X0027612Y0053237D03*
X0027612Y0043237D03*
X0027612Y0033237D03*
X0027612Y0023237D03*
D13*
X0030312Y0103237D02*
X0024912Y0103237D01*
X0024912Y0113237D02*
X0030312Y0113237D01*
X0030312Y0123237D02*
X0024912Y0123237D01*
X0024912Y0133237D02*
X0030312Y0133237D01*
X0084912Y0133237D02*
X0090312Y0133237D01*
X0090312Y0123237D02*
X0084912Y0123237D01*
X0084912Y0113237D02*
X0090312Y0113237D01*
X0090312Y0103237D02*
X0084912Y0103237D01*
D14*
X0076352Y0204487D03*
X0076352Y0213237D03*
X0076352Y0221987D03*
X0068872Y0221987D03*
X0068872Y0213237D03*
X0068872Y0204487D03*
X0056352Y0204487D03*
X0056352Y0213237D03*
X0056352Y0221987D03*
X0048872Y0221987D03*
X0048872Y0213237D03*
X0048872Y0204487D03*
D15*
X0105737Y0223237D03*
X0015112Y0054487D03*
D16*
X0015112Y0014487D03*
X0015112Y0024487D03*
X0015112Y0034487D03*
X0015112Y0044487D03*
X0105737Y0173237D03*
X0105737Y0183237D03*
X0105737Y0193237D03*
X0105737Y0203237D03*
X0105737Y0213237D03*
D17*
X0067612Y0189723D03*
X0062612Y0189723D03*
X0057612Y0189723D03*
X0052612Y0189723D03*
X0052612Y0169251D03*
X0057612Y0169251D03*
X0062612Y0169251D03*
X0067612Y0169251D03*
M02*
