%
M48
M72
T01C0.01969
T02C0.02300
T03C0.02362
T04C0.02600
T05C0.03543
T06C0.04000
%
T01
X18862Y93237
X21987Y98862
X16362Y114487
X16362Y121987
X21362Y136987
X45112Y133237
X62612Y148237
X76362Y134175
X95112Y136362
X100112Y106362
X106362Y99487
X93862Y98862
X50112Y178237
X60112Y204487
X60112Y213237
X60112Y221987
X68862Y197612
X75737Y197612
X41362Y208237
X37612Y210737
T02
X46362Y115737
X57612Y91987
X52612Y69487
X52612Y53237
X62612Y53237
X62612Y69487
X20112Y84487
X105112Y140737
T03
X80737Y117612
X77612Y105737
X68337Y96362
X48237Y100112
X36987Y113237
X39487Y128037
X49387Y143237
X55112Y159487
X68037Y139912
T04
X62612Y130737
T05
X87612Y143237
X87612Y153237
X87612Y163237
X87612Y173237
X87612Y183237
X87612Y193237
X87612Y203237
X87612Y213237
X27612Y213237
X27612Y203237
X27612Y193237
X27612Y183237
X27612Y173237
X27612Y163237
X27612Y153237
X27612Y143237
X27612Y93237
X27612Y83237
X27612Y73237
X27612Y63237
X27612Y53237
X27612Y43237
X27612Y33237
X27612Y23237
X87612Y23237
X87612Y33237
X87612Y43237
X87612Y53237
X87612Y63237
X87612Y73237
X87612Y83237
X87612Y93237
T06
X15112Y14487
X15112Y24487
X15112Y34487
X15112Y44487
X15112Y54487
X105737Y173237
X105737Y183237
X105737Y193237
X105737Y203237
X105737Y213237
X105737Y223237
M30
