G04 EAGLE Gerber RS-274X export*
G75*
%MOMM*%
%FSLAX34Y34*%
%LPD*%
%INBottom Copper*%
%IPPOS*%
%AMOC8*
5,1,8,0,0,1.08239X$1,22.5*%
G01*
%ADD10R,1.500000X2.000000*%
%ADD11P,1.787026X8X22.500000*%
%ADD12P,1.567084X8X202.500000*%
%ADD13C,1.676400*%
%ADD14R,2.032000X0.660400*%
%ADD15R,1.300000X1.600000*%
%ADD16P,1.814519X8X22.500000*%
%ADD17P,1.814519X8X202.500000*%
%ADD18P,1.072216X8X22.500000*%
%ADD19C,0.406400*%
%ADD20C,1.066800*%
%ADD21C,0.254000*%
%ADD22C,0.208281*%
%ADD23C,0.990600*%

G36*
X264176Y3813D02*
X264176Y3813D01*
X264194Y3811D01*
X264376Y3832D01*
X264559Y3851D01*
X264576Y3856D01*
X264593Y3858D01*
X264768Y3915D01*
X264944Y3969D01*
X264959Y3977D01*
X264976Y3983D01*
X265136Y4073D01*
X265298Y4161D01*
X265311Y4172D01*
X265327Y4181D01*
X265466Y4301D01*
X265607Y4418D01*
X265618Y4432D01*
X265632Y4444D01*
X265744Y4589D01*
X265859Y4732D01*
X265867Y4748D01*
X265878Y4762D01*
X265960Y4927D01*
X266045Y5089D01*
X266050Y5106D01*
X266058Y5122D01*
X266105Y5301D01*
X266156Y5476D01*
X266158Y5494D01*
X266162Y5511D01*
X266189Y5842D01*
X266189Y266140D01*
X266188Y266148D01*
X266189Y266157D01*
X266168Y266351D01*
X266149Y266540D01*
X266147Y266549D01*
X266146Y266558D01*
X266088Y266741D01*
X266031Y266925D01*
X266027Y266933D01*
X266024Y266942D01*
X265932Y267109D01*
X265839Y267279D01*
X265834Y267286D01*
X265829Y267294D01*
X265705Y267441D01*
X265582Y267588D01*
X265575Y267594D01*
X265569Y267601D01*
X265417Y267721D01*
X265268Y267841D01*
X265260Y267845D01*
X265253Y267850D01*
X265080Y267938D01*
X264911Y268026D01*
X264902Y268029D01*
X264894Y268033D01*
X264708Y268085D01*
X264524Y268138D01*
X264515Y268138D01*
X264506Y268141D01*
X264313Y268155D01*
X264122Y268171D01*
X264114Y268170D01*
X264105Y268170D01*
X263912Y268146D01*
X263723Y268124D01*
X263714Y268121D01*
X263705Y268120D01*
X263522Y268058D01*
X263340Y267999D01*
X263332Y267994D01*
X263324Y267992D01*
X263157Y267895D01*
X262989Y267801D01*
X262982Y267795D01*
X262975Y267791D01*
X262722Y267576D01*
X253135Y257989D01*
X253118Y257969D01*
X253098Y257951D01*
X252991Y257813D01*
X252880Y257678D01*
X252868Y257654D01*
X252851Y257633D01*
X252773Y257476D01*
X252691Y257322D01*
X252684Y257297D01*
X252672Y257273D01*
X252626Y257103D01*
X252577Y256936D01*
X252574Y256910D01*
X252567Y256884D01*
X252540Y256553D01*
X252540Y206594D01*
X245843Y199897D01*
X211819Y199897D01*
X211810Y199896D01*
X211801Y199897D01*
X211609Y199876D01*
X211418Y199857D01*
X211410Y199855D01*
X211401Y199854D01*
X211218Y199796D01*
X211033Y199739D01*
X211025Y199735D01*
X211017Y199732D01*
X210848Y199639D01*
X210679Y199547D01*
X210672Y199542D01*
X210665Y199537D01*
X210518Y199413D01*
X210370Y199290D01*
X210364Y199283D01*
X210358Y199277D01*
X210239Y199126D01*
X210118Y198976D01*
X210113Y198968D01*
X210108Y198961D01*
X210020Y198788D01*
X209932Y198619D01*
X209930Y198610D01*
X209926Y198602D01*
X209874Y198416D01*
X209821Y198232D01*
X209820Y198223D01*
X209818Y198214D01*
X209803Y198021D01*
X209788Y197830D01*
X209789Y197822D01*
X209788Y197813D01*
X209813Y197620D01*
X209835Y197431D01*
X209837Y197422D01*
X209839Y197413D01*
X209900Y197230D01*
X209960Y197048D01*
X209964Y197040D01*
X209967Y197032D01*
X210062Y196866D01*
X210157Y196697D01*
X210163Y196690D01*
X210168Y196683D01*
X210382Y196430D01*
X212472Y194340D01*
X212472Y186660D01*
X207040Y181228D01*
X199360Y181228D01*
X193928Y186660D01*
X193928Y194340D01*
X196018Y196430D01*
X196023Y196437D01*
X196030Y196442D01*
X196150Y196592D01*
X196273Y196741D01*
X196277Y196749D01*
X196282Y196756D01*
X196371Y196926D01*
X196461Y197097D01*
X196464Y197106D01*
X196468Y197113D01*
X196521Y197298D01*
X196576Y197483D01*
X196577Y197492D01*
X196579Y197500D01*
X196595Y197691D01*
X196612Y197884D01*
X196611Y197893D01*
X196612Y197902D01*
X196590Y198091D01*
X196569Y198284D01*
X196566Y198293D01*
X196565Y198301D01*
X196506Y198483D01*
X196448Y198668D01*
X196443Y198676D01*
X196440Y198684D01*
X196346Y198851D01*
X196253Y199020D01*
X196247Y199027D01*
X196243Y199035D01*
X196117Y199181D01*
X195992Y199327D01*
X195985Y199333D01*
X195979Y199340D01*
X195828Y199457D01*
X195676Y199577D01*
X195668Y199581D01*
X195661Y199586D01*
X195489Y199672D01*
X195317Y199759D01*
X195309Y199762D01*
X195301Y199766D01*
X195115Y199816D01*
X194929Y199867D01*
X194921Y199868D01*
X194912Y199870D01*
X194581Y199897D01*
X62132Y199897D01*
X55996Y206033D01*
X55975Y206050D01*
X55958Y206071D01*
X55820Y206178D01*
X55684Y206288D01*
X55661Y206301D01*
X55640Y206317D01*
X55483Y206395D01*
X55329Y206477D01*
X55303Y206485D01*
X55279Y206497D01*
X55110Y206542D01*
X54943Y206592D01*
X54916Y206594D01*
X54890Y206601D01*
X54560Y206628D01*
X46960Y206628D01*
X41528Y212060D01*
X41528Y220130D01*
X41572Y220279D01*
X41573Y220288D01*
X41576Y220297D01*
X41591Y220487D01*
X41609Y220680D01*
X41608Y220689D01*
X41609Y220698D01*
X41586Y220888D01*
X41566Y221080D01*
X41563Y221089D01*
X41562Y221098D01*
X41502Y221282D01*
X41444Y221464D01*
X41440Y221472D01*
X41437Y221481D01*
X41342Y221650D01*
X41249Y221816D01*
X41244Y221823D01*
X41239Y221831D01*
X41113Y221977D01*
X40989Y222123D01*
X40982Y222129D01*
X40976Y222136D01*
X40824Y222254D01*
X40673Y222373D01*
X40665Y222377D01*
X40658Y222383D01*
X40485Y222468D01*
X40314Y222556D01*
X40305Y222558D01*
X40297Y222562D01*
X40111Y222612D01*
X39926Y222664D01*
X39917Y222664D01*
X39908Y222667D01*
X39578Y222694D01*
X33409Y222694D01*
X29019Y227084D01*
X29019Y233291D01*
X33409Y237681D01*
X38354Y237681D01*
X38372Y237683D01*
X38390Y237682D01*
X38572Y237703D01*
X38755Y237721D01*
X38772Y237726D01*
X38789Y237728D01*
X38964Y237785D01*
X39140Y237839D01*
X39155Y237848D01*
X39172Y237853D01*
X39332Y237944D01*
X39494Y238031D01*
X39507Y238042D01*
X39523Y238051D01*
X39662Y238171D01*
X39803Y238289D01*
X39814Y238303D01*
X39828Y238314D01*
X39940Y238459D01*
X40055Y238603D01*
X40063Y238618D01*
X40074Y238632D01*
X40156Y238797D01*
X40241Y238960D01*
X40246Y238977D01*
X40254Y238993D01*
X40301Y239171D01*
X40352Y239347D01*
X40354Y239365D01*
X40358Y239382D01*
X40385Y239712D01*
X40385Y243372D01*
X41971Y247199D01*
X44901Y250129D01*
X48728Y251715D01*
X52872Y251715D01*
X56699Y250129D01*
X59629Y247199D01*
X61215Y243372D01*
X61215Y239228D01*
X59629Y235401D01*
X56699Y232471D01*
X52872Y230885D01*
X48728Y230885D01*
X46815Y231678D01*
X46802Y231682D01*
X46790Y231688D01*
X46610Y231740D01*
X46429Y231794D01*
X46416Y231796D01*
X46403Y231799D01*
X46216Y231815D01*
X46029Y231832D01*
X46015Y231831D01*
X46002Y231832D01*
X45814Y231810D01*
X45628Y231791D01*
X45615Y231787D01*
X45602Y231785D01*
X45423Y231727D01*
X45244Y231671D01*
X45232Y231665D01*
X45219Y231660D01*
X45055Y231568D01*
X44891Y231478D01*
X44880Y231469D01*
X44869Y231463D01*
X44726Y231340D01*
X44582Y231219D01*
X44574Y231208D01*
X44564Y231199D01*
X44449Y231051D01*
X44331Y230904D01*
X44325Y230892D01*
X44317Y230881D01*
X44233Y230713D01*
X44148Y230546D01*
X44144Y230533D01*
X44138Y230521D01*
X44089Y230338D01*
X44038Y230158D01*
X44037Y230145D01*
X44033Y230132D01*
X44006Y229801D01*
X44006Y227122D01*
X44007Y227113D01*
X44006Y227104D01*
X44027Y226913D01*
X44046Y226722D01*
X44049Y226713D01*
X44050Y226704D01*
X44108Y226520D01*
X44164Y226337D01*
X44169Y226329D01*
X44171Y226320D01*
X44265Y226151D01*
X44356Y225983D01*
X44362Y225976D01*
X44366Y225968D01*
X44492Y225820D01*
X44614Y225673D01*
X44621Y225668D01*
X44627Y225661D01*
X44778Y225541D01*
X44928Y225421D01*
X44936Y225417D01*
X44943Y225411D01*
X45114Y225324D01*
X45285Y225236D01*
X45294Y225233D01*
X45302Y225229D01*
X45487Y225177D01*
X45672Y225124D01*
X45681Y225123D01*
X45690Y225121D01*
X45881Y225107D01*
X46073Y225091D01*
X46082Y225092D01*
X46091Y225092D01*
X46282Y225116D01*
X46473Y225138D01*
X46482Y225141D01*
X46491Y225142D01*
X46578Y225172D01*
X54640Y225172D01*
X60072Y219740D01*
X60072Y212140D01*
X60074Y212114D01*
X60072Y212087D01*
X60094Y211913D01*
X60112Y211740D01*
X60119Y211714D01*
X60123Y211688D01*
X60178Y211522D01*
X60230Y211355D01*
X60243Y211331D01*
X60251Y211306D01*
X60338Y211154D01*
X60422Y211001D01*
X60439Y210980D01*
X60452Y210957D01*
X60667Y210704D01*
X64273Y207098D01*
X64294Y207081D01*
X64311Y207060D01*
X64449Y206953D01*
X64585Y206843D01*
X64608Y206830D01*
X64629Y206814D01*
X64786Y206736D01*
X64940Y206654D01*
X64966Y206646D01*
X64990Y206634D01*
X65159Y206589D01*
X65326Y206539D01*
X65353Y206537D01*
X65379Y206530D01*
X65709Y206503D01*
X194581Y206503D01*
X194590Y206504D01*
X194599Y206503D01*
X194791Y206524D01*
X194982Y206543D01*
X194990Y206545D01*
X194999Y206546D01*
X195182Y206604D01*
X195367Y206661D01*
X195375Y206665D01*
X195383Y206668D01*
X195552Y206761D01*
X195721Y206853D01*
X195728Y206858D01*
X195735Y206863D01*
X195882Y206987D01*
X196030Y207110D01*
X196036Y207117D01*
X196042Y207123D01*
X196161Y207274D01*
X196282Y207424D01*
X196287Y207432D01*
X196292Y207439D01*
X196380Y207612D01*
X196468Y207781D01*
X196470Y207790D01*
X196474Y207798D01*
X196526Y207984D01*
X196579Y208168D01*
X196580Y208177D01*
X196582Y208186D01*
X196597Y208379D01*
X196612Y208570D01*
X196611Y208578D01*
X196612Y208587D01*
X196587Y208780D01*
X196565Y208969D01*
X196563Y208978D01*
X196561Y208987D01*
X196500Y209170D01*
X196440Y209352D01*
X196436Y209360D01*
X196433Y209368D01*
X196338Y209534D01*
X196243Y209703D01*
X196237Y209710D01*
X196232Y209717D01*
X196018Y209970D01*
X193928Y212060D01*
X193928Y219740D01*
X199360Y225172D01*
X207040Y225172D01*
X212472Y219740D01*
X212472Y212060D01*
X210382Y209970D01*
X210377Y209963D01*
X210370Y209958D01*
X210250Y209808D01*
X210127Y209659D01*
X210123Y209651D01*
X210118Y209644D01*
X210029Y209474D01*
X209939Y209303D01*
X209936Y209294D01*
X209932Y209287D01*
X209879Y209102D01*
X209824Y208917D01*
X209823Y208908D01*
X209821Y208900D01*
X209805Y208709D01*
X209788Y208516D01*
X209789Y208507D01*
X209788Y208498D01*
X209810Y208309D01*
X209831Y208116D01*
X209834Y208107D01*
X209835Y208099D01*
X209894Y207917D01*
X209952Y207732D01*
X209957Y207724D01*
X209960Y207716D01*
X210055Y207547D01*
X210147Y207380D01*
X210153Y207373D01*
X210157Y207365D01*
X210283Y207219D01*
X210408Y207073D01*
X210415Y207067D01*
X210421Y207060D01*
X210572Y206943D01*
X210724Y206823D01*
X210732Y206819D01*
X210739Y206814D01*
X210911Y206728D01*
X211083Y206641D01*
X211091Y206638D01*
X211099Y206634D01*
X211285Y206584D01*
X211471Y206533D01*
X211479Y206532D01*
X211488Y206530D01*
X211819Y206503D01*
X242266Y206503D01*
X242292Y206505D01*
X242319Y206503D01*
X242493Y206525D01*
X242666Y206543D01*
X242692Y206550D01*
X242718Y206554D01*
X242884Y206609D01*
X243051Y206661D01*
X243075Y206674D01*
X243100Y206682D01*
X243252Y206769D01*
X243405Y206853D01*
X243426Y206870D01*
X243449Y206883D01*
X243702Y207098D01*
X245340Y208736D01*
X245357Y208756D01*
X245377Y208774D01*
X245484Y208912D01*
X245595Y209047D01*
X245607Y209071D01*
X245624Y209092D01*
X245702Y209249D01*
X245784Y209403D01*
X245791Y209428D01*
X245803Y209452D01*
X245849Y209622D01*
X245898Y209789D01*
X245901Y209815D01*
X245908Y209841D01*
X245935Y210172D01*
X245935Y244721D01*
X245934Y244730D01*
X245935Y244738D01*
X245914Y244930D01*
X245895Y245121D01*
X245892Y245130D01*
X245891Y245139D01*
X245834Y245321D01*
X245777Y245506D01*
X245772Y245514D01*
X245770Y245523D01*
X245677Y245691D01*
X245585Y245860D01*
X245579Y245867D01*
X245575Y245875D01*
X245450Y246022D01*
X245327Y246170D01*
X245320Y246175D01*
X245314Y246182D01*
X245164Y246301D01*
X245013Y246422D01*
X245006Y246426D01*
X244999Y246432D01*
X244826Y246519D01*
X244656Y246607D01*
X244648Y246610D01*
X244640Y246614D01*
X244453Y246666D01*
X244269Y246719D01*
X244260Y246719D01*
X244252Y246722D01*
X244059Y246736D01*
X243868Y246752D01*
X243859Y246751D01*
X243850Y246751D01*
X243658Y246727D01*
X243468Y246705D01*
X243460Y246702D01*
X243451Y246701D01*
X243267Y246639D01*
X243085Y246580D01*
X243077Y246575D01*
X243069Y246573D01*
X242902Y246477D01*
X242735Y246382D01*
X242728Y246376D01*
X242720Y246372D01*
X242467Y246157D01*
X238054Y241744D01*
X231846Y241744D01*
X228250Y245340D01*
X228229Y245357D01*
X228212Y245377D01*
X228074Y245484D01*
X227938Y245595D01*
X227915Y245607D01*
X227894Y245624D01*
X227737Y245702D01*
X227583Y245784D01*
X227557Y245791D01*
X227533Y245803D01*
X227364Y245849D01*
X227197Y245898D01*
X227170Y245901D01*
X227144Y245908D01*
X226814Y245935D01*
X219294Y245935D01*
X208828Y256401D01*
X208811Y256415D01*
X208796Y256432D01*
X208655Y256543D01*
X208517Y256656D01*
X208497Y256667D01*
X208479Y256680D01*
X208319Y256761D01*
X208161Y256845D01*
X208140Y256851D01*
X208120Y256861D01*
X207946Y256909D01*
X207775Y256960D01*
X207753Y256962D01*
X207731Y256968D01*
X207552Y256980D01*
X207374Y256996D01*
X207352Y256994D01*
X207330Y256995D01*
X207152Y256972D01*
X206974Y256953D01*
X206952Y256946D01*
X206930Y256943D01*
X206614Y256841D01*
X205272Y256285D01*
X201128Y256285D01*
X197301Y257871D01*
X194371Y260801D01*
X192785Y264628D01*
X192785Y268288D01*
X192783Y268305D01*
X192785Y268323D01*
X192764Y268505D01*
X192745Y268688D01*
X192740Y268705D01*
X192738Y268723D01*
X192681Y268897D01*
X192627Y269073D01*
X192619Y269089D01*
X192613Y269106D01*
X192523Y269266D01*
X192435Y269427D01*
X192424Y269441D01*
X192415Y269456D01*
X192295Y269596D01*
X192178Y269736D01*
X192164Y269748D01*
X192152Y269761D01*
X192007Y269874D01*
X191864Y269989D01*
X191848Y269997D01*
X191834Y270008D01*
X191669Y270090D01*
X191507Y270174D01*
X191490Y270179D01*
X191474Y270187D01*
X191295Y270235D01*
X191120Y270286D01*
X191102Y270287D01*
X191085Y270292D01*
X190754Y270319D01*
X188009Y270319D01*
X187982Y270316D01*
X187955Y270318D01*
X187781Y270296D01*
X187608Y270279D01*
X187582Y270271D01*
X187556Y270268D01*
X187390Y270212D01*
X187223Y270161D01*
X187199Y270148D01*
X187174Y270139D01*
X187022Y270052D01*
X186869Y269969D01*
X186849Y269952D01*
X186825Y269939D01*
X186572Y269724D01*
X182460Y265611D01*
X182443Y265591D01*
X182422Y265573D01*
X182315Y265435D01*
X182205Y265300D01*
X182192Y265276D01*
X182176Y265255D01*
X182098Y265098D01*
X182016Y264944D01*
X182008Y264919D01*
X181996Y264894D01*
X181951Y264725D01*
X181901Y264558D01*
X181899Y264532D01*
X181892Y264506D01*
X181865Y264175D01*
X181865Y255024D01*
X181867Y254998D01*
X181865Y254971D01*
X181887Y254797D01*
X181905Y254624D01*
X181912Y254598D01*
X181916Y254572D01*
X181972Y254406D01*
X182023Y254239D01*
X182036Y254215D01*
X182044Y254190D01*
X182131Y254038D01*
X182215Y253885D01*
X182232Y253864D01*
X182245Y253841D01*
X182460Y253588D01*
X185294Y250754D01*
X185294Y244546D01*
X180904Y240156D01*
X176952Y240156D01*
X176920Y240153D01*
X176888Y240155D01*
X176719Y240133D01*
X176551Y240116D01*
X176520Y240107D01*
X176488Y240103D01*
X176328Y240048D01*
X176166Y239998D01*
X176138Y239983D01*
X176107Y239972D01*
X175961Y239887D01*
X175812Y239806D01*
X175787Y239786D01*
X175760Y239770D01*
X175508Y239554D01*
X162322Y226226D01*
X162309Y226210D01*
X162293Y226196D01*
X162183Y226054D01*
X162069Y225913D01*
X162059Y225894D01*
X162046Y225878D01*
X161966Y225717D01*
X161882Y225557D01*
X161876Y225536D01*
X161867Y225517D01*
X161820Y225343D01*
X161770Y225170D01*
X161768Y225149D01*
X161762Y225128D01*
X161735Y224798D01*
X161735Y220734D01*
X157345Y216344D01*
X151138Y216344D01*
X146748Y220734D01*
X146748Y224605D01*
X146744Y224645D01*
X146746Y224685D01*
X146724Y224846D01*
X146708Y225006D01*
X146696Y225044D01*
X146691Y225084D01*
X146637Y225237D01*
X146590Y225391D01*
X146571Y225426D01*
X146557Y225464D01*
X146475Y225603D01*
X146398Y225745D01*
X146372Y225776D01*
X146352Y225810D01*
X146161Y226029D01*
X146140Y226054D01*
X146137Y226057D01*
X146134Y226060D01*
X143402Y228722D01*
X143391Y228730D01*
X143382Y228740D01*
X143234Y228855D01*
X143087Y228973D01*
X143075Y228979D01*
X143064Y228987D01*
X142896Y229071D01*
X142729Y229156D01*
X142716Y229160D01*
X142704Y229166D01*
X142522Y229215D01*
X142341Y229266D01*
X142328Y229267D01*
X142315Y229271D01*
X141984Y229298D01*
X110562Y229298D01*
X110535Y229295D01*
X110509Y229297D01*
X110335Y229275D01*
X110161Y229258D01*
X110136Y229250D01*
X110109Y229247D01*
X109943Y229191D01*
X109776Y229140D01*
X109753Y229127D01*
X109727Y229118D01*
X109576Y229031D01*
X109422Y228948D01*
X109402Y228931D01*
X109379Y228918D01*
X109126Y228703D01*
X106291Y225869D01*
X100084Y225869D01*
X95694Y230259D01*
X95694Y234266D01*
X95691Y234293D01*
X95693Y234320D01*
X95671Y234494D01*
X95654Y234667D01*
X95646Y234693D01*
X95643Y234719D01*
X95587Y234885D01*
X95536Y235052D01*
X95523Y235076D01*
X95514Y235101D01*
X95427Y235253D01*
X95344Y235406D01*
X95327Y235426D01*
X95314Y235450D01*
X95099Y235703D01*
X72190Y258611D01*
X72170Y258628D01*
X72152Y258649D01*
X72014Y258756D01*
X71879Y258866D01*
X71855Y258879D01*
X71834Y258895D01*
X71677Y258973D01*
X71523Y259055D01*
X71498Y259063D01*
X71473Y259075D01*
X71304Y259120D01*
X71137Y259170D01*
X71111Y259172D01*
X71085Y259179D01*
X70754Y259206D01*
X65159Y259206D01*
X62931Y261433D01*
X62921Y261442D01*
X62912Y261452D01*
X62765Y261569D01*
X62620Y261689D01*
X62608Y261695D01*
X62597Y261703D01*
X62430Y261789D01*
X62264Y261877D01*
X62251Y261881D01*
X62239Y261887D01*
X62058Y261938D01*
X61878Y261992D01*
X61865Y261993D01*
X61852Y261997D01*
X61666Y262011D01*
X61477Y262028D01*
X61464Y262027D01*
X61450Y262028D01*
X61265Y262005D01*
X61077Y261985D01*
X61064Y261981D01*
X61051Y261979D01*
X60873Y261920D01*
X60693Y261863D01*
X60681Y261857D01*
X60669Y261853D01*
X60505Y261760D01*
X60341Y261669D01*
X60331Y261660D01*
X60319Y261653D01*
X60177Y261530D01*
X60034Y261408D01*
X60025Y261398D01*
X60015Y261389D01*
X59901Y261240D01*
X59784Y261092D01*
X59778Y261080D01*
X59770Y261070D01*
X59634Y260806D01*
X56699Y257871D01*
X55947Y257559D01*
X55946Y257559D01*
X52872Y256285D01*
X48728Y256285D01*
X44901Y257871D01*
X41971Y260801D01*
X40376Y264650D01*
X40364Y264759D01*
X40345Y264942D01*
X40340Y264959D01*
X40338Y264976D01*
X40281Y265151D01*
X40227Y265327D01*
X40219Y265342D01*
X40213Y265359D01*
X40123Y265519D01*
X40035Y265681D01*
X40024Y265694D01*
X40015Y265710D01*
X39895Y265849D01*
X39778Y265990D01*
X39764Y266001D01*
X39752Y266015D01*
X39607Y266127D01*
X39464Y266242D01*
X39448Y266250D01*
X39434Y266261D01*
X39269Y266343D01*
X39107Y266428D01*
X39090Y266433D01*
X39074Y266441D01*
X38895Y266488D01*
X38720Y266539D01*
X38702Y266541D01*
X38685Y266545D01*
X38354Y266572D01*
X23975Y266572D01*
X23953Y266570D01*
X23931Y266572D01*
X23753Y266550D01*
X23575Y266532D01*
X23553Y266526D01*
X23531Y266523D01*
X23361Y266467D01*
X23190Y266414D01*
X23170Y266404D01*
X23149Y266397D01*
X22993Y266308D01*
X22836Y266222D01*
X22819Y266208D01*
X22799Y266197D01*
X22664Y266079D01*
X22527Y265965D01*
X22513Y265947D01*
X22496Y265933D01*
X22387Y265791D01*
X22379Y265781D01*
X20120Y263522D01*
X17366Y262381D01*
X14384Y262381D01*
X11630Y263522D01*
X9522Y265630D01*
X8381Y268384D01*
X8381Y271366D01*
X9522Y274120D01*
X11630Y276228D01*
X13308Y276923D01*
X13319Y276929D01*
X13332Y276933D01*
X13496Y277024D01*
X13662Y277113D01*
X13673Y277121D01*
X13685Y277128D01*
X13827Y277249D01*
X13973Y277369D01*
X13981Y277380D01*
X13992Y277388D01*
X14108Y277536D01*
X14227Y277682D01*
X14233Y277694D01*
X14241Y277704D01*
X14326Y277871D01*
X14414Y278038D01*
X14417Y278051D01*
X14423Y278063D01*
X14474Y278245D01*
X14527Y278425D01*
X14528Y278438D01*
X14531Y278451D01*
X14545Y278640D01*
X14561Y278826D01*
X14560Y278839D01*
X14561Y278853D01*
X14537Y279040D01*
X14516Y279226D01*
X14512Y279239D01*
X14510Y279252D01*
X14451Y279430D01*
X14393Y279609D01*
X14386Y279621D01*
X14382Y279634D01*
X14288Y279797D01*
X14197Y279961D01*
X14188Y279971D01*
X14181Y279983D01*
X13967Y280236D01*
X12697Y281505D01*
X11556Y284259D01*
X11556Y287241D01*
X12697Y289995D01*
X14805Y292103D01*
X15537Y292406D01*
X15538Y292406D01*
X17559Y293244D01*
X20541Y293244D01*
X23295Y292103D01*
X25530Y289867D01*
X25606Y289780D01*
X25720Y289642D01*
X25738Y289627D01*
X25752Y289610D01*
X25893Y289501D01*
X26033Y289388D01*
X26053Y289377D01*
X26070Y289364D01*
X26230Y289284D01*
X26389Y289201D01*
X26411Y289194D01*
X26431Y289184D01*
X26604Y289138D01*
X26776Y289088D01*
X26798Y289086D01*
X26820Y289080D01*
X27150Y289053D01*
X38354Y289053D01*
X38372Y289055D01*
X38390Y289053D01*
X38572Y289074D01*
X38755Y289093D01*
X38772Y289098D01*
X38789Y289100D01*
X38964Y289157D01*
X39140Y289211D01*
X39155Y289219D01*
X39172Y289225D01*
X39332Y289315D01*
X39494Y289403D01*
X39507Y289414D01*
X39523Y289423D01*
X39661Y289542D01*
X39803Y289660D01*
X39814Y289674D01*
X39828Y289686D01*
X39940Y289831D01*
X40055Y289974D01*
X40063Y289990D01*
X40074Y290004D01*
X40156Y290169D01*
X40241Y290331D01*
X40246Y290348D01*
X40254Y290364D01*
X40301Y290543D01*
X40352Y290718D01*
X40354Y290736D01*
X40358Y290753D01*
X40385Y291084D01*
X40385Y294172D01*
X41971Y297999D01*
X44901Y300929D01*
X48728Y302515D01*
X52872Y302515D01*
X56699Y300929D01*
X59629Y297999D01*
X61215Y294172D01*
X61215Y290028D01*
X59629Y286201D01*
X56699Y283271D01*
X52872Y281685D01*
X48728Y281685D01*
X47262Y282293D01*
X47232Y282302D01*
X47204Y282316D01*
X47040Y282360D01*
X46877Y282409D01*
X46846Y282412D01*
X46815Y282420D01*
X46485Y282447D01*
X27150Y282447D01*
X27128Y282445D01*
X27106Y282447D01*
X26928Y282425D01*
X26750Y282407D01*
X26728Y282401D01*
X26706Y282398D01*
X26536Y282342D01*
X26365Y282289D01*
X26345Y282279D01*
X26324Y282272D01*
X26168Y282183D01*
X26011Y282097D01*
X25994Y282083D01*
X25974Y282072D01*
X25839Y281954D01*
X25702Y281840D01*
X25688Y281822D01*
X25671Y281808D01*
X25562Y281666D01*
X25554Y281656D01*
X23295Y279397D01*
X21617Y278702D01*
X21606Y278696D01*
X21593Y278692D01*
X21428Y278601D01*
X21263Y278512D01*
X21252Y278504D01*
X21240Y278497D01*
X21096Y278375D01*
X20952Y278256D01*
X20944Y278245D01*
X20933Y278237D01*
X20816Y278088D01*
X20698Y277943D01*
X20692Y277931D01*
X20684Y277921D01*
X20599Y277753D01*
X20511Y277587D01*
X20508Y277574D01*
X20502Y277562D01*
X20451Y277381D01*
X20398Y277200D01*
X20397Y277187D01*
X20394Y277174D01*
X20380Y276985D01*
X20364Y276799D01*
X20365Y276786D01*
X20364Y276772D01*
X20388Y276584D01*
X20409Y276399D01*
X20413Y276386D01*
X20415Y276373D01*
X20474Y276195D01*
X20532Y276016D01*
X20539Y276004D01*
X20543Y275991D01*
X20636Y275829D01*
X20728Y275664D01*
X20737Y275654D01*
X20744Y275642D01*
X20958Y275389D01*
X22355Y273993D01*
X22431Y273905D01*
X22545Y273767D01*
X22563Y273752D01*
X22577Y273735D01*
X22718Y273626D01*
X22858Y273513D01*
X22878Y273502D01*
X22895Y273489D01*
X23055Y273409D01*
X23214Y273326D01*
X23236Y273319D01*
X23256Y273309D01*
X23429Y273263D01*
X23601Y273213D01*
X23623Y273211D01*
X23645Y273205D01*
X23975Y273178D01*
X41708Y273178D01*
X41734Y273180D01*
X41761Y273178D01*
X41935Y273200D01*
X42108Y273218D01*
X42134Y273225D01*
X42160Y273229D01*
X42326Y273284D01*
X42493Y273336D01*
X42517Y273349D01*
X42542Y273357D01*
X42694Y273444D01*
X42847Y273528D01*
X42868Y273545D01*
X42891Y273558D01*
X43144Y273773D01*
X44901Y275529D01*
X48728Y277115D01*
X52872Y277115D01*
X56699Y275529D01*
X59630Y272599D01*
X59720Y272436D01*
X59809Y272271D01*
X59817Y272260D01*
X59824Y272249D01*
X59945Y272105D01*
X60065Y271960D01*
X60075Y271952D01*
X60084Y271942D01*
X60231Y271825D01*
X60378Y271707D01*
X60389Y271700D01*
X60400Y271692D01*
X60568Y271607D01*
X60734Y271520D01*
X60747Y271516D01*
X60759Y271510D01*
X60941Y271459D01*
X61120Y271406D01*
X61134Y271405D01*
X61147Y271402D01*
X61336Y271388D01*
X61522Y271372D01*
X61535Y271373D01*
X61548Y271372D01*
X61736Y271396D01*
X61922Y271417D01*
X61934Y271421D01*
X61948Y271423D01*
X62127Y271483D01*
X62305Y271540D01*
X62317Y271547D01*
X62329Y271551D01*
X62492Y271645D01*
X62656Y271736D01*
X62667Y271745D01*
X62678Y271752D01*
X62931Y271967D01*
X65159Y274194D01*
X69166Y274194D01*
X69193Y274196D01*
X69220Y274194D01*
X69394Y274216D01*
X69567Y274234D01*
X69593Y274241D01*
X69619Y274245D01*
X69785Y274300D01*
X69952Y274352D01*
X69976Y274365D01*
X70001Y274373D01*
X70153Y274460D01*
X70306Y274544D01*
X70326Y274561D01*
X70350Y274574D01*
X70603Y274789D01*
X76303Y280489D01*
X76320Y280509D01*
X76340Y280527D01*
X76447Y280665D01*
X76558Y280800D01*
X76570Y280824D01*
X76587Y280845D01*
X76665Y281002D01*
X76747Y281156D01*
X76754Y281181D01*
X76766Y281206D01*
X76812Y281375D01*
X76861Y281542D01*
X76864Y281568D01*
X76871Y281594D01*
X76898Y281925D01*
X76898Y296918D01*
X76895Y296944D01*
X76897Y296971D01*
X76875Y297145D01*
X76858Y297318D01*
X76850Y297344D01*
X76847Y297370D01*
X76791Y297536D01*
X76740Y297703D01*
X76727Y297727D01*
X76718Y297752D01*
X76631Y297904D01*
X76548Y298057D01*
X76531Y298078D01*
X76518Y298101D01*
X76303Y298354D01*
X73469Y301188D01*
X73469Y307396D01*
X76303Y310230D01*
X76320Y310251D01*
X76340Y310268D01*
X76447Y310406D01*
X76558Y310542D01*
X76570Y310565D01*
X76587Y310586D01*
X76665Y310743D01*
X76747Y310897D01*
X76754Y310923D01*
X76766Y310947D01*
X76812Y311116D01*
X76861Y311283D01*
X76864Y311310D01*
X76871Y311336D01*
X76898Y311666D01*
X76898Y319896D01*
X77517Y321390D01*
X78946Y322819D01*
X98020Y341893D01*
X98037Y341914D01*
X98057Y341931D01*
X98164Y342069D01*
X98275Y342205D01*
X98287Y342228D01*
X98304Y342250D01*
X98382Y342406D01*
X98464Y342560D01*
X98471Y342586D01*
X98483Y342610D01*
X98529Y342779D01*
X98578Y342946D01*
X98581Y342973D01*
X98588Y342999D01*
X98615Y343330D01*
X98615Y344001D01*
X98614Y344009D01*
X98615Y344016D01*
X98594Y344210D01*
X98575Y344402D01*
X98573Y344409D01*
X98572Y344417D01*
X98514Y344602D01*
X98457Y344787D01*
X98453Y344793D01*
X98451Y344801D01*
X98358Y344969D01*
X98265Y345141D01*
X98260Y345147D01*
X98256Y345153D01*
X98046Y345410D01*
X96553Y346960D01*
X96540Y346971D01*
X96527Y346987D01*
X95967Y347547D01*
X95678Y348283D01*
X95670Y348298D01*
X95664Y348319D01*
X95361Y349049D01*
X95376Y349841D01*
X95375Y349858D01*
X95376Y349879D01*
X95376Y351409D01*
X95374Y351427D01*
X95376Y351445D01*
X95355Y351627D01*
X95336Y351810D01*
X95331Y351827D01*
X95329Y351844D01*
X95272Y352019D01*
X95218Y352195D01*
X95210Y352210D01*
X95204Y352227D01*
X95114Y352387D01*
X95026Y352549D01*
X95015Y352562D01*
X95006Y352578D01*
X94886Y352717D01*
X94769Y352858D01*
X94755Y352869D01*
X94743Y352883D01*
X94598Y352995D01*
X94455Y353110D01*
X94439Y353118D01*
X94425Y353129D01*
X94260Y353211D01*
X94098Y353296D01*
X94081Y353301D01*
X94065Y353309D01*
X93886Y353356D01*
X93711Y353407D01*
X93693Y353409D01*
X93676Y353413D01*
X93345Y353440D01*
X88439Y353440D01*
X87248Y354631D01*
X87248Y362919D01*
X88018Y363689D01*
X88029Y363702D01*
X88043Y363714D01*
X88157Y363859D01*
X88273Y364000D01*
X88281Y364016D01*
X88292Y364030D01*
X88376Y364194D01*
X88462Y364356D01*
X88467Y364373D01*
X88475Y364389D01*
X88524Y364566D01*
X88576Y364742D01*
X88578Y364760D01*
X88583Y364777D01*
X88596Y364960D01*
X88613Y365143D01*
X88611Y365161D01*
X88612Y365178D01*
X88589Y365360D01*
X88569Y365543D01*
X88564Y365560D01*
X88562Y365578D01*
X88504Y365751D01*
X88448Y365927D01*
X88439Y365943D01*
X88434Y365959D01*
X88342Y366118D01*
X88253Y366279D01*
X88242Y366293D01*
X88233Y366308D01*
X88018Y366561D01*
X87002Y367577D01*
X86981Y367594D01*
X86964Y367615D01*
X86826Y367722D01*
X86690Y367832D01*
X86667Y367845D01*
X86646Y367861D01*
X86489Y367939D01*
X86335Y368021D01*
X86309Y368029D01*
X86285Y368041D01*
X86116Y368086D01*
X85949Y368136D01*
X85922Y368138D01*
X85896Y368145D01*
X85566Y368172D01*
X70069Y368172D01*
X61139Y377102D01*
X61119Y377119D01*
X61101Y377140D01*
X60963Y377247D01*
X60828Y377357D01*
X60804Y377370D01*
X60783Y377386D01*
X60626Y377464D01*
X60472Y377546D01*
X60447Y377554D01*
X60423Y377566D01*
X60253Y377611D01*
X60086Y377661D01*
X60060Y377663D01*
X60034Y377670D01*
X59703Y377697D01*
X59419Y377697D01*
X59410Y377696D01*
X59401Y377697D01*
X59209Y377676D01*
X59018Y377657D01*
X59010Y377655D01*
X59001Y377654D01*
X58818Y377596D01*
X58633Y377539D01*
X58625Y377535D01*
X58617Y377532D01*
X58448Y377439D01*
X58279Y377347D01*
X58272Y377342D01*
X58265Y377337D01*
X58118Y377213D01*
X57970Y377090D01*
X57964Y377083D01*
X57958Y377077D01*
X57839Y376926D01*
X57718Y376776D01*
X57713Y376768D01*
X57708Y376761D01*
X57620Y376588D01*
X57532Y376419D01*
X57530Y376410D01*
X57526Y376402D01*
X57474Y376216D01*
X57421Y376032D01*
X57420Y376023D01*
X57418Y376014D01*
X57403Y375821D01*
X57388Y375630D01*
X57389Y375622D01*
X57388Y375613D01*
X57413Y375420D01*
X57435Y375231D01*
X57437Y375222D01*
X57439Y375213D01*
X57500Y375030D01*
X57560Y374848D01*
X57564Y374840D01*
X57567Y374832D01*
X57662Y374666D01*
X57757Y374497D01*
X57763Y374490D01*
X57768Y374483D01*
X57982Y374230D01*
X60072Y372140D01*
X60072Y364460D01*
X54640Y359028D01*
X46960Y359028D01*
X41528Y364460D01*
X41528Y372140D01*
X43618Y374230D01*
X43623Y374237D01*
X43630Y374242D01*
X43750Y374392D01*
X43873Y374541D01*
X43877Y374549D01*
X43882Y374556D01*
X43971Y374726D01*
X44061Y374897D01*
X44064Y374906D01*
X44068Y374913D01*
X44121Y375098D01*
X44176Y375283D01*
X44177Y375292D01*
X44179Y375300D01*
X44195Y375490D01*
X44212Y375684D01*
X44211Y375693D01*
X44212Y375702D01*
X44190Y375891D01*
X44169Y376084D01*
X44166Y376093D01*
X44165Y376101D01*
X44106Y376283D01*
X44048Y376468D01*
X44043Y376476D01*
X44040Y376484D01*
X43945Y376653D01*
X43853Y376820D01*
X43847Y376827D01*
X43843Y376835D01*
X43717Y376981D01*
X43592Y377127D01*
X43585Y377133D01*
X43579Y377140D01*
X43428Y377257D01*
X43276Y377377D01*
X43268Y377381D01*
X43261Y377386D01*
X43089Y377472D01*
X42917Y377559D01*
X42909Y377562D01*
X42901Y377566D01*
X42715Y377616D01*
X42529Y377667D01*
X42521Y377668D01*
X42512Y377670D01*
X42181Y377697D01*
X36711Y377697D01*
X36685Y377695D01*
X36658Y377697D01*
X36484Y377675D01*
X36311Y377657D01*
X36285Y377650D01*
X36259Y377646D01*
X36093Y377591D01*
X35926Y377539D01*
X35902Y377526D01*
X35877Y377518D01*
X35725Y377431D01*
X35572Y377347D01*
X35551Y377330D01*
X35528Y377317D01*
X35275Y377102D01*
X31679Y373506D01*
X25471Y373506D01*
X21081Y377896D01*
X21081Y384104D01*
X23907Y386930D01*
X23913Y386937D01*
X23920Y386942D01*
X24040Y387092D01*
X24162Y387241D01*
X24166Y387249D01*
X24172Y387256D01*
X24260Y387426D01*
X24351Y387597D01*
X24353Y387606D01*
X24357Y387613D01*
X24410Y387798D01*
X24465Y387983D01*
X24466Y387992D01*
X24469Y388000D01*
X24484Y388191D01*
X24502Y388384D01*
X24501Y388393D01*
X24502Y388402D01*
X24479Y388591D01*
X24458Y388784D01*
X24456Y388793D01*
X24455Y388801D01*
X24395Y388983D01*
X24337Y389168D01*
X24333Y389176D01*
X24330Y389184D01*
X24235Y389353D01*
X24142Y389520D01*
X24136Y389527D01*
X24132Y389535D01*
X24006Y389681D01*
X23882Y389827D01*
X23875Y389833D01*
X23869Y389840D01*
X23717Y389957D01*
X23566Y390077D01*
X23558Y390081D01*
X23551Y390086D01*
X23379Y390172D01*
X23207Y390259D01*
X23198Y390262D01*
X23190Y390266D01*
X23004Y390316D01*
X22819Y390367D01*
X22810Y390368D01*
X22801Y390370D01*
X22471Y390397D01*
X20857Y390397D01*
X12572Y398682D01*
X12572Y423643D01*
X29440Y440511D01*
X29457Y440531D01*
X29477Y440549D01*
X29584Y440687D01*
X29695Y440822D01*
X29707Y440846D01*
X29724Y440867D01*
X29802Y441024D01*
X29884Y441178D01*
X29891Y441203D01*
X29903Y441227D01*
X29949Y441397D01*
X29998Y441564D01*
X30001Y441590D01*
X30008Y441616D01*
X30035Y441947D01*
X30035Y514131D01*
X39907Y524003D01*
X40149Y524003D01*
X40176Y524005D01*
X40202Y524003D01*
X40376Y524025D01*
X40550Y524043D01*
X40575Y524050D01*
X40602Y524054D01*
X40768Y524109D01*
X40935Y524161D01*
X40958Y524174D01*
X40984Y524182D01*
X41135Y524269D01*
X41289Y524353D01*
X41309Y524370D01*
X41332Y524383D01*
X41585Y524598D01*
X46960Y529972D01*
X54640Y529972D01*
X60072Y524540D01*
X60072Y516860D01*
X54640Y511428D01*
X46960Y511428D01*
X43253Y515135D01*
X43239Y515146D01*
X43228Y515160D01*
X43084Y515273D01*
X42942Y515390D01*
X42926Y515398D01*
X42912Y515409D01*
X42748Y515493D01*
X42586Y515578D01*
X42569Y515583D01*
X42553Y515592D01*
X42376Y515641D01*
X42200Y515693D01*
X42182Y515695D01*
X42165Y515700D01*
X41982Y515713D01*
X41799Y515730D01*
X41781Y515728D01*
X41763Y515729D01*
X41581Y515706D01*
X41399Y515686D01*
X41382Y515681D01*
X41364Y515679D01*
X41190Y515620D01*
X41015Y515565D01*
X40999Y515556D01*
X40982Y515550D01*
X40823Y515458D01*
X40663Y515370D01*
X40649Y515358D01*
X40633Y515349D01*
X40380Y515135D01*
X37235Y511989D01*
X37218Y511969D01*
X37198Y511951D01*
X37091Y511813D01*
X36980Y511678D01*
X36968Y511654D01*
X36951Y511633D01*
X36874Y511477D01*
X36791Y511322D01*
X36784Y511297D01*
X36772Y511273D01*
X36726Y511104D01*
X36677Y510936D01*
X36674Y510910D01*
X36667Y510884D01*
X36640Y510553D01*
X36640Y438369D01*
X19773Y421502D01*
X19756Y421481D01*
X19735Y421464D01*
X19628Y421326D01*
X19518Y421190D01*
X19505Y421167D01*
X19489Y421146D01*
X19411Y420989D01*
X19329Y420835D01*
X19321Y420809D01*
X19309Y420785D01*
X19264Y420616D01*
X19214Y420449D01*
X19212Y420422D01*
X19205Y420396D01*
X19178Y420066D01*
X19178Y412504D01*
X19179Y412495D01*
X19178Y412487D01*
X19199Y412295D01*
X19218Y412104D01*
X19220Y412095D01*
X19221Y412086D01*
X19279Y411904D01*
X19336Y411719D01*
X19340Y411711D01*
X19343Y411702D01*
X19436Y411534D01*
X19528Y411365D01*
X19533Y411358D01*
X19538Y411350D01*
X19663Y411202D01*
X19785Y411055D01*
X19792Y411050D01*
X19798Y411043D01*
X19950Y410923D01*
X20099Y410803D01*
X20107Y410799D01*
X20114Y410793D01*
X20286Y410706D01*
X20456Y410618D01*
X20465Y410615D01*
X20473Y410611D01*
X20659Y410559D01*
X20843Y410506D01*
X20852Y410506D01*
X20861Y410503D01*
X21053Y410489D01*
X21245Y410473D01*
X21253Y410474D01*
X21262Y410474D01*
X21455Y410498D01*
X21644Y410520D01*
X21653Y410523D01*
X21662Y410524D01*
X21845Y410586D01*
X22027Y410645D01*
X22035Y410650D01*
X22043Y410652D01*
X22209Y410748D01*
X22378Y410843D01*
X22385Y410849D01*
X22392Y410853D01*
X22645Y411068D01*
X24677Y413100D01*
X24694Y413121D01*
X24715Y413138D01*
X24821Y413276D01*
X24932Y413412D01*
X24945Y413435D01*
X24961Y413456D01*
X25039Y413613D01*
X25121Y413767D01*
X25129Y413793D01*
X25141Y413817D01*
X25186Y413986D01*
X25236Y414153D01*
X25238Y414180D01*
X25245Y414206D01*
X25272Y414536D01*
X25272Y417293D01*
X40552Y432573D01*
X43647Y435668D01*
X43659Y435682D01*
X43672Y435693D01*
X43786Y435837D01*
X43902Y435979D01*
X43911Y435995D01*
X43922Y436009D01*
X44005Y436173D01*
X44091Y436335D01*
X44096Y436352D01*
X44104Y436368D01*
X44153Y436545D01*
X44206Y436721D01*
X44207Y436739D01*
X44212Y436756D01*
X44225Y436939D01*
X44242Y437122D01*
X44240Y437140D01*
X44241Y437158D01*
X44219Y437340D01*
X44199Y437522D01*
X44193Y437539D01*
X44191Y437557D01*
X44133Y437731D01*
X44077Y437906D01*
X44069Y437922D01*
X44063Y437939D01*
X43971Y438098D01*
X43882Y438259D01*
X43871Y438272D01*
X43862Y438288D01*
X43647Y438541D01*
X41528Y440660D01*
X41528Y448340D01*
X46960Y453772D01*
X54640Y453772D01*
X56730Y451682D01*
X56737Y451677D01*
X56742Y451670D01*
X56892Y451550D01*
X57041Y451427D01*
X57049Y451423D01*
X57056Y451418D01*
X57226Y451329D01*
X57397Y451239D01*
X57406Y451236D01*
X57413Y451232D01*
X57598Y451179D01*
X57783Y451124D01*
X57792Y451123D01*
X57800Y451121D01*
X57991Y451105D01*
X58184Y451088D01*
X58193Y451089D01*
X58202Y451088D01*
X58391Y451110D01*
X58584Y451131D01*
X58593Y451134D01*
X58601Y451135D01*
X58783Y451194D01*
X58968Y451252D01*
X58976Y451257D01*
X58984Y451260D01*
X59153Y451355D01*
X59320Y451447D01*
X59327Y451453D01*
X59335Y451457D01*
X59481Y451583D01*
X59627Y451708D01*
X59633Y451715D01*
X59640Y451721D01*
X59757Y451872D01*
X59877Y452024D01*
X59881Y452032D01*
X59886Y452039D01*
X59972Y452211D01*
X60059Y452383D01*
X60062Y452391D01*
X60066Y452399D01*
X60116Y452585D01*
X60167Y452771D01*
X60168Y452779D01*
X60170Y452788D01*
X60197Y453119D01*
X60197Y461281D01*
X60196Y461290D01*
X60197Y461299D01*
X60176Y461491D01*
X60157Y461682D01*
X60155Y461690D01*
X60154Y461699D01*
X60096Y461882D01*
X60039Y462067D01*
X60035Y462075D01*
X60032Y462083D01*
X59939Y462252D01*
X59847Y462421D01*
X59842Y462428D01*
X59837Y462435D01*
X59713Y462582D01*
X59590Y462730D01*
X59583Y462736D01*
X59577Y462742D01*
X59426Y462861D01*
X59276Y462982D01*
X59268Y462987D01*
X59261Y462992D01*
X59088Y463080D01*
X58919Y463168D01*
X58910Y463170D01*
X58902Y463174D01*
X58716Y463226D01*
X58532Y463279D01*
X58523Y463280D01*
X58514Y463282D01*
X58321Y463297D01*
X58130Y463312D01*
X58122Y463311D01*
X58113Y463312D01*
X57920Y463287D01*
X57731Y463265D01*
X57722Y463263D01*
X57713Y463261D01*
X57530Y463200D01*
X57348Y463140D01*
X57340Y463136D01*
X57332Y463133D01*
X57166Y463038D01*
X56997Y462943D01*
X56990Y462937D01*
X56983Y462932D01*
X56730Y462718D01*
X54640Y460628D01*
X46960Y460628D01*
X41528Y466060D01*
X41528Y473740D01*
X46960Y479172D01*
X54640Y479172D01*
X56730Y477082D01*
X56737Y477077D01*
X56742Y477070D01*
X56892Y476950D01*
X57041Y476827D01*
X57049Y476823D01*
X57056Y476818D01*
X57226Y476729D01*
X57397Y476639D01*
X57406Y476636D01*
X57413Y476632D01*
X57598Y476579D01*
X57783Y476524D01*
X57792Y476523D01*
X57800Y476521D01*
X57991Y476505D01*
X58184Y476488D01*
X58193Y476489D01*
X58202Y476488D01*
X58391Y476510D01*
X58584Y476531D01*
X58593Y476534D01*
X58601Y476535D01*
X58783Y476594D01*
X58968Y476652D01*
X58976Y476657D01*
X58984Y476660D01*
X59153Y476755D01*
X59320Y476847D01*
X59327Y476853D01*
X59335Y476857D01*
X59481Y476983D01*
X59627Y477108D01*
X59633Y477115D01*
X59640Y477121D01*
X59757Y477272D01*
X59877Y477424D01*
X59881Y477432D01*
X59886Y477439D01*
X59972Y477611D01*
X60059Y477783D01*
X60062Y477791D01*
X60066Y477799D01*
X60116Y477985D01*
X60167Y478171D01*
X60168Y478179D01*
X60170Y478188D01*
X60197Y478519D01*
X60197Y480391D01*
X60195Y480417D01*
X60197Y480444D01*
X60175Y480618D01*
X60157Y480791D01*
X60150Y480817D01*
X60146Y480843D01*
X60091Y481009D01*
X60039Y481176D01*
X60026Y481200D01*
X60018Y481225D01*
X59931Y481377D01*
X59847Y481530D01*
X59830Y481551D01*
X59817Y481574D01*
X59602Y481827D01*
X55996Y485433D01*
X55975Y485450D01*
X55958Y485471D01*
X55820Y485578D01*
X55684Y485688D01*
X55661Y485701D01*
X55640Y485717D01*
X55483Y485795D01*
X55329Y485877D01*
X55303Y485885D01*
X55279Y485897D01*
X55110Y485942D01*
X54943Y485992D01*
X54916Y485994D01*
X54890Y486001D01*
X54560Y486028D01*
X46960Y486028D01*
X41528Y491460D01*
X41528Y499140D01*
X46960Y504572D01*
X54640Y504572D01*
X60072Y499140D01*
X60072Y491540D01*
X60074Y491514D01*
X60072Y491487D01*
X60094Y491313D01*
X60112Y491140D01*
X60119Y491114D01*
X60123Y491088D01*
X60178Y490922D01*
X60230Y490755D01*
X60243Y490731D01*
X60251Y490706D01*
X60338Y490555D01*
X60422Y490401D01*
X60439Y490380D01*
X60452Y490357D01*
X60667Y490104D01*
X66255Y484516D01*
X66262Y484510D01*
X66267Y484504D01*
X66417Y484383D01*
X66566Y484261D01*
X66574Y484257D01*
X66581Y484251D01*
X66751Y484163D01*
X66922Y484072D01*
X66931Y484070D01*
X66938Y484066D01*
X67123Y484013D01*
X67308Y483958D01*
X67317Y483957D01*
X67325Y483954D01*
X67517Y483939D01*
X67709Y483921D01*
X67718Y483922D01*
X67727Y483921D01*
X67916Y483944D01*
X68109Y483965D01*
X68118Y483967D01*
X68126Y483968D01*
X68308Y484028D01*
X68493Y484086D01*
X68501Y484090D01*
X68509Y484093D01*
X68678Y484188D01*
X68845Y484281D01*
X68852Y484287D01*
X68860Y484291D01*
X69006Y484417D01*
X69152Y484541D01*
X69158Y484548D01*
X69165Y484554D01*
X69282Y484706D01*
X69402Y484857D01*
X69406Y484865D01*
X69411Y484872D01*
X69497Y485044D01*
X69584Y485216D01*
X69587Y485225D01*
X69591Y485233D01*
X69641Y485419D01*
X69692Y485604D01*
X69693Y485613D01*
X69695Y485622D01*
X69722Y485952D01*
X69722Y528418D01*
X78007Y536703D01*
X97411Y536703D01*
X97429Y536705D01*
X97447Y536703D01*
X97629Y536724D01*
X97812Y536743D01*
X97829Y536748D01*
X97846Y536750D01*
X98021Y536807D01*
X98197Y536861D01*
X98212Y536869D01*
X98229Y536875D01*
X98389Y536965D01*
X98551Y537053D01*
X98564Y537064D01*
X98580Y537073D01*
X98719Y537193D01*
X98860Y537310D01*
X98871Y537324D01*
X98885Y537336D01*
X98997Y537481D01*
X99112Y537624D01*
X99120Y537640D01*
X99131Y537654D01*
X99213Y537819D01*
X99298Y537981D01*
X99303Y537998D01*
X99311Y538014D01*
X99358Y538193D01*
X99409Y538368D01*
X99411Y538386D01*
X99415Y538403D01*
X99442Y538734D01*
X99442Y542242D01*
X100633Y543433D01*
X115317Y543433D01*
X116039Y542711D01*
X116052Y542700D01*
X116064Y542686D01*
X116209Y542572D01*
X116350Y542456D01*
X116366Y542448D01*
X116380Y542437D01*
X116544Y542353D01*
X116706Y542267D01*
X116723Y542262D01*
X116739Y542254D01*
X116916Y542205D01*
X117092Y542153D01*
X117110Y542151D01*
X117127Y542146D01*
X117310Y542133D01*
X117493Y542116D01*
X117511Y542118D01*
X117528Y542117D01*
X117710Y542140D01*
X117893Y542160D01*
X117910Y542165D01*
X117928Y542167D01*
X118101Y542225D01*
X118277Y542281D01*
X118293Y542290D01*
X118309Y542295D01*
X118468Y542387D01*
X118629Y542476D01*
X118643Y542487D01*
X118658Y542496D01*
X118911Y542711D01*
X119633Y543433D01*
X134317Y543433D01*
X135508Y542242D01*
X135508Y538734D01*
X135510Y538716D01*
X135508Y538698D01*
X135529Y538516D01*
X135548Y538333D01*
X135553Y538316D01*
X135555Y538299D01*
X135612Y538124D01*
X135666Y537948D01*
X135674Y537933D01*
X135680Y537916D01*
X135770Y537756D01*
X135858Y537594D01*
X135869Y537581D01*
X135878Y537565D01*
X135998Y537426D01*
X136115Y537285D01*
X136129Y537274D01*
X136141Y537260D01*
X136286Y537148D01*
X136429Y537033D01*
X136445Y537025D01*
X136459Y537014D01*
X136624Y536932D01*
X136786Y536847D01*
X136803Y536842D01*
X136819Y536834D01*
X136998Y536787D01*
X137173Y536736D01*
X137191Y536734D01*
X137208Y536730D01*
X137539Y536703D01*
X148211Y536703D01*
X148229Y536705D01*
X148247Y536703D01*
X148429Y536724D01*
X148612Y536743D01*
X148629Y536748D01*
X148646Y536750D01*
X148821Y536807D01*
X148997Y536861D01*
X149012Y536869D01*
X149029Y536875D01*
X149189Y536965D01*
X149351Y537053D01*
X149364Y537064D01*
X149380Y537073D01*
X149519Y537193D01*
X149660Y537310D01*
X149671Y537324D01*
X149685Y537336D01*
X149797Y537481D01*
X149912Y537624D01*
X149920Y537640D01*
X149931Y537654D01*
X150013Y537819D01*
X150098Y537981D01*
X150103Y537998D01*
X150111Y538014D01*
X150158Y538193D01*
X150209Y538368D01*
X150211Y538386D01*
X150215Y538403D01*
X150242Y538734D01*
X150242Y542242D01*
X151433Y543433D01*
X153441Y543433D01*
X153459Y543435D01*
X153477Y543433D01*
X153659Y543454D01*
X153842Y543473D01*
X153859Y543478D01*
X153876Y543480D01*
X154051Y543537D01*
X154227Y543591D01*
X154242Y543599D01*
X154259Y543605D01*
X154419Y543695D01*
X154581Y543783D01*
X154594Y543794D01*
X154610Y543803D01*
X154749Y543923D01*
X154890Y544040D01*
X154901Y544054D01*
X154915Y544066D01*
X155027Y544211D01*
X155142Y544354D01*
X155150Y544370D01*
X155161Y544384D01*
X155243Y544549D01*
X155328Y544711D01*
X155333Y544728D01*
X155341Y544744D01*
X155388Y544923D01*
X155439Y545098D01*
X155441Y545116D01*
X155445Y545133D01*
X155472Y545464D01*
X155472Y550668D01*
X162144Y557340D01*
X236318Y557340D01*
X236549Y557110D01*
X236569Y557093D01*
X236587Y557072D01*
X236724Y556966D01*
X236860Y556855D01*
X236884Y556842D01*
X236905Y556826D01*
X237061Y556748D01*
X237216Y556666D01*
X237241Y556658D01*
X237265Y556646D01*
X237434Y556601D01*
X237602Y556551D01*
X237628Y556549D01*
X237654Y556542D01*
X237985Y556515D01*
X247201Y556515D01*
X253302Y550414D01*
X253302Y541786D01*
X247201Y535685D01*
X238574Y535685D01*
X232473Y541786D01*
X232473Y548704D01*
X232471Y548721D01*
X232472Y548739D01*
X232451Y548921D01*
X232433Y549104D01*
X232428Y549121D01*
X232426Y549139D01*
X232369Y549313D01*
X232315Y549489D01*
X232306Y549505D01*
X232301Y549522D01*
X232210Y549682D01*
X232123Y549843D01*
X232112Y549857D01*
X232103Y549872D01*
X231983Y550012D01*
X231865Y550152D01*
X231851Y550164D01*
X231840Y550177D01*
X231695Y550290D01*
X231551Y550405D01*
X231536Y550413D01*
X231522Y550424D01*
X231357Y550506D01*
X231194Y550590D01*
X231177Y550595D01*
X231161Y550603D01*
X230983Y550651D01*
X230807Y550702D01*
X230789Y550703D01*
X230772Y550708D01*
X230442Y550735D01*
X165722Y550735D01*
X165695Y550732D01*
X165669Y550734D01*
X165495Y550712D01*
X165321Y550695D01*
X165296Y550687D01*
X165269Y550684D01*
X165104Y550628D01*
X164936Y550577D01*
X164913Y550564D01*
X164887Y550555D01*
X164736Y550468D01*
X164582Y550385D01*
X164562Y550368D01*
X164539Y550355D01*
X164286Y550140D01*
X162673Y548527D01*
X162656Y548506D01*
X162635Y548489D01*
X162528Y548351D01*
X162418Y548215D01*
X162405Y548192D01*
X162389Y548171D01*
X162311Y548014D01*
X162229Y547860D01*
X162221Y547834D01*
X162209Y547810D01*
X162164Y547641D01*
X162114Y547474D01*
X162112Y547447D01*
X162105Y547421D01*
X162078Y547091D01*
X162078Y545464D01*
X162080Y545446D01*
X162078Y545428D01*
X162099Y545246D01*
X162118Y545063D01*
X162123Y545046D01*
X162125Y545029D01*
X162182Y544854D01*
X162236Y544678D01*
X162244Y544663D01*
X162250Y544646D01*
X162340Y544486D01*
X162428Y544324D01*
X162439Y544311D01*
X162448Y544295D01*
X162568Y544156D01*
X162685Y544015D01*
X162699Y544004D01*
X162711Y543990D01*
X162856Y543878D01*
X162999Y543763D01*
X163015Y543755D01*
X163029Y543744D01*
X163194Y543662D01*
X163356Y543577D01*
X163373Y543572D01*
X163389Y543564D01*
X163568Y543517D01*
X163743Y543466D01*
X163761Y543464D01*
X163778Y543460D01*
X164109Y543433D01*
X166117Y543433D01*
X166839Y542711D01*
X166853Y542700D01*
X166864Y542686D01*
X167008Y542572D01*
X167150Y542456D01*
X167166Y542448D01*
X167180Y542437D01*
X167344Y542353D01*
X167506Y542267D01*
X167523Y542262D01*
X167539Y542254D01*
X167716Y542205D01*
X167892Y542153D01*
X167910Y542151D01*
X167927Y542146D01*
X168110Y542133D01*
X168293Y542116D01*
X168311Y542118D01*
X168328Y542117D01*
X168510Y542140D01*
X168693Y542160D01*
X168710Y542165D01*
X168728Y542167D01*
X168902Y542226D01*
X169077Y542281D01*
X169093Y542290D01*
X169109Y542295D01*
X169268Y542387D01*
X169429Y542476D01*
X169443Y542487D01*
X169458Y542496D01*
X169711Y542711D01*
X170433Y543433D01*
X185117Y543433D01*
X186308Y542242D01*
X186308Y524558D01*
X185117Y523367D01*
X183109Y523367D01*
X183091Y523365D01*
X183073Y523367D01*
X182891Y523346D01*
X182708Y523327D01*
X182691Y523322D01*
X182674Y523320D01*
X182499Y523263D01*
X182323Y523209D01*
X182308Y523201D01*
X182291Y523195D01*
X182131Y523105D01*
X181969Y523017D01*
X181956Y523006D01*
X181940Y522997D01*
X181801Y522877D01*
X181660Y522760D01*
X181649Y522746D01*
X181635Y522734D01*
X181523Y522589D01*
X181408Y522446D01*
X181400Y522430D01*
X181389Y522416D01*
X181307Y522251D01*
X181222Y522089D01*
X181217Y522072D01*
X181209Y522056D01*
X181162Y521877D01*
X181111Y521702D01*
X181109Y521684D01*
X181105Y521667D01*
X181078Y521336D01*
X181078Y520064D01*
X181080Y520046D01*
X181078Y520028D01*
X181099Y519846D01*
X181118Y519663D01*
X181123Y519646D01*
X181125Y519629D01*
X181182Y519454D01*
X181236Y519278D01*
X181244Y519263D01*
X181250Y519246D01*
X181340Y519086D01*
X181428Y518924D01*
X181439Y518911D01*
X181448Y518895D01*
X181568Y518756D01*
X181685Y518615D01*
X181699Y518604D01*
X181711Y518590D01*
X181856Y518478D01*
X181999Y518363D01*
X182015Y518355D01*
X182029Y518344D01*
X182194Y518262D01*
X182356Y518177D01*
X182373Y518172D01*
X182389Y518164D01*
X182568Y518117D01*
X182743Y518066D01*
X182761Y518064D01*
X182778Y518060D01*
X183109Y518033D01*
X185117Y518033D01*
X186308Y516842D01*
X186308Y499158D01*
X185117Y497967D01*
X183109Y497967D01*
X183091Y497965D01*
X183073Y497967D01*
X182891Y497946D01*
X182708Y497927D01*
X182691Y497922D01*
X182674Y497920D01*
X182499Y497863D01*
X182323Y497809D01*
X182308Y497801D01*
X182291Y497795D01*
X182131Y497705D01*
X181969Y497617D01*
X181956Y497606D01*
X181940Y497597D01*
X181801Y497477D01*
X181660Y497360D01*
X181649Y497346D01*
X181635Y497334D01*
X181523Y497189D01*
X181408Y497046D01*
X181400Y497030D01*
X181389Y497016D01*
X181307Y496851D01*
X181222Y496689D01*
X181217Y496672D01*
X181209Y496656D01*
X181162Y496477D01*
X181111Y496302D01*
X181109Y496284D01*
X181105Y496267D01*
X181078Y495936D01*
X181078Y494664D01*
X181080Y494646D01*
X181078Y494628D01*
X181099Y494446D01*
X181118Y494263D01*
X181123Y494246D01*
X181125Y494229D01*
X181182Y494054D01*
X181236Y493878D01*
X181244Y493863D01*
X181250Y493846D01*
X181340Y493686D01*
X181428Y493524D01*
X181439Y493511D01*
X181448Y493495D01*
X181568Y493356D01*
X181685Y493215D01*
X181699Y493204D01*
X181711Y493190D01*
X181856Y493078D01*
X181999Y492963D01*
X182015Y492955D01*
X182029Y492944D01*
X182194Y492862D01*
X182356Y492777D01*
X182373Y492772D01*
X182389Y492764D01*
X182568Y492717D01*
X182743Y492666D01*
X182761Y492664D01*
X182778Y492660D01*
X183109Y492633D01*
X185117Y492633D01*
X186308Y491442D01*
X186308Y473758D01*
X185117Y472567D01*
X182804Y472567D01*
X182778Y472565D01*
X182751Y472567D01*
X182577Y472545D01*
X182404Y472527D01*
X182378Y472520D01*
X182352Y472516D01*
X182186Y472461D01*
X182019Y472409D01*
X181995Y472396D01*
X181970Y472388D01*
X181819Y472301D01*
X181665Y472217D01*
X181644Y472200D01*
X181621Y472187D01*
X181368Y471972D01*
X173379Y463984D01*
X173265Y463844D01*
X173148Y463706D01*
X173138Y463688D01*
X173124Y463672D01*
X173040Y463512D01*
X172952Y463355D01*
X172945Y463335D01*
X172936Y463316D01*
X172884Y463143D01*
X172829Y462971D01*
X172827Y462950D01*
X172821Y462931D01*
X172805Y462750D01*
X172785Y462571D01*
X172786Y462550D01*
X172785Y462530D01*
X172804Y462350D01*
X172820Y462170D01*
X172826Y462150D01*
X172828Y462129D01*
X172882Y461957D01*
X172933Y461784D01*
X172943Y461765D01*
X172949Y461745D01*
X173037Y461588D01*
X173121Y461427D01*
X173134Y461411D01*
X173144Y461393D01*
X173261Y461255D01*
X173375Y461115D01*
X173391Y461102D01*
X173405Y461086D01*
X173547Y460974D01*
X173686Y460859D01*
X173704Y460849D01*
X173721Y460837D01*
X173882Y460754D01*
X174041Y460670D01*
X174061Y460664D01*
X174080Y460654D01*
X174253Y460606D01*
X174427Y460554D01*
X174450Y460551D01*
X174467Y460546D01*
X174546Y460540D01*
X174757Y460517D01*
X175215Y460504D01*
X175241Y460505D01*
X175274Y460503D01*
X181941Y460503D01*
X181967Y460505D01*
X181994Y460503D01*
X182168Y460525D01*
X182341Y460543D01*
X182367Y460550D01*
X182393Y460554D01*
X182559Y460609D01*
X182726Y460661D01*
X182750Y460674D01*
X182775Y460682D01*
X182927Y460769D01*
X183080Y460853D01*
X183101Y460870D01*
X183124Y460883D01*
X183377Y461098D01*
X192952Y470673D01*
X193333Y471054D01*
X193350Y471075D01*
X193371Y471092D01*
X193477Y471230D01*
X193588Y471366D01*
X193601Y471389D01*
X193617Y471410D01*
X193695Y471567D01*
X193777Y471721D01*
X193785Y471747D01*
X193797Y471771D01*
X193842Y471940D01*
X193892Y472107D01*
X193894Y472134D01*
X193901Y472160D01*
X193928Y472490D01*
X193928Y473740D01*
X199360Y479172D01*
X207040Y479172D01*
X212472Y473740D01*
X212472Y471855D01*
X212473Y471847D01*
X212472Y471838D01*
X212493Y471644D01*
X212512Y471455D01*
X212514Y471446D01*
X212515Y471437D01*
X212573Y471254D01*
X212630Y471070D01*
X212634Y471062D01*
X212637Y471053D01*
X212729Y470886D01*
X212822Y470716D01*
X212827Y470709D01*
X212832Y470701D01*
X212957Y470554D01*
X213079Y470407D01*
X213086Y470401D01*
X213092Y470394D01*
X213244Y470274D01*
X213393Y470154D01*
X213401Y470150D01*
X213408Y470145D01*
X213581Y470057D01*
X213750Y469969D01*
X213759Y469966D01*
X213767Y469962D01*
X213953Y469910D01*
X214137Y469857D01*
X214146Y469857D01*
X214155Y469854D01*
X214348Y469840D01*
X214539Y469824D01*
X214547Y469825D01*
X214556Y469825D01*
X214749Y469849D01*
X214938Y469871D01*
X214947Y469874D01*
X214956Y469875D01*
X215139Y469937D01*
X215321Y469996D01*
X215329Y470001D01*
X215337Y470003D01*
X215504Y470100D01*
X215672Y470194D01*
X215679Y470200D01*
X215686Y470204D01*
X215939Y470419D01*
X231423Y485903D01*
X232652Y485903D01*
X232661Y485904D01*
X232670Y485903D01*
X232862Y485924D01*
X233053Y485943D01*
X233061Y485945D01*
X233070Y485946D01*
X233253Y486004D01*
X233438Y486061D01*
X233446Y486065D01*
X233454Y486068D01*
X233623Y486161D01*
X233792Y486253D01*
X233799Y486258D01*
X233807Y486263D01*
X233954Y486388D01*
X234101Y486510D01*
X234107Y486517D01*
X234114Y486523D01*
X234233Y486675D01*
X234353Y486824D01*
X234358Y486832D01*
X234363Y486839D01*
X234450Y487011D01*
X234539Y487181D01*
X234541Y487190D01*
X234545Y487198D01*
X234597Y487384D01*
X234650Y487568D01*
X234651Y487577D01*
X234653Y487586D01*
X234668Y487778D01*
X234683Y487970D01*
X234682Y487978D01*
X234683Y487987D01*
X234658Y488180D01*
X234636Y488369D01*
X234634Y488378D01*
X234632Y488387D01*
X234571Y488570D01*
X234511Y488752D01*
X234507Y488760D01*
X234504Y488768D01*
X234409Y488934D01*
X234314Y489103D01*
X234308Y489110D01*
X234303Y489117D01*
X234089Y489370D01*
X232473Y490986D01*
X232473Y499614D01*
X238574Y505715D01*
X247201Y505715D01*
X253302Y499614D01*
X253302Y490986D01*
X251642Y489326D01*
X251631Y489312D01*
X251617Y489301D01*
X251504Y489157D01*
X251387Y489015D01*
X251379Y488999D01*
X251368Y488985D01*
X251284Y488820D01*
X251199Y488659D01*
X251194Y488642D01*
X251185Y488626D01*
X251136Y488448D01*
X251084Y488273D01*
X251082Y488255D01*
X251077Y488238D01*
X251064Y488055D01*
X251047Y487872D01*
X251049Y487854D01*
X251048Y487836D01*
X251071Y487654D01*
X251091Y487472D01*
X251096Y487455D01*
X251098Y487437D01*
X251157Y487263D01*
X251212Y487088D01*
X251221Y487072D01*
X251227Y487055D01*
X251319Y486896D01*
X251407Y486736D01*
X251419Y486722D01*
X251428Y486706D01*
X251642Y486453D01*
X254723Y483373D01*
X260478Y477618D01*
X260478Y379632D01*
X257948Y377102D01*
X253897Y373051D01*
X253880Y373031D01*
X253860Y373013D01*
X253753Y372875D01*
X253642Y372740D01*
X253630Y372716D01*
X253613Y372695D01*
X253535Y372538D01*
X253453Y372384D01*
X253446Y372359D01*
X253434Y372335D01*
X253388Y372165D01*
X253339Y371998D01*
X253336Y371972D01*
X253329Y371946D01*
X253302Y371615D01*
X253302Y362399D01*
X247201Y356298D01*
X238574Y356298D01*
X232473Y362399D01*
X232473Y371026D01*
X238574Y377127D01*
X247790Y377127D01*
X247817Y377130D01*
X247843Y377128D01*
X248017Y377150D01*
X248191Y377167D01*
X248216Y377175D01*
X248243Y377178D01*
X248409Y377234D01*
X248576Y377285D01*
X248599Y377298D01*
X248625Y377307D01*
X248776Y377394D01*
X248930Y377477D01*
X248950Y377494D01*
X248973Y377507D01*
X249226Y377722D01*
X253277Y381773D01*
X253294Y381794D01*
X253315Y381811D01*
X253421Y381949D01*
X253532Y382085D01*
X253545Y382108D01*
X253561Y382129D01*
X253639Y382285D01*
X253721Y382440D01*
X253729Y382466D01*
X253741Y382490D01*
X253786Y382659D01*
X253836Y382826D01*
X253838Y382853D01*
X253845Y382879D01*
X253872Y383209D01*
X253872Y383465D01*
X253871Y383474D01*
X253872Y383483D01*
X253851Y383674D01*
X253832Y383865D01*
X253830Y383874D01*
X253829Y383883D01*
X253771Y384065D01*
X253714Y384250D01*
X253710Y384258D01*
X253707Y384267D01*
X253614Y384435D01*
X253522Y384604D01*
X253517Y384611D01*
X253512Y384619D01*
X253389Y384764D01*
X253265Y384914D01*
X253258Y384919D01*
X253252Y384926D01*
X253101Y385045D01*
X252951Y385166D01*
X252943Y385170D01*
X252936Y385176D01*
X252763Y385263D01*
X252594Y385351D01*
X252585Y385354D01*
X252577Y385358D01*
X252391Y385410D01*
X252207Y385463D01*
X252198Y385464D01*
X252189Y385466D01*
X251996Y385480D01*
X251805Y385496D01*
X251797Y385495D01*
X251788Y385495D01*
X251595Y385471D01*
X251406Y385449D01*
X251397Y385446D01*
X251388Y385445D01*
X251205Y385384D01*
X251023Y385324D01*
X251015Y385320D01*
X251007Y385317D01*
X250840Y385221D01*
X250672Y385126D01*
X250665Y385120D01*
X250658Y385116D01*
X250405Y384901D01*
X247201Y381698D01*
X238574Y381698D01*
X232473Y387799D01*
X232473Y396426D01*
X238574Y402527D01*
X247201Y402527D01*
X250405Y399324D01*
X250412Y399318D01*
X250417Y399311D01*
X250567Y399191D01*
X250716Y399069D01*
X250724Y399065D01*
X250731Y399059D01*
X250901Y398971D01*
X251072Y398880D01*
X251081Y398878D01*
X251088Y398874D01*
X251273Y398820D01*
X251458Y398765D01*
X251467Y398765D01*
X251475Y398762D01*
X251666Y398747D01*
X251859Y398729D01*
X251868Y398730D01*
X251877Y398729D01*
X252066Y398752D01*
X252259Y398772D01*
X252268Y398775D01*
X252276Y398776D01*
X252458Y398836D01*
X252643Y398894D01*
X252651Y398898D01*
X252659Y398901D01*
X252828Y398996D01*
X252995Y399089D01*
X253002Y399095D01*
X253010Y399099D01*
X253156Y399225D01*
X253302Y399349D01*
X253308Y399356D01*
X253315Y399362D01*
X253432Y399514D01*
X253552Y399665D01*
X253556Y399673D01*
X253561Y399680D01*
X253647Y399852D01*
X253734Y400024D01*
X253737Y400033D01*
X253741Y400041D01*
X253791Y400227D01*
X253842Y400412D01*
X253843Y400421D01*
X253845Y400430D01*
X253872Y400760D01*
X253872Y409734D01*
X253871Y409743D01*
X253872Y409752D01*
X253851Y409943D01*
X253832Y410134D01*
X253830Y410143D01*
X253829Y410152D01*
X253771Y410334D01*
X253714Y410519D01*
X253710Y410527D01*
X253707Y410536D01*
X253614Y410704D01*
X253522Y410873D01*
X253517Y410880D01*
X253512Y410888D01*
X253388Y411035D01*
X253265Y411183D01*
X253258Y411188D01*
X253252Y411195D01*
X253101Y411314D01*
X252951Y411435D01*
X252943Y411439D01*
X252936Y411445D01*
X252763Y411532D01*
X252594Y411621D01*
X252585Y411623D01*
X252577Y411627D01*
X252391Y411679D01*
X252207Y411732D01*
X252198Y411733D01*
X252189Y411735D01*
X251996Y411749D01*
X251805Y411765D01*
X251797Y411764D01*
X251788Y411764D01*
X251595Y411740D01*
X251406Y411718D01*
X251397Y411715D01*
X251388Y411714D01*
X251205Y411653D01*
X251023Y411593D01*
X251015Y411589D01*
X251007Y411586D01*
X250840Y411490D01*
X250672Y411395D01*
X250665Y411389D01*
X250658Y411385D01*
X250405Y411170D01*
X247412Y408177D01*
X245427Y408177D01*
X245427Y418592D01*
X245425Y418610D01*
X245426Y418627D01*
X245405Y418810D01*
X245387Y418992D01*
X245382Y419009D01*
X245380Y419027D01*
X245354Y419105D01*
X245394Y419242D01*
X245395Y419260D01*
X245400Y419277D01*
X245427Y419608D01*
X245427Y430023D01*
X247412Y430023D01*
X250405Y427030D01*
X250412Y427024D01*
X250417Y427017D01*
X250567Y426897D01*
X250716Y426775D01*
X250724Y426771D01*
X250731Y426765D01*
X250902Y426676D01*
X251072Y426586D01*
X251081Y426584D01*
X251088Y426579D01*
X251273Y426526D01*
X251458Y426471D01*
X251467Y426471D01*
X251475Y426468D01*
X251666Y426452D01*
X251859Y426435D01*
X251868Y426436D01*
X251877Y426435D01*
X252066Y426457D01*
X252259Y426478D01*
X252268Y426481D01*
X252276Y426482D01*
X252458Y426541D01*
X252643Y426600D01*
X252651Y426604D01*
X252659Y426607D01*
X252828Y426702D01*
X252995Y426795D01*
X253002Y426800D01*
X253010Y426805D01*
X253156Y426931D01*
X253302Y427055D01*
X253308Y427062D01*
X253315Y427068D01*
X253432Y427219D01*
X253552Y427371D01*
X253556Y427379D01*
X253561Y427386D01*
X253647Y427558D01*
X253734Y427730D01*
X253737Y427739D01*
X253741Y427747D01*
X253791Y427933D01*
X253842Y428118D01*
X253843Y428127D01*
X253845Y428135D01*
X253872Y428466D01*
X253872Y435852D01*
X253871Y435861D01*
X253872Y435870D01*
X253851Y436062D01*
X253832Y436253D01*
X253830Y436261D01*
X253829Y436270D01*
X253771Y436453D01*
X253714Y436638D01*
X253710Y436646D01*
X253707Y436654D01*
X253614Y436823D01*
X253522Y436992D01*
X253517Y436999D01*
X253512Y437007D01*
X253388Y437153D01*
X253265Y437301D01*
X253258Y437307D01*
X253252Y437313D01*
X253101Y437433D01*
X252951Y437553D01*
X252943Y437558D01*
X252936Y437563D01*
X252763Y437651D01*
X252594Y437739D01*
X252585Y437741D01*
X252577Y437745D01*
X252391Y437797D01*
X252207Y437850D01*
X252198Y437851D01*
X252189Y437853D01*
X251996Y437868D01*
X251805Y437883D01*
X251797Y437882D01*
X251788Y437883D01*
X251595Y437859D01*
X251406Y437836D01*
X251397Y437834D01*
X251388Y437832D01*
X251205Y437771D01*
X251023Y437711D01*
X251015Y437707D01*
X251007Y437704D01*
X250840Y437608D01*
X250672Y437514D01*
X250665Y437508D01*
X250658Y437503D01*
X250405Y437289D01*
X247201Y434085D01*
X237985Y434085D01*
X237958Y434083D01*
X237932Y434085D01*
X237758Y434063D01*
X237584Y434045D01*
X237559Y434038D01*
X237532Y434034D01*
X237366Y433979D01*
X237199Y433927D01*
X237176Y433914D01*
X237150Y433906D01*
X236999Y433819D01*
X236845Y433735D01*
X236825Y433718D01*
X236802Y433705D01*
X236549Y433490D01*
X236543Y433483D01*
X236536Y433478D01*
X236416Y433329D01*
X236293Y433179D01*
X236289Y433171D01*
X236284Y433164D01*
X236195Y432993D01*
X236105Y432823D01*
X236102Y432815D01*
X236098Y432807D01*
X236045Y432621D01*
X235990Y432437D01*
X235989Y432428D01*
X235987Y432420D01*
X235971Y432228D01*
X235954Y432036D01*
X235955Y432027D01*
X235954Y432018D01*
X235976Y431829D01*
X235997Y431636D01*
X236000Y431627D01*
X236001Y431619D01*
X236060Y431437D01*
X236119Y431252D01*
X236123Y431244D01*
X236126Y431236D01*
X236221Y431067D01*
X236313Y430900D01*
X236319Y430893D01*
X236324Y430885D01*
X236450Y430739D01*
X236574Y430593D01*
X236581Y430587D01*
X236587Y430580D01*
X236738Y430463D01*
X236890Y430343D01*
X236898Y430339D01*
X236905Y430334D01*
X237077Y430248D01*
X237249Y430161D01*
X237257Y430158D01*
X237265Y430154D01*
X237452Y430104D01*
X237637Y430053D01*
X237646Y430052D01*
X237654Y430050D01*
X237985Y430023D01*
X240348Y430023D01*
X240348Y421639D01*
X231965Y421639D01*
X231965Y424003D01*
X231964Y424011D01*
X231965Y424020D01*
X231944Y424212D01*
X231925Y424403D01*
X231922Y424412D01*
X231921Y424421D01*
X231864Y424603D01*
X231807Y424788D01*
X231802Y424796D01*
X231800Y424805D01*
X231707Y424973D01*
X231615Y425142D01*
X231609Y425149D01*
X231605Y425157D01*
X231480Y425305D01*
X231357Y425451D01*
X231350Y425457D01*
X231344Y425464D01*
X231193Y425584D01*
X231043Y425704D01*
X231036Y425708D01*
X231029Y425713D01*
X230856Y425801D01*
X230686Y425889D01*
X230678Y425892D01*
X230670Y425896D01*
X230483Y425948D01*
X230299Y426001D01*
X230290Y426001D01*
X230282Y426004D01*
X230089Y426018D01*
X229898Y426034D01*
X229889Y426033D01*
X229880Y426033D01*
X229687Y426009D01*
X229498Y425987D01*
X229490Y425984D01*
X229481Y425983D01*
X229298Y425921D01*
X229115Y425862D01*
X229107Y425857D01*
X229099Y425855D01*
X228934Y425759D01*
X228765Y425664D01*
X228758Y425658D01*
X228750Y425654D01*
X228497Y425439D01*
X226148Y423089D01*
X226131Y423069D01*
X226110Y423051D01*
X226004Y422913D01*
X225893Y422778D01*
X225880Y422754D01*
X225864Y422733D01*
X225786Y422577D01*
X225704Y422422D01*
X225696Y422397D01*
X225684Y422373D01*
X225639Y422204D01*
X225589Y422036D01*
X225587Y422010D01*
X225580Y421984D01*
X225553Y421653D01*
X225553Y411382D01*
X217268Y403097D01*
X211819Y403097D01*
X211810Y403096D01*
X211801Y403097D01*
X211609Y403076D01*
X211418Y403057D01*
X211410Y403055D01*
X211401Y403054D01*
X211218Y402996D01*
X211033Y402939D01*
X211025Y402935D01*
X211017Y402932D01*
X210848Y402839D01*
X210679Y402747D01*
X210672Y402742D01*
X210665Y402737D01*
X210518Y402613D01*
X210370Y402490D01*
X210364Y402483D01*
X210358Y402477D01*
X210239Y402326D01*
X210118Y402176D01*
X210113Y402168D01*
X210108Y402161D01*
X210020Y401988D01*
X209932Y401819D01*
X209930Y401810D01*
X209926Y401802D01*
X209874Y401616D01*
X209821Y401432D01*
X209820Y401423D01*
X209818Y401414D01*
X209803Y401221D01*
X209788Y401030D01*
X209789Y401022D01*
X209788Y401013D01*
X209813Y400820D01*
X209835Y400631D01*
X209837Y400622D01*
X209839Y400613D01*
X209900Y400430D01*
X209960Y400248D01*
X209964Y400240D01*
X209967Y400232D01*
X210062Y400066D01*
X210157Y399897D01*
X210163Y399890D01*
X210168Y399883D01*
X210382Y399630D01*
X212472Y397540D01*
X212472Y389860D01*
X207040Y384428D01*
X199360Y384428D01*
X193928Y389860D01*
X193928Y397540D01*
X196018Y399630D01*
X196023Y399637D01*
X196030Y399642D01*
X196150Y399792D01*
X196273Y399941D01*
X196277Y399949D01*
X196282Y399956D01*
X196371Y400126D01*
X196461Y400297D01*
X196464Y400306D01*
X196468Y400313D01*
X196521Y400498D01*
X196576Y400683D01*
X196577Y400692D01*
X196579Y400700D01*
X196595Y400891D01*
X196612Y401084D01*
X196611Y401093D01*
X196612Y401102D01*
X196590Y401291D01*
X196569Y401484D01*
X196566Y401493D01*
X196565Y401501D01*
X196506Y401683D01*
X196448Y401868D01*
X196443Y401876D01*
X196440Y401884D01*
X196345Y402053D01*
X196253Y402220D01*
X196247Y402227D01*
X196243Y402235D01*
X196117Y402381D01*
X195992Y402527D01*
X195985Y402533D01*
X195979Y402540D01*
X195828Y402657D01*
X195676Y402777D01*
X195668Y402781D01*
X195661Y402786D01*
X195489Y402872D01*
X195317Y402959D01*
X195309Y402962D01*
X195301Y402966D01*
X195115Y403016D01*
X194929Y403067D01*
X194921Y403068D01*
X194912Y403070D01*
X194581Y403097D01*
X186359Y403097D01*
X186332Y403095D01*
X186305Y403097D01*
X186132Y403075D01*
X185959Y403057D01*
X185933Y403049D01*
X185906Y403046D01*
X185741Y402990D01*
X185574Y402939D01*
X185550Y402926D01*
X185524Y402918D01*
X185373Y402831D01*
X185220Y402747D01*
X185199Y402730D01*
X185176Y402717D01*
X184923Y402502D01*
X184872Y402451D01*
X184855Y402431D01*
X184835Y402414D01*
X184728Y402276D01*
X184617Y402140D01*
X184605Y402116D01*
X184589Y402096D01*
X184511Y401939D01*
X184429Y401784D01*
X184421Y401759D01*
X184409Y401735D01*
X184364Y401566D01*
X184314Y401398D01*
X184312Y401372D01*
X184305Y401346D01*
X184278Y401016D01*
X184278Y372626D01*
X184282Y372582D01*
X184280Y372523D01*
X184348Y371193D01*
X183406Y370251D01*
X183378Y370217D01*
X183335Y370177D01*
X182442Y369188D01*
X181110Y369188D01*
X181066Y369184D01*
X181007Y369186D01*
X175030Y368883D01*
X174864Y368858D01*
X174698Y368838D01*
X174665Y368828D01*
X174632Y368823D01*
X174475Y368766D01*
X174315Y368714D01*
X174285Y368697D01*
X174254Y368685D01*
X174110Y368598D01*
X173964Y368516D01*
X173939Y368494D01*
X173910Y368476D01*
X173786Y368362D01*
X173659Y368253D01*
X173639Y368226D01*
X173614Y368203D01*
X173515Y368067D01*
X173413Y367934D01*
X173398Y367904D01*
X173378Y367877D01*
X173308Y367724D01*
X173233Y367574D01*
X173225Y367541D01*
X173211Y367511D01*
X173189Y367418D01*
X172332Y366561D01*
X172321Y366547D01*
X172307Y366536D01*
X172193Y366392D01*
X172077Y366250D01*
X172069Y366234D01*
X172058Y366220D01*
X171974Y366056D01*
X171888Y365894D01*
X171883Y365877D01*
X171875Y365861D01*
X171826Y365684D01*
X171774Y365508D01*
X171772Y365490D01*
X171767Y365473D01*
X171754Y365290D01*
X171737Y365107D01*
X171739Y365089D01*
X171738Y365072D01*
X171761Y364890D01*
X171781Y364707D01*
X171786Y364690D01*
X171788Y364672D01*
X171847Y364498D01*
X171902Y364323D01*
X171911Y364307D01*
X171916Y364291D01*
X172008Y364132D01*
X172097Y363971D01*
X172108Y363957D01*
X172117Y363942D01*
X172332Y363689D01*
X173102Y362919D01*
X173102Y354631D01*
X171911Y353440D01*
X156768Y353440D01*
X156760Y353439D01*
X156751Y353440D01*
X156557Y353419D01*
X156368Y353400D01*
X156359Y353398D01*
X156350Y353397D01*
X156167Y353339D01*
X155983Y353282D01*
X155975Y353278D01*
X155966Y353275D01*
X155799Y353183D01*
X155629Y353090D01*
X155622Y353085D01*
X155614Y353080D01*
X155467Y352955D01*
X155320Y352833D01*
X155314Y352826D01*
X155307Y352820D01*
X155187Y352668D01*
X155067Y352519D01*
X155063Y352511D01*
X155058Y352504D01*
X154969Y352330D01*
X154882Y352162D01*
X154879Y352153D01*
X154875Y352145D01*
X154823Y351959D01*
X154770Y351775D01*
X154770Y351766D01*
X154767Y351757D01*
X154753Y351564D01*
X154737Y351373D01*
X154738Y351365D01*
X154738Y351356D01*
X154762Y351163D01*
X154784Y350974D01*
X154787Y350965D01*
X154788Y350956D01*
X154850Y350773D01*
X154909Y350591D01*
X154914Y350583D01*
X154916Y350575D01*
X155013Y350408D01*
X155107Y350240D01*
X155113Y350233D01*
X155117Y350226D01*
X155332Y349973D01*
X168403Y336902D01*
X168403Y331986D01*
X168405Y331960D01*
X168403Y331933D01*
X168425Y331759D01*
X168443Y331586D01*
X168450Y331560D01*
X168454Y331534D01*
X168509Y331368D01*
X168561Y331201D01*
X168574Y331177D01*
X168582Y331152D01*
X168670Y331000D01*
X168753Y330847D01*
X168770Y330826D01*
X168783Y330803D01*
X168998Y330550D01*
X172594Y326954D01*
X172594Y323850D01*
X172596Y323832D01*
X172594Y323814D01*
X172615Y323632D01*
X172634Y323449D01*
X172639Y323432D01*
X172641Y323415D01*
X172698Y323240D01*
X172752Y323064D01*
X172760Y323049D01*
X172766Y323032D01*
X172856Y322872D01*
X172944Y322710D01*
X172955Y322697D01*
X172964Y322681D01*
X173084Y322542D01*
X173201Y322401D01*
X173215Y322390D01*
X173227Y322376D01*
X173372Y322264D01*
X173515Y322149D01*
X173531Y322141D01*
X173545Y322130D01*
X173710Y322048D01*
X173872Y321963D01*
X173889Y321958D01*
X173905Y321950D01*
X174084Y321903D01*
X174259Y321852D01*
X174277Y321850D01*
X174294Y321846D01*
X174625Y321819D01*
X178194Y321819D01*
X178221Y321821D01*
X178247Y321819D01*
X178421Y321841D01*
X178595Y321859D01*
X178620Y321866D01*
X178647Y321870D01*
X178812Y321925D01*
X178980Y321977D01*
X179003Y321990D01*
X179029Y321998D01*
X179180Y322085D01*
X179334Y322169D01*
X179354Y322186D01*
X179377Y322199D01*
X179630Y322414D01*
X190719Y333503D01*
X194581Y333503D01*
X194590Y333504D01*
X194599Y333503D01*
X194791Y333524D01*
X194982Y333543D01*
X194990Y333545D01*
X194999Y333546D01*
X195182Y333604D01*
X195367Y333661D01*
X195375Y333665D01*
X195383Y333668D01*
X195552Y333761D01*
X195721Y333853D01*
X195728Y333858D01*
X195735Y333863D01*
X195882Y333987D01*
X196030Y334110D01*
X196036Y334117D01*
X196042Y334123D01*
X196161Y334274D01*
X196282Y334424D01*
X196287Y334432D01*
X196292Y334439D01*
X196379Y334610D01*
X196468Y334781D01*
X196470Y334790D01*
X196474Y334798D01*
X196526Y334984D01*
X196579Y335168D01*
X196580Y335177D01*
X196582Y335186D01*
X196597Y335379D01*
X196612Y335570D01*
X196611Y335578D01*
X196612Y335587D01*
X196587Y335780D01*
X196565Y335969D01*
X196563Y335978D01*
X196561Y335987D01*
X196500Y336170D01*
X196440Y336352D01*
X196436Y336360D01*
X196433Y336368D01*
X196338Y336534D01*
X196243Y336703D01*
X196237Y336710D01*
X196232Y336717D01*
X196018Y336970D01*
X193928Y339060D01*
X193928Y346740D01*
X199360Y352172D01*
X207040Y352172D01*
X212472Y346740D01*
X212472Y340296D01*
X212474Y340279D01*
X212472Y340261D01*
X212493Y340079D01*
X212512Y339896D01*
X212517Y339879D01*
X212519Y339861D01*
X212576Y339687D01*
X212630Y339511D01*
X212638Y339495D01*
X212644Y339478D01*
X212734Y339318D01*
X212822Y339157D01*
X212833Y339143D01*
X212842Y339128D01*
X212962Y338988D01*
X213079Y338848D01*
X213093Y338836D01*
X213105Y338823D01*
X213250Y338710D01*
X213393Y338595D01*
X213409Y338587D01*
X213423Y338576D01*
X213588Y338494D01*
X213750Y338410D01*
X213767Y338405D01*
X213783Y338397D01*
X213962Y338349D01*
X214137Y338298D01*
X214155Y338297D01*
X214172Y338292D01*
X214503Y338265D01*
X230442Y338265D01*
X230459Y338267D01*
X230477Y338266D01*
X230659Y338287D01*
X230842Y338305D01*
X230859Y338310D01*
X230877Y338312D01*
X231051Y338369D01*
X231227Y338423D01*
X231243Y338432D01*
X231260Y338437D01*
X231420Y338528D01*
X231581Y338615D01*
X231595Y338626D01*
X231610Y338635D01*
X231750Y338755D01*
X231890Y338873D01*
X231902Y338887D01*
X231915Y338898D01*
X232028Y339043D01*
X232143Y339187D01*
X232151Y339202D01*
X232162Y339216D01*
X232244Y339381D01*
X232328Y339544D01*
X232333Y339561D01*
X232341Y339577D01*
X232389Y339755D01*
X232440Y339931D01*
X232441Y339949D01*
X232446Y339966D01*
X232473Y340296D01*
X232473Y345626D01*
X238574Y351727D01*
X247201Y351727D01*
X253302Y345626D01*
X253302Y336999D01*
X253152Y336849D01*
X253102Y336787D01*
X253044Y336731D01*
X252974Y336631D01*
X252897Y336537D01*
X252860Y336466D01*
X252814Y336400D01*
X252765Y336289D01*
X252709Y336181D01*
X252686Y336105D01*
X252654Y336031D01*
X252628Y335912D01*
X252594Y335796D01*
X252587Y335716D01*
X252570Y335637D01*
X252565Y335481D01*
X252557Y335395D01*
X252562Y335356D01*
X252560Y335306D01*
X252624Y334096D01*
X252613Y334051D01*
X252567Y333881D01*
X252565Y333852D01*
X252559Y333829D01*
X252556Y333745D01*
X252540Y333551D01*
X252540Y305422D01*
X252543Y305395D01*
X252541Y305369D01*
X252563Y305195D01*
X252580Y305021D01*
X252588Y304996D01*
X252591Y304969D01*
X252647Y304804D01*
X252698Y304636D01*
X252711Y304613D01*
X252720Y304587D01*
X252807Y304436D01*
X252890Y304282D01*
X252907Y304262D01*
X252920Y304239D01*
X253135Y303986D01*
X261123Y295998D01*
X262722Y294399D01*
X262729Y294393D01*
X262734Y294387D01*
X262885Y294265D01*
X263033Y294144D01*
X263041Y294140D01*
X263048Y294134D01*
X263218Y294046D01*
X263389Y293955D01*
X263398Y293953D01*
X263405Y293949D01*
X263590Y293896D01*
X263775Y293841D01*
X263784Y293840D01*
X263792Y293837D01*
X263983Y293822D01*
X264176Y293804D01*
X264185Y293805D01*
X264194Y293804D01*
X264383Y293827D01*
X264576Y293848D01*
X264585Y293850D01*
X264593Y293851D01*
X264775Y293911D01*
X264960Y293969D01*
X264968Y293973D01*
X264976Y293976D01*
X265143Y294070D01*
X265312Y294164D01*
X265319Y294170D01*
X265327Y294174D01*
X265472Y294299D01*
X265619Y294424D01*
X265625Y294431D01*
X265632Y294437D01*
X265748Y294588D01*
X265869Y294740D01*
X265873Y294748D01*
X265878Y294755D01*
X265963Y294926D01*
X266051Y295099D01*
X266054Y295108D01*
X266058Y295116D01*
X266107Y295301D01*
X266159Y295487D01*
X266160Y295496D01*
X266162Y295505D01*
X266189Y295835D01*
X266189Y564158D01*
X266187Y564176D01*
X266189Y564194D01*
X266168Y564376D01*
X266149Y564559D01*
X266144Y564576D01*
X266142Y564593D01*
X266085Y564768D01*
X266031Y564944D01*
X266023Y564959D01*
X266017Y564976D01*
X265927Y565136D01*
X265839Y565298D01*
X265828Y565311D01*
X265819Y565327D01*
X265699Y565466D01*
X265582Y565607D01*
X265568Y565618D01*
X265556Y565632D01*
X265411Y565744D01*
X265268Y565859D01*
X265252Y565867D01*
X265238Y565878D01*
X265073Y565960D01*
X264911Y566045D01*
X264894Y566050D01*
X264878Y566058D01*
X264699Y566105D01*
X264524Y566156D01*
X264506Y566158D01*
X264489Y566162D01*
X264158Y566189D01*
X5842Y566189D01*
X5824Y566187D01*
X5806Y566189D01*
X5624Y566168D01*
X5441Y566149D01*
X5424Y566144D01*
X5407Y566142D01*
X5232Y566085D01*
X5056Y566031D01*
X5041Y566023D01*
X5024Y566017D01*
X4864Y565927D01*
X4702Y565839D01*
X4689Y565828D01*
X4673Y565819D01*
X4534Y565699D01*
X4393Y565582D01*
X4382Y565568D01*
X4368Y565556D01*
X4256Y565411D01*
X4141Y565268D01*
X4133Y565252D01*
X4122Y565238D01*
X4040Y565073D01*
X3955Y564911D01*
X3950Y564894D01*
X3942Y564878D01*
X3895Y564699D01*
X3844Y564524D01*
X3842Y564506D01*
X3838Y564489D01*
X3811Y564158D01*
X3811Y5842D01*
X3813Y5824D01*
X3811Y5806D01*
X3832Y5624D01*
X3851Y5441D01*
X3856Y5424D01*
X3858Y5407D01*
X3915Y5232D01*
X3969Y5056D01*
X3977Y5041D01*
X3983Y5024D01*
X4073Y4864D01*
X4161Y4702D01*
X4172Y4689D01*
X4181Y4673D01*
X4301Y4534D01*
X4418Y4393D01*
X4432Y4382D01*
X4444Y4368D01*
X4589Y4256D01*
X4732Y4141D01*
X4748Y4133D01*
X4762Y4122D01*
X4927Y4040D01*
X5089Y3955D01*
X5106Y3950D01*
X5122Y3942D01*
X5301Y3895D01*
X5476Y3844D01*
X5494Y3842D01*
X5511Y3838D01*
X5842Y3811D01*
X264158Y3811D01*
X264176Y3813D01*
G37*
G36*
X243930Y251724D02*
X243930Y251724D01*
X243939Y251723D01*
X244128Y251746D01*
X244322Y251767D01*
X244330Y251769D01*
X244339Y251770D01*
X244521Y251830D01*
X244705Y251888D01*
X244713Y251892D01*
X244722Y251895D01*
X244890Y251990D01*
X245058Y252083D01*
X245064Y252089D01*
X245072Y252093D01*
X245218Y252219D01*
X245365Y252343D01*
X245370Y252350D01*
X245377Y252356D01*
X245494Y252508D01*
X245614Y252659D01*
X245618Y252667D01*
X245624Y252674D01*
X245709Y252846D01*
X245797Y253018D01*
X245799Y253027D01*
X245803Y253035D01*
X245853Y253219D01*
X245905Y253406D01*
X245905Y253415D01*
X245908Y253424D01*
X245935Y253754D01*
X245935Y260131D01*
X256452Y270648D01*
X256469Y270669D01*
X256490Y270686D01*
X256597Y270824D01*
X256707Y270960D01*
X256720Y270983D01*
X256736Y271004D01*
X256814Y271161D01*
X256896Y271315D01*
X256904Y271341D01*
X256916Y271365D01*
X256961Y271534D01*
X257011Y271701D01*
X257013Y271728D01*
X257020Y271754D01*
X257047Y272084D01*
X257047Y272519D01*
X257046Y272528D01*
X257047Y272537D01*
X257026Y272729D01*
X257007Y272920D01*
X257005Y272929D01*
X257004Y272937D01*
X256946Y273120D01*
X256889Y273305D01*
X256885Y273313D01*
X256882Y273321D01*
X256789Y273490D01*
X256697Y273659D01*
X256692Y273666D01*
X256687Y273674D01*
X256563Y273821D01*
X256440Y273968D01*
X256433Y273974D01*
X256427Y273981D01*
X256277Y274099D01*
X256126Y274221D01*
X256118Y274225D01*
X256111Y274230D01*
X255938Y274318D01*
X255769Y274406D01*
X255760Y274408D01*
X255752Y274413D01*
X255566Y274464D01*
X255382Y274517D01*
X255373Y274518D01*
X255364Y274521D01*
X255171Y274535D01*
X254980Y274550D01*
X254972Y274549D01*
X254963Y274550D01*
X254770Y274526D01*
X254581Y274503D01*
X254572Y274501D01*
X254563Y274500D01*
X254380Y274438D01*
X254198Y274379D01*
X254190Y274374D01*
X254182Y274371D01*
X254015Y274275D01*
X253847Y274181D01*
X253840Y274175D01*
X253833Y274170D01*
X253580Y273956D01*
X250324Y270700D01*
X241801Y270700D01*
X235775Y276726D01*
X235775Y285249D01*
X241801Y291275D01*
X250324Y291275D01*
X253580Y288019D01*
X253587Y288014D01*
X253592Y288007D01*
X253742Y287886D01*
X253891Y287764D01*
X253899Y287760D01*
X253906Y287754D01*
X254076Y287666D01*
X254247Y287576D01*
X254256Y287573D01*
X254263Y287569D01*
X254448Y287516D01*
X254633Y287461D01*
X254642Y287460D01*
X254650Y287458D01*
X254841Y287442D01*
X255034Y287424D01*
X255043Y287425D01*
X255052Y287425D01*
X255241Y287447D01*
X255434Y287468D01*
X255443Y287471D01*
X255451Y287472D01*
X255633Y287531D01*
X255818Y287589D01*
X255826Y287594D01*
X255834Y287596D01*
X256003Y287691D01*
X256170Y287784D01*
X256177Y287790D01*
X256185Y287794D01*
X256331Y287920D01*
X256477Y288045D01*
X256483Y288052D01*
X256490Y288057D01*
X256607Y288209D01*
X256727Y288361D01*
X256731Y288369D01*
X256736Y288376D01*
X256822Y288548D01*
X256909Y288720D01*
X256912Y288728D01*
X256916Y288736D01*
X256966Y288922D01*
X257017Y289107D01*
X257018Y289116D01*
X257020Y289125D01*
X257047Y289456D01*
X257047Y289891D01*
X257045Y289917D01*
X257047Y289944D01*
X257025Y290118D01*
X257007Y290291D01*
X257000Y290317D01*
X256996Y290343D01*
X256941Y290509D01*
X256889Y290676D01*
X256876Y290700D01*
X256868Y290725D01*
X256781Y290877D01*
X256697Y291030D01*
X256680Y291051D01*
X256667Y291074D01*
X256452Y291327D01*
X245935Y301844D01*
X245935Y328867D01*
X245933Y328884D01*
X245934Y328902D01*
X245913Y329084D01*
X245895Y329267D01*
X245890Y329284D01*
X245888Y329302D01*
X245831Y329476D01*
X245777Y329652D01*
X245768Y329668D01*
X245763Y329685D01*
X245672Y329845D01*
X245585Y330006D01*
X245574Y330020D01*
X245565Y330035D01*
X245445Y330175D01*
X245327Y330315D01*
X245313Y330327D01*
X245302Y330340D01*
X245157Y330453D01*
X245013Y330568D01*
X244998Y330576D01*
X244984Y330587D01*
X244819Y330669D01*
X244656Y330753D01*
X244639Y330758D01*
X244623Y330766D01*
X244445Y330814D01*
X244269Y330865D01*
X244251Y330866D01*
X244234Y330871D01*
X243904Y330898D01*
X238696Y330898D01*
X238679Y330896D01*
X238661Y330897D01*
X238479Y330876D01*
X238296Y330858D01*
X238279Y330853D01*
X238261Y330851D01*
X238087Y330794D01*
X237911Y330740D01*
X237895Y330731D01*
X237878Y330726D01*
X237718Y330635D01*
X237557Y330548D01*
X237543Y330537D01*
X237528Y330528D01*
X237388Y330408D01*
X237248Y330290D01*
X237236Y330276D01*
X237223Y330265D01*
X237110Y330120D01*
X236995Y329976D01*
X236987Y329961D01*
X236976Y329947D01*
X236894Y329782D01*
X236810Y329619D01*
X236805Y329602D01*
X236797Y329586D01*
X236749Y329408D01*
X236698Y329232D01*
X236697Y329214D01*
X236692Y329197D01*
X236665Y328867D01*
X236665Y320874D01*
X236668Y320847D01*
X236666Y320821D01*
X236688Y320647D01*
X236705Y320473D01*
X236713Y320448D01*
X236716Y320421D01*
X236772Y320255D01*
X236823Y320088D01*
X236836Y320065D01*
X236845Y320039D01*
X236932Y319888D01*
X237015Y319734D01*
X237032Y319714D01*
X237045Y319691D01*
X237260Y319438D01*
X240856Y315841D01*
X240856Y309634D01*
X236466Y305244D01*
X230259Y305244D01*
X225869Y309634D01*
X225869Y315913D01*
X225867Y315930D01*
X225868Y315948D01*
X225847Y316130D01*
X225829Y316313D01*
X225824Y316330D01*
X225822Y316348D01*
X225765Y316522D01*
X225711Y316698D01*
X225702Y316714D01*
X225697Y316731D01*
X225606Y316891D01*
X225519Y317052D01*
X225508Y317066D01*
X225499Y317081D01*
X225379Y317221D01*
X225261Y317361D01*
X225247Y317373D01*
X225236Y317386D01*
X225091Y317499D01*
X224947Y317614D01*
X224932Y317622D01*
X224918Y317633D01*
X224753Y317715D01*
X224590Y317799D01*
X224573Y317804D01*
X224557Y317812D01*
X224379Y317860D01*
X224203Y317911D01*
X224185Y317912D01*
X224168Y317917D01*
X223838Y317944D01*
X219146Y317944D01*
X217082Y320008D01*
X217075Y320013D01*
X217070Y320020D01*
X216920Y320140D01*
X216771Y320263D01*
X216763Y320267D01*
X216756Y320272D01*
X216586Y320361D01*
X216415Y320451D01*
X216406Y320454D01*
X216399Y320458D01*
X216214Y320511D01*
X216029Y320566D01*
X216020Y320567D01*
X216012Y320569D01*
X215821Y320585D01*
X215628Y320602D01*
X215619Y320601D01*
X215610Y320602D01*
X215421Y320580D01*
X215228Y320559D01*
X215219Y320556D01*
X215211Y320555D01*
X215029Y320496D01*
X214844Y320437D01*
X214836Y320433D01*
X214828Y320430D01*
X214659Y320335D01*
X214492Y320243D01*
X214485Y320237D01*
X214477Y320232D01*
X214331Y320107D01*
X214185Y319982D01*
X214179Y319975D01*
X214172Y319969D01*
X214055Y319818D01*
X213935Y319666D01*
X213931Y319658D01*
X213926Y319651D01*
X213840Y319479D01*
X213753Y319307D01*
X213750Y319299D01*
X213746Y319291D01*
X213696Y319105D01*
X213645Y318919D01*
X213644Y318911D01*
X213642Y318902D01*
X213615Y318571D01*
X213615Y315428D01*
X212029Y311601D01*
X209099Y308671D01*
X205272Y307085D01*
X201128Y307085D01*
X197301Y308671D01*
X194371Y311601D01*
X192785Y315428D01*
X192785Y319572D01*
X193583Y321499D01*
X193585Y321503D01*
X193587Y321507D01*
X193642Y321693D01*
X193700Y321884D01*
X193700Y321889D01*
X193702Y321893D01*
X193720Y322091D01*
X193738Y322285D01*
X193738Y322289D01*
X193738Y322294D01*
X193716Y322493D01*
X193696Y322685D01*
X193695Y322690D01*
X193695Y322694D01*
X193635Y322882D01*
X193577Y323070D01*
X193574Y323074D01*
X193573Y323078D01*
X193477Y323251D01*
X193383Y323423D01*
X193380Y323426D01*
X193378Y323430D01*
X193252Y323579D01*
X193124Y323731D01*
X193121Y323734D01*
X193118Y323737D01*
X192964Y323859D01*
X192809Y323982D01*
X192805Y323984D01*
X192802Y323987D01*
X192625Y324077D01*
X192451Y324166D01*
X192447Y324167D01*
X192443Y324169D01*
X192250Y324223D01*
X192064Y324276D01*
X192059Y324276D01*
X192055Y324277D01*
X191853Y324292D01*
X191662Y324307D01*
X191658Y324306D01*
X191654Y324307D01*
X191456Y324282D01*
X191263Y324258D01*
X191258Y324257D01*
X191254Y324256D01*
X191069Y324194D01*
X190881Y324132D01*
X190877Y324129D01*
X190872Y324128D01*
X190702Y324030D01*
X190531Y323932D01*
X190527Y323929D01*
X190524Y323927D01*
X190271Y323712D01*
X184301Y317743D01*
X184284Y317722D01*
X184264Y317705D01*
X184157Y317567D01*
X184046Y317431D01*
X184034Y317408D01*
X184017Y317387D01*
X183939Y317230D01*
X183857Y317076D01*
X183850Y317050D01*
X183838Y317026D01*
X183792Y316857D01*
X183743Y316690D01*
X183740Y316663D01*
X183733Y316637D01*
X183706Y316307D01*
X183706Y311221D01*
X179316Y306831D01*
X173109Y306831D01*
X168719Y311221D01*
X168719Y314325D01*
X168717Y314343D01*
X168718Y314361D01*
X168697Y314543D01*
X168679Y314726D01*
X168674Y314743D01*
X168672Y314760D01*
X168615Y314935D01*
X168561Y315111D01*
X168552Y315126D01*
X168547Y315143D01*
X168456Y315303D01*
X168369Y315465D01*
X168358Y315478D01*
X168349Y315494D01*
X168229Y315633D01*
X168111Y315774D01*
X168097Y315785D01*
X168086Y315799D01*
X167941Y315911D01*
X167797Y316026D01*
X167782Y316034D01*
X167768Y316045D01*
X167603Y316127D01*
X167440Y316212D01*
X167423Y316217D01*
X167407Y316225D01*
X167229Y316272D01*
X167053Y316323D01*
X167035Y316325D01*
X167018Y316329D01*
X166688Y316356D01*
X161996Y316356D01*
X157606Y320746D01*
X157606Y324930D01*
X157604Y324947D01*
X157606Y324965D01*
X157585Y325147D01*
X157566Y325330D01*
X157561Y325347D01*
X157559Y325365D01*
X157502Y325539D01*
X157448Y325715D01*
X157440Y325731D01*
X157434Y325748D01*
X157344Y325908D01*
X157256Y326069D01*
X157245Y326083D01*
X157236Y326098D01*
X157116Y326238D01*
X156999Y326378D01*
X156985Y326390D01*
X156973Y326403D01*
X156828Y326516D01*
X156685Y326631D01*
X156669Y326639D01*
X156655Y326650D01*
X156490Y326732D01*
X156328Y326816D01*
X156311Y326821D01*
X156295Y326829D01*
X156116Y326877D01*
X155941Y326928D01*
X155923Y326929D01*
X155906Y326934D01*
X155575Y326961D01*
X150376Y326961D01*
X150208Y327128D01*
X150188Y327145D01*
X150170Y327165D01*
X150032Y327272D01*
X149897Y327383D01*
X149873Y327395D01*
X149852Y327412D01*
X149695Y327490D01*
X149541Y327572D01*
X149516Y327579D01*
X149492Y327591D01*
X149322Y327637D01*
X149155Y327686D01*
X149129Y327689D01*
X149103Y327696D01*
X148772Y327723D01*
X117509Y327723D01*
X117499Y327722D01*
X117486Y327723D01*
X116689Y327714D01*
X115951Y328019D01*
X115942Y328022D01*
X115930Y328028D01*
X115189Y328325D01*
X114625Y328889D01*
X114617Y328896D01*
X114608Y328906D01*
X108551Y334827D01*
X108539Y334837D01*
X108529Y334849D01*
X108383Y334962D01*
X108237Y335079D01*
X108223Y335086D01*
X108211Y335095D01*
X108045Y335178D01*
X107879Y335264D01*
X107864Y335268D01*
X107851Y335275D01*
X107670Y335323D01*
X107492Y335374D01*
X107477Y335375D01*
X107462Y335379D01*
X107131Y335406D01*
X103871Y335406D01*
X103844Y335404D01*
X103818Y335406D01*
X103644Y335384D01*
X103470Y335366D01*
X103445Y335359D01*
X103418Y335355D01*
X103253Y335300D01*
X103086Y335248D01*
X103062Y335235D01*
X103037Y335227D01*
X102885Y335140D01*
X102731Y335056D01*
X102711Y335039D01*
X102688Y335026D01*
X102435Y334811D01*
X96085Y328461D01*
X96079Y328454D01*
X96072Y328449D01*
X95952Y328299D01*
X95830Y328150D01*
X95825Y328142D01*
X95820Y328135D01*
X95731Y327965D01*
X95641Y327794D01*
X95638Y327785D01*
X95634Y327778D01*
X95581Y327591D01*
X95526Y327408D01*
X95525Y327399D01*
X95523Y327391D01*
X95507Y327199D01*
X95490Y327007D01*
X95491Y326998D01*
X95490Y326989D01*
X95512Y326800D01*
X95533Y326607D01*
X95536Y326598D01*
X95537Y326590D01*
X95596Y326408D01*
X95655Y326223D01*
X95659Y326215D01*
X95662Y326207D01*
X95757Y326038D01*
X95850Y325871D01*
X95855Y325864D01*
X95860Y325856D01*
X95986Y325710D01*
X96110Y325564D01*
X96117Y325558D01*
X96123Y325551D01*
X96274Y325434D01*
X96426Y325314D01*
X96434Y325310D01*
X96441Y325305D01*
X96613Y325219D01*
X96785Y325132D01*
X96793Y325129D01*
X96801Y325125D01*
X96988Y325075D01*
X97173Y325024D01*
X97182Y325023D01*
X97190Y325021D01*
X97521Y324994D01*
X98354Y324994D01*
X102744Y320604D01*
X102744Y315518D01*
X102746Y315492D01*
X102744Y315465D01*
X102766Y315291D01*
X102784Y315118D01*
X102791Y315092D01*
X102795Y315066D01*
X102850Y314900D01*
X102902Y314733D01*
X102915Y314709D01*
X102923Y314684D01*
X103010Y314532D01*
X103094Y314379D01*
X103111Y314358D01*
X103124Y314335D01*
X103339Y314082D01*
X121423Y295998D01*
X121444Y295981D01*
X121461Y295960D01*
X121599Y295853D01*
X121735Y295743D01*
X121758Y295730D01*
X121779Y295714D01*
X121936Y295636D01*
X122090Y295554D01*
X122116Y295546D01*
X122140Y295534D01*
X122309Y295489D01*
X122476Y295439D01*
X122503Y295437D01*
X122529Y295430D01*
X122859Y295403D01*
X191938Y295403D01*
X191960Y295405D01*
X191982Y295403D01*
X192160Y295425D01*
X192339Y295443D01*
X192360Y295449D01*
X192382Y295452D01*
X192552Y295508D01*
X192724Y295561D01*
X192743Y295571D01*
X192764Y295578D01*
X192920Y295667D01*
X193078Y295753D01*
X193095Y295767D01*
X193114Y295778D01*
X193250Y295896D01*
X193387Y296010D01*
X193401Y296028D01*
X193418Y296042D01*
X193527Y296184D01*
X193639Y296324D01*
X193649Y296344D01*
X193663Y296362D01*
X193815Y296657D01*
X194371Y297999D01*
X197301Y300929D01*
X201128Y302515D01*
X205272Y302515D01*
X209099Y300929D01*
X212029Y297999D01*
X213615Y294172D01*
X213615Y290028D01*
X212029Y286201D01*
X209099Y283271D01*
X205272Y281685D01*
X201128Y281685D01*
X199215Y282478D01*
X199202Y282482D01*
X199190Y282488D01*
X199010Y282540D01*
X198829Y282594D01*
X198816Y282596D01*
X198803Y282599D01*
X198616Y282615D01*
X198429Y282632D01*
X198415Y282631D01*
X198402Y282632D01*
X198214Y282610D01*
X198028Y282591D01*
X198015Y282587D01*
X198002Y282585D01*
X197823Y282527D01*
X197644Y282471D01*
X197632Y282465D01*
X197619Y282460D01*
X197455Y282368D01*
X197291Y282278D01*
X197280Y282269D01*
X197269Y282263D01*
X197126Y282140D01*
X196982Y282019D01*
X196974Y282008D01*
X196964Y281999D01*
X196849Y281851D01*
X196731Y281704D01*
X196725Y281692D01*
X196717Y281681D01*
X196633Y281513D01*
X196548Y281346D01*
X196544Y281333D01*
X196538Y281321D01*
X196489Y281138D01*
X196438Y280958D01*
X196437Y280945D01*
X196433Y280932D01*
X196406Y280601D01*
X196406Y278199D01*
X196408Y278185D01*
X196406Y278172D01*
X196427Y277985D01*
X196446Y277798D01*
X196450Y277785D01*
X196452Y277772D01*
X196509Y277593D01*
X196564Y277413D01*
X196571Y277401D01*
X196575Y277389D01*
X196667Y277223D01*
X196756Y277059D01*
X196765Y277049D01*
X196771Y277037D01*
X196894Y276894D01*
X197014Y276750D01*
X197024Y276741D01*
X197033Y276731D01*
X197181Y276616D01*
X197328Y276498D01*
X197339Y276491D01*
X197350Y276483D01*
X197518Y276399D01*
X197685Y276312D01*
X197698Y276308D01*
X197710Y276302D01*
X197891Y276253D01*
X198072Y276201D01*
X198085Y276200D01*
X198098Y276196D01*
X198286Y276183D01*
X198473Y276168D01*
X198486Y276169D01*
X198500Y276168D01*
X198687Y276193D01*
X198873Y276215D01*
X198886Y276219D01*
X198899Y276221D01*
X199215Y276322D01*
X201128Y277115D01*
X205272Y277115D01*
X209099Y275529D01*
X212029Y272599D01*
X213615Y268772D01*
X213615Y264628D01*
X213059Y263286D01*
X213052Y263264D01*
X213042Y263244D01*
X212994Y263072D01*
X212942Y262900D01*
X212940Y262878D01*
X212934Y262856D01*
X212921Y262677D01*
X212904Y262499D01*
X212906Y262477D01*
X212905Y262455D01*
X212927Y262277D01*
X212946Y262099D01*
X212952Y262078D01*
X212955Y262055D01*
X213012Y261886D01*
X213065Y261715D01*
X213076Y261695D01*
X213083Y261674D01*
X213173Y261519D01*
X213259Y261361D01*
X213273Y261344D01*
X213284Y261325D01*
X213499Y261072D01*
X221436Y253135D01*
X221456Y253118D01*
X221474Y253098D01*
X221612Y252991D01*
X221747Y252880D01*
X221771Y252868D01*
X221792Y252851D01*
X221949Y252773D01*
X222103Y252691D01*
X222128Y252684D01*
X222152Y252672D01*
X222322Y252626D01*
X222489Y252577D01*
X222515Y252574D01*
X222541Y252567D01*
X222872Y252540D01*
X226814Y252540D01*
X226840Y252543D01*
X226867Y252541D01*
X227041Y252563D01*
X227214Y252580D01*
X227240Y252588D01*
X227266Y252591D01*
X227432Y252647D01*
X227599Y252698D01*
X227623Y252711D01*
X227648Y252720D01*
X227800Y252807D01*
X227953Y252890D01*
X227974Y252907D01*
X227997Y252920D01*
X228250Y253135D01*
X231846Y256731D01*
X238054Y256731D01*
X242467Y252318D01*
X242474Y252312D01*
X242480Y252305D01*
X242629Y252185D01*
X242779Y252063D01*
X242787Y252059D01*
X242794Y252053D01*
X242964Y251965D01*
X243134Y251874D01*
X243143Y251872D01*
X243151Y251868D01*
X243336Y251814D01*
X243520Y251760D01*
X243529Y251759D01*
X243538Y251756D01*
X243729Y251741D01*
X243921Y251723D01*
X243930Y251724D01*
G37*
G36*
X155122Y231334D02*
X155122Y231334D01*
X155154Y231332D01*
X155322Y231354D01*
X155490Y231371D01*
X155521Y231381D01*
X155553Y231385D01*
X155713Y231440D01*
X155875Y231489D01*
X155904Y231505D01*
X155934Y231515D01*
X156080Y231600D01*
X156229Y231681D01*
X156254Y231702D01*
X156282Y231718D01*
X156534Y231934D01*
X169719Y245261D01*
X169732Y245278D01*
X169749Y245292D01*
X169859Y245434D01*
X169972Y245574D01*
X169982Y245593D01*
X169995Y245610D01*
X170075Y245771D01*
X170159Y245931D01*
X170165Y245951D01*
X170175Y245970D01*
X170221Y246144D01*
X170272Y246317D01*
X170274Y246339D01*
X170279Y246359D01*
X170306Y246690D01*
X170306Y250754D01*
X173140Y253588D01*
X173157Y253609D01*
X173178Y253626D01*
X173285Y253764D01*
X173395Y253900D01*
X173408Y253923D01*
X173424Y253944D01*
X173502Y254101D01*
X173584Y254255D01*
X173592Y254281D01*
X173604Y254305D01*
X173649Y254474D01*
X173699Y254641D01*
X173701Y254668D01*
X173708Y254694D01*
X173735Y255024D01*
X173735Y257429D01*
X173733Y257447D01*
X173735Y257465D01*
X173714Y257647D01*
X173695Y257830D01*
X173690Y257847D01*
X173688Y257864D01*
X173631Y258039D01*
X173577Y258215D01*
X173569Y258230D01*
X173563Y258247D01*
X173473Y258407D01*
X173385Y258569D01*
X173374Y258582D01*
X173365Y258598D01*
X173245Y258737D01*
X173128Y258878D01*
X173114Y258889D01*
X173102Y258903D01*
X172957Y259015D01*
X172814Y259130D01*
X172798Y259138D01*
X172784Y259149D01*
X172619Y259231D01*
X172457Y259316D01*
X172440Y259321D01*
X172424Y259329D01*
X172245Y259376D01*
X172070Y259427D01*
X172052Y259429D01*
X172035Y259433D01*
X171704Y259460D01*
X163089Y259460D01*
X163071Y259458D01*
X163053Y259460D01*
X162871Y259439D01*
X162688Y259420D01*
X162671Y259415D01*
X162654Y259413D01*
X162479Y259356D01*
X162303Y259302D01*
X162288Y259294D01*
X162271Y259288D01*
X162111Y259198D01*
X161949Y259110D01*
X161936Y259099D01*
X161920Y259090D01*
X161781Y258970D01*
X161640Y258853D01*
X161629Y258839D01*
X161615Y258827D01*
X161503Y258682D01*
X161388Y258539D01*
X161380Y258523D01*
X161369Y258509D01*
X161287Y258344D01*
X161202Y258182D01*
X161197Y258165D01*
X161189Y258149D01*
X161142Y257970D01*
X161091Y257795D01*
X161089Y257777D01*
X161085Y257760D01*
X161058Y257429D01*
X161058Y252683D01*
X159867Y251492D01*
X143183Y251492D01*
X141992Y252683D01*
X141992Y274367D01*
X143183Y275558D01*
X159867Y275558D01*
X161058Y274367D01*
X161058Y269621D01*
X161060Y269603D01*
X161058Y269585D01*
X161079Y269403D01*
X161098Y269220D01*
X161103Y269203D01*
X161105Y269186D01*
X161162Y269011D01*
X161216Y268835D01*
X161224Y268820D01*
X161230Y268803D01*
X161320Y268643D01*
X161408Y268481D01*
X161419Y268468D01*
X161428Y268452D01*
X161548Y268313D01*
X161665Y268172D01*
X161679Y268161D01*
X161691Y268147D01*
X161836Y268035D01*
X161979Y267920D01*
X161995Y267912D01*
X162009Y267901D01*
X162174Y267819D01*
X162336Y267734D01*
X162353Y267729D01*
X162369Y267721D01*
X162548Y267674D01*
X162723Y267623D01*
X162741Y267621D01*
X162758Y267617D01*
X163089Y267590D01*
X172100Y267590D01*
X172127Y267592D01*
X172153Y267590D01*
X172327Y267612D01*
X172501Y267630D01*
X172526Y267637D01*
X172553Y267641D01*
X172718Y267696D01*
X172885Y267748D01*
X172909Y267761D01*
X172934Y267769D01*
X173086Y267856D01*
X173240Y267940D01*
X173260Y267957D01*
X173283Y267970D01*
X173536Y268185D01*
X180824Y275472D01*
X180841Y275493D01*
X180861Y275510D01*
X180968Y275648D01*
X181079Y275784D01*
X181091Y275807D01*
X181108Y275829D01*
X181186Y275985D01*
X181268Y276139D01*
X181275Y276165D01*
X181287Y276189D01*
X181333Y276358D01*
X181382Y276525D01*
X181385Y276552D01*
X181392Y276578D01*
X181419Y276909D01*
X181419Y280916D01*
X185832Y285330D01*
X185838Y285337D01*
X185845Y285342D01*
X185965Y285492D01*
X186087Y285641D01*
X186091Y285649D01*
X186097Y285656D01*
X186185Y285826D01*
X186276Y285997D01*
X186278Y286006D01*
X186282Y286013D01*
X186336Y286198D01*
X186390Y286383D01*
X186391Y286392D01*
X186394Y286400D01*
X186409Y286590D01*
X186427Y286784D01*
X186426Y286793D01*
X186427Y286802D01*
X186404Y286991D01*
X186383Y287184D01*
X186381Y287193D01*
X186380Y287201D01*
X186320Y287383D01*
X186262Y287568D01*
X186258Y287576D01*
X186255Y287584D01*
X186160Y287751D01*
X186067Y287920D01*
X186061Y287927D01*
X186057Y287935D01*
X185931Y288081D01*
X185807Y288227D01*
X185800Y288233D01*
X185794Y288240D01*
X185642Y288357D01*
X185491Y288477D01*
X185483Y288481D01*
X185476Y288486D01*
X185304Y288572D01*
X185132Y288659D01*
X185123Y288662D01*
X185115Y288666D01*
X184929Y288716D01*
X184744Y288767D01*
X184735Y288768D01*
X184726Y288770D01*
X184396Y288797D01*
X119282Y288797D01*
X116753Y291327D01*
X116752Y291327D01*
X98668Y309411D01*
X98647Y309428D01*
X98630Y309449D01*
X98492Y309556D01*
X98356Y309666D01*
X98333Y309679D01*
X98312Y309695D01*
X98155Y309773D01*
X98001Y309855D01*
X97975Y309863D01*
X97951Y309875D01*
X97782Y309920D01*
X97615Y309970D01*
X97588Y309972D01*
X97562Y309979D01*
X97232Y310006D01*
X92146Y310006D01*
X88495Y313658D01*
X88488Y313663D01*
X88482Y313670D01*
X88333Y313790D01*
X88183Y313913D01*
X88175Y313917D01*
X88168Y313922D01*
X87998Y314011D01*
X87828Y314101D01*
X87819Y314104D01*
X87811Y314108D01*
X87626Y314161D01*
X87442Y314216D01*
X87433Y314217D01*
X87424Y314219D01*
X87233Y314235D01*
X87041Y314252D01*
X87032Y314251D01*
X87023Y314252D01*
X86834Y314230D01*
X86640Y314209D01*
X86632Y314206D01*
X86623Y314205D01*
X86441Y314146D01*
X86257Y314087D01*
X86249Y314083D01*
X86240Y314080D01*
X86072Y313985D01*
X85904Y313893D01*
X85898Y313887D01*
X85890Y313882D01*
X85744Y313757D01*
X85597Y313632D01*
X85592Y313625D01*
X85585Y313619D01*
X85468Y313468D01*
X85348Y313316D01*
X85344Y313308D01*
X85338Y313301D01*
X85252Y313128D01*
X85165Y312957D01*
X85163Y312949D01*
X85159Y312941D01*
X85109Y312755D01*
X85057Y312569D01*
X85057Y312561D01*
X85054Y312552D01*
X85027Y312221D01*
X85027Y311666D01*
X85030Y311640D01*
X85028Y311613D01*
X85050Y311439D01*
X85067Y311266D01*
X85075Y311240D01*
X85078Y311214D01*
X85134Y311048D01*
X85185Y310881D01*
X85198Y310857D01*
X85207Y310832D01*
X85294Y310680D01*
X85377Y310527D01*
X85394Y310506D01*
X85407Y310483D01*
X85622Y310230D01*
X88456Y307396D01*
X88456Y301188D01*
X85622Y298354D01*
X85605Y298333D01*
X85585Y298316D01*
X85478Y298178D01*
X85367Y298042D01*
X85355Y298019D01*
X85338Y297998D01*
X85260Y297841D01*
X85178Y297687D01*
X85171Y297661D01*
X85159Y297637D01*
X85113Y297468D01*
X85064Y297301D01*
X85061Y297274D01*
X85054Y297248D01*
X85027Y296918D01*
X85027Y278591D01*
X84408Y277098D01*
X76351Y269040D01*
X76334Y269020D01*
X76314Y269002D01*
X76207Y268864D01*
X76096Y268729D01*
X76084Y268705D01*
X76067Y268684D01*
X75989Y268527D01*
X75907Y268373D01*
X75900Y268348D01*
X75888Y268323D01*
X75842Y268154D01*
X75793Y267987D01*
X75790Y267961D01*
X75783Y267935D01*
X75756Y267604D01*
X75756Y267384D01*
X75759Y267357D01*
X75757Y267330D01*
X75779Y267156D01*
X75796Y266983D01*
X75804Y266957D01*
X75807Y266931D01*
X75863Y266765D01*
X75914Y266598D01*
X75927Y266574D01*
X75936Y266549D01*
X76023Y266397D01*
X76106Y266244D01*
X76123Y266223D01*
X76136Y266200D01*
X76351Y265947D01*
X100847Y241451D01*
X100868Y241434D01*
X100885Y241414D01*
X101023Y241307D01*
X101159Y241196D01*
X101182Y241184D01*
X101204Y241167D01*
X101360Y241089D01*
X101514Y241007D01*
X101540Y241000D01*
X101564Y240988D01*
X101733Y240942D01*
X101900Y240893D01*
X101927Y240890D01*
X101953Y240883D01*
X102284Y240856D01*
X106291Y240856D01*
X109126Y238022D01*
X109146Y238005D01*
X109164Y237985D01*
X109302Y237878D01*
X109437Y237767D01*
X109461Y237755D01*
X109482Y237738D01*
X109638Y237660D01*
X109793Y237578D01*
X109818Y237571D01*
X109842Y237559D01*
X110011Y237513D01*
X110179Y237464D01*
X110205Y237461D01*
X110231Y237454D01*
X110562Y237427D01*
X144422Y237427D01*
X144434Y237428D01*
X144448Y237427D01*
X145245Y237438D01*
X145980Y237134D01*
X145992Y237130D01*
X146005Y237123D01*
X146745Y236828D01*
X147307Y236266D01*
X147317Y236258D01*
X147326Y236247D01*
X151782Y231907D01*
X151792Y231899D01*
X151801Y231889D01*
X151949Y231774D01*
X152097Y231656D01*
X152109Y231650D01*
X152119Y231642D01*
X152288Y231558D01*
X152455Y231473D01*
X152468Y231469D01*
X152480Y231463D01*
X152662Y231414D01*
X152842Y231363D01*
X152856Y231362D01*
X152869Y231358D01*
X153199Y231331D01*
X155090Y231331D01*
X155122Y231334D01*
G37*
G36*
X112739Y426193D02*
X112739Y426193D01*
X112757Y426191D01*
X112940Y426214D01*
X113122Y426234D01*
X113139Y426239D01*
X113156Y426242D01*
X113330Y426300D01*
X113505Y426356D01*
X113521Y426364D01*
X113538Y426370D01*
X113697Y426462D01*
X113858Y426550D01*
X113871Y426562D01*
X113887Y426571D01*
X114140Y426786D01*
X124690Y437336D01*
X124707Y437356D01*
X124727Y437374D01*
X124834Y437512D01*
X124945Y437647D01*
X124957Y437671D01*
X124974Y437692D01*
X125052Y437849D01*
X125134Y438003D01*
X125141Y438028D01*
X125153Y438052D01*
X125199Y438222D01*
X125248Y438389D01*
X125251Y438415D01*
X125258Y438441D01*
X125285Y438772D01*
X125285Y450228D01*
X125282Y450255D01*
X125284Y450281D01*
X125262Y450455D01*
X125245Y450629D01*
X125237Y450654D01*
X125234Y450681D01*
X125178Y450846D01*
X125127Y451014D01*
X125114Y451037D01*
X125105Y451063D01*
X125018Y451214D01*
X124935Y451368D01*
X124918Y451388D01*
X124905Y451411D01*
X124690Y451664D01*
X121464Y454890D01*
X121444Y454907D01*
X121426Y454927D01*
X121288Y455034D01*
X121153Y455145D01*
X121129Y455157D01*
X121108Y455174D01*
X120951Y455252D01*
X120797Y455334D01*
X120772Y455341D01*
X120748Y455353D01*
X120578Y455399D01*
X120411Y455448D01*
X120385Y455451D01*
X120359Y455458D01*
X120028Y455485D01*
X113450Y455485D01*
X113305Y455470D01*
X113159Y455464D01*
X113105Y455450D01*
X113050Y455445D01*
X112910Y455402D01*
X112768Y455367D01*
X112718Y455343D01*
X112665Y455327D01*
X112536Y455257D01*
X112404Y455195D01*
X112360Y455161D01*
X112311Y455135D01*
X112199Y455041D01*
X112081Y454954D01*
X112044Y454913D01*
X112002Y454877D01*
X111910Y454763D01*
X111812Y454654D01*
X111784Y454607D01*
X111749Y454563D01*
X111682Y454434D01*
X111608Y454308D01*
X111589Y454255D01*
X111564Y454206D01*
X111523Y454066D01*
X111475Y453928D01*
X111468Y453873D01*
X111452Y453819D01*
X111440Y453674D01*
X111421Y453529D01*
X111424Y453473D01*
X111420Y453418D01*
X111437Y453273D01*
X111446Y453127D01*
X111460Y453073D01*
X111466Y453018D01*
X111512Y452879D01*
X111549Y452738D01*
X111576Y452681D01*
X111591Y452635D01*
X111633Y452562D01*
X111691Y452438D01*
X111969Y451958D01*
X112142Y451312D01*
X112142Y449706D01*
X99441Y449706D01*
X86740Y449706D01*
X86740Y451312D01*
X86913Y451958D01*
X87191Y452438D01*
X87251Y452571D01*
X87318Y452701D01*
X87334Y452754D01*
X87356Y452805D01*
X87389Y452947D01*
X87430Y453088D01*
X87434Y453143D01*
X87447Y453197D01*
X87451Y453343D01*
X87462Y453489D01*
X87456Y453544D01*
X87458Y453600D01*
X87433Y453744D01*
X87416Y453889D01*
X87398Y453942D01*
X87389Y453996D01*
X87336Y454133D01*
X87291Y454272D01*
X87263Y454320D01*
X87243Y454372D01*
X87165Y454495D01*
X87093Y454622D01*
X87057Y454664D01*
X87027Y454711D01*
X86925Y454816D01*
X86830Y454927D01*
X86786Y454961D01*
X86747Y455001D01*
X86627Y455084D01*
X86512Y455174D01*
X86462Y455199D01*
X86416Y455230D01*
X86282Y455288D01*
X86151Y455353D01*
X86097Y455368D01*
X86047Y455389D01*
X85904Y455420D01*
X85762Y455458D01*
X85699Y455463D01*
X85653Y455473D01*
X85569Y455474D01*
X85432Y455485D01*
X78007Y455485D01*
X72252Y461240D01*
X70270Y463221D01*
X70263Y463227D01*
X70258Y463234D01*
X70108Y463354D01*
X69959Y463477D01*
X69951Y463481D01*
X69944Y463486D01*
X69774Y463575D01*
X69603Y463665D01*
X69594Y463668D01*
X69587Y463672D01*
X69402Y463725D01*
X69217Y463780D01*
X69208Y463781D01*
X69200Y463783D01*
X69009Y463799D01*
X68816Y463816D01*
X68807Y463815D01*
X68798Y463816D01*
X68609Y463794D01*
X68416Y463773D01*
X68407Y463770D01*
X68399Y463769D01*
X68217Y463710D01*
X68032Y463651D01*
X68024Y463647D01*
X68016Y463644D01*
X67849Y463550D01*
X67680Y463457D01*
X67673Y463451D01*
X67665Y463446D01*
X67520Y463321D01*
X67373Y463196D01*
X67367Y463189D01*
X67360Y463183D01*
X67244Y463033D01*
X67123Y462880D01*
X67119Y462872D01*
X67114Y462865D01*
X67028Y462694D01*
X66941Y462521D01*
X66938Y462513D01*
X66934Y462505D01*
X66884Y462319D01*
X66833Y462133D01*
X66832Y462124D01*
X66830Y462116D01*
X66803Y461785D01*
X66803Y446709D01*
X66805Y446683D01*
X66803Y446656D01*
X66825Y446482D01*
X66843Y446309D01*
X66850Y446283D01*
X66854Y446257D01*
X66909Y446091D01*
X66961Y445924D01*
X66974Y445900D01*
X66982Y445875D01*
X67069Y445723D01*
X67153Y445570D01*
X67170Y445549D01*
X67183Y445526D01*
X67398Y445273D01*
X73798Y438873D01*
X73819Y438856D01*
X73836Y438835D01*
X73974Y438728D01*
X74110Y438618D01*
X74133Y438605D01*
X74154Y438589D01*
X74311Y438511D01*
X74465Y438429D01*
X74491Y438421D01*
X74515Y438409D01*
X74684Y438364D01*
X74851Y438314D01*
X74878Y438312D01*
X74904Y438305D01*
X75234Y438278D01*
X85566Y438278D01*
X85592Y438280D01*
X85619Y438278D01*
X85793Y438300D01*
X85966Y438318D01*
X85992Y438325D01*
X86018Y438329D01*
X86184Y438384D01*
X86351Y438436D01*
X86375Y438449D01*
X86400Y438457D01*
X86552Y438544D01*
X86705Y438628D01*
X86726Y438645D01*
X86749Y438658D01*
X87002Y438873D01*
X87659Y439529D01*
X87670Y439543D01*
X87684Y439555D01*
X87797Y439699D01*
X87914Y439841D01*
X87922Y439857D01*
X87933Y439871D01*
X88017Y440036D01*
X88102Y440197D01*
X88108Y440214D01*
X88116Y440230D01*
X88165Y440407D01*
X88217Y440583D01*
X88219Y440600D01*
X88224Y440618D01*
X88237Y440801D01*
X88254Y440984D01*
X88252Y441001D01*
X88253Y441019D01*
X88230Y441201D01*
X88210Y441384D01*
X88205Y441401D01*
X88203Y441419D01*
X88144Y441592D01*
X88089Y441768D01*
X88080Y441783D01*
X88074Y441800D01*
X87983Y441960D01*
X87894Y442120D01*
X87882Y442134D01*
X87873Y442149D01*
X87659Y442402D01*
X87248Y442813D01*
X86913Y443392D01*
X86740Y444038D01*
X86740Y445644D01*
X99441Y445644D01*
X112142Y445644D01*
X112142Y444038D01*
X111969Y443392D01*
X111634Y442813D01*
X111223Y442402D01*
X111212Y442388D01*
X111198Y442377D01*
X111084Y442232D01*
X110968Y442091D01*
X110960Y442075D01*
X110949Y442061D01*
X110865Y441896D01*
X110780Y441735D01*
X110774Y441718D01*
X110766Y441702D01*
X110717Y441525D01*
X110665Y441349D01*
X110663Y441331D01*
X110658Y441314D01*
X110645Y441131D01*
X110628Y440948D01*
X110630Y440930D01*
X110629Y440912D01*
X110652Y440731D01*
X110672Y440548D01*
X110677Y440531D01*
X110679Y440513D01*
X110738Y440340D01*
X110793Y440164D01*
X110802Y440148D01*
X110808Y440131D01*
X110900Y439972D01*
X110988Y439812D01*
X111000Y439798D01*
X111009Y439782D01*
X111223Y439529D01*
X111634Y439119D01*
X111634Y430831D01*
X110864Y430061D01*
X110853Y430047D01*
X110839Y430036D01*
X110725Y429892D01*
X110609Y429750D01*
X110601Y429734D01*
X110589Y429720D01*
X110506Y429555D01*
X110420Y429394D01*
X110415Y429377D01*
X110407Y429361D01*
X110358Y429184D01*
X110306Y429008D01*
X110304Y428990D01*
X110299Y428973D01*
X110286Y428790D01*
X110269Y428607D01*
X110271Y428589D01*
X110270Y428572D01*
X110293Y428390D01*
X110313Y428207D01*
X110318Y428190D01*
X110320Y428172D01*
X110378Y427999D01*
X110434Y427823D01*
X110443Y427807D01*
X110448Y427790D01*
X110540Y427631D01*
X110629Y427471D01*
X110640Y427457D01*
X110649Y427442D01*
X110864Y427189D01*
X111267Y426785D01*
X111281Y426774D01*
X111293Y426761D01*
X111436Y426647D01*
X111579Y426530D01*
X111595Y426522D01*
X111608Y426511D01*
X111772Y426428D01*
X111934Y426342D01*
X111951Y426337D01*
X111967Y426329D01*
X112145Y426279D01*
X112320Y426227D01*
X112338Y426225D01*
X112355Y426221D01*
X112540Y426207D01*
X112721Y426191D01*
X112739Y426193D01*
G37*
%LPC*%
G36*
X215971Y222694D02*
X215971Y222694D01*
X211581Y227084D01*
X211581Y227407D01*
X211579Y227433D01*
X211581Y227460D01*
X211559Y227634D01*
X211541Y227807D01*
X211534Y227833D01*
X211530Y227859D01*
X211474Y228025D01*
X211423Y228192D01*
X211411Y228216D01*
X211402Y228241D01*
X211315Y228393D01*
X211231Y228546D01*
X211214Y228567D01*
X211201Y228590D01*
X210986Y228843D01*
X208828Y231001D01*
X208811Y231015D01*
X208796Y231032D01*
X208655Y231143D01*
X208517Y231256D01*
X208497Y231267D01*
X208479Y231280D01*
X208319Y231361D01*
X208161Y231445D01*
X208140Y231451D01*
X208120Y231461D01*
X207946Y231509D01*
X207775Y231560D01*
X207753Y231562D01*
X207731Y231568D01*
X207553Y231580D01*
X207374Y231596D01*
X207352Y231594D01*
X207330Y231595D01*
X207152Y231572D01*
X206974Y231553D01*
X206952Y231546D01*
X206930Y231543D01*
X206614Y231441D01*
X205272Y230885D01*
X201128Y230885D01*
X197301Y232471D01*
X194371Y235401D01*
X192785Y239228D01*
X192785Y243372D01*
X194371Y247199D01*
X197301Y250129D01*
X201128Y251715D01*
X205272Y251715D01*
X209099Y250129D01*
X212029Y247199D01*
X213615Y243372D01*
X213615Y239712D01*
X213617Y239695D01*
X213615Y239677D01*
X213636Y239495D01*
X213655Y239312D01*
X213660Y239295D01*
X213662Y239277D01*
X213719Y239103D01*
X213773Y238927D01*
X213781Y238911D01*
X213787Y238894D01*
X213877Y238734D01*
X213965Y238573D01*
X213976Y238559D01*
X213985Y238544D01*
X214105Y238404D01*
X214222Y238264D01*
X214236Y238252D01*
X214248Y238239D01*
X214393Y238126D01*
X214536Y238011D01*
X214552Y238003D01*
X214566Y237992D01*
X214731Y237910D01*
X214893Y237826D01*
X214910Y237821D01*
X214926Y237813D01*
X215105Y237765D01*
X215280Y237714D01*
X215298Y237713D01*
X215315Y237708D01*
X215646Y237681D01*
X222179Y237681D01*
X226569Y233291D01*
X226569Y227084D01*
X222179Y222694D01*
X215971Y222694D01*
G37*
%LPD*%
%LPC*%
G36*
X48728Y307085D02*
X48728Y307085D01*
X44901Y308671D01*
X41971Y311601D01*
X40385Y315428D01*
X40385Y318553D01*
X40370Y318704D01*
X40363Y318856D01*
X40350Y318904D01*
X40345Y318954D01*
X40301Y319099D01*
X40264Y319246D01*
X40242Y319291D01*
X40227Y319339D01*
X40155Y319472D01*
X40089Y319609D01*
X40059Y319649D01*
X40035Y319693D01*
X39938Y319809D01*
X39847Y319930D01*
X39810Y319964D01*
X39778Y320002D01*
X39659Y320097D01*
X39546Y320198D01*
X39498Y320227D01*
X39464Y320254D01*
X39443Y320265D01*
X39437Y320270D01*
X39377Y320301D01*
X39262Y320370D01*
X39250Y320376D01*
X39172Y320406D01*
X39107Y320440D01*
X39098Y320442D01*
X39078Y320452D01*
X38975Y320481D01*
X38874Y320519D01*
X38781Y320535D01*
X38690Y320560D01*
X38583Y320568D01*
X38477Y320586D01*
X38383Y320583D01*
X38289Y320590D01*
X38182Y320576D01*
X38075Y320573D01*
X37983Y320551D01*
X37889Y320539D01*
X37787Y320505D01*
X37683Y320480D01*
X37597Y320441D01*
X37508Y320411D01*
X37415Y320358D01*
X37317Y320313D01*
X37241Y320257D01*
X37159Y320210D01*
X37058Y320124D01*
X36991Y320076D01*
X36957Y320039D01*
X36906Y319995D01*
X36441Y319531D01*
X30234Y319531D01*
X25844Y323921D01*
X25844Y330129D01*
X30234Y334519D01*
X36441Y334519D01*
X40831Y330129D01*
X40831Y328226D01*
X40846Y328075D01*
X40854Y327924D01*
X40866Y327875D01*
X40871Y327825D01*
X40916Y327680D01*
X40953Y327533D01*
X40975Y327488D01*
X40989Y327441D01*
X41061Y327307D01*
X41127Y327170D01*
X41157Y327130D01*
X41181Y327087D01*
X41278Y326970D01*
X41369Y326849D01*
X41407Y326816D01*
X41439Y326777D01*
X41557Y326682D01*
X41670Y326581D01*
X41719Y326552D01*
X41753Y326525D01*
X41829Y326485D01*
X41954Y326409D01*
X42662Y326055D01*
X42750Y326022D01*
X42835Y325979D01*
X42938Y325950D01*
X43038Y325912D01*
X43132Y325896D01*
X43223Y325871D01*
X43330Y325863D01*
X43436Y325845D01*
X43530Y325848D01*
X43624Y325841D01*
X43731Y325855D01*
X43838Y325858D01*
X43930Y325880D01*
X44024Y325892D01*
X44125Y325926D01*
X44230Y325951D01*
X44316Y325990D01*
X44405Y326020D01*
X44498Y326074D01*
X44596Y326118D01*
X44672Y326174D01*
X44754Y326221D01*
X44855Y326307D01*
X44867Y326315D01*
X46369Y326937D01*
X46369Y326938D01*
X48728Y327915D01*
X52872Y327915D01*
X56699Y326329D01*
X59629Y323399D01*
X61215Y319572D01*
X61215Y315428D01*
X59629Y311601D01*
X56699Y308671D01*
X52872Y307085D01*
X48728Y307085D01*
G37*
%LPD*%
%LPC*%
G36*
X238574Y510285D02*
X238574Y510285D01*
X232473Y516386D01*
X232473Y525014D01*
X238574Y531115D01*
X247201Y531115D01*
X253302Y525014D01*
X253302Y516386D01*
X247201Y510285D01*
X238574Y510285D01*
G37*
%LPD*%
%LPC*%
G36*
X14789Y192912D02*
X14789Y192912D01*
X8762Y198939D01*
X8762Y207461D01*
X14789Y213488D01*
X23311Y213488D01*
X29338Y207461D01*
X29338Y198939D01*
X23311Y192912D01*
X14789Y192912D01*
G37*
%LPD*%
%LPC*%
G36*
X15214Y144962D02*
X15214Y144962D01*
X9187Y150989D01*
X9187Y159511D01*
X15214Y165538D01*
X23736Y165538D01*
X29763Y159511D01*
X29763Y150989D01*
X23736Y144962D01*
X15214Y144962D01*
G37*
%LPD*%
%LPC*%
G36*
X199360Y79628D02*
X199360Y79628D01*
X193928Y85060D01*
X193928Y92740D01*
X199360Y98172D01*
X207040Y98172D01*
X212472Y92740D01*
X212472Y85060D01*
X207040Y79628D01*
X199360Y79628D01*
G37*
%LPD*%
%LPC*%
G36*
X46960Y79628D02*
X46960Y79628D01*
X41528Y85060D01*
X41528Y92740D01*
X46960Y98172D01*
X54640Y98172D01*
X60072Y92740D01*
X60072Y85060D01*
X54640Y79628D01*
X46960Y79628D01*
G37*
%LPD*%
%LPC*%
G36*
X199360Y54228D02*
X199360Y54228D01*
X193928Y59660D01*
X193928Y67340D01*
X199360Y72772D01*
X207040Y72772D01*
X212472Y67340D01*
X212472Y59660D01*
X207040Y54228D01*
X199360Y54228D01*
G37*
%LPD*%
%LPC*%
G36*
X46960Y54228D02*
X46960Y54228D01*
X41528Y59660D01*
X41528Y67340D01*
X46960Y72772D01*
X54640Y72772D01*
X60072Y67340D01*
X60072Y59660D01*
X54640Y54228D01*
X46960Y54228D01*
G37*
%LPD*%
%LPC*%
G36*
X199360Y486028D02*
X199360Y486028D01*
X193928Y491460D01*
X193928Y499140D01*
X199360Y504572D01*
X207040Y504572D01*
X212472Y499140D01*
X212472Y491460D01*
X207040Y486028D01*
X199360Y486028D01*
G37*
%LPD*%
%LPC*%
G36*
X199360Y28828D02*
X199360Y28828D01*
X193928Y34260D01*
X193928Y41940D01*
X199360Y47372D01*
X207040Y47372D01*
X212472Y41940D01*
X212472Y34260D01*
X207040Y28828D01*
X199360Y28828D01*
G37*
%LPD*%
%LPC*%
G36*
X199360Y359028D02*
X199360Y359028D01*
X193928Y364460D01*
X193928Y372140D01*
X199360Y377572D01*
X207040Y377572D01*
X212472Y372140D01*
X212472Y364460D01*
X207040Y359028D01*
X199360Y359028D01*
G37*
%LPD*%
%LPC*%
G36*
X46960Y333628D02*
X46960Y333628D01*
X41528Y339060D01*
X41528Y346740D01*
X46960Y352172D01*
X54640Y352172D01*
X60072Y346740D01*
X60072Y339060D01*
X54640Y333628D01*
X46960Y333628D01*
G37*
%LPD*%
%LPC*%
G36*
X46960Y28828D02*
X46960Y28828D01*
X41528Y34260D01*
X41528Y41940D01*
X46960Y47372D01*
X54640Y47372D01*
X60072Y41940D01*
X60072Y34260D01*
X54640Y28828D01*
X46960Y28828D01*
G37*
%LPD*%
%LPC*%
G36*
X46960Y181228D02*
X46960Y181228D01*
X41528Y186660D01*
X41528Y194340D01*
X46960Y199772D01*
X54640Y199772D01*
X60072Y194340D01*
X60072Y186660D01*
X54640Y181228D01*
X46960Y181228D01*
G37*
%LPD*%
%LPC*%
G36*
X199360Y155828D02*
X199360Y155828D01*
X193928Y161260D01*
X193928Y168940D01*
X199360Y174372D01*
X207040Y174372D01*
X212472Y168940D01*
X212472Y161260D01*
X207040Y155828D01*
X199360Y155828D01*
G37*
%LPD*%
%LPC*%
G36*
X46960Y155828D02*
X46960Y155828D01*
X41528Y161260D01*
X41528Y168940D01*
X46960Y174372D01*
X54640Y174372D01*
X60072Y168940D01*
X60072Y161260D01*
X54640Y155828D01*
X46960Y155828D01*
G37*
%LPD*%
%LPC*%
G36*
X199360Y130428D02*
X199360Y130428D01*
X193928Y135860D01*
X193928Y143540D01*
X199360Y148972D01*
X207040Y148972D01*
X212472Y143540D01*
X212472Y135860D01*
X207040Y130428D01*
X199360Y130428D01*
G37*
%LPD*%
%LPC*%
G36*
X46960Y130428D02*
X46960Y130428D01*
X41528Y135860D01*
X41528Y143540D01*
X46960Y148972D01*
X54640Y148972D01*
X60072Y143540D01*
X60072Y135860D01*
X54640Y130428D01*
X46960Y130428D01*
G37*
%LPD*%
%LPC*%
G36*
X199360Y105028D02*
X199360Y105028D01*
X193928Y110460D01*
X193928Y118140D01*
X199360Y123572D01*
X207040Y123572D01*
X212472Y118140D01*
X212472Y110460D01*
X207040Y105028D01*
X199360Y105028D01*
G37*
%LPD*%
%LPC*%
G36*
X46960Y105028D02*
X46960Y105028D01*
X41528Y110460D01*
X41528Y118140D01*
X46960Y123572D01*
X54640Y123572D01*
X60072Y118140D01*
X60072Y110460D01*
X54640Y105028D01*
X46960Y105028D01*
G37*
%LPD*%
%LPC*%
G36*
X125274Y267274D02*
X125274Y267274D01*
X125274Y276066D01*
X129360Y276066D01*
X130006Y275893D01*
X130585Y275558D01*
X131058Y275085D01*
X131393Y274506D01*
X131566Y273860D01*
X131566Y267274D01*
X125274Y267274D01*
G37*
%LPD*%
%LPC*%
G36*
X111484Y267274D02*
X111484Y267274D01*
X111484Y273860D01*
X111657Y274506D01*
X111992Y275085D01*
X112465Y275558D01*
X113044Y275893D01*
X113690Y276066D01*
X117776Y276066D01*
X117776Y267274D01*
X111484Y267274D01*
G37*
%LPD*%
%LPC*%
G36*
X125274Y250984D02*
X125274Y250984D01*
X125274Y259776D01*
X131566Y259776D01*
X131566Y253190D01*
X131393Y252544D01*
X131058Y251965D01*
X130585Y251492D01*
X130006Y251157D01*
X129360Y250984D01*
X125274Y250984D01*
G37*
%LPD*%
%LPC*%
G36*
X113690Y250984D02*
X113690Y250984D01*
X113044Y251157D01*
X112465Y251492D01*
X111992Y251965D01*
X111657Y252544D01*
X111484Y253190D01*
X111484Y259776D01*
X117776Y259776D01*
X117776Y250984D01*
X113690Y250984D01*
G37*
%LPD*%
%LPC*%
G36*
X238363Y408177D02*
X238363Y408177D01*
X231965Y414576D01*
X231965Y416561D01*
X240348Y416561D01*
X240348Y408177D01*
X238363Y408177D01*
G37*
%LPD*%
%LPC*%
G36*
X205449Y522949D02*
X205449Y522949D01*
X205449Y530480D01*
X207251Y530480D01*
X212980Y524751D01*
X212980Y522949D01*
X205449Y522949D01*
G37*
%LPD*%
%LPC*%
G36*
X193420Y522949D02*
X193420Y522949D01*
X193420Y524751D01*
X199149Y530480D01*
X200951Y530480D01*
X200951Y522949D01*
X193420Y522949D01*
G37*
%LPD*%
%LPC*%
G36*
X205449Y510920D02*
X205449Y510920D01*
X205449Y518451D01*
X212980Y518451D01*
X212980Y516649D01*
X207251Y510920D01*
X205449Y510920D01*
G37*
%LPD*%
%LPC*%
G36*
X199149Y510920D02*
X199149Y510920D01*
X193420Y516649D01*
X193420Y518451D01*
X200951Y518451D01*
X200951Y510920D01*
X199149Y510920D01*
G37*
%LPD*%
D10*
X151525Y263525D03*
X121525Y263525D03*
D11*
X19050Y203200D03*
X19475Y155250D03*
X138113Y461963D03*
X246063Y280988D03*
D12*
X203200Y38100D03*
X203200Y63500D03*
X203200Y190500D03*
X203200Y215900D03*
X203200Y88900D03*
X203200Y114300D03*
X203200Y165100D03*
X203200Y139700D03*
X203200Y342900D03*
X203200Y368300D03*
X203200Y393700D03*
X203200Y419100D03*
X203200Y444500D03*
X203200Y469900D03*
X203200Y495300D03*
X203200Y520700D03*
X50800Y520700D03*
X50800Y495300D03*
X50800Y469900D03*
X50800Y444500D03*
X50800Y419100D03*
X50800Y393700D03*
X50800Y368300D03*
X50800Y342900D03*
X50800Y215900D03*
X50800Y190500D03*
X50800Y165100D03*
X50800Y139700D03*
X50800Y114300D03*
X50800Y88900D03*
X50800Y63500D03*
X50800Y38100D03*
D13*
X50800Y241300D03*
X50800Y266700D03*
X50800Y292100D03*
X50800Y317500D03*
X203200Y241300D03*
X203200Y266700D03*
X203200Y292100D03*
X203200Y317500D03*
D14*
X99441Y358775D03*
X160909Y358775D03*
X99441Y371475D03*
X99441Y384175D03*
X160909Y371475D03*
X160909Y384175D03*
X99441Y396875D03*
X160909Y396875D03*
X99441Y409575D03*
X160909Y409575D03*
X99441Y422275D03*
X99441Y434975D03*
X160909Y422275D03*
X160909Y434975D03*
X99441Y447675D03*
X160909Y447675D03*
D15*
X107975Y482600D03*
X126975Y482600D03*
X107975Y508000D03*
X126975Y508000D03*
X107975Y533400D03*
X126975Y533400D03*
X177775Y533400D03*
X158775Y533400D03*
X177775Y508000D03*
X158775Y508000D03*
X177775Y482600D03*
X158775Y482600D03*
D16*
X242888Y546100D03*
X242888Y520700D03*
X242888Y495300D03*
X242888Y469900D03*
X242888Y444500D03*
X242888Y419100D03*
D17*
X242888Y341313D03*
X242888Y366713D03*
X242888Y392113D03*
D18*
X68263Y266700D03*
D19*
X80963Y279400D01*
X80963Y304292D01*
D18*
X80963Y304292D03*
D19*
X80963Y319088D01*
D18*
X153480Y334455D03*
X106109Y342900D03*
D19*
X104775Y342900D02*
X80963Y319088D01*
X104775Y342900D02*
X106109Y342900D01*
D18*
X103188Y233363D03*
D19*
X69850Y266700D01*
X68263Y266700D01*
D18*
X177800Y247650D03*
D19*
X154242Y223838D01*
D18*
X154242Y223838D03*
D19*
X144463Y233363D01*
X103188Y233363D01*
D18*
X188913Y277813D03*
D19*
X99441Y349822D02*
X99441Y358775D01*
X99441Y349822D02*
X106109Y342900D01*
X177800Y266700D02*
X177800Y247650D01*
X177800Y266700D02*
X188913Y277813D01*
X174625Y263525D02*
X151525Y263525D01*
X174625Y263525D02*
X177800Y266700D01*
X117475Y331788D02*
X106109Y342900D01*
X117475Y331788D02*
X150813Y331788D01*
X153480Y334455D01*
X119063Y447675D02*
X99441Y447675D01*
D18*
X119063Y447675D03*
X98425Y273050D03*
D19*
X107950Y263525D02*
X121525Y263525D01*
X107950Y263525D02*
X98425Y273050D01*
D20*
X139700Y311150D03*
D18*
X176213Y314325D03*
D21*
X192088Y330200D01*
X207963Y330200D01*
X212725Y334963D01*
X228600Y334963D01*
X233363Y330200D01*
X233363Y312738D01*
D18*
X233363Y312738D03*
X219075Y230188D03*
D21*
X214313Y230188D01*
X203200Y241300D01*
D18*
X234950Y249238D03*
D21*
X220663Y249238D01*
X203200Y266700D01*
X203200Y292100D02*
X120650Y292100D01*
X95250Y317500D01*
D18*
X95250Y317500D03*
X222250Y325438D03*
D21*
X211138Y325438D01*
X203200Y317500D01*
X165100Y447675D02*
X160909Y447675D01*
X165100Y447675D02*
X175197Y457200D01*
X184150Y457200D01*
X196850Y469900D01*
X203200Y469900D01*
X114300Y409575D02*
X99441Y409575D01*
X114300Y409575D02*
X130175Y393700D01*
X130175Y357188D01*
X142367Y345567D01*
D18*
X142367Y345567D03*
D21*
X33338Y439738D02*
X33338Y512763D01*
X41275Y520700D01*
X50800Y520700D01*
X82550Y384175D02*
X99441Y384175D01*
X82550Y384175D02*
X60325Y406400D01*
X46038Y406400D01*
X33338Y393700D01*
X22225Y393700D01*
X15875Y400050D01*
X15875Y422275D01*
X33338Y439738D01*
X73025Y434975D02*
X99441Y434975D01*
X73025Y434975D02*
X63500Y444500D01*
X63500Y482600D01*
X50800Y495300D01*
D18*
X33338Y327025D03*
D21*
X49213Y319088D01*
D22*
X50800Y317500D01*
D23*
X19050Y285750D03*
D21*
X44450Y285750D01*
X50800Y292100D01*
D23*
X15875Y269875D03*
D21*
X47625Y269875D01*
X50800Y266700D01*
X50800Y241300D02*
X47625Y241300D01*
X36513Y230188D01*
D18*
X36513Y230188D03*
D21*
X242888Y341313D02*
X249238Y335598D01*
X249238Y303213D01*
X260350Y292100D01*
X260350Y269875D01*
X249238Y258763D01*
X249238Y207963D01*
X244475Y203200D01*
X63500Y203200D01*
X50800Y215900D01*
X71438Y371475D02*
X99441Y371475D01*
X71438Y371475D02*
X61913Y381000D01*
X28575Y381000D01*
D18*
X28575Y381000D03*
X87313Y500063D03*
D21*
X90513Y500063D01*
X107975Y482600D01*
X107975Y508000D02*
X95250Y508000D01*
X85725Y517525D01*
D18*
X85725Y517525D03*
X28575Y406400D03*
D21*
X28575Y415925D01*
X44450Y431800D01*
X57150Y431800D01*
X71438Y417513D01*
X71438Y411163D01*
X85725Y396875D01*
X99441Y396875D01*
X107975Y533400D02*
X79375Y533400D01*
X73025Y527050D01*
X73025Y465138D01*
X99441Y422275D02*
X114300Y422275D01*
X128588Y436563D01*
X128588Y452438D01*
X122238Y458788D01*
X79375Y458788D01*
X73025Y465138D01*
X126975Y533400D02*
X158775Y533400D01*
X158775Y549300D01*
X163513Y554038D01*
X234950Y554038D01*
X242888Y546100D01*
X142875Y508000D02*
X126975Y508000D01*
X142875Y508000D02*
X158775Y508000D01*
X142875Y508000D02*
X142875Y522288D01*
D18*
X142875Y522288D03*
D21*
X141288Y482600D02*
X126975Y482600D01*
X141288Y482600D02*
X158775Y482600D01*
X155575Y482600D01*
D18*
X142875Y495300D03*
D21*
X141288Y493713D01*
X141288Y482600D01*
X144463Y441325D02*
X150813Y434975D01*
X160909Y434975D01*
X177775Y508000D02*
X177775Y533400D01*
X177775Y508000D02*
X177775Y482600D01*
X177775Y473050D01*
X161925Y457200D01*
X150813Y457200D01*
X144463Y450850D01*
X144463Y441325D01*
X160909Y409575D02*
X174625Y409575D01*
X196850Y431800D01*
X209550Y431800D02*
X242888Y465138D01*
X242888Y469900D01*
X209550Y431800D02*
X196850Y431800D01*
X180975Y372491D02*
X160909Y371475D01*
X180975Y372491D02*
X180975Y403225D01*
X184150Y406400D01*
X215900Y406400D01*
X222250Y412750D01*
X222250Y423863D01*
X242888Y444500D01*
X160909Y384175D02*
X147638Y384175D01*
X139700Y376238D01*
X139700Y360934D01*
D18*
X165100Y323850D03*
D21*
X165100Y335534D01*
X139700Y360934D01*
X242888Y366713D02*
X257175Y381000D01*
X257175Y476250D01*
X250825Y482600D01*
X232791Y482600D01*
X207391Y457200D01*
X196850Y457200D01*
X184150Y444500D01*
X184150Y430213D01*
X176213Y422275D01*
X160909Y422275D01*
M02*
