M48
;GenerationSoftware,Autodesk,EAGLE,9.6.2*%
;CreationDate,2024-06-01T19:33:19Z*%
FMAT,2
ICI,OFF
METRIC,TZ,000.000
T5C0.584
T4C0.660
T3C0.813
T2C0.900
T1C1.016
%
G90
M71
T1
X24289Y46990
X24289Y39211
X24289Y49530
X24289Y52070
X24289Y54610
X24289Y36671
X24289Y34131
X24289Y41910
X24289Y44450
T2
X20320Y34290
X20320Y36830
X20320Y39370
X20320Y41910
X20320Y44450
X20320Y49530
X20320Y52070
X5080Y52070
X5080Y49530
X20320Y46990
X5080Y46990
X5080Y44450
X5080Y41910
X5080Y39370
X5080Y34290
X5080Y21590
X5080Y19050
X5080Y16510
X5080Y13970
X5080Y11430
X5080Y8890
X5080Y6350
X5080Y3810
X20320Y8890
X20320Y3810
X20320Y6350
X20320Y19050
X20320Y21590
X5080Y36830
X20320Y11430
X20320Y16510
X20320Y13970
T3
X24606Y28099
X13811Y46196
X1947Y15525
X1905Y20320
T4
X13970Y31115
T5
X10319Y23336
X17780Y24765
X15424Y22384
X18891Y27781
X11906Y44767
X17621Y31432
X23336Y31274
X21907Y23019
X23495Y24924
X9525Y31750
X22225Y32544
X14237Y34557
X3334Y32702
X1905Y28575
X1587Y26987
X3651Y23019
X2857Y38100
X6826Y26670
X9843Y27305
X8096Y30429
X15348Y33445
X10611Y34290
X14287Y49530
X14287Y52229
X2857Y40640
X8573Y51752
X8731Y50006
X16510Y32385
M30