G04 EAGLE Gerber RS-274X export*
G75*
%MOMM*%
%FSLAX34Y34*%
%LPD*%
%INSilkscreen Top*%
%IPPOS*%
%AMOC8*
5,1,8,0,0,1.08239X$1,22.5*%
G01*
%ADD10C,0.330200*%
%ADD11C,0.127000*%
%ADD12C,0.152400*%
%ADD13C,0.279400*%
%ADD14C,0.076200*%
%ADD15C,0.254000*%
%ADD16C,0.050800*%
%ADD17C,0.101600*%


D10*
X15038Y12764D02*
X26266Y12764D01*
X28512Y15009D01*
X28512Y19500D01*
X26266Y21746D01*
X15038Y21746D01*
X15038Y28200D02*
X28512Y28200D01*
X28512Y37182D01*
X28512Y43636D02*
X19529Y43636D01*
X15038Y48127D01*
X19529Y52618D01*
X28512Y52618D01*
X21775Y52618D02*
X21775Y43636D01*
X15038Y81245D02*
X17284Y83490D01*
X15038Y81245D02*
X15038Y76753D01*
X17284Y74508D01*
X26266Y74508D01*
X28512Y76753D01*
X28512Y81245D01*
X26266Y83490D01*
X28512Y89944D02*
X15038Y89944D01*
X15038Y96681D01*
X17284Y98926D01*
X21775Y98926D01*
X24020Y96681D01*
X24020Y89944D01*
X28512Y105380D02*
X15038Y105380D01*
X28512Y105380D02*
X28512Y114362D01*
X28512Y120816D02*
X15038Y120816D01*
X28512Y120816D02*
X28512Y127553D01*
X26266Y129798D01*
X17284Y129798D01*
X15038Y127553D01*
X15038Y120816D01*
D11*
X219514Y335854D02*
X220658Y336998D01*
X219514Y335854D02*
X219514Y333566D01*
X220658Y332423D01*
X225234Y332423D01*
X226378Y333566D01*
X226378Y335854D01*
X225234Y336998D01*
X219514Y343339D02*
X220658Y344483D01*
X219514Y343339D02*
X219514Y341051D01*
X220658Y339907D01*
X221802Y339907D01*
X222946Y341051D01*
X222946Y343339D01*
X224090Y344483D01*
X225234Y344483D01*
X226378Y343339D01*
X226378Y341051D01*
X225234Y339907D01*
X225234Y347391D02*
X221802Y347391D01*
X225234Y347391D02*
X226378Y348535D01*
X226378Y351967D01*
X227521Y351967D02*
X221802Y351967D01*
X227521Y351967D02*
X228665Y350823D01*
X228665Y349679D01*
X226378Y354875D02*
X221802Y354875D01*
X221802Y358307D01*
X222946Y359451D01*
X226378Y359451D01*
X221802Y363503D02*
X221802Y366935D01*
X221802Y363503D02*
X222946Y362359D01*
X225234Y362359D01*
X226378Y363503D01*
X226378Y366935D01*
X226378Y375285D02*
X219514Y375285D01*
X222946Y375285D02*
X222946Y379861D01*
X219514Y379861D02*
X226378Y379861D01*
X219514Y386201D02*
X220658Y387345D01*
X219514Y386201D02*
X219514Y383913D01*
X220658Y382769D01*
X221802Y382769D01*
X222946Y383913D01*
X222946Y386201D01*
X224090Y387345D01*
X225234Y387345D01*
X226378Y386201D01*
X226378Y383913D01*
X225234Y382769D01*
X225234Y390253D02*
X221802Y390253D01*
X225234Y390253D02*
X226378Y391397D01*
X226378Y394829D01*
X227521Y394829D02*
X221802Y394829D01*
X227521Y394829D02*
X228665Y393685D01*
X228665Y392541D01*
X226378Y397737D02*
X221802Y397737D01*
X221802Y401169D01*
X222946Y402313D01*
X226378Y402313D01*
X221802Y406366D02*
X221802Y409798D01*
X221802Y406366D02*
X222946Y405222D01*
X225234Y405222D01*
X226378Y406366D01*
X226378Y409798D01*
D12*
X227838Y538925D02*
X219195Y538925D01*
X219195Y543246D01*
X220635Y544687D01*
X222076Y544687D01*
X223516Y543246D01*
X224957Y544687D01*
X226397Y544687D01*
X227838Y543246D01*
X227838Y538925D01*
X223516Y538925D02*
X223516Y543246D01*
X220635Y524049D02*
X219195Y522609D01*
X219195Y519728D01*
X220635Y518287D01*
X226397Y518287D01*
X227838Y519728D01*
X227838Y522609D01*
X226397Y524049D01*
X223516Y524049D01*
X223516Y521168D01*
X227838Y492887D02*
X219195Y492887D01*
X219195Y497209D01*
X220635Y498649D01*
X223516Y498649D01*
X224957Y497209D01*
X224957Y492887D01*
X224957Y495768D02*
X227838Y498649D01*
D11*
X227965Y462598D02*
X221101Y462598D01*
X224533Y462598D02*
X224533Y467173D01*
X221101Y467173D02*
X227965Y467173D01*
X227965Y470082D02*
X221101Y474658D01*
X221101Y480998D02*
X222245Y482142D01*
X221101Y480998D02*
X221101Y478710D01*
X222245Y477566D01*
X226821Y477566D01*
X227965Y478710D01*
X227965Y480998D01*
X226821Y482142D01*
X225677Y441960D02*
X221101Y441960D01*
X225677Y441960D02*
X227965Y444248D01*
X225677Y446536D01*
X221101Y446536D01*
X222245Y417961D02*
X221101Y416817D01*
X221101Y414529D01*
X222245Y413385D01*
X226821Y413385D01*
X227965Y414529D01*
X227965Y416817D01*
X226821Y417961D01*
X224533Y417961D01*
X224533Y415673D01*
X227965Y420869D02*
X221101Y420869D01*
X227965Y425445D01*
X221101Y425445D01*
X221101Y428353D02*
X227965Y428353D01*
X227965Y431785D01*
X226821Y432929D01*
X222245Y432929D01*
X221101Y431785D01*
X221101Y428353D01*
D13*
X217284Y6160D02*
X232283Y6160D01*
X232283Y16159D01*
X222284Y22531D02*
X222284Y25031D01*
X232283Y25031D01*
X232283Y22531D02*
X232283Y27531D01*
X217284Y25031D02*
X214784Y25031D01*
X222284Y35945D02*
X222284Y43445D01*
X222284Y35945D02*
X224784Y33445D01*
X229783Y33445D01*
X232283Y35945D01*
X232283Y43445D01*
X232283Y52317D02*
X232283Y57316D01*
X232283Y52317D02*
X229783Y49817D01*
X224784Y49817D01*
X222284Y52317D01*
X222284Y57316D01*
X224784Y59816D01*
X227283Y59816D01*
X227283Y49817D01*
X232283Y66189D02*
X222284Y66189D01*
X222284Y73688D01*
X224784Y76188D01*
X232283Y76188D01*
X232283Y82560D02*
X232283Y90060D01*
X229783Y92559D01*
X227283Y90060D01*
X227283Y85060D01*
X224784Y82560D01*
X222284Y85060D01*
X222284Y92559D01*
X232283Y101431D02*
X232283Y106431D01*
X232283Y101431D02*
X229783Y98932D01*
X224784Y98932D01*
X222284Y101431D01*
X222284Y106431D01*
X224784Y108931D01*
X227283Y108931D01*
X227283Y98932D01*
X232283Y125302D02*
X217284Y125302D01*
X232283Y125302D02*
X232283Y117803D01*
X229783Y115303D01*
X224784Y115303D01*
X222284Y117803D01*
X222284Y125302D01*
X222284Y148046D02*
X229783Y148046D01*
X232283Y150546D01*
X232283Y158046D01*
X222284Y158046D01*
X222284Y164418D02*
X232283Y164418D01*
X222284Y164418D02*
X222284Y171917D01*
X224784Y174417D01*
X232283Y174417D01*
X232283Y190789D02*
X217284Y190789D01*
X232283Y190789D02*
X232283Y183289D01*
X229783Y180790D01*
X224784Y180790D01*
X222284Y183289D01*
X222284Y190789D01*
X232283Y199661D02*
X232283Y204660D01*
X232283Y199661D02*
X229783Y197161D01*
X224784Y197161D01*
X222284Y199661D01*
X222284Y204660D01*
X224784Y207160D01*
X227283Y207160D01*
X227283Y197161D01*
X232283Y213533D02*
X222284Y213533D01*
X227283Y213533D02*
X222284Y218532D01*
X222284Y221032D01*
X246454Y16159D02*
X243954Y13659D01*
X243954Y8659D01*
X246454Y6160D01*
X256453Y6160D01*
X258953Y8659D01*
X258953Y13659D01*
X256453Y16159D01*
X243954Y22531D02*
X243954Y32530D01*
X243954Y22531D02*
X258953Y22531D01*
X258953Y32530D01*
X251454Y27531D02*
X251454Y22531D01*
X258953Y38903D02*
X243954Y38903D01*
X243954Y46402D01*
X246454Y48902D01*
X251454Y48902D01*
X253953Y46402D01*
X253953Y38903D01*
X253953Y43902D02*
X258953Y48902D01*
X258953Y55274D02*
X243954Y55274D01*
X258953Y65273D01*
X243954Y65273D01*
X243954Y90517D02*
X243954Y95517D01*
X243954Y90517D02*
X246454Y88017D01*
X256453Y88017D01*
X258953Y90517D01*
X258953Y95517D01*
X256453Y98017D01*
X246454Y98017D01*
X243954Y95517D01*
X243954Y104389D02*
X258953Y104389D01*
X251454Y104389D02*
X251454Y114388D01*
X258953Y114388D02*
X243954Y114388D01*
X243954Y120760D02*
X258953Y120760D01*
X258953Y130760D01*
X248954Y153504D02*
X258953Y158503D01*
X248954Y163503D01*
X256453Y169875D02*
X258953Y169875D01*
X256453Y169875D02*
X256453Y172375D01*
X258953Y172375D01*
X258953Y169875D01*
X248954Y178061D02*
X243954Y183061D01*
X258953Y183061D01*
X258953Y188060D02*
X258953Y178061D01*
X258953Y194432D02*
X256453Y194432D01*
X256453Y196932D01*
X258953Y196932D01*
X258953Y194432D01*
X248954Y202618D02*
X243954Y207618D01*
X258953Y207618D01*
X258953Y212617D02*
X258953Y202618D01*
D14*
X104625Y403422D02*
X106193Y404989D01*
X104625Y403422D02*
X104625Y400286D01*
X106193Y398719D01*
X112464Y398719D01*
X114032Y400286D01*
X114032Y403422D01*
X112464Y404989D01*
X107761Y408074D02*
X104625Y411209D01*
X114032Y411209D01*
X114032Y408074D02*
X114032Y414344D01*
D11*
X11962Y194001D02*
X11962Y183833D01*
X8573Y194001D02*
X15352Y194001D01*
X19097Y194001D02*
X19097Y183833D01*
X24181Y183833D01*
X25876Y185527D01*
X25876Y192306D01*
X24181Y194001D01*
X19097Y194001D01*
X29622Y183833D02*
X33011Y183833D01*
X31316Y183833D02*
X31316Y194001D01*
X29622Y194001D02*
X33011Y194001D01*
X10800Y144464D02*
X10800Y134295D01*
X14189Y144464D02*
X7410Y144464D01*
X17935Y144464D02*
X17935Y134295D01*
X21324Y141074D02*
X17935Y144464D01*
X21324Y141074D02*
X24714Y144464D01*
X24714Y134295D01*
X33544Y144464D02*
X35238Y142769D01*
X33544Y144464D02*
X30154Y144464D01*
X28459Y142769D01*
X28459Y141074D01*
X30154Y139379D01*
X33544Y139379D01*
X35238Y137685D01*
X35238Y135990D01*
X33544Y134295D01*
X30154Y134295D01*
X28459Y135990D01*
X127850Y469583D02*
X127850Y479751D01*
X131239Y479751D02*
X124460Y479751D01*
X134985Y479751D02*
X134985Y469583D01*
X140069Y469583D01*
X141764Y471277D01*
X141764Y478056D01*
X140069Y479751D01*
X134985Y479751D01*
X147204Y479751D02*
X150594Y479751D01*
X147204Y479751D02*
X145509Y478056D01*
X145509Y471277D01*
X147204Y469583D01*
X150594Y469583D01*
X152288Y471277D01*
X152288Y478056D01*
X150594Y479751D01*
X247324Y246912D02*
X257493Y246912D01*
X247324Y243523D02*
X247324Y250302D01*
X247324Y259131D02*
X249019Y260826D01*
X247324Y259131D02*
X247324Y255742D01*
X249019Y254047D01*
X255798Y254047D01*
X257493Y255742D01*
X257493Y259131D01*
X255798Y260826D01*
X257493Y264572D02*
X247324Y264572D01*
X254103Y264572D02*
X247324Y271351D01*
X252408Y266266D02*
X257493Y271351D01*
D15*
X33308Y274097D02*
X33308Y284703D01*
X125232Y376627D01*
X128768Y376627D01*
X224227Y281168D01*
X224227Y277632D01*
X128768Y182173D01*
X125232Y182173D01*
X33308Y274097D01*
D16*
X132077Y290431D02*
X132128Y290479D01*
X132181Y290524D01*
X132237Y290567D01*
X132295Y290606D01*
X132355Y290641D01*
X132417Y290674D01*
X132481Y290703D01*
X132546Y290728D01*
X132613Y290750D01*
X132680Y290768D01*
X132749Y290783D01*
X132818Y290793D01*
X132888Y290800D01*
X132957Y290803D01*
X133027Y290802D01*
X133097Y290797D01*
X133167Y290788D01*
X133236Y290776D01*
X133304Y290760D01*
X133371Y290740D01*
X133437Y290716D01*
X133501Y290689D01*
X133564Y290658D01*
X133625Y290624D01*
X133684Y290587D01*
X133741Y290546D01*
X133796Y290502D01*
X133848Y290455D01*
X133897Y290406D01*
X133944Y290354D01*
X133988Y290299D01*
X134029Y290242D01*
X134066Y290183D01*
X134100Y290122D01*
X134131Y290059D01*
X134158Y289995D01*
X134182Y289929D01*
X134202Y289862D01*
X134218Y289794D01*
X134230Y289725D01*
X134239Y289655D01*
X134244Y289585D01*
X134245Y289516D01*
X134242Y289446D01*
X134235Y289376D01*
X134225Y289307D01*
X134210Y289238D01*
X134192Y289171D01*
X134170Y289104D01*
X134145Y289039D01*
X134116Y288975D01*
X134084Y288913D01*
X134048Y288853D01*
X134009Y288795D01*
X133966Y288739D01*
X133921Y288686D01*
X133873Y288635D01*
X135217Y286386D02*
X135267Y286433D01*
X135319Y286478D01*
X135374Y286519D01*
X135431Y286558D01*
X135490Y286594D01*
X135551Y286626D01*
X135613Y286655D01*
X135677Y286680D01*
X135742Y286702D01*
X135809Y286720D01*
X135876Y286735D01*
X135944Y286746D01*
X136012Y286754D01*
X136081Y286758D01*
X136149Y286758D01*
X136218Y286754D01*
X136286Y286746D01*
X136354Y286735D01*
X136421Y286720D01*
X136488Y286702D01*
X136553Y286680D01*
X136617Y286655D01*
X136679Y286626D01*
X136740Y286594D01*
X136799Y286558D01*
X136856Y286519D01*
X136911Y286478D01*
X136963Y286433D01*
X137013Y286386D01*
X137018Y289080D02*
X137036Y289200D01*
X137051Y289322D01*
X137062Y289444D01*
X137069Y289566D01*
X137073Y289688D01*
X137072Y289810D01*
X137068Y289932D01*
X137059Y290054D01*
X137047Y290176D01*
X137031Y290297D01*
X137011Y290418D01*
X136987Y290538D01*
X136960Y290657D01*
X136929Y290775D01*
X136894Y290893D01*
X136855Y291009D01*
X136812Y291123D01*
X136766Y291237D01*
X136717Y291348D01*
X136664Y291459D01*
X136607Y291567D01*
X136547Y291674D01*
X136484Y291778D01*
X136417Y291881D01*
X136347Y291981D01*
X136274Y292079D01*
X136198Y292175D01*
X136119Y292268D01*
X136037Y292359D01*
X135953Y292447D01*
X135865Y292533D01*
X135775Y292615D01*
X135682Y292695D01*
X135587Y292771D01*
X135489Y292845D01*
X135389Y292916D01*
X135287Y292983D01*
X135183Y293047D01*
X135076Y293107D01*
X134968Y293165D01*
X134859Y293219D01*
X134747Y293269D01*
X134634Y293316D01*
X134520Y293359D01*
X134404Y293398D01*
X134287Y293434D01*
X134169Y293466D01*
X134050Y293494D01*
X133930Y293519D01*
X133809Y293539D01*
X133688Y293556D01*
X133567Y293569D01*
X133445Y293578D01*
X133323Y293584D01*
X133200Y293585D01*
X133078Y293582D01*
X132956Y293576D01*
X132834Y293566D01*
X132713Y293552D01*
X132592Y293534D01*
X132471Y293512D01*
X132352Y293486D01*
X132233Y293457D01*
X132115Y293424D01*
X131999Y293387D01*
X131883Y293347D01*
X131769Y293302D01*
X131657Y293255D01*
X131546Y293203D01*
X131436Y293149D01*
X131329Y293090D01*
X131223Y293029D01*
X131119Y292964D01*
X131018Y292896D01*
X130919Y292824D01*
X130822Y292750D01*
X130727Y292672D01*
X137015Y289083D02*
X137103Y289114D01*
X137192Y289140D01*
X137282Y289163D01*
X137373Y289183D01*
X137464Y289198D01*
X137557Y289210D01*
X137649Y289218D01*
X137742Y289222D01*
X137835Y289223D01*
X137928Y289219D01*
X138021Y289212D01*
X138113Y289201D01*
X138205Y289186D01*
X138296Y289168D01*
X138386Y289146D01*
X138476Y289120D01*
X138564Y289090D01*
X138651Y289057D01*
X138736Y289021D01*
X138820Y288981D01*
X138902Y288937D01*
X138983Y288891D01*
X139061Y288841D01*
X139137Y288787D01*
X139211Y288731D01*
X139283Y288672D01*
X139352Y288610D01*
X139419Y288545D01*
X139482Y288477D01*
X139544Y288407D01*
X139602Y288335D01*
X139657Y288260D01*
X139709Y288183D01*
X108728Y270674D02*
X114569Y257649D01*
X108728Y270674D02*
X110524Y272470D01*
X121301Y267973D01*
X113664Y275610D01*
X115460Y277406D01*
X117256Y275610D01*
X123097Y269769D01*
X126243Y272916D01*
X120403Y278757D01*
X117256Y275610D01*
X115460Y277406D02*
X123097Y285043D01*
X124893Y283247D01*
X122199Y280553D01*
X129835Y272916D01*
X121753Y264834D01*
X119059Y265732D01*
X115467Y262140D01*
X116365Y259445D01*
X114569Y257649D01*
X114117Y264381D02*
X111422Y269776D01*
X116811Y267075D02*
X114117Y264381D01*
X116811Y267075D02*
X111422Y269776D01*
X124893Y283247D02*
X126689Y281451D01*
X130281Y285043D01*
X128485Y286839D01*
X124893Y283247D01*
X123097Y285043D02*
X130726Y292672D01*
X137465Y299411D02*
X150490Y293570D01*
X137465Y299411D02*
X135669Y297615D01*
X139261Y288635D01*
X143306Y286386D02*
X140159Y283240D01*
X143306Y286386D02*
X142408Y289080D01*
X146000Y292672D01*
X148694Y291774D01*
X150490Y293570D01*
X143751Y294016D02*
X138363Y296717D01*
X143751Y294016D02*
X141057Y291322D01*
X138363Y296717D01*
X132077Y290431D02*
X130726Y289080D01*
X132523Y287284D01*
X133873Y288635D01*
X135217Y286386D02*
X134319Y285488D01*
X138363Y281444D01*
X130281Y273361D01*
X128485Y279655D02*
X132077Y283247D01*
X133873Y281451D01*
X130281Y277859D01*
X128485Y279655D01*
X137013Y286386D02*
X140159Y283240D01*
D15*
X39648Y279400D02*
X39650Y279499D01*
X39656Y279599D01*
X39666Y279697D01*
X39680Y279796D01*
X39697Y279894D01*
X39719Y279991D01*
X39744Y280087D01*
X39773Y280182D01*
X39806Y280275D01*
X39843Y280368D01*
X39883Y280459D01*
X39927Y280548D01*
X39975Y280635D01*
X40025Y280721D01*
X40080Y280804D01*
X40137Y280885D01*
X40198Y280964D01*
X40261Y281040D01*
X40328Y281114D01*
X40398Y281185D01*
X40470Y281253D01*
X40545Y281318D01*
X40622Y281380D01*
X40702Y281439D01*
X40785Y281495D01*
X40869Y281547D01*
X40955Y281597D01*
X41044Y281642D01*
X41134Y281684D01*
X41225Y281723D01*
X41318Y281758D01*
X41413Y281789D01*
X41508Y281816D01*
X41605Y281839D01*
X41702Y281859D01*
X41800Y281875D01*
X41899Y281887D01*
X41998Y281895D01*
X42097Y281899D01*
X42197Y281899D01*
X42296Y281895D01*
X42395Y281887D01*
X42494Y281875D01*
X42592Y281859D01*
X42689Y281839D01*
X42786Y281816D01*
X42881Y281789D01*
X42976Y281758D01*
X43069Y281723D01*
X43160Y281684D01*
X43250Y281642D01*
X43339Y281597D01*
X43425Y281547D01*
X43509Y281495D01*
X43592Y281439D01*
X43672Y281380D01*
X43749Y281318D01*
X43824Y281253D01*
X43896Y281185D01*
X43966Y281114D01*
X44033Y281040D01*
X44096Y280964D01*
X44157Y280885D01*
X44214Y280804D01*
X44269Y280721D01*
X44319Y280635D01*
X44367Y280548D01*
X44411Y280459D01*
X44451Y280368D01*
X44488Y280275D01*
X44521Y280182D01*
X44550Y280087D01*
X44575Y279991D01*
X44597Y279894D01*
X44614Y279796D01*
X44628Y279697D01*
X44638Y279599D01*
X44644Y279499D01*
X44646Y279400D01*
X44644Y279301D01*
X44638Y279201D01*
X44628Y279103D01*
X44614Y279004D01*
X44597Y278906D01*
X44575Y278809D01*
X44550Y278713D01*
X44521Y278618D01*
X44488Y278525D01*
X44451Y278432D01*
X44411Y278341D01*
X44367Y278252D01*
X44319Y278165D01*
X44269Y278079D01*
X44214Y277996D01*
X44157Y277915D01*
X44096Y277836D01*
X44033Y277760D01*
X43966Y277686D01*
X43896Y277615D01*
X43824Y277547D01*
X43749Y277482D01*
X43672Y277420D01*
X43592Y277361D01*
X43509Y277305D01*
X43425Y277253D01*
X43339Y277203D01*
X43250Y277158D01*
X43160Y277116D01*
X43069Y277077D01*
X42976Y277042D01*
X42881Y277011D01*
X42786Y276984D01*
X42689Y276961D01*
X42592Y276941D01*
X42494Y276925D01*
X42395Y276913D01*
X42296Y276905D01*
X42197Y276901D01*
X42097Y276901D01*
X41998Y276905D01*
X41899Y276913D01*
X41800Y276925D01*
X41702Y276941D01*
X41605Y276961D01*
X41508Y276984D01*
X41413Y277011D01*
X41318Y277042D01*
X41225Y277077D01*
X41134Y277116D01*
X41044Y277158D01*
X40955Y277203D01*
X40869Y277253D01*
X40785Y277305D01*
X40702Y277361D01*
X40622Y277420D01*
X40545Y277482D01*
X40470Y277547D01*
X40398Y277615D01*
X40328Y277686D01*
X40261Y277760D01*
X40198Y277836D01*
X40137Y277915D01*
X40080Y277996D01*
X40025Y278079D01*
X39975Y278165D01*
X39927Y278252D01*
X39883Y278341D01*
X39843Y278432D01*
X39806Y278525D01*
X39773Y278618D01*
X39744Y278713D01*
X39719Y278809D01*
X39697Y278906D01*
X39680Y279004D01*
X39666Y279103D01*
X39656Y279201D01*
X39650Y279301D01*
X39648Y279400D01*
D17*
X16408Y300272D02*
X18864Y302728D01*
X17636Y301500D02*
X10266Y308870D01*
X9038Y307642D02*
X11494Y310098D01*
X17684Y316288D02*
X20141Y316288D01*
X17684Y316288D02*
X15227Y313831D01*
X15227Y311375D01*
X20141Y306461D01*
X22597Y306461D01*
X25054Y308918D01*
X25054Y311375D01*
X23898Y317588D02*
X23898Y322502D01*
X31268Y315132D01*
X33724Y317588D02*
X28811Y312675D01*
D12*
X59690Y533400D02*
X194310Y533400D01*
X118110Y25400D02*
X59690Y25400D01*
X138430Y25400D02*
X194310Y25400D01*
X138430Y25400D02*
X138427Y25647D01*
X138418Y25895D01*
X138403Y26142D01*
X138382Y26388D01*
X138355Y26634D01*
X138322Y26879D01*
X138283Y27124D01*
X138238Y27367D01*
X138187Y27609D01*
X138130Y27850D01*
X138068Y28089D01*
X137999Y28327D01*
X137925Y28563D01*
X137845Y28797D01*
X137760Y29029D01*
X137668Y29259D01*
X137572Y29487D01*
X137469Y29712D01*
X137362Y29935D01*
X137248Y30155D01*
X137130Y30372D01*
X137006Y30587D01*
X136877Y30798D01*
X136743Y31006D01*
X136604Y31211D01*
X136460Y31412D01*
X136312Y31610D01*
X136158Y31804D01*
X136000Y31994D01*
X135837Y32180D01*
X135670Y32362D01*
X135498Y32540D01*
X135322Y32714D01*
X135142Y32884D01*
X134957Y33049D01*
X134769Y33209D01*
X134577Y33365D01*
X134381Y33517D01*
X134182Y33663D01*
X133979Y33805D01*
X133772Y33941D01*
X133563Y34073D01*
X133350Y34199D01*
X133134Y34320D01*
X132916Y34436D01*
X132694Y34546D01*
X132470Y34651D01*
X132244Y34751D01*
X132015Y34845D01*
X131784Y34933D01*
X131550Y35016D01*
X131315Y35093D01*
X131078Y35164D01*
X130840Y35230D01*
X130600Y35289D01*
X130358Y35343D01*
X130115Y35391D01*
X129872Y35433D01*
X129627Y35469D01*
X129381Y35499D01*
X129135Y35523D01*
X128888Y35541D01*
X128641Y35553D01*
X128394Y35559D01*
X128146Y35559D01*
X127899Y35553D01*
X127652Y35541D01*
X127405Y35523D01*
X127159Y35499D01*
X126913Y35469D01*
X126668Y35433D01*
X126425Y35391D01*
X126182Y35343D01*
X125940Y35289D01*
X125700Y35230D01*
X125462Y35164D01*
X125225Y35093D01*
X124990Y35016D01*
X124756Y34933D01*
X124525Y34845D01*
X124296Y34751D01*
X124070Y34651D01*
X123846Y34546D01*
X123624Y34436D01*
X123406Y34320D01*
X123190Y34199D01*
X122977Y34073D01*
X122768Y33941D01*
X122561Y33805D01*
X122358Y33663D01*
X122159Y33517D01*
X121963Y33365D01*
X121771Y33209D01*
X121583Y33049D01*
X121398Y32884D01*
X121218Y32714D01*
X121042Y32540D01*
X120870Y32362D01*
X120703Y32180D01*
X120540Y31994D01*
X120382Y31804D01*
X120228Y31610D01*
X120080Y31412D01*
X119936Y31211D01*
X119797Y31006D01*
X119663Y30798D01*
X119534Y30587D01*
X119410Y30372D01*
X119292Y30155D01*
X119178Y29935D01*
X119071Y29712D01*
X118968Y29487D01*
X118872Y29259D01*
X118780Y29029D01*
X118695Y28797D01*
X118615Y28563D01*
X118541Y28327D01*
X118472Y28089D01*
X118410Y27850D01*
X118353Y27609D01*
X118302Y27367D01*
X118257Y27124D01*
X118218Y26879D01*
X118185Y26634D01*
X118158Y26388D01*
X118137Y26142D01*
X118122Y25895D01*
X118113Y25647D01*
X118110Y25400D01*
X150144Y3302D02*
X155568Y3302D01*
X152856Y3302D02*
X152856Y19572D01*
X150144Y19572D02*
X155568Y19572D01*
X169194Y19572D02*
X171905Y16860D01*
X169194Y19572D02*
X163770Y19572D01*
X161059Y16860D01*
X161059Y6014D01*
X163770Y3302D01*
X169194Y3302D01*
X171905Y6014D01*
X177430Y3302D02*
X188277Y3302D01*
X177430Y3302D02*
X188277Y14149D01*
X188277Y16860D01*
X185565Y19572D01*
X180142Y19572D01*
X177430Y16860D01*
X255588Y539750D02*
X255588Y552450D01*
X255588Y539750D02*
X249238Y533400D01*
X236538Y533400D02*
X230188Y539750D01*
X249238Y533400D02*
X255588Y527050D01*
X255588Y514350D01*
X249238Y508000D01*
X236538Y508000D02*
X230188Y514350D01*
X230188Y527050D01*
X236538Y533400D01*
X236538Y558800D02*
X249238Y558800D01*
X255588Y552450D01*
X236538Y558800D02*
X230188Y552450D01*
X230188Y539750D01*
X249238Y508000D02*
X255588Y501650D01*
X255588Y488950D01*
X249238Y482600D01*
X236538Y482600D02*
X230188Y488950D01*
X230188Y501650D01*
X236538Y508000D01*
X255588Y476250D02*
X255588Y463550D01*
X249238Y457200D01*
X236538Y457200D02*
X230188Y463550D01*
X249238Y457200D02*
X255588Y450850D01*
X255588Y438150D01*
X249238Y431800D01*
X236538Y431800D02*
X230188Y438150D01*
X230188Y450850D01*
X236538Y457200D01*
X255588Y476250D02*
X249238Y482600D01*
X236538Y482600D02*
X230188Y476250D01*
X230188Y463550D01*
X249238Y431800D02*
X255588Y425450D01*
X255588Y412750D01*
X249238Y406400D01*
X236538Y406400D02*
X230188Y412750D01*
X230188Y425450D01*
X236538Y431800D01*
X236538Y406400D02*
X249238Y406400D01*
D17*
X226753Y553128D02*
X223703Y556178D01*
X232855Y556178D01*
X232855Y553128D02*
X232855Y559229D01*
X253548Y408417D02*
X255073Y405366D01*
X258124Y402315D01*
X261174Y402315D01*
X262700Y403841D01*
X262700Y406891D01*
X261174Y408417D01*
X259649Y408417D01*
X258124Y406891D01*
X258124Y402315D01*
D12*
X230188Y347663D02*
X230188Y334963D01*
X230188Y347663D02*
X236538Y354013D01*
X249238Y354013D02*
X255588Y347663D01*
X236538Y354013D02*
X230188Y360363D01*
X230188Y373063D01*
X236538Y379413D01*
X249238Y379413D02*
X255588Y373063D01*
X255588Y360363D01*
X249238Y354013D01*
X249238Y328613D02*
X236538Y328613D01*
X230188Y334963D01*
X249238Y328613D02*
X255588Y334963D01*
X255588Y347663D01*
X236538Y379413D02*
X230188Y385763D01*
X230188Y398463D01*
X236538Y404813D01*
X249238Y404813D02*
X255588Y398463D01*
X255588Y385763D01*
X249238Y379413D01*
X249238Y404813D02*
X236538Y404813D01*
D11*
X237163Y320361D02*
X240976Y316548D01*
X237163Y320361D02*
X248603Y320361D01*
X248603Y316548D02*
X248603Y324174D01*
D17*
X135870Y37602D02*
X135870Y25908D01*
X135870Y37602D02*
X141717Y37602D01*
X143666Y35653D01*
X143666Y31755D01*
X141717Y29806D01*
X135870Y29806D01*
X139768Y29806D02*
X143666Y25908D01*
X147564Y37602D02*
X155360Y37602D01*
X155360Y35653D01*
X147564Y27857D01*
X147564Y25908D01*
M02*
