G04 EAGLE Gerber RS-274X export*
G75*
%MOMM*%
%FSLAX34Y34*%
%LPD*%
%INSoldermask Bottom*%
%IPPOS*%
%AMOC8*
5,1,8,0,0,1.08239X$1,22.5*%
G01*
%ADD10R,1.703200X2.203200*%
%ADD11P,2.006968X8X22.500000*%
%ADD12P,1.787026X8X202.500000*%
%ADD13C,1.879600*%
%ADD14R,2.235200X0.863600*%
%ADD15R,1.503200X1.803200*%
%ADD16P,2.034460X8X22.500000*%
%ADD17P,2.034460X8X202.500000*%
%ADD18P,1.292157X8X22.500000*%
%ADD19C,1.270000*%
%ADD20C,1.193800*%


D10*
X151525Y263525D03*
X121525Y263525D03*
D11*
X19050Y203200D03*
X19475Y155250D03*
X138113Y461963D03*
X246063Y280988D03*
D12*
X203200Y38100D03*
X203200Y63500D03*
X203200Y190500D03*
X203200Y215900D03*
X203200Y88900D03*
X203200Y114300D03*
X203200Y165100D03*
X203200Y139700D03*
X203200Y342900D03*
X203200Y368300D03*
X203200Y393700D03*
X203200Y419100D03*
X203200Y444500D03*
X203200Y469900D03*
X203200Y495300D03*
X203200Y520700D03*
X50800Y520700D03*
X50800Y495300D03*
X50800Y469900D03*
X50800Y444500D03*
X50800Y419100D03*
X50800Y393700D03*
X50800Y368300D03*
X50800Y342900D03*
X50800Y215900D03*
X50800Y190500D03*
X50800Y165100D03*
X50800Y139700D03*
X50800Y114300D03*
X50800Y88900D03*
X50800Y63500D03*
X50800Y38100D03*
D13*
X50800Y241300D03*
X50800Y266700D03*
X50800Y292100D03*
X50800Y317500D03*
X203200Y241300D03*
X203200Y266700D03*
X203200Y292100D03*
X203200Y317500D03*
D14*
X99441Y358775D03*
X160909Y358775D03*
X99441Y371475D03*
X99441Y384175D03*
X160909Y371475D03*
X160909Y384175D03*
X99441Y396875D03*
X160909Y396875D03*
X99441Y409575D03*
X160909Y409575D03*
X99441Y422275D03*
X99441Y434975D03*
X160909Y422275D03*
X160909Y434975D03*
X99441Y447675D03*
X160909Y447675D03*
D15*
X107975Y482600D03*
X126975Y482600D03*
X107975Y508000D03*
X126975Y508000D03*
X107975Y533400D03*
X126975Y533400D03*
X177775Y533400D03*
X158775Y533400D03*
X177775Y508000D03*
X158775Y508000D03*
X177775Y482600D03*
X158775Y482600D03*
D16*
X242888Y546100D03*
X242888Y520700D03*
X242888Y495300D03*
X242888Y469900D03*
X242888Y444500D03*
X242888Y419100D03*
D17*
X242888Y341313D03*
X242888Y366713D03*
X242888Y392113D03*
D18*
X68263Y266700D03*
X80963Y304292D03*
X153480Y334455D03*
X106109Y342900D03*
X103188Y233363D03*
X177800Y247650D03*
X154242Y223838D03*
X188913Y277813D03*
X119063Y447675D03*
X98425Y273050D03*
D19*
X139700Y311150D03*
D18*
X176213Y314325D03*
X233363Y312738D03*
X219075Y230188D03*
X234950Y249238D03*
X95250Y317500D03*
X222250Y325438D03*
X142367Y345567D03*
X33338Y327025D03*
D20*
X19050Y285750D03*
X15875Y269875D03*
D18*
X36513Y230188D03*
X28575Y381000D03*
X87313Y500063D03*
X85725Y517525D03*
X28575Y406400D03*
X142875Y522288D03*
X142875Y495300D03*
X165100Y323850D03*
M02*
